<?xml version="1.0" encoding="utf-8" standalone="no"?>
<!DOCTYPE svg PUBLIC "-//W3C//DTD SVG 1.1//EN"
  "http://www.w3.org/Graphics/SVG/1.1/DTD/svg11.dtd">
<svg xmlns:xlink="http://www.w3.org/1999/xlink" width="576pt" height="360pt" viewBox="0 0 576 360" xmlns="http://www.w3.org/2000/svg" version="1.1">
 <metadata>
  <rdf:RDF xmlns:dc="http://purl.org/dc/elements/1.1/" xmlns:cc="http://creativecommons.org/ns#" xmlns:rdf="http://www.w3.org/1999/02/22-rdf-syntax-ns#">
   <cc:Work>
    <dc:type rdf:resource="http://purl.org/dc/dcmitype/StillImage"/>
    <dc:date>2026-01-31T09:47:29.094724</dc:date>
    <dc:format>image/svg+xml</dc:format>
    <dc:creator>
     <cc:Agent>
      <dc:title>Matplotlib v3.7.5, https://matplotlib.org/</dc:title>
     </cc:Agent>
    </dc:creator>
   </cc:Work>
  </rdf:RDF>
 </metadata>
 <defs>
  <style type="text/css">*{stroke-linejoin: round; stroke-linecap: butt}</style>
 </defs>
 <g id="figure_1">
  <g id="patch_1">
   <path d="M 0 360 
L 576 360 
L 576 0 
L 0 0 
z
" style="fill: #ffffff"/>
  </g>
  <g id="axes_1">
   <g id="patch_2">
    <path d="M 72 320.4 
L 518.4 320.4 
L 518.4 43.2 
L 72 43.2 
z
" style="fill: #ffffff"/>
   </g>
   <g id="matplotlib.axis_1">
    <g id="xtick_1">
     <g id="line2d_1">
      <defs>
       <path id="m48cf7ebdc1" d="M 0 0 
L 0 3.5 
" style="stroke: #000000; stroke-width: 0.8"/>
      </defs>
      <g>
       <use xlink:href="#m48cf7ebdc1" x="92.290909" y="320.4" style="stroke: #000000; stroke-width: 0.8"/>
      </g>
     </g>
     <g id="text_1">
      <!-- 0 -->
      <g transform="translate(89.109659 334.998438) scale(0.1 -0.1)">
       <defs>
        <path id="DejaVuSans-30" d="M 2034 4250 
Q 1547 4250 1301 3770 
Q 1056 3291 1056 2328 
Q 1056 1369 1301 889 
Q 1547 409 2034 409 
Q 2525 409 2770 889 
Q 3016 1369 3016 2328 
Q 3016 3291 2770 3770 
Q 2525 4250 2034 4250 
z
M 2034 4750 
Q 2819 4750 3233 4129 
Q 3647 3509 3647 2328 
Q 3647 1150 3233 529 
Q 2819 -91 2034 -91 
Q 1250 -91 836 529 
Q 422 1150 422 2328 
Q 422 3509 836 4129 
Q 1250 4750 2034 4750 
z
" transform="scale(0.015625)"/>
       </defs>
       <use xlink:href="#DejaVuSans-30"/>
      </g>
     </g>
    </g>
    <g id="xtick_2">
     <g id="line2d_2">
      <g>
       <use xlink:href="#m48cf7ebdc1" x="160.040188" y="320.4" style="stroke: #000000; stroke-width: 0.8"/>
      </g>
     </g>
     <g id="text_2">
      <!-- 100 -->
      <g transform="translate(150.496438 334.998438) scale(0.1 -0.1)">
       <defs>
        <path id="DejaVuSans-31" d="M 794 531 
L 1825 531 
L 1825 4091 
L 703 3866 
L 703 4441 
L 1819 4666 
L 2450 4666 
L 2450 531 
L 3481 531 
L 3481 0 
L 794 0 
L 794 531 
z
" transform="scale(0.015625)"/>
       </defs>
       <use xlink:href="#DejaVuSans-31"/>
       <use xlink:href="#DejaVuSans-30" x="63.623047"/>
       <use xlink:href="#DejaVuSans-30" x="127.246094"/>
      </g>
     </g>
    </g>
    <g id="xtick_3">
     <g id="line2d_3">
      <g>
       <use xlink:href="#m48cf7ebdc1" x="227.789467" y="320.4" style="stroke: #000000; stroke-width: 0.8"/>
      </g>
     </g>
     <g id="text_3">
      <!-- 200 -->
      <g transform="translate(218.245717 334.998438) scale(0.1 -0.1)">
       <defs>
        <path id="DejaVuSans-32" d="M 1228 531 
L 3431 531 
L 3431 0 
L 469 0 
L 469 531 
Q 828 903 1448 1529 
Q 2069 2156 2228 2338 
Q 2531 2678 2651 2914 
Q 2772 3150 2772 3378 
Q 2772 3750 2511 3984 
Q 2250 4219 1831 4219 
Q 1534 4219 1204 4116 
Q 875 4013 500 3803 
L 500 4441 
Q 881 4594 1212 4672 
Q 1544 4750 1819 4750 
Q 2544 4750 2975 4387 
Q 3406 4025 3406 3419 
Q 3406 3131 3298 2873 
Q 3191 2616 2906 2266 
Q 2828 2175 2409 1742 
Q 1991 1309 1228 531 
z
" transform="scale(0.015625)"/>
       </defs>
       <use xlink:href="#DejaVuSans-32"/>
       <use xlink:href="#DejaVuSans-30" x="63.623047"/>
       <use xlink:href="#DejaVuSans-30" x="127.246094"/>
      </g>
     </g>
    </g>
    <g id="xtick_4">
     <g id="line2d_4">
      <g>
       <use xlink:href="#m48cf7ebdc1" x="295.538746" y="320.4" style="stroke: #000000; stroke-width: 0.8"/>
      </g>
     </g>
     <g id="text_4">
      <!-- 300 -->
      <g transform="translate(285.994996 334.998438) scale(0.1 -0.1)">
       <defs>
        <path id="DejaVuSans-33" d="M 2597 2516 
Q 3050 2419 3304 2112 
Q 3559 1806 3559 1356 
Q 3559 666 3084 287 
Q 2609 -91 1734 -91 
Q 1441 -91 1130 -33 
Q 819 25 488 141 
L 488 750 
Q 750 597 1062 519 
Q 1375 441 1716 441 
Q 2309 441 2620 675 
Q 2931 909 2931 1356 
Q 2931 1769 2642 2001 
Q 2353 2234 1838 2234 
L 1294 2234 
L 1294 2753 
L 1863 2753 
Q 2328 2753 2575 2939 
Q 2822 3125 2822 3475 
Q 2822 3834 2567 4026 
Q 2313 4219 1838 4219 
Q 1578 4219 1281 4162 
Q 984 4106 628 3988 
L 628 4550 
Q 988 4650 1302 4700 
Q 1616 4750 1894 4750 
Q 2613 4750 3031 4423 
Q 3450 4097 3450 3541 
Q 3450 3153 3228 2886 
Q 3006 2619 2597 2516 
z
" transform="scale(0.015625)"/>
       </defs>
       <use xlink:href="#DejaVuSans-33"/>
       <use xlink:href="#DejaVuSans-30" x="63.623047"/>
       <use xlink:href="#DejaVuSans-30" x="127.246094"/>
      </g>
     </g>
    </g>
    <g id="xtick_5">
     <g id="line2d_5">
      <g>
       <use xlink:href="#m48cf7ebdc1" x="363.288025" y="320.4" style="stroke: #000000; stroke-width: 0.8"/>
      </g>
     </g>
     <g id="text_5">
      <!-- 400 -->
      <g transform="translate(353.744275 334.998438) scale(0.1 -0.1)">
       <defs>
        <path id="DejaVuSans-34" d="M 2419 4116 
L 825 1625 
L 2419 1625 
L 2419 4116 
z
M 2253 4666 
L 3047 4666 
L 3047 1625 
L 3713 1625 
L 3713 1100 
L 3047 1100 
L 3047 0 
L 2419 0 
L 2419 1100 
L 313 1100 
L 313 1709 
L 2253 4666 
z
" transform="scale(0.015625)"/>
       </defs>
       <use xlink:href="#DejaVuSans-34"/>
       <use xlink:href="#DejaVuSans-30" x="63.623047"/>
       <use xlink:href="#DejaVuSans-30" x="127.246094"/>
      </g>
     </g>
    </g>
    <g id="xtick_6">
     <g id="line2d_6">
      <g>
       <use xlink:href="#m48cf7ebdc1" x="431.037305" y="320.4" style="stroke: #000000; stroke-width: 0.8"/>
      </g>
     </g>
     <g id="text_6">
      <!-- 500 -->
      <g transform="translate(421.493555 334.998438) scale(0.1 -0.1)">
       <defs>
        <path id="DejaVuSans-35" d="M 691 4666 
L 3169 4666 
L 3169 4134 
L 1269 4134 
L 1269 2991 
Q 1406 3038 1543 3061 
Q 1681 3084 1819 3084 
Q 2600 3084 3056 2656 
Q 3513 2228 3513 1497 
Q 3513 744 3044 326 
Q 2575 -91 1722 -91 
Q 1428 -91 1123 -41 
Q 819 9 494 109 
L 494 744 
Q 775 591 1075 516 
Q 1375 441 1709 441 
Q 2250 441 2565 725 
Q 2881 1009 2881 1497 
Q 2881 1984 2565 2268 
Q 2250 2553 1709 2553 
Q 1456 2553 1204 2497 
Q 953 2441 691 2322 
L 691 4666 
z
" transform="scale(0.015625)"/>
       </defs>
       <use xlink:href="#DejaVuSans-35"/>
       <use xlink:href="#DejaVuSans-30" x="63.623047"/>
       <use xlink:href="#DejaVuSans-30" x="127.246094"/>
      </g>
     </g>
    </g>
    <g id="xtick_7">
     <g id="line2d_7">
      <g>
       <use xlink:href="#m48cf7ebdc1" x="498.786584" y="320.4" style="stroke: #000000; stroke-width: 0.8"/>
      </g>
     </g>
     <g id="text_7">
      <!-- 600 -->
      <g transform="translate(489.242834 334.998438) scale(0.1 -0.1)">
       <defs>
        <path id="DejaVuSans-36" d="M 2113 2584 
Q 1688 2584 1439 2293 
Q 1191 2003 1191 1497 
Q 1191 994 1439 701 
Q 1688 409 2113 409 
Q 2538 409 2786 701 
Q 3034 994 3034 1497 
Q 3034 2003 2786 2293 
Q 2538 2584 2113 2584 
z
M 3366 4563 
L 3366 3988 
Q 3128 4100 2886 4159 
Q 2644 4219 2406 4219 
Q 1781 4219 1451 3797 
Q 1122 3375 1075 2522 
Q 1259 2794 1537 2939 
Q 1816 3084 2150 3084 
Q 2853 3084 3261 2657 
Q 3669 2231 3669 1497 
Q 3669 778 3244 343 
Q 2819 -91 2113 -91 
Q 1303 -91 875 529 
Q 447 1150 447 2328 
Q 447 3434 972 4092 
Q 1497 4750 2381 4750 
Q 2619 4750 2861 4703 
Q 3103 4656 3366 4563 
z
" transform="scale(0.015625)"/>
       </defs>
       <use xlink:href="#DejaVuSans-36"/>
       <use xlink:href="#DejaVuSans-30" x="63.623047"/>
       <use xlink:href="#DejaVuSans-30" x="127.246094"/>
      </g>
     </g>
    </g>
    <g id="text_8">
     <!-- Time (s) -->
     <g transform="translate(266.739531 351.715937) scale(0.14 -0.14)">
      <defs>
       <path id="DejaVuSans-54" d="M -19 4666 
L 3928 4666 
L 3928 4134 
L 2272 4134 
L 2272 0 
L 1638 0 
L 1638 4134 
L -19 4134 
L -19 4666 
z
" transform="scale(0.015625)"/>
       <path id="DejaVuSans-69" d="M 603 3500 
L 1178 3500 
L 1178 0 
L 603 0 
L 603 3500 
z
M 603 4863 
L 1178 4863 
L 1178 4134 
L 603 4134 
L 603 4863 
z
" transform="scale(0.015625)"/>
       <path id="DejaVuSans-6d" d="M 3328 2828 
Q 3544 3216 3844 3400 
Q 4144 3584 4550 3584 
Q 5097 3584 5394 3201 
Q 5691 2819 5691 2113 
L 5691 0 
L 5113 0 
L 5113 2094 
Q 5113 2597 4934 2840 
Q 4756 3084 4391 3084 
Q 3944 3084 3684 2787 
Q 3425 2491 3425 1978 
L 3425 0 
L 2847 0 
L 2847 2094 
Q 2847 2600 2669 2842 
Q 2491 3084 2119 3084 
Q 1678 3084 1418 2786 
Q 1159 2488 1159 1978 
L 1159 0 
L 581 0 
L 581 3500 
L 1159 3500 
L 1159 2956 
Q 1356 3278 1631 3431 
Q 1906 3584 2284 3584 
Q 2666 3584 2933 3390 
Q 3200 3197 3328 2828 
z
" transform="scale(0.015625)"/>
       <path id="DejaVuSans-65" d="M 3597 1894 
L 3597 1613 
L 953 1613 
Q 991 1019 1311 708 
Q 1631 397 2203 397 
Q 2534 397 2845 478 
Q 3156 559 3463 722 
L 3463 178 
Q 3153 47 2828 -22 
Q 2503 -91 2169 -91 
Q 1331 -91 842 396 
Q 353 884 353 1716 
Q 353 2575 817 3079 
Q 1281 3584 2069 3584 
Q 2775 3584 3186 3129 
Q 3597 2675 3597 1894 
z
M 3022 2063 
Q 3016 2534 2758 2815 
Q 2500 3097 2075 3097 
Q 1594 3097 1305 2825 
Q 1016 2553 972 2059 
L 3022 2063 
z
" transform="scale(0.015625)"/>
       <path id="DejaVuSans-20" transform="scale(0.015625)"/>
       <path id="DejaVuSans-28" d="M 1984 4856 
Q 1566 4138 1362 3434 
Q 1159 2731 1159 2009 
Q 1159 1288 1364 580 
Q 1569 -128 1984 -844 
L 1484 -844 
Q 1016 -109 783 600 
Q 550 1309 550 2009 
Q 550 2706 781 3412 
Q 1013 4119 1484 4856 
L 1984 4856 
z
" transform="scale(0.015625)"/>
       <path id="DejaVuSans-73" d="M 2834 3397 
L 2834 2853 
Q 2591 2978 2328 3040 
Q 2066 3103 1784 3103 
Q 1356 3103 1142 2972 
Q 928 2841 928 2578 
Q 928 2378 1081 2264 
Q 1234 2150 1697 2047 
L 1894 2003 
Q 2506 1872 2764 1633 
Q 3022 1394 3022 966 
Q 3022 478 2636 193 
Q 2250 -91 1575 -91 
Q 1294 -91 989 -36 
Q 684 19 347 128 
L 347 722 
Q 666 556 975 473 
Q 1284 391 1588 391 
Q 1994 391 2212 530 
Q 2431 669 2431 922 
Q 2431 1156 2273 1281 
Q 2116 1406 1581 1522 
L 1381 1569 
Q 847 1681 609 1914 
Q 372 2147 372 2553 
Q 372 3047 722 3315 
Q 1072 3584 1716 3584 
Q 2034 3584 2315 3537 
Q 2597 3491 2834 3397 
z
" transform="scale(0.015625)"/>
       <path id="DejaVuSans-29" d="M 513 4856 
L 1013 4856 
Q 1481 4119 1714 3412 
Q 1947 2706 1947 2009 
Q 1947 1309 1714 600 
Q 1481 -109 1013 -844 
L 513 -844 
Q 928 -128 1133 580 
Q 1338 1288 1338 2009 
Q 1338 2731 1133 3434 
Q 928 4138 513 4856 
z
" transform="scale(0.015625)"/>
      </defs>
      <use xlink:href="#DejaVuSans-54"/>
      <use xlink:href="#DejaVuSans-69" x="57.958984"/>
      <use xlink:href="#DejaVuSans-6d" x="85.742188"/>
      <use xlink:href="#DejaVuSans-65" x="183.154297"/>
      <use xlink:href="#DejaVuSans-20" x="244.677734"/>
      <use xlink:href="#DejaVuSans-28" x="276.464844"/>
      <use xlink:href="#DejaVuSans-73" x="315.478516"/>
      <use xlink:href="#DejaVuSans-29" x="367.578125"/>
     </g>
    </g>
   </g>
   <g id="matplotlib.axis_2">
    <g id="ytick_1">
     <g id="line2d_8">
      <defs>
       <path id="m4727e22515" d="M 0 0 
L -3.5 0 
" style="stroke: #000000; stroke-width: 0.8"/>
      </defs>
      <g>
       <use xlink:href="#m4727e22515" x="72" y="307.8" style="stroke: #000000; stroke-width: 0.8"/>
      </g>
     </g>
     <g id="text_9">
      <!-- 0 -->
      <g transform="translate(58.6375 311.599219) scale(0.1 -0.1)">
       <use xlink:href="#DejaVuSans-30"/>
      </g>
     </g>
    </g>
    <g id="ytick_2">
     <g id="line2d_9">
      <g>
       <use xlink:href="#m4727e22515" x="72" y="257.4" style="stroke: #000000; stroke-width: 0.8"/>
      </g>
     </g>
     <g id="text_10">
      <!-- 2 -->
      <g transform="translate(58.6375 261.199219) scale(0.1 -0.1)">
       <use xlink:href="#DejaVuSans-32"/>
      </g>
     </g>
    </g>
    <g id="ytick_3">
     <g id="line2d_10">
      <g>
       <use xlink:href="#m4727e22515" x="72" y="207" style="stroke: #000000; stroke-width: 0.8"/>
      </g>
     </g>
     <g id="text_11">
      <!-- 4 -->
      <g transform="translate(58.6375 210.799219) scale(0.1 -0.1)">
       <use xlink:href="#DejaVuSans-34"/>
      </g>
     </g>
    </g>
    <g id="ytick_4">
     <g id="line2d_11">
      <g>
       <use xlink:href="#m4727e22515" x="72" y="156.6" style="stroke: #000000; stroke-width: 0.8"/>
      </g>
     </g>
     <g id="text_12">
      <!-- 6 -->
      <g transform="translate(58.6375 160.399219) scale(0.1 -0.1)">
       <use xlink:href="#DejaVuSans-36"/>
      </g>
     </g>
    </g>
    <g id="ytick_5">
     <g id="line2d_12">
      <g>
       <use xlink:href="#m4727e22515" x="72" y="106.2" style="stroke: #000000; stroke-width: 0.8"/>
      </g>
     </g>
     <g id="text_13">
      <!-- 8 -->
      <g transform="translate(58.6375 109.999219) scale(0.1 -0.1)">
       <defs>
        <path id="DejaVuSans-38" d="M 2034 2216 
Q 1584 2216 1326 1975 
Q 1069 1734 1069 1313 
Q 1069 891 1326 650 
Q 1584 409 2034 409 
Q 2484 409 2743 651 
Q 3003 894 3003 1313 
Q 3003 1734 2745 1975 
Q 2488 2216 2034 2216 
z
M 1403 2484 
Q 997 2584 770 2862 
Q 544 3141 544 3541 
Q 544 4100 942 4425 
Q 1341 4750 2034 4750 
Q 2731 4750 3128 4425 
Q 3525 4100 3525 3541 
Q 3525 3141 3298 2862 
Q 3072 2584 2669 2484 
Q 3125 2378 3379 2068 
Q 3634 1759 3634 1313 
Q 3634 634 3220 271 
Q 2806 -91 2034 -91 
Q 1263 -91 848 271 
Q 434 634 434 1313 
Q 434 1759 690 2068 
Q 947 2378 1403 2484 
z
M 1172 3481 
Q 1172 3119 1398 2916 
Q 1625 2713 2034 2713 
Q 2441 2713 2670 2916 
Q 2900 3119 2900 3481 
Q 2900 3844 2670 4047 
Q 2441 4250 2034 4250 
Q 1625 4250 1398 4047 
Q 1172 3844 1172 3481 
z
" transform="scale(0.015625)"/>
       </defs>
       <use xlink:href="#DejaVuSans-38"/>
      </g>
     </g>
    </g>
    <g id="ytick_6">
     <g id="line2d_13">
      <g>
       <use xlink:href="#m4727e22515" x="72" y="55.8" style="stroke: #000000; stroke-width: 0.8"/>
      </g>
     </g>
     <g id="text_14">
      <!-- 10 -->
      <g transform="translate(52.275 59.599219) scale(0.1 -0.1)">
       <use xlink:href="#DejaVuSans-31"/>
       <use xlink:href="#DejaVuSans-30" x="63.623047"/>
      </g>
     </g>
    </g>
    <g id="text_15">
     <!-- Bandwidth (Mbps) -->
     <g transform="translate(45.363437 245.327187) rotate(-90) scale(0.14 -0.14)">
      <defs>
       <path id="DejaVuSans-42" d="M 1259 2228 
L 1259 519 
L 2272 519 
Q 2781 519 3026 730 
Q 3272 941 3272 1375 
Q 3272 1813 3026 2020 
Q 2781 2228 2272 2228 
L 1259 2228 
z
M 1259 4147 
L 1259 2741 
L 2194 2741 
Q 2656 2741 2882 2914 
Q 3109 3088 3109 3444 
Q 3109 3797 2882 3972 
Q 2656 4147 2194 4147 
L 1259 4147 
z
M 628 4666 
L 2241 4666 
Q 2963 4666 3353 4366 
Q 3744 4066 3744 3513 
Q 3744 3084 3544 2831 
Q 3344 2578 2956 2516 
Q 3422 2416 3680 2098 
Q 3938 1781 3938 1306 
Q 3938 681 3513 340 
Q 3088 0 2303 0 
L 628 0 
L 628 4666 
z
" transform="scale(0.015625)"/>
       <path id="DejaVuSans-61" d="M 2194 1759 
Q 1497 1759 1228 1600 
Q 959 1441 959 1056 
Q 959 750 1161 570 
Q 1363 391 1709 391 
Q 2188 391 2477 730 
Q 2766 1069 2766 1631 
L 2766 1759 
L 2194 1759 
z
M 3341 1997 
L 3341 0 
L 2766 0 
L 2766 531 
Q 2569 213 2275 61 
Q 1981 -91 1556 -91 
Q 1019 -91 701 211 
Q 384 513 384 1019 
Q 384 1609 779 1909 
Q 1175 2209 1959 2209 
L 2766 2209 
L 2766 2266 
Q 2766 2663 2505 2880 
Q 2244 3097 1772 3097 
Q 1472 3097 1187 3025 
Q 903 2953 641 2809 
L 641 3341 
Q 956 3463 1253 3523 
Q 1550 3584 1831 3584 
Q 2591 3584 2966 3190 
Q 3341 2797 3341 1997 
z
" transform="scale(0.015625)"/>
       <path id="DejaVuSans-6e" d="M 3513 2113 
L 3513 0 
L 2938 0 
L 2938 2094 
Q 2938 2591 2744 2837 
Q 2550 3084 2163 3084 
Q 1697 3084 1428 2787 
Q 1159 2491 1159 1978 
L 1159 0 
L 581 0 
L 581 3500 
L 1159 3500 
L 1159 2956 
Q 1366 3272 1645 3428 
Q 1925 3584 2291 3584 
Q 2894 3584 3203 3211 
Q 3513 2838 3513 2113 
z
" transform="scale(0.015625)"/>
       <path id="DejaVuSans-64" d="M 2906 2969 
L 2906 4863 
L 3481 4863 
L 3481 0 
L 2906 0 
L 2906 525 
Q 2725 213 2448 61 
Q 2172 -91 1784 -91 
Q 1150 -91 751 415 
Q 353 922 353 1747 
Q 353 2572 751 3078 
Q 1150 3584 1784 3584 
Q 2172 3584 2448 3432 
Q 2725 3281 2906 2969 
z
M 947 1747 
Q 947 1113 1208 752 
Q 1469 391 1925 391 
Q 2381 391 2643 752 
Q 2906 1113 2906 1747 
Q 2906 2381 2643 2742 
Q 2381 3103 1925 3103 
Q 1469 3103 1208 2742 
Q 947 2381 947 1747 
z
" transform="scale(0.015625)"/>
       <path id="DejaVuSans-77" d="M 269 3500 
L 844 3500 
L 1563 769 
L 2278 3500 
L 2956 3500 
L 3675 769 
L 4391 3500 
L 4966 3500 
L 4050 0 
L 3372 0 
L 2619 2869 
L 1863 0 
L 1184 0 
L 269 3500 
z
" transform="scale(0.015625)"/>
       <path id="DejaVuSans-74" d="M 1172 4494 
L 1172 3500 
L 2356 3500 
L 2356 3053 
L 1172 3053 
L 1172 1153 
Q 1172 725 1289 603 
Q 1406 481 1766 481 
L 2356 481 
L 2356 0 
L 1766 0 
Q 1100 0 847 248 
Q 594 497 594 1153 
L 594 3053 
L 172 3053 
L 172 3500 
L 594 3500 
L 594 4494 
L 1172 4494 
z
" transform="scale(0.015625)"/>
       <path id="DejaVuSans-68" d="M 3513 2113 
L 3513 0 
L 2938 0 
L 2938 2094 
Q 2938 2591 2744 2837 
Q 2550 3084 2163 3084 
Q 1697 3084 1428 2787 
Q 1159 2491 1159 1978 
L 1159 0 
L 581 0 
L 581 4863 
L 1159 4863 
L 1159 2956 
Q 1366 3272 1645 3428 
Q 1925 3584 2291 3584 
Q 2894 3584 3203 3211 
Q 3513 2838 3513 2113 
z
" transform="scale(0.015625)"/>
       <path id="DejaVuSans-4d" d="M 628 4666 
L 1569 4666 
L 2759 1491 
L 3956 4666 
L 4897 4666 
L 4897 0 
L 4281 0 
L 4281 4097 
L 3078 897 
L 2444 897 
L 1241 4097 
L 1241 0 
L 628 0 
L 628 4666 
z
" transform="scale(0.015625)"/>
       <path id="DejaVuSans-62" d="M 3116 1747 
Q 3116 2381 2855 2742 
Q 2594 3103 2138 3103 
Q 1681 3103 1420 2742 
Q 1159 2381 1159 1747 
Q 1159 1113 1420 752 
Q 1681 391 2138 391 
Q 2594 391 2855 752 
Q 3116 1113 3116 1747 
z
M 1159 2969 
Q 1341 3281 1617 3432 
Q 1894 3584 2278 3584 
Q 2916 3584 3314 3078 
Q 3713 2572 3713 1747 
Q 3713 922 3314 415 
Q 2916 -91 2278 -91 
Q 1894 -91 1617 61 
Q 1341 213 1159 525 
L 1159 0 
L 581 0 
L 581 4863 
L 1159 4863 
L 1159 2969 
z
" transform="scale(0.015625)"/>
       <path id="DejaVuSans-70" d="M 1159 525 
L 1159 -1331 
L 581 -1331 
L 581 3500 
L 1159 3500 
L 1159 2969 
Q 1341 3281 1617 3432 
Q 1894 3584 2278 3584 
Q 2916 3584 3314 3078 
Q 3713 2572 3713 1747 
Q 3713 922 3314 415 
Q 2916 -91 2278 -91 
Q 1894 -91 1617 61 
Q 1341 213 1159 525 
z
M 3116 1747 
Q 3116 2381 2855 2742 
Q 2594 3103 2138 3103 
Q 1681 3103 1420 2742 
Q 1159 2381 1159 1747 
Q 1159 1113 1420 752 
Q 1681 391 2138 391 
Q 2594 391 2855 752 
Q 3116 1113 3116 1747 
z
" transform="scale(0.015625)"/>
      </defs>
      <use xlink:href="#DejaVuSans-42"/>
      <use xlink:href="#DejaVuSans-61" x="68.603516"/>
      <use xlink:href="#DejaVuSans-6e" x="129.882812"/>
      <use xlink:href="#DejaVuSans-64" x="193.261719"/>
      <use xlink:href="#DejaVuSans-77" x="256.738281"/>
      <use xlink:href="#DejaVuSans-69" x="338.525391"/>
      <use xlink:href="#DejaVuSans-64" x="366.308594"/>
      <use xlink:href="#DejaVuSans-74" x="429.785156"/>
      <use xlink:href="#DejaVuSans-68" x="468.994141"/>
      <use xlink:href="#DejaVuSans-20" x="532.373047"/>
      <use xlink:href="#DejaVuSans-28" x="564.160156"/>
      <use xlink:href="#DejaVuSans-4d" x="603.173828"/>
      <use xlink:href="#DejaVuSans-62" x="689.453125"/>
      <use xlink:href="#DejaVuSans-70" x="752.929688"/>
      <use xlink:href="#DejaVuSans-73" x="816.40625"/>
      <use xlink:href="#DejaVuSans-29" x="868.505859"/>
     </g>
    </g>
   </g>
   <g id="line2d_14">
    <path d="M 92.290909 307.508103 
L 92.968402 307.508082 
L 93.645895 302.253919 
L 94.323387 302.545524 
L 95.00088 297.001022 
L 95.678373 297.289871 
L 96.355866 291.745556 
L 97.033359 292.037376 
L 97.710851 286.492672 
L 98.388344 286.78075 
L 99.065837 281.237405 
L 99.74333 281.52733 
L 100.420823 275.983011 
L 101.098315 276.27308 
L 101.775808 271.021535 
L 102.453301 270.725899 
L 103.130794 265.766712 
L 103.808287 265.763981 
L 104.485779 260.512646 
L 105.163272 260.509337 
L 105.840765 255.261283 
L 106.518258 255.547522 
L 107.19575 250.295784 
L 107.873243 250.000708 
L 108.550736 245.045107 
L 109.228229 245.034749 
L 109.905722 240.0795 
L 110.583214 239.783523 
L 111.260707 234.825254 
L 111.9382 235.113011 
L 112.615693 229.867412 
L 113.293186 229.854005 
L 113.970678 224.905906 
L 114.648171 224.89082 
L 115.325664 219.938312 
L 116.003157 219.933399 
L 116.68065 214.981412 
L 117.358142 214.965444 
L 118.035635 210.01384 
L 118.713128 210.300079 
L 119.390621 205.34397 
L 120.068114 205.337411 
L 120.745606 200.381276 
L 121.423099 200.666969 
L 122.100592 195.710563 
L 122.778085 195.70451 
L 123.455577 191.040281 
L 124.13307 191.041102 
L 124.810563 186.369892 
L 125.488056 186.362973 
L 126.165549 181.699504 
L 126.843041 181.984369 
L 127.520534 177.321279 
L 128.198027 177.314621 
L 128.87552 174.96419 
L 129.553013 170.573906 
L 130.230505 168.272419 
L 130.907998 168.556251 
L 131.585491 163.901708 
L 132.262984 164.172911 
L 132.940477 159.815947 
L 133.617969 159.498107 
L 134.295462 155.429021 
L 134.972955 155.428113 
L 135.650448 151.342294 
L 136.327941 151.333062 
L 137.005433 147.255712 
L 137.682926 147.045157 
L 138.360419 139.082387 
L 139.037912 139.365191 
L 139.715404 135.287701 
L 140.392897 135.278714 
L 141.07039 131.493014 
L 141.747883 131.482967 
L 142.425376 127.698499 
L 143.102868 127.979616 
L 143.780361 124.195539 
L 144.457854 124.184705 
L 145.135347 120.692372 
L 145.81284 120.390353 
L 146.490332 117.190918 
L 147.167825 116.88565 
L 147.845318 113.687176 
L 148.522811 113.675907 
L 149.200304 110.476287 
L 149.877796 110.173127 
L 150.555289 107.266187 
L 151.232782 106.961242 
L 151.910275 104.054704 
L 152.587767 103.76137 
L 153.26526 100.843818 
L 153.942753 100.831408 
L 154.620246 97.924405 
L 155.297739 97.912671 
L 155.975231 95.005412 
L 156.652724 94.993921 
L 157.330217 92.379397 
L 158.00771 92.073691 
L 158.685203 89.751667 
L 159.362695 89.446676 
L 160.040188 87.124368 
L 160.717681 86.819641 
L 161.395174 84.497277 
L 162.072667 84.497277 
L 162.750159 82.162301 
L 163.427652 82.149228 
L 164.105145 79.827111 
L 164.782638 79.813659 
L 165.460131 77.78382 
L 166.137623 77.478578 
L 166.815116 75.44816 
L 167.492609 75.729851 
L 168.170102 73.709181 
L 168.847594 73.379562 
L 169.525087 71.653722 
L 170.20258 71.642603 
L 170.880073 69.902555 
L 171.557566 69.888517 
L 172.235058 66.691181 
L 172.912551 66.385785 
L 173.590044 65.232176 
L 174.267537 64.927394 
L 174.94503 63.774137 
L 175.622522 63.75805 
L 176.300015 62.604854 
L 176.977508 62.299698 
L 177.655001 61.451529 
L 178.332494 61.118703 
L 179.009986 60.270134 
L 179.687479 60.256029 
L 180.364972 59.393461 
L 181.042465 59.37981 
L 181.719958 58.572337 
L 182.39745 60.201572 
L 183.074943 57.934202 
L 185.107421 57.044485 
L 185.784914 56.855177 
L 186.462407 62.796054 
L 187.1399 56.474705 
L 187.817393 62.006553 
L 188.494885 56.183076 
L 189.172378 58.211642 
L 189.849871 55.890907 
L 190.527364 57.044216 
L 191.204857 55.891177 
L 191.882349 57.92047 
L 192.559842 55.890907 
L 193.237335 61.131304 
L 193.914828 56.183076 
L 194.592321 59.37981 
L 195.269813 56.474975 
L 195.947306 56.168978 
L 196.624799 56.766874 
L 197.302292 56.7523 
L 197.979784 57.351657 
L 198.657277 57.042961 
L 199.33477 57.927709 
L 200.012263 58.502057 
L 200.689756 58.519011 
L 201.367248 59.086634 
L 202.044741 59.394705 
L 202.722234 59.37904 
L 203.399727 60.283263 
L 204.07722 60.244151 
L 204.754712 61.437258 
L 205.432205 61.130804 
L 206.109698 62.605087 
L 206.787191 62.305346 
L 207.464684 63.772449 
L 208.142176 63.75805 
L 208.819669 65.231944 
L 209.497162 64.926207 
L 210.174655 66.692158 
L 210.852148 66.386015 
L 211.52964 68.151163 
L 212.207133 68.137279 
L 212.884626 69.902328 
L 213.562119 69.889481 
L 214.239611 71.653469 
L 214.917104 71.641195 
L 215.594597 73.697015 
L 216.27209 73.391508 
L 216.949583 75.44863 
L 217.627075 75.726614 
L 218.304568 77.783601 
L 218.982061 77.478578 
L 219.659554 79.8401 
L 220.337047 79.800436 
L 221.014539 82.16343 
L 221.692032 82.147412 
L 222.369525 84.49749 
L 223.047018 84.484314 
L 223.724511 87.124368 
L 224.402003 86.819878 
L 225.079496 89.755592 
L 225.756989 89.442954 
L 226.434482 92.378319 
L 227.111975 92.074771 
L 227.789467 95.005844 
L 228.46696 94.99415 
L 229.144453 97.924205 
L 229.821946 97.913697 
L 230.499438 100.843398 
L 231.176931 100.832025 
L 231.854424 104.054898 
L 232.531917 103.750157 
L 233.20941 107.276226 
L 233.886902 106.962654 
L 234.564395 110.477275 
L 235.241888 110.172126 
L 235.919381 113.697657 
L 236.596874 113.6763 
L 237.274366 117.1911 
L 237.951859 116.886026 
L 238.629352 120.694803 
L 239.306845 120.388107 
L 239.984338 124.195167 
L 240.66183 123.894981 
L 241.339323 127.698134 
L 242.016816 127.981416 
L 242.694309 131.493539 
L 243.371801 131.482421 
L 244.049294 135.288729 
L 244.726787 135.276822 
L 245.40428 139.082548 
L 246.081773 139.364508 
L 246.759265 143.168973 
L 247.436758 143.160573 
L 248.114251 147.255865 
L 248.791744 146.953997 
L 249.469237 151.351376 
L 250.146729 151.325236 
L 250.824222 155.438011 
L 251.501715 155.419739 
L 252.179208 159.807356 
L 252.856701 159.507149 
L 253.534193 163.895087 
L 254.211686 164.17607 
L 254.889179 168.281067 
L 255.566672 168.547884 
L 256.244165 172.661177 
L 256.921657 172.926616 
L 257.59915 177.321154 
L 258.276643 177.313844 
L 258.954136 181.700135 
L 259.631628 181.990908 
L 260.309121 186.370138 
L 260.986614 186.362973 
L 261.664107 191.040518 
L 262.3416 191.033517 
L 263.019092 195.71079 
L 263.696585 195.704617 
L 264.374078 200.381059 
L 265.051571 200.672958 
L 265.729064 205.344483 
L 266.406556 205.336489 
L 267.084049 210.014913 
L 267.761542 210.299109 
L 268.439035 214.976123 
L 269.116528 215.031679 
L 269.79402 219.938312 
L 270.471513 219.933399 
L 271.149006 224.9006 
L 271.826499 224.895965 
L 272.503992 229.863046 
L 273.181484 229.858447 
L 273.858977 234.825254 
L 274.53647 235.112933 
L 275.213963 240.083092 
L 275.891455 239.779915 
L 276.568948 245.045167 
L 277.246441 245.038015 
L 277.923934 250.2959 
L 278.601427 250.000646 
L 279.278919 255.258233 
L 279.956412 255.547049 
L 280.633905 260.545441 
L 281.311398 260.476493 
L 281.988891 265.768856 
L 282.666383 265.761796 
L 283.343876 271.020689 
L 284.021369 270.726677 
L 284.698862 275.983011 
L 285.376355 276.27308 
L 286.053847 281.237405 
L 286.73134 281.527383 
L 287.408833 286.491374 
L 288.086326 286.782076 
L 288.763818 291.745571 
L 289.441311 292.036525 
L 290.118804 297.000439 
L 290.796297 297.290344 
L 291.47379 302.253925 
L 292.151282 302.545513 
L 292.828775 307.508101 
L 293.506268 307.508087 
L 294.183761 302.253919 
L 294.861254 302.545545 
L 295.538746 296.999738 
L 296.216239 297.291048 
L 296.893732 291.745556 
L 297.571225 292.037423 
L 298.248718 286.491374 
L 298.92621 286.782076 
L 299.603703 281.238573 
L 300.281196 281.527723 
L 300.958689 275.983011 
L 301.636182 276.27308 
L 302.313674 271.020728 
L 302.991167 270.726677 
L 303.66866 265.770369 
L 304.346153 265.762467 
L 305.023645 260.512314 
L 305.701138 260.50967 
L 306.378631 255.258127 
L 307.056124 255.549926 
L 307.733617 250.299176 
L 308.411109 249.997352 
L 309.088602 245.041718 
L 309.766095 245.038329 
L 310.443588 240.079363 
L 311.121081 239.783588 
L 311.798573 234.825254 
L 312.476066 235.112864 
L 313.153559 229.862888 
L 313.831052 229.858605 
L 314.508545 224.900768 
L 315.186037 224.896212 
L 315.86353 219.938312 
L 316.541023 219.938144 
L 317.218516 214.976123 
L 317.896008 214.97111 
L 318.573501 210.013934 
L 319.250994 210.299882 
L 319.928487 205.343554 
L 320.60598 205.337924 
L 321.283472 200.381174 
L 321.960965 200.666752 
L 322.638458 195.71067 
L 323.315951 195.70451 
L 323.993444 191.040518 
L 324.670936 191.033865 
L 325.348429 186.369892 
L 326.025922 186.363103 
L 326.703415 181.706072 
L 327.380908 181.977942 
L 328.0584 177.321154 
L 328.735893 177.313579 
L 329.413386 168.272835 
L 330.090879 168.557778 
L 330.768372 163.903012 
L 331.445864 164.176361 
L 332.123357 159.807356 
L 332.80085 159.507892 
L 333.478343 155.42873 
L 334.155835 155.429639 
L 334.833328 151.34386 
L 335.510821 151.333994 
L 336.188314 147.255712 
L 336.865807 146.954323 
L 337.543299 143.168973 
L 338.220792 143.159592 
L 338.898285 139.082387 
L 339.575778 139.364348 
L 340.253271 135.287701 
L 340.930763 135.27787 
L 341.608256 131.492825 
L 342.285749 131.48261 
L 344.318227 124.195167 
L 344.99572 124.185077 
L 345.673213 120.69293 
L 346.350706 120.400294 
L 347.028199 117.190145 
L 347.705691 116.887369 
L 348.383184 113.686782 
L 349.060677 113.676878 
L 349.73817 110.486941 
L 350.415662 110.162243 
L 351.093155 106.984726 
L 351.770648 107.253565 
L 352.448141 104.054704 
L 353.125634 103.75057 
L 353.803126 100.84362 
L 354.480619 100.831828 
L 355.158112 97.924405 
L 355.835605 97.925681 
L 356.513098 95.006909 
L 357.19059 94.992437 
L 357.868083 92.378755 
L 358.545576 92.074359 
L 359.223069 89.751017 
L 359.900562 89.447535 
L 360.578054 87.124789 
L 361.255547 86.820958 
L 361.93304 84.49749 
L 362.610533 84.484553 
L 363.288025 82.174941 
L 363.965518 82.137029 
L 364.643011 79.826649 
L 365.320504 79.813659 
L 365.997997 77.78382 
L 366.675489 77.480857 
L 367.352982 75.448409 
L 368.030475 75.726365 
L 368.707968 73.696764 
L 369.385461 73.695843 
L 370.062953 71.653469 
L 370.740446 71.653469 
L 371.417939 69.902555 
L 372.095432 69.888772 
L 372.772925 68.151163 
L 373.450417 68.136793 
L 374.12791 66.691181 
L 374.805403 66.386015 
L 375.482896 65.231944 
L 376.160389 64.925715 
L 376.837881 63.772449 
L 377.515374 63.758283 
L 378.192867 62.621775 
L 378.87036 62.284215 
L 379.547852 61.437258 
L 380.225345 61.131039 
L 380.902838 60.269662 
L 381.580331 60.255055 
L 382.257824 59.393461 
L 382.935316 59.37981 
L 383.612809 58.518 
L 384.290302 60.547473 
L 384.967795 57.934202 
L 386.32278 57.350403 
L 387.000273 58.223602 
L 387.677766 56.766605 
L 388.355259 56.7523 
L 389.710244 56.168228 
L 391.06523 56.168228 
L 391.742723 55.890666 
L 392.420216 56.462901 
L 393.097708 55.892168 
L 393.775201 55.875291 
L 394.452694 56.939862 
L 395.130187 58.921602 
L 395.807679 56.182806 
L 396.485172 58.795474 
L 397.162665 56.475215 
L 397.840158 56.168468 
L 398.517651 56.766874 
L 399.195143 59.671962 
L 399.872636 57.350403 
L 400.550129 57.044724 
L 401.227622 57.933725 
L 401.905115 57.628555 
L 402.582607 58.517763 
L 403.2601 59.088132 
L 403.937593 59.393461 
L 404.615086 59.380047 
L 405.970071 61.122158 
L 406.647564 61.436758 
L 407.325057 61.131539 
L 408.00255 62.604854 
L 408.680042 62.298469 
L 409.357535 63.772188 
L 410.035028 63.758283 
L 410.712521 65.232176 
L 411.390014 64.925715 
L 412.067506 66.691439 
L 412.744999 66.386015 
L 413.422492 68.152848 
L 414.099985 68.135107 
L 414.777478 69.902555 
L 415.45497 69.893055 
L 416.132463 71.653469 
L 416.809956 71.640266 
L 417.487449 73.710353 
L 418.164942 73.392458 
L 418.842434 75.448409 
L 419.519927 75.728938 
L 420.19742 77.783601 
L 420.874913 79.315978 
L 421.552406 79.841241 
L 422.229898 79.799525 
L 422.907391 82.162301 
L 423.584884 82.149901 
L 424.262377 84.497277 
L 424.939869 84.484314 
L 425.617362 87.124368 
L 426.294855 86.819641 
L 426.972348 89.751225 
L 427.649841 89.449279 
L 428.327333 92.37855 
L 429.004826 92.074359 
L 429.682319 95.006047 
L 430.359812 94.992856 
L 431.037305 97.935963 
L 431.714797 97.912872 
L 432.39229 100.84362 
L 433.069783 100.832025 
L 433.747276 104.054291 
L 434.424769 103.750984 
L 435.102261 107.265183 
L 435.779754 107.914674 
L 436.457247 110.476075 
L 437.13474 110.173316 
L 437.812233 113.687546 
L 438.489725 113.675513 
L 439.167218 117.189759 
L 439.844711 116.887369 
L 440.522204 120.69293 
L 441.199696 120.389794 
L 441.877189 124.195539 
L 442.554682 124.185077 
L 443.232175 127.708588 
L 443.909668 127.96954 
L 444.58716 131.493014 
L 445.264653 131.483136 
L 445.942146 135.287701 
L 446.619639 135.277685 
L 447.297132 139.082548 
L 447.974624 139.364167 
L 448.652117 143.16913 
L 449.32961 143.159258 
L 450.007103 147.255387 
L 450.684596 146.955454 
L 451.362088 151.351674 
L 452.039581 151.32352 
L 452.717074 155.428567 
L 453.394567 155.420193 
L 454.072059 159.807356 
L 454.749552 159.506708 
L 455.427045 163.893938 
L 456.104538 164.177517 
L 456.782031 168.272419 
L 457.459523 168.555819 
L 458.137016 172.650899 
L 458.814509 172.934712 
L 459.492002 177.42284 
L 460.169495 177.212112 
L 460.846987 181.699639 
L 461.52448 181.992168 
L 462.201973 186.370023 
L 462.879466 186.363335 
L 463.556959 191.040518 
L 464.234451 191.033628 
L 464.911944 195.71067 
L 465.589437 195.704403 
L 466.26693 200.381059 
L 466.944423 200.667173 
L 467.621915 205.343347 
L 468.299408 205.337509 
L 468.976901 210.013934 
L 469.654394 210.299986 
L 470.331886 214.976024 
L 471.009379 214.971387 
L 471.686872 219.93849 
L 472.364365 219.933305 
L 473.041858 224.900689 
L 473.71935 224.896044 
L 474.396843 229.863046 
L 475.074336 229.858679 
L 475.751829 234.825254 
L 476.429322 235.112864 
L 477.106814 240.079363 
L 477.784307 239.783726 
L 478.4618 245.041651 
L 479.139293 245.038142 
L 479.816786 250.295838 
L 480.494278 250.000646 
L 481.171771 255.258183 
L 481.849264 255.547105 
L 482.526757 260.512269 
L 483.20425 260.509715 
L 483.881742 265.766626 
L 484.559235 265.764231 
L 485.236728 271.020689 
L 485.914221 270.727013 
L 486.591713 275.983041 
L 487.269206 276.273049 
L 487.946699 281.237192 
L 488.624192 281.527594 
L 489.301685 286.491331 
L 489.979177 286.782116 
L 490.65667 291.745604 
L 491.334163 292.036525 
L 492.011656 296.999738 
L 492.689149 297.291038 
L 493.366641 302.253913 
L 494.044134 302.545513 
L 494.721627 307.8 
L 498.109091 307.8 
L 498.109091 307.8 
" clip-path="url(#pde21e4ba70)" style="fill: none; stroke: #1f77b4; stroke-width: 1.5; stroke-linecap: square"/>
   </g>
   <g id="line2d_15">
    <path d="M 92.290909 307.548 
L 95.00088 297.247335 
L 107.19575 250.255573 
L 113.970678 224.925611 
L 120.745606 200.503618 
L 126.165549 181.8 
L 131.585491 163.980193 
L 135.650448 151.270773 
L 139.715404 139.179086 
L 143.780361 127.752874 
L 147.845318 117.037233 
L 151.910275 107.074438 
L 155.975231 97.903853 
L 158.685203 92.248191 
L 161.395174 86.970705 
L 164.105145 82.08065 
L 166.815116 77.586531 
L 169.525087 73.496328 
L 172.235058 69.817154 
L 174.94503 66.555499 
L 177.655001 63.717033 
L 180.364972 61.306804 
L 183.074943 59.328994 
L 185.784914 57.787087 
L 188.494885 56.683799 
L 191.204857 56.021052 
L 193.914828 55.8 
L 196.624799 56.021052 
L 199.33477 56.683799 
L 202.044741 57.787087 
L 204.754712 59.328994 
L 207.464684 61.306804 
L 210.174655 63.717033 
L 212.884626 66.555499 
L 215.594597 69.817154 
L 218.304568 73.496352 
L 221.014539 77.586555 
L 223.724511 82.080626 
L 226.434482 86.970705 
L 229.144453 92.248215 
L 231.854424 97.903877 
L 234.564395 103.927742 
L 238.629352 113.630697 
L 242.694309 124.099908 
L 246.759265 135.294121 
L 250.824222 147.169154 
L 254.889179 159.678119 
L 258.954136 172.771664 
L 264.374078 191.049412 
L 269.79402 210.146077 
L 276.568948 234.964013 
L 284.698862 265.774322 
L 295.538746 307.548 
L 298.248718 297.247289 
L 310.443588 250.255573 
L 317.218516 224.925574 
L 323.993444 200.503618 
L 329.413386 181.799952 
L 334.833328 163.980193 
L 338.898285 151.270724 
L 342.963242 139.179098 
L 347.028199 127.75285 
L 351.093155 117.037233 
L 355.158112 107.07445 
L 359.223069 97.903853 
L 361.93304 92.248215 
L 364.643011 86.970681 
L 367.352982 82.080626 
L 370.062953 77.586555 
L 372.772925 73.496352 
L 375.482896 69.817154 
L 378.192867 66.55545 
L 380.902838 63.717057 
L 383.612809 61.306804 
L 386.32278 59.328994 
L 389.032752 57.787087 
L 391.742723 56.683799 
L 394.452694 56.021052 
L 397.162665 55.8 
L 399.872636 56.021052 
L 402.582607 56.683799 
L 405.292579 57.787111 
L 408.00255 59.328994 
L 410.712521 61.306804 
L 413.422492 63.717057 
L 416.132463 66.555499 
L 418.842434 69.817178 
L 421.552406 73.496352 
L 424.262377 77.586603 
L 426.972348 82.080626 
L 429.682319 86.970729 
L 432.39229 92.248215 
L 435.102261 97.903853 
L 437.812233 103.927766 
L 441.877189 113.630709 
L 445.942146 124.099884 
L 450.007103 135.294193 
L 454.072059 147.169142 
L 458.137016 159.678191 
L 462.201973 172.771736 
L 467.621915 191.049436 
L 473.041858 210.146035 
L 479.816786 234.964037 
L 487.946699 265.774343 
L 497.431598 302.522632 
L 497.431598 302.522632 
" clip-path="url(#pde21e4ba70)" style="fill: none; stroke: #ff7f0e; stroke-width: 1.5; stroke-linecap: square"/>
   </g>
   <g id="patch_3">
    <path d="M 72 320.4 
L 72 43.2 
" style="fill: none; stroke: #000000; stroke-width: 0.8; stroke-linejoin: miter; stroke-linecap: square"/>
   </g>
   <g id="patch_4">
    <path d="M 518.4 320.4 
L 518.4 43.2 
" style="fill: none; stroke: #000000; stroke-width: 0.8; stroke-linejoin: miter; stroke-linecap: square"/>
   </g>
   <g id="patch_5">
    <path d="M 72 320.4 
L 518.4 320.4 
" style="fill: none; stroke: #000000; stroke-width: 0.8; stroke-linejoin: miter; stroke-linecap: square"/>
   </g>
   <g id="patch_6">
    <path d="M 72 43.2 
L 518.4 43.2 
" style="fill: none; stroke: #000000; stroke-width: 0.8; stroke-linejoin: miter; stroke-linecap: square"/>
   </g>
   <g id="text_16">
    <!-- Dataset Generation -->
    <g transform="translate(236.325937 37.2) scale(0.12 -0.12)">
     <defs>
      <path id="DejaVuSans-44" d="M 1259 4147 
L 1259 519 
L 2022 519 
Q 2988 519 3436 956 
Q 3884 1394 3884 2338 
Q 3884 3275 3436 3711 
Q 2988 4147 2022 4147 
L 1259 4147 
z
M 628 4666 
L 1925 4666 
Q 3281 4666 3915 4102 
Q 4550 3538 4550 2338 
Q 4550 1131 3912 565 
Q 3275 0 1925 0 
L 628 0 
L 628 4666 
z
" transform="scale(0.015625)"/>
      <path id="DejaVuSans-47" d="M 3809 666 
L 3809 1919 
L 2778 1919 
L 2778 2438 
L 4434 2438 
L 4434 434 
Q 4069 175 3628 42 
Q 3188 -91 2688 -91 
Q 1594 -91 976 548 
Q 359 1188 359 2328 
Q 359 3472 976 4111 
Q 1594 4750 2688 4750 
Q 3144 4750 3555 4637 
Q 3966 4525 4313 4306 
L 4313 3634 
Q 3963 3931 3569 4081 
Q 3175 4231 2741 4231 
Q 1884 4231 1454 3753 
Q 1025 3275 1025 2328 
Q 1025 1384 1454 906 
Q 1884 428 2741 428 
Q 3075 428 3337 486 
Q 3600 544 3809 666 
z
" transform="scale(0.015625)"/>
      <path id="DejaVuSans-72" d="M 2631 2963 
Q 2534 3019 2420 3045 
Q 2306 3072 2169 3072 
Q 1681 3072 1420 2755 
Q 1159 2438 1159 1844 
L 1159 0 
L 581 0 
L 581 3500 
L 1159 3500 
L 1159 2956 
Q 1341 3275 1631 3429 
Q 1922 3584 2338 3584 
Q 2397 3584 2469 3576 
Q 2541 3569 2628 3553 
L 2631 2963 
z
" transform="scale(0.015625)"/>
      <path id="DejaVuSans-6f" d="M 1959 3097 
Q 1497 3097 1228 2736 
Q 959 2375 959 1747 
Q 959 1119 1226 758 
Q 1494 397 1959 397 
Q 2419 397 2687 759 
Q 2956 1122 2956 1747 
Q 2956 2369 2687 2733 
Q 2419 3097 1959 3097 
z
M 1959 3584 
Q 2709 3584 3137 3096 
Q 3566 2609 3566 1747 
Q 3566 888 3137 398 
Q 2709 -91 1959 -91 
Q 1206 -91 779 398 
Q 353 888 353 1747 
Q 353 2609 779 3096 
Q 1206 3584 1959 3584 
z
" transform="scale(0.015625)"/>
     </defs>
     <use xlink:href="#DejaVuSans-44"/>
     <use xlink:href="#DejaVuSans-61" x="77.001953"/>
     <use xlink:href="#DejaVuSans-74" x="138.28125"/>
     <use xlink:href="#DejaVuSans-61" x="177.490234"/>
     <use xlink:href="#DejaVuSans-73" x="238.769531"/>
     <use xlink:href="#DejaVuSans-65" x="290.869141"/>
     <use xlink:href="#DejaVuSans-74" x="352.392578"/>
     <use xlink:href="#DejaVuSans-20" x="391.601562"/>
     <use xlink:href="#DejaVuSans-47" x="423.388672"/>
     <use xlink:href="#DejaVuSans-65" x="500.878906"/>
     <use xlink:href="#DejaVuSans-6e" x="562.402344"/>
     <use xlink:href="#DejaVuSans-65" x="625.78125"/>
     <use xlink:href="#DejaVuSans-72" x="687.304688"/>
     <use xlink:href="#DejaVuSans-61" x="728.417969"/>
     <use xlink:href="#DejaVuSans-74" x="789.697266"/>
     <use xlink:href="#DejaVuSans-69" x="828.90625"/>
     <use xlink:href="#DejaVuSans-6f" x="856.689453"/>
     <use xlink:href="#DejaVuSans-6e" x="917.871094"/>
    </g>
   </g>
   <g id="legend_1">
    <g id="patch_7">
     <path d="M 236.982812 80.55625 
L 353.417187 80.55625 
Q 355.417187 80.55625 355.417187 78.55625 
L 355.417187 50.2 
Q 355.417187 48.2 353.417187 48.2 
L 236.982812 48.2 
Q 234.982812 48.2 234.982812 50.2 
L 234.982812 78.55625 
Q 234.982812 80.55625 236.982812 80.55625 
z
" style="fill: #ffffff; opacity: 0.8; stroke: #cccccc; stroke-linejoin: miter"/>
    </g>
    <g id="line2d_16">
     <path d="M 238.982812 56.298437 
L 248.982812 56.298437 
L 258.982813 56.298437 
" style="fill: none; stroke: #1f77b4; stroke-width: 1.5; stroke-linecap: square"/>
    </g>
    <g id="text_17">
     <!-- Generated Data -->
     <g transform="translate(266.982813 59.798437) scale(0.1 -0.1)">
      <use xlink:href="#DejaVuSans-47"/>
      <use xlink:href="#DejaVuSans-65" x="77.490234"/>
      <use xlink:href="#DejaVuSans-6e" x="139.013672"/>
      <use xlink:href="#DejaVuSans-65" x="202.392578"/>
      <use xlink:href="#DejaVuSans-72" x="263.916016"/>
      <use xlink:href="#DejaVuSans-61" x="305.029297"/>
      <use xlink:href="#DejaVuSans-74" x="366.308594"/>
      <use xlink:href="#DejaVuSans-65" x="405.517578"/>
      <use xlink:href="#DejaVuSans-64" x="467.041016"/>
      <use xlink:href="#DejaVuSans-20" x="530.517578"/>
      <use xlink:href="#DejaVuSans-44" x="562.304688"/>
      <use xlink:href="#DejaVuSans-61" x="639.306641"/>
      <use xlink:href="#DejaVuSans-74" x="700.585938"/>
      <use xlink:href="#DejaVuSans-61" x="739.794922"/>
     </g>
    </g>
    <g id="line2d_17">
     <path d="M 238.982812 70.976562 
L 248.982812 70.976562 
L 258.982813 70.976562 
" style="fill: none; stroke: #ff7f0e; stroke-width: 1.5; stroke-linecap: square"/>
    </g>
    <g id="text_18">
     <!-- Requested Rates -->
     <g transform="translate(266.982813 74.476562) scale(0.1 -0.1)">
      <defs>
       <path id="DejaVuSans-52" d="M 2841 2188 
Q 3044 2119 3236 1894 
Q 3428 1669 3622 1275 
L 4263 0 
L 3584 0 
L 2988 1197 
Q 2756 1666 2539 1819 
Q 2322 1972 1947 1972 
L 1259 1972 
L 1259 0 
L 628 0 
L 628 4666 
L 2053 4666 
Q 2853 4666 3247 4331 
Q 3641 3997 3641 3322 
Q 3641 2881 3436 2590 
Q 3231 2300 2841 2188 
z
M 1259 4147 
L 1259 2491 
L 2053 2491 
Q 2509 2491 2742 2702 
Q 2975 2913 2975 3322 
Q 2975 3731 2742 3939 
Q 2509 4147 2053 4147 
L 1259 4147 
z
" transform="scale(0.015625)"/>
       <path id="DejaVuSans-71" d="M 947 1747 
Q 947 1113 1208 752 
Q 1469 391 1925 391 
Q 2381 391 2643 752 
Q 2906 1113 2906 1747 
Q 2906 2381 2643 2742 
Q 2381 3103 1925 3103 
Q 1469 3103 1208 2742 
Q 947 2381 947 1747 
z
M 2906 525 
Q 2725 213 2448 61 
Q 2172 -91 1784 -91 
Q 1150 -91 751 415 
Q 353 922 353 1747 
Q 353 2572 751 3078 
Q 1150 3584 1784 3584 
Q 2172 3584 2448 3432 
Q 2725 3281 2906 2969 
L 2906 3500 
L 3481 3500 
L 3481 -1331 
L 2906 -1331 
L 2906 525 
z
" transform="scale(0.015625)"/>
       <path id="DejaVuSans-75" d="M 544 1381 
L 544 3500 
L 1119 3500 
L 1119 1403 
Q 1119 906 1312 657 
Q 1506 409 1894 409 
Q 2359 409 2629 706 
Q 2900 1003 2900 1516 
L 2900 3500 
L 3475 3500 
L 3475 0 
L 2900 0 
L 2900 538 
Q 2691 219 2414 64 
Q 2138 -91 1772 -91 
Q 1169 -91 856 284 
Q 544 659 544 1381 
z
M 1991 3584 
L 1991 3584 
z
" transform="scale(0.015625)"/>
      </defs>
      <use xlink:href="#DejaVuSans-52"/>
      <use xlink:href="#DejaVuSans-65" x="64.982422"/>
      <use xlink:href="#DejaVuSans-71" x="126.505859"/>
      <use xlink:href="#DejaVuSans-75" x="189.982422"/>
      <use xlink:href="#DejaVuSans-65" x="253.361328"/>
      <use xlink:href="#DejaVuSans-73" x="314.884766"/>
      <use xlink:href="#DejaVuSans-74" x="366.984375"/>
      <use xlink:href="#DejaVuSans-65" x="406.193359"/>
      <use xlink:href="#DejaVuSans-64" x="467.716797"/>
      <use xlink:href="#DejaVuSans-20" x="531.193359"/>
      <use xlink:href="#DejaVuSans-52" x="562.980469"/>
      <use xlink:href="#DejaVuSans-61" x="630.212891"/>
      <use xlink:href="#DejaVuSans-74" x="691.492188"/>
      <use xlink:href="#DejaVuSans-65" x="730.701172"/>
      <use xlink:href="#DejaVuSans-73" x="792.224609"/>
     </g>
    </g>
   </g>
  </g>
 </g>
 <defs>
  <clipPath id="pde21e4ba70">
   <rect x="72" y="43.2" width="446.4" height="277.2"/>
  </clipPath>
 </defs>
</svg>
