<?xml version="1.0" encoding="utf-8" standalone="no"?>
<!DOCTYPE svg PUBLIC "-//W3C//DTD SVG 1.1//EN"
  "http://www.w3.org/Graphics/SVG/1.1/DTD/svg11.dtd">
<svg xmlns:xlink="http://www.w3.org/1999/xlink" width="576pt" height="360pt" viewBox="0 0 576 360" xmlns="http://www.w3.org/2000/svg" version="1.1">
 <metadata>
  <rdf:RDF xmlns:dc="http://purl.org/dc/elements/1.1/" xmlns:cc="http://creativecommons.org/ns#" xmlns:rdf="http://www.w3.org/1999/02/22-rdf-syntax-ns#">
   <cc:Work>
    <dc:type rdf:resource="http://purl.org/dc/dcmitype/StillImage"/>
    <dc:date>2026-02-03T08:01:37.585035</dc:date>
    <dc:format>image/svg+xml</dc:format>
    <dc:creator>
     <cc:Agent>
      <dc:title>Matplotlib v3.7.5, https://matplotlib.org/</dc:title>
     </cc:Agent>
    </dc:creator>
   </cc:Work>
  </rdf:RDF>
 </metadata>
 <defs>
  <style type="text/css">*{stroke-linejoin: round; stroke-linecap: butt}</style>
 </defs>
 <g id="figure_1">
  <g id="patch_1">
   <path d="M 0 360 
L 576 360 
L 576 0 
L 0 0 
z
" style="fill: #ffffff"/>
  </g>
  <g id="axes_1">
   <g id="patch_2">
    <path d="M 72 320.4 
L 518.4 320.4 
L 518.4 43.2 
L 72 43.2 
z
" style="fill: #ffffff"/>
   </g>
   <g id="matplotlib.axis_1">
    <g id="xtick_1">
     <g id="line2d_1">
      <defs>
       <path id="m0edecc867a" d="M 0 0 
L 0 3.5 
" style="stroke: #000000; stroke-width: 0.8"/>
      </defs>
      <g>
       <use xlink:href="#m0edecc867a" x="92.290909" y="320.4" style="stroke: #000000; stroke-width: 0.8"/>
      </g>
     </g>
     <g id="text_1">
      <!-- 0 -->
      <g transform="translate(89.109659 334.998438) scale(0.1 -0.1)">
       <defs>
        <path id="DejaVuSans-30" d="M 2034 4250 
Q 1547 4250 1301 3770 
Q 1056 3291 1056 2328 
Q 1056 1369 1301 889 
Q 1547 409 2034 409 
Q 2525 409 2770 889 
Q 3016 1369 3016 2328 
Q 3016 3291 2770 3770 
Q 2525 4250 2034 4250 
z
M 2034 4750 
Q 2819 4750 3233 4129 
Q 3647 3509 3647 2328 
Q 3647 1150 3233 529 
Q 2819 -91 2034 -91 
Q 1250 -91 836 529 
Q 422 1150 422 2328 
Q 422 3509 836 4129 
Q 1250 4750 2034 4750 
z
" transform="scale(0.015625)"/>
       </defs>
       <use xlink:href="#DejaVuSans-30"/>
      </g>
     </g>
    </g>
    <g id="xtick_2">
     <g id="line2d_2">
      <g>
       <use xlink:href="#m0edecc867a" x="160.040188" y="320.4" style="stroke: #000000; stroke-width: 0.8"/>
      </g>
     </g>
     <g id="text_2">
      <!-- 100 -->
      <g transform="translate(150.496438 334.998438) scale(0.1 -0.1)">
       <defs>
        <path id="DejaVuSans-31" d="M 794 531 
L 1825 531 
L 1825 4091 
L 703 3866 
L 703 4441 
L 1819 4666 
L 2450 4666 
L 2450 531 
L 3481 531 
L 3481 0 
L 794 0 
L 794 531 
z
" transform="scale(0.015625)"/>
       </defs>
       <use xlink:href="#DejaVuSans-31"/>
       <use xlink:href="#DejaVuSans-30" x="63.623047"/>
       <use xlink:href="#DejaVuSans-30" x="127.246094"/>
      </g>
     </g>
    </g>
    <g id="xtick_3">
     <g id="line2d_3">
      <g>
       <use xlink:href="#m0edecc867a" x="227.789467" y="320.4" style="stroke: #000000; stroke-width: 0.8"/>
      </g>
     </g>
     <g id="text_3">
      <!-- 200 -->
      <g transform="translate(218.245717 334.998438) scale(0.1 -0.1)">
       <defs>
        <path id="DejaVuSans-32" d="M 1228 531 
L 3431 531 
L 3431 0 
L 469 0 
L 469 531 
Q 828 903 1448 1529 
Q 2069 2156 2228 2338 
Q 2531 2678 2651 2914 
Q 2772 3150 2772 3378 
Q 2772 3750 2511 3984 
Q 2250 4219 1831 4219 
Q 1534 4219 1204 4116 
Q 875 4013 500 3803 
L 500 4441 
Q 881 4594 1212 4672 
Q 1544 4750 1819 4750 
Q 2544 4750 2975 4387 
Q 3406 4025 3406 3419 
Q 3406 3131 3298 2873 
Q 3191 2616 2906 2266 
Q 2828 2175 2409 1742 
Q 1991 1309 1228 531 
z
" transform="scale(0.015625)"/>
       </defs>
       <use xlink:href="#DejaVuSans-32"/>
       <use xlink:href="#DejaVuSans-30" x="63.623047"/>
       <use xlink:href="#DejaVuSans-30" x="127.246094"/>
      </g>
     </g>
    </g>
    <g id="xtick_4">
     <g id="line2d_4">
      <g>
       <use xlink:href="#m0edecc867a" x="295.538746" y="320.4" style="stroke: #000000; stroke-width: 0.8"/>
      </g>
     </g>
     <g id="text_4">
      <!-- 300 -->
      <g transform="translate(285.994996 334.998438) scale(0.1 -0.1)">
       <defs>
        <path id="DejaVuSans-33" d="M 2597 2516 
Q 3050 2419 3304 2112 
Q 3559 1806 3559 1356 
Q 3559 666 3084 287 
Q 2609 -91 1734 -91 
Q 1441 -91 1130 -33 
Q 819 25 488 141 
L 488 750 
Q 750 597 1062 519 
Q 1375 441 1716 441 
Q 2309 441 2620 675 
Q 2931 909 2931 1356 
Q 2931 1769 2642 2001 
Q 2353 2234 1838 2234 
L 1294 2234 
L 1294 2753 
L 1863 2753 
Q 2328 2753 2575 2939 
Q 2822 3125 2822 3475 
Q 2822 3834 2567 4026 
Q 2313 4219 1838 4219 
Q 1578 4219 1281 4162 
Q 984 4106 628 3988 
L 628 4550 
Q 988 4650 1302 4700 
Q 1616 4750 1894 4750 
Q 2613 4750 3031 4423 
Q 3450 4097 3450 3541 
Q 3450 3153 3228 2886 
Q 3006 2619 2597 2516 
z
" transform="scale(0.015625)"/>
       </defs>
       <use xlink:href="#DejaVuSans-33"/>
       <use xlink:href="#DejaVuSans-30" x="63.623047"/>
       <use xlink:href="#DejaVuSans-30" x="127.246094"/>
      </g>
     </g>
    </g>
    <g id="xtick_5">
     <g id="line2d_5">
      <g>
       <use xlink:href="#m0edecc867a" x="363.288025" y="320.4" style="stroke: #000000; stroke-width: 0.8"/>
      </g>
     </g>
     <g id="text_5">
      <!-- 400 -->
      <g transform="translate(353.744275 334.998438) scale(0.1 -0.1)">
       <defs>
        <path id="DejaVuSans-34" d="M 2419 4116 
L 825 1625 
L 2419 1625 
L 2419 4116 
z
M 2253 4666 
L 3047 4666 
L 3047 1625 
L 3713 1625 
L 3713 1100 
L 3047 1100 
L 3047 0 
L 2419 0 
L 2419 1100 
L 313 1100 
L 313 1709 
L 2253 4666 
z
" transform="scale(0.015625)"/>
       </defs>
       <use xlink:href="#DejaVuSans-34"/>
       <use xlink:href="#DejaVuSans-30" x="63.623047"/>
       <use xlink:href="#DejaVuSans-30" x="127.246094"/>
      </g>
     </g>
    </g>
    <g id="xtick_6">
     <g id="line2d_6">
      <g>
       <use xlink:href="#m0edecc867a" x="431.037305" y="320.4" style="stroke: #000000; stroke-width: 0.8"/>
      </g>
     </g>
     <g id="text_6">
      <!-- 500 -->
      <g transform="translate(421.493555 334.998438) scale(0.1 -0.1)">
       <defs>
        <path id="DejaVuSans-35" d="M 691 4666 
L 3169 4666 
L 3169 4134 
L 1269 4134 
L 1269 2991 
Q 1406 3038 1543 3061 
Q 1681 3084 1819 3084 
Q 2600 3084 3056 2656 
Q 3513 2228 3513 1497 
Q 3513 744 3044 326 
Q 2575 -91 1722 -91 
Q 1428 -91 1123 -41 
Q 819 9 494 109 
L 494 744 
Q 775 591 1075 516 
Q 1375 441 1709 441 
Q 2250 441 2565 725 
Q 2881 1009 2881 1497 
Q 2881 1984 2565 2268 
Q 2250 2553 1709 2553 
Q 1456 2553 1204 2497 
Q 953 2441 691 2322 
L 691 4666 
z
" transform="scale(0.015625)"/>
       </defs>
       <use xlink:href="#DejaVuSans-35"/>
       <use xlink:href="#DejaVuSans-30" x="63.623047"/>
       <use xlink:href="#DejaVuSans-30" x="127.246094"/>
      </g>
     </g>
    </g>
    <g id="xtick_7">
     <g id="line2d_7">
      <g>
       <use xlink:href="#m0edecc867a" x="498.786584" y="320.4" style="stroke: #000000; stroke-width: 0.8"/>
      </g>
     </g>
     <g id="text_7">
      <!-- 600 -->
      <g transform="translate(489.242834 334.998438) scale(0.1 -0.1)">
       <defs>
        <path id="DejaVuSans-36" d="M 2113 2584 
Q 1688 2584 1439 2293 
Q 1191 2003 1191 1497 
Q 1191 994 1439 701 
Q 1688 409 2113 409 
Q 2538 409 2786 701 
Q 3034 994 3034 1497 
Q 3034 2003 2786 2293 
Q 2538 2584 2113 2584 
z
M 3366 4563 
L 3366 3988 
Q 3128 4100 2886 4159 
Q 2644 4219 2406 4219 
Q 1781 4219 1451 3797 
Q 1122 3375 1075 2522 
Q 1259 2794 1537 2939 
Q 1816 3084 2150 3084 
Q 2853 3084 3261 2657 
Q 3669 2231 3669 1497 
Q 3669 778 3244 343 
Q 2819 -91 2113 -91 
Q 1303 -91 875 529 
Q 447 1150 447 2328 
Q 447 3434 972 4092 
Q 1497 4750 2381 4750 
Q 2619 4750 2861 4703 
Q 3103 4656 3366 4563 
z
" transform="scale(0.015625)"/>
       </defs>
       <use xlink:href="#DejaVuSans-36"/>
       <use xlink:href="#DejaVuSans-30" x="63.623047"/>
       <use xlink:href="#DejaVuSans-30" x="127.246094"/>
      </g>
     </g>
    </g>
    <g id="text_8">
     <!-- Time (s) -->
     <g transform="translate(266.739531 351.715937) scale(0.14 -0.14)">
      <defs>
       <path id="DejaVuSans-54" d="M -19 4666 
L 3928 4666 
L 3928 4134 
L 2272 4134 
L 2272 0 
L 1638 0 
L 1638 4134 
L -19 4134 
L -19 4666 
z
" transform="scale(0.015625)"/>
       <path id="DejaVuSans-69" d="M 603 3500 
L 1178 3500 
L 1178 0 
L 603 0 
L 603 3500 
z
M 603 4863 
L 1178 4863 
L 1178 4134 
L 603 4134 
L 603 4863 
z
" transform="scale(0.015625)"/>
       <path id="DejaVuSans-6d" d="M 3328 2828 
Q 3544 3216 3844 3400 
Q 4144 3584 4550 3584 
Q 5097 3584 5394 3201 
Q 5691 2819 5691 2113 
L 5691 0 
L 5113 0 
L 5113 2094 
Q 5113 2597 4934 2840 
Q 4756 3084 4391 3084 
Q 3944 3084 3684 2787 
Q 3425 2491 3425 1978 
L 3425 0 
L 2847 0 
L 2847 2094 
Q 2847 2600 2669 2842 
Q 2491 3084 2119 3084 
Q 1678 3084 1418 2786 
Q 1159 2488 1159 1978 
L 1159 0 
L 581 0 
L 581 3500 
L 1159 3500 
L 1159 2956 
Q 1356 3278 1631 3431 
Q 1906 3584 2284 3584 
Q 2666 3584 2933 3390 
Q 3200 3197 3328 2828 
z
" transform="scale(0.015625)"/>
       <path id="DejaVuSans-65" d="M 3597 1894 
L 3597 1613 
L 953 1613 
Q 991 1019 1311 708 
Q 1631 397 2203 397 
Q 2534 397 2845 478 
Q 3156 559 3463 722 
L 3463 178 
Q 3153 47 2828 -22 
Q 2503 -91 2169 -91 
Q 1331 -91 842 396 
Q 353 884 353 1716 
Q 353 2575 817 3079 
Q 1281 3584 2069 3584 
Q 2775 3584 3186 3129 
Q 3597 2675 3597 1894 
z
M 3022 2063 
Q 3016 2534 2758 2815 
Q 2500 3097 2075 3097 
Q 1594 3097 1305 2825 
Q 1016 2553 972 2059 
L 3022 2063 
z
" transform="scale(0.015625)"/>
       <path id="DejaVuSans-20" transform="scale(0.015625)"/>
       <path id="DejaVuSans-28" d="M 1984 4856 
Q 1566 4138 1362 3434 
Q 1159 2731 1159 2009 
Q 1159 1288 1364 580 
Q 1569 -128 1984 -844 
L 1484 -844 
Q 1016 -109 783 600 
Q 550 1309 550 2009 
Q 550 2706 781 3412 
Q 1013 4119 1484 4856 
L 1984 4856 
z
" transform="scale(0.015625)"/>
       <path id="DejaVuSans-73" d="M 2834 3397 
L 2834 2853 
Q 2591 2978 2328 3040 
Q 2066 3103 1784 3103 
Q 1356 3103 1142 2972 
Q 928 2841 928 2578 
Q 928 2378 1081 2264 
Q 1234 2150 1697 2047 
L 1894 2003 
Q 2506 1872 2764 1633 
Q 3022 1394 3022 966 
Q 3022 478 2636 193 
Q 2250 -91 1575 -91 
Q 1294 -91 989 -36 
Q 684 19 347 128 
L 347 722 
Q 666 556 975 473 
Q 1284 391 1588 391 
Q 1994 391 2212 530 
Q 2431 669 2431 922 
Q 2431 1156 2273 1281 
Q 2116 1406 1581 1522 
L 1381 1569 
Q 847 1681 609 1914 
Q 372 2147 372 2553 
Q 372 3047 722 3315 
Q 1072 3584 1716 3584 
Q 2034 3584 2315 3537 
Q 2597 3491 2834 3397 
z
" transform="scale(0.015625)"/>
       <path id="DejaVuSans-29" d="M 513 4856 
L 1013 4856 
Q 1481 4119 1714 3412 
Q 1947 2706 1947 2009 
Q 1947 1309 1714 600 
Q 1481 -109 1013 -844 
L 513 -844 
Q 928 -128 1133 580 
Q 1338 1288 1338 2009 
Q 1338 2731 1133 3434 
Q 928 4138 513 4856 
z
" transform="scale(0.015625)"/>
      </defs>
      <use xlink:href="#DejaVuSans-54"/>
      <use xlink:href="#DejaVuSans-69" x="57.958984"/>
      <use xlink:href="#DejaVuSans-6d" x="85.742188"/>
      <use xlink:href="#DejaVuSans-65" x="183.154297"/>
      <use xlink:href="#DejaVuSans-20" x="244.677734"/>
      <use xlink:href="#DejaVuSans-28" x="276.464844"/>
      <use xlink:href="#DejaVuSans-73" x="315.478516"/>
      <use xlink:href="#DejaVuSans-29" x="367.578125"/>
     </g>
    </g>
   </g>
   <g id="matplotlib.axis_2">
    <g id="ytick_1">
     <g id="line2d_8">
      <defs>
       <path id="mef698881f7" d="M 0 0 
L -3.5 0 
" style="stroke: #000000; stroke-width: 0.8"/>
      </defs>
      <g>
       <use xlink:href="#mef698881f7" x="72" y="307.8" style="stroke: #000000; stroke-width: 0.8"/>
      </g>
     </g>
     <g id="text_9">
      <!-- 0 -->
      <g transform="translate(58.6375 311.599219) scale(0.1 -0.1)">
       <use xlink:href="#DejaVuSans-30"/>
      </g>
     </g>
    </g>
    <g id="ytick_2">
     <g id="line2d_9">
      <g>
       <use xlink:href="#mef698881f7" x="72" y="271.300864" style="stroke: #000000; stroke-width: 0.8"/>
      </g>
     </g>
     <g id="text_10">
      <!-- 2 -->
      <g transform="translate(58.6375 275.100083) scale(0.1 -0.1)">
       <use xlink:href="#DejaVuSans-32"/>
      </g>
     </g>
    </g>
    <g id="ytick_3">
     <g id="line2d_10">
      <g>
       <use xlink:href="#mef698881f7" x="72" y="234.801729" style="stroke: #000000; stroke-width: 0.8"/>
      </g>
     </g>
     <g id="text_11">
      <!-- 4 -->
      <g transform="translate(58.6375 238.600947) scale(0.1 -0.1)">
       <use xlink:href="#DejaVuSans-34"/>
      </g>
     </g>
    </g>
    <g id="ytick_4">
     <g id="line2d_11">
      <g>
       <use xlink:href="#mef698881f7" x="72" y="198.302593" style="stroke: #000000; stroke-width: 0.8"/>
      </g>
     </g>
     <g id="text_12">
      <!-- 6 -->
      <g transform="translate(58.6375 202.101812) scale(0.1 -0.1)">
       <use xlink:href="#DejaVuSans-36"/>
      </g>
     </g>
    </g>
    <g id="ytick_5">
     <g id="line2d_12">
      <g>
       <use xlink:href="#mef698881f7" x="72" y="161.803457" style="stroke: #000000; stroke-width: 0.8"/>
      </g>
     </g>
     <g id="text_13">
      <!-- 8 -->
      <g transform="translate(58.6375 165.602676) scale(0.1 -0.1)">
       <defs>
        <path id="DejaVuSans-38" d="M 2034 2216 
Q 1584 2216 1326 1975 
Q 1069 1734 1069 1313 
Q 1069 891 1326 650 
Q 1584 409 2034 409 
Q 2484 409 2743 651 
Q 3003 894 3003 1313 
Q 3003 1734 2745 1975 
Q 2488 2216 2034 2216 
z
M 1403 2484 
Q 997 2584 770 2862 
Q 544 3141 544 3541 
Q 544 4100 942 4425 
Q 1341 4750 2034 4750 
Q 2731 4750 3128 4425 
Q 3525 4100 3525 3541 
Q 3525 3141 3298 2862 
Q 3072 2584 2669 2484 
Q 3125 2378 3379 2068 
Q 3634 1759 3634 1313 
Q 3634 634 3220 271 
Q 2806 -91 2034 -91 
Q 1263 -91 848 271 
Q 434 634 434 1313 
Q 434 1759 690 2068 
Q 947 2378 1403 2484 
z
M 1172 3481 
Q 1172 3119 1398 2916 
Q 1625 2713 2034 2713 
Q 2441 2713 2670 2916 
Q 2900 3119 2900 3481 
Q 2900 3844 2670 4047 
Q 2441 4250 2034 4250 
Q 1625 4250 1398 4047 
Q 1172 3844 1172 3481 
z
" transform="scale(0.015625)"/>
       </defs>
       <use xlink:href="#DejaVuSans-38"/>
      </g>
     </g>
    </g>
    <g id="ytick_6">
     <g id="line2d_13">
      <g>
       <use xlink:href="#mef698881f7" x="72" y="125.304321" style="stroke: #000000; stroke-width: 0.8"/>
      </g>
     </g>
     <g id="text_14">
      <!-- 10 -->
      <g transform="translate(52.275 129.10354) scale(0.1 -0.1)">
       <use xlink:href="#DejaVuSans-31"/>
       <use xlink:href="#DejaVuSans-30" x="63.623047"/>
      </g>
     </g>
    </g>
    <g id="ytick_7">
     <g id="line2d_14">
      <g>
       <use xlink:href="#mef698881f7" x="72" y="88.805186" style="stroke: #000000; stroke-width: 0.8"/>
      </g>
     </g>
     <g id="text_15">
      <!-- 12 -->
      <g transform="translate(52.275 92.604404) scale(0.1 -0.1)">
       <use xlink:href="#DejaVuSans-31"/>
       <use xlink:href="#DejaVuSans-32" x="63.623047"/>
      </g>
     </g>
    </g>
    <g id="ytick_8">
     <g id="line2d_15">
      <g>
       <use xlink:href="#mef698881f7" x="72" y="52.30605" style="stroke: #000000; stroke-width: 0.8"/>
      </g>
     </g>
     <g id="text_16">
      <!-- 14 -->
      <g transform="translate(52.275 56.105269) scale(0.1 -0.1)">
       <use xlink:href="#DejaVuSans-31"/>
       <use xlink:href="#DejaVuSans-34" x="63.623047"/>
      </g>
     </g>
    </g>
    <g id="text_17">
     <!-- Bandwidth (Mbps) -->
     <g transform="translate(45.363437 245.327187) rotate(-90) scale(0.14 -0.14)">
      <defs>
       <path id="DejaVuSans-42" d="M 1259 2228 
L 1259 519 
L 2272 519 
Q 2781 519 3026 730 
Q 3272 941 3272 1375 
Q 3272 1813 3026 2020 
Q 2781 2228 2272 2228 
L 1259 2228 
z
M 1259 4147 
L 1259 2741 
L 2194 2741 
Q 2656 2741 2882 2914 
Q 3109 3088 3109 3444 
Q 3109 3797 2882 3972 
Q 2656 4147 2194 4147 
L 1259 4147 
z
M 628 4666 
L 2241 4666 
Q 2963 4666 3353 4366 
Q 3744 4066 3744 3513 
Q 3744 3084 3544 2831 
Q 3344 2578 2956 2516 
Q 3422 2416 3680 2098 
Q 3938 1781 3938 1306 
Q 3938 681 3513 340 
Q 3088 0 2303 0 
L 628 0 
L 628 4666 
z
" transform="scale(0.015625)"/>
       <path id="DejaVuSans-61" d="M 2194 1759 
Q 1497 1759 1228 1600 
Q 959 1441 959 1056 
Q 959 750 1161 570 
Q 1363 391 1709 391 
Q 2188 391 2477 730 
Q 2766 1069 2766 1631 
L 2766 1759 
L 2194 1759 
z
M 3341 1997 
L 3341 0 
L 2766 0 
L 2766 531 
Q 2569 213 2275 61 
Q 1981 -91 1556 -91 
Q 1019 -91 701 211 
Q 384 513 384 1019 
Q 384 1609 779 1909 
Q 1175 2209 1959 2209 
L 2766 2209 
L 2766 2266 
Q 2766 2663 2505 2880 
Q 2244 3097 1772 3097 
Q 1472 3097 1187 3025 
Q 903 2953 641 2809 
L 641 3341 
Q 956 3463 1253 3523 
Q 1550 3584 1831 3584 
Q 2591 3584 2966 3190 
Q 3341 2797 3341 1997 
z
" transform="scale(0.015625)"/>
       <path id="DejaVuSans-6e" d="M 3513 2113 
L 3513 0 
L 2938 0 
L 2938 2094 
Q 2938 2591 2744 2837 
Q 2550 3084 2163 3084 
Q 1697 3084 1428 2787 
Q 1159 2491 1159 1978 
L 1159 0 
L 581 0 
L 581 3500 
L 1159 3500 
L 1159 2956 
Q 1366 3272 1645 3428 
Q 1925 3584 2291 3584 
Q 2894 3584 3203 3211 
Q 3513 2838 3513 2113 
z
" transform="scale(0.015625)"/>
       <path id="DejaVuSans-64" d="M 2906 2969 
L 2906 4863 
L 3481 4863 
L 3481 0 
L 2906 0 
L 2906 525 
Q 2725 213 2448 61 
Q 2172 -91 1784 -91 
Q 1150 -91 751 415 
Q 353 922 353 1747 
Q 353 2572 751 3078 
Q 1150 3584 1784 3584 
Q 2172 3584 2448 3432 
Q 2725 3281 2906 2969 
z
M 947 1747 
Q 947 1113 1208 752 
Q 1469 391 1925 391 
Q 2381 391 2643 752 
Q 2906 1113 2906 1747 
Q 2906 2381 2643 2742 
Q 2381 3103 1925 3103 
Q 1469 3103 1208 2742 
Q 947 2381 947 1747 
z
" transform="scale(0.015625)"/>
       <path id="DejaVuSans-77" d="M 269 3500 
L 844 3500 
L 1563 769 
L 2278 3500 
L 2956 3500 
L 3675 769 
L 4391 3500 
L 4966 3500 
L 4050 0 
L 3372 0 
L 2619 2869 
L 1863 0 
L 1184 0 
L 269 3500 
z
" transform="scale(0.015625)"/>
       <path id="DejaVuSans-74" d="M 1172 4494 
L 1172 3500 
L 2356 3500 
L 2356 3053 
L 1172 3053 
L 1172 1153 
Q 1172 725 1289 603 
Q 1406 481 1766 481 
L 2356 481 
L 2356 0 
L 1766 0 
Q 1100 0 847 248 
Q 594 497 594 1153 
L 594 3053 
L 172 3053 
L 172 3500 
L 594 3500 
L 594 4494 
L 1172 4494 
z
" transform="scale(0.015625)"/>
       <path id="DejaVuSans-68" d="M 3513 2113 
L 3513 0 
L 2938 0 
L 2938 2094 
Q 2938 2591 2744 2837 
Q 2550 3084 2163 3084 
Q 1697 3084 1428 2787 
Q 1159 2491 1159 1978 
L 1159 0 
L 581 0 
L 581 4863 
L 1159 4863 
L 1159 2956 
Q 1366 3272 1645 3428 
Q 1925 3584 2291 3584 
Q 2894 3584 3203 3211 
Q 3513 2838 3513 2113 
z
" transform="scale(0.015625)"/>
       <path id="DejaVuSans-4d" d="M 628 4666 
L 1569 4666 
L 2759 1491 
L 3956 4666 
L 4897 4666 
L 4897 0 
L 4281 0 
L 4281 4097 
L 3078 897 
L 2444 897 
L 1241 4097 
L 1241 0 
L 628 0 
L 628 4666 
z
" transform="scale(0.015625)"/>
       <path id="DejaVuSans-62" d="M 3116 1747 
Q 3116 2381 2855 2742 
Q 2594 3103 2138 3103 
Q 1681 3103 1420 2742 
Q 1159 2381 1159 1747 
Q 1159 1113 1420 752 
Q 1681 391 2138 391 
Q 2594 391 2855 752 
Q 3116 1113 3116 1747 
z
M 1159 2969 
Q 1341 3281 1617 3432 
Q 1894 3584 2278 3584 
Q 2916 3584 3314 3078 
Q 3713 2572 3713 1747 
Q 3713 922 3314 415 
Q 2916 -91 2278 -91 
Q 1894 -91 1617 61 
Q 1341 213 1159 525 
L 1159 0 
L 581 0 
L 581 4863 
L 1159 4863 
L 1159 2969 
z
" transform="scale(0.015625)"/>
       <path id="DejaVuSans-70" d="M 1159 525 
L 1159 -1331 
L 581 -1331 
L 581 3500 
L 1159 3500 
L 1159 2969 
Q 1341 3281 1617 3432 
Q 1894 3584 2278 3584 
Q 2916 3584 3314 3078 
Q 3713 2572 3713 1747 
Q 3713 922 3314 415 
Q 2916 -91 2278 -91 
Q 1894 -91 1617 61 
Q 1341 213 1159 525 
z
M 3116 1747 
Q 3116 2381 2855 2742 
Q 2594 3103 2138 3103 
Q 1681 3103 1420 2742 
Q 1159 2381 1159 1747 
Q 1159 1113 1420 752 
Q 1681 391 2138 391 
Q 2594 391 2855 752 
Q 3116 1113 3116 1747 
z
" transform="scale(0.015625)"/>
      </defs>
      <use xlink:href="#DejaVuSans-42"/>
      <use xlink:href="#DejaVuSans-61" x="68.603516"/>
      <use xlink:href="#DejaVuSans-6e" x="129.882812"/>
      <use xlink:href="#DejaVuSans-64" x="193.261719"/>
      <use xlink:href="#DejaVuSans-77" x="256.738281"/>
      <use xlink:href="#DejaVuSans-69" x="338.525391"/>
      <use xlink:href="#DejaVuSans-64" x="366.308594"/>
      <use xlink:href="#DejaVuSans-74" x="429.785156"/>
      <use xlink:href="#DejaVuSans-68" x="468.994141"/>
      <use xlink:href="#DejaVuSans-20" x="532.373047"/>
      <use xlink:href="#DejaVuSans-28" x="564.160156"/>
      <use xlink:href="#DejaVuSans-4d" x="603.173828"/>
      <use xlink:href="#DejaVuSans-62" x="689.453125"/>
      <use xlink:href="#DejaVuSans-70" x="752.929688"/>
      <use xlink:href="#DejaVuSans-73" x="816.40625"/>
      <use xlink:href="#DejaVuSans-29" x="868.505859"/>
     </g>
    </g>
   </g>
   <g id="line2d_16">
    <path d="M 92.290909 265.310592 
L 92.968402 265.30817 
L 93.645895 305.897491 
L 94.323387 305.897489 
L 95.00088 301.035517 
L 95.678373 301.035132 
L 96.355866 305.897487 
L 98.388344 305.897381 
L 99.065837 273.554736 
L 99.74333 273.764357 
L 100.420823 235.716116 
L 101.098315 235.923051 
L 101.775808 291.100165 
L 102.453301 291.099247 
L 103.130794 284.3357 
L 103.808287 284.334785 
L 104.485779 280.107951 
L 105.163272 280.317637 
L 105.840765 267.424449 
L 107.19575 267.424531 
L 107.873243 267.633513 
L 108.550736 178.852044 
L 109.228229 179.053129 
L 109.905722 215.42253 
L 110.583214 215.628569 
L 111.260707 150.745942 
L 111.9382 150.930975 
L 112.615693 172.08892 
L 113.293186 172.078331 
L 113.970678 178.640654 
L 114.648171 178.421892 
L 115.325664 131.711864 
L 116.003157 131.922919 
L 116.68065 127.484058 
L 117.358142 127.896781 
L 118.035635 159.826777 
L 118.713128 159.607243 
L 119.390621 146.50936 
L 120.068114 146.711245 
L 120.745606 201.68206 
L 121.423099 201.676013 
L 122.100592 195.34035 
L 122.778085 195.334277 
L 123.455577 161.767255 
L 124.13307 161.683421 
L 124.810563 170.60783 
L 125.488056 170.600013 
L 126.165549 157.078703 
L 126.843041 157.281517 
L 127.520534 219.438847 
L 128.198027 219.222589 
L 128.87552 240.578015 
L 129.553013 240.785387 
L 130.230505 228.110789 
L 130.907998 228.309849 
L 131.585491 153.0626 
L 132.262984 152.876621 
L 132.940477 183.300437 
L 133.617969 183.063877 
L 134.295462 204.859406 
L 134.972955 204.841078 
L 135.650448 217.541756 
L 136.327941 217.525864 
L 137.005433 193.43796 
L 137.682926 193.219919 
L 138.360419 186.884867 
L 139.037912 187.08925 
L 139.715404 225.018954 
L 140.392897 223.99765 
L 141.07039 249.66778 
L 141.747883 249.453184 
L 142.425376 300.189971 
L 143.102868 300.189508 
L 143.780361 277.571217 
L 144.457854 277.569462 
L 145.135347 225.992112 
L 145.81284 226.199748 
L 146.490332 245.651313 
L 147.167825 245.859107 
L 147.845318 273.977585 
L 148.522811 273.975622 
L 149.200304 293.848267 
L 149.877796 294.058833 
L 150.555289 301.881083 
L 151.232782 301.880728 
L 151.910275 305.897506 
L 164.782638 305.899431 
L 165.460131 210.9844 
L 166.137623 210.978006 
L 166.815116 191.53556 
L 167.492609 191.740227 
L 168.170102 191.330349 
L 168.847594 191.311125 
L 169.525087 179.486214 
L 170.20258 179.478903 
L 170.880073 171.030464 
L 171.557566 171.023078 
L 172.235058 196.820083 
L 172.912551 196.813984 
L 173.590044 121.353939 
L 174.267537 130.645178 
L 174.94503 123.681425 
L 175.622522 132.967973 
L 176.300015 149.468972 
L 176.977508 149.459478 
L 177.655001 186.463534 
L 178.332494 186.453835 
L 179.009986 170.192891 
L 179.687479 170.476633 
L 180.364972 120.508379 
L 181.042465 132.124279 
L 181.719958 120.508178 
L 182.39745 135.929878 
L 183.074943 133.40334 
L 183.752436 133.403174 
L 184.429929 143.127118 
L 185.107421 143.117892 
L 185.784914 136.574189 
L 186.462407 136.352683 
L 187.1399 124.947374 
L 187.817393 127.262747 
L 188.494885 120.297167 
L 189.172378 130.433057 
L 189.849871 189.634347 
L 190.527364 189.836068 
L 191.204857 198.934648 
L 191.882349 198.716055 
L 192.559842 165.534468 
L 193.237335 165.526209 
L 193.914828 207.195417 
L 194.592321 207.155768 
L 195.269813 238.252585 
L 195.947306 238.466124 
L 196.624799 209.721275 
L 197.302292 209.703614 
L 197.979784 228.535925 
L 198.657277 228.517058 
L 199.33477 212.040186 
L 200.012263 211.823521 
L 200.689756 199.991053 
L 201.367248 199.98491 
L 202.044741 213.097137 
L 202.722234 213.092023 
L 203.399727 228.317401 
L 204.07722 228.31255 
L 204.754712 216.691326 
L 205.432205 216.89662 
L 206.109698 210.983234 
L 206.787191 210.983915 
L 207.464684 207.812487 
L 208.142176 207.806789 
L 208.819669 200.202546 
L 209.497162 200.407497 
L 210.174655 194.917691 
L 210.852148 195.122661 
L 211.52964 194.494911 
L 212.207133 194.494451 
L 212.884626 149.265992 
L 213.562119 149.239664 
L 214.239611 154.340616 
L 214.917104 154.311756 
L 215.594597 131.077525 
L 216.27209 130.857634 
L 216.949583 131.500831 
L 217.627075 131.490071 
L 218.304568 120.303917 
L 218.982061 131.907603 
L 219.659554 121.138811 
L 220.337047 133.608293 
L 221.014539 120.296787 
L 221.692032 130.647121 
L 222.369525 120.509115 
L 223.047018 134.026905 
L 223.724511 151.371332 
L 224.402003 151.362418 
L 225.079496 165.957096 
L 225.756989 165.949166 
L 226.434482 130.866303 
L 227.111975 131.004741 
L 227.789467 122.019489 
L 228.46696 133.786273 
L 229.144453 120.296787 
L 229.821946 130.856411 
L 230.499438 127.484058 
L 231.176931 127.473977 
L 231.854424 145.452409 
L 232.531917 145.241329 
L 233.20941 141.8586 
L 233.886902 141.849322 
L 234.564395 123.055036 
L 235.241888 130.635431 
L 235.919381 172.087415 
L 236.596874 172.081041 
L 237.274366 233.179146 
L 237.951859 232.963786 
L 238.629352 273.132475 
L 239.306845 273.129562 
L 239.984338 305.897487 
L 240.66183 305.897384 
L 241.339323 280.319288 
L 242.016816 280.317722 
L 242.694309 258.968935 
L 243.371801 259.177456 
L 244.049294 257.700548 
L 244.726787 257.697741 
L 245.40428 231.488786 
L 246.081773 231.483292 
L 246.759265 233.179217 
L 247.436758 233.386368 
L 248.114251 251.781906 
L 248.791744 251.989496 
L 249.469237 217.325127 
L 250.146729 217.10884 
L 250.824222 263.196733 
L 251.501715 263.194324 
L 252.179208 262.776519 
L 252.856701 262.980639 
L 253.534193 240.789469 
L 254.211686 240.785451 
L 254.889179 219.861627 
L 255.566672 220.068113 
L 256.244165 207.178412 
L 256.921657 207.172475 
L 257.59915 257.278117 
L 258.276643 257.485886 
L 258.954136 242.903242 
L 259.631628 242.688072 
L 260.309121 217.325127 
L 260.986614 217.320058 
L 261.664107 233.602078 
L 262.3416 233.59777 
L 263.019092 285.392963 
L 263.696585 285.391349 
L 264.374078 273.343588 
L 265.051571 273.344655 
L 265.729064 287.295161 
L 266.406556 287.505414 
L 267.084049 251.781732 
L 267.761542 251.778487 
L 268.439035 213.942889 
L 269.116528 213.93735 
L 269.79402 243.748733 
L 270.471513 243.956676 
L 271.149006 282.011208 
L 271.826499 282.008423 
L 272.503992 305.897491 
L 274.53647 305.897291 
L 275.213963 299.555786 
L 275.891455 299.76675 
L 276.568948 267.847392 
L 277.246441 268.056318 
L 277.923934 218.171669 
L 278.601427 217.953278 
L 279.278919 211.40775 
L 279.956412 211.610388 
L 280.633905 216.69087 
L 281.311398 216.686037 
L 281.988891 227.894383 
L 282.666383 227.678743 
L 283.343876 198.935621 
L 284.021369 199.137883 
L 284.698862 231.699639 
L 285.376355 231.906859 
L 286.053847 137.420601 
L 286.73134 137.409187 
L 287.408833 176.951233 
L 288.086326 176.941812 
L 288.763818 195.55332 
L 289.441311 195.544 
L 290.118804 179.486214 
L 290.796297 179.479285 
L 291.47379 222.609874 
L 292.151282 222.604939 
L 292.828775 235.086099 
L 293.506268 235.284784 
L 294.183761 250.513681 
L 294.861254 250.509843 
L 295.538746 235.927437 
L 296.216239 236.134889 
L 296.893732 285.392917 
L 297.571225 285.391148 
L 298.248718 305.897489 
L 301.636182 305.897381 
L 302.313674 266.15644 
L 302.991167 266.153486 
L 303.66866 305.897491 
L 304.346153 305.897379 
L 305.023645 280.31934 
L 305.701138 280.529232 
L 306.378631 251.147563 
L 307.056124 251.144166 
L 307.733617 258.969471 
L 308.411109 259.176923 
L 309.088602 191.112781 
L 309.766095 191.107648 
L 310.443588 186.250929 
L 311.121081 186.243771 
L 311.798573 180.120765 
L 312.476066 179.901448 
L 313.153559 213.520019 
L 313.831052 213.51549 
L 314.508545 191.324281 
L 315.186037 191.317422 
L 315.86353 165.323078 
L 316.541023 165.103404 
L 317.218516 186.03967 
L 317.896008 186.243525 
L 318.573501 239.521204 
L 319.250994 239.306459 
L 319.928487 271.440904 
L 320.60598 271.650269 
L 321.283472 226.838077 
L 321.960965 226.832895 
L 322.638458 252.204459 
L 323.315951 252.20151 
L 323.993444 269.327118 
L 324.670936 269.324692 
L 325.348429 301.458303 
L 326.025922 301.669338 
L 326.703415 305.897518 
L 327.380908 305.897504 
L 328.0584 234.025816 
L 328.735893 234.020654 
L 329.413386 153.27353 
L 330.090879 153.47736 
L 330.768372 190.901628 
L 331.445864 190.894381 
L 332.123357 171.453927 
L 332.80085 171.241854 
L 333.478343 188.365666 
L 334.155835 188.570019 
L 334.833328 139.674194 
L 335.510821 139.172185 
L 336.188314 165.748127 
L 336.865807 165.735621 
L 337.543299 195.340806 
L 338.220792 195.333493 
L 338.898285 196.820413 
L 339.575778 197.025161 
L 340.253271 172.721731 
L 340.930763 172.713889 
L 341.608256 135.3055 
L 342.285749 135.084268 
L 342.963242 162.575578 
L 343.640735 162.576011 
L 344.318227 213.736488 
L 344.99572 213.720963 
L 345.673213 263.408123 
L 346.350706 263.194101 
L 347.028199 305.897491 
L 347.705691 305.897381 
L 348.383184 285.392941 
L 349.060677 285.391104 
L 349.73817 267.001712 
L 350.415662 266.999426 
L 351.093155 292.157133 
L 351.770648 292.156335 
L 352.448141 305.897487 
L 355.835605 305.897367 
L 356.513098 294.6938 
L 357.19059 294.90447 
L 357.868083 278.416746 
L 358.545576 278.626505 
L 359.223069 240.155977 
L 359.900562 239.939166 
L 360.578054 228.10585 
L 361.255547 228.312796 
L 361.93304 194.706179 
L 362.610533 194.699964 
L 363.288025 220.284502 
L 363.965518 220.279421 
L 364.643011 224.723773 
L 365.320504 224.718871 
L 365.997997 189.844329 
L 367.352982 190.267221 
L 368.030475 190.261939 
L 368.707968 245.862703 
L 369.385461 245.859174 
L 370.062953 213.942799 
L 370.740446 213.937541 
L 371.417939 193.43796 
L 372.095432 193.431444 
L 372.772925 243.748802 
L 373.450417 243.956555 
L 374.12791 218.382076 
L 374.805403 218.376715 
L 375.482896 260.237275 
L 376.160389 260.445921 
L 376.837881 305.897489 
L 378.87036 305.897379 
L 379.547852 289.622723 
L 380.225345 289.828571 
L 380.902838 305.897489 
L 382.935316 305.897381 
L 383.612809 305.686097 
L 384.290302 305.685976 
L 384.967795 305.897487 
L 388.355259 305.897392 
L 389.032752 303.572194 
L 389.710244 303.571961 
L 390.387737 305.897598 
L 391.06523 305.89727 
L 391.742723 269.538393 
L 392.420216 269.536213 
L 393.097708 305.897497 
L 404.615086 305.897383 
L 405.292579 230.222009 
L 405.970071 230.213862 
L 406.647564 258.757692 
L 407.325057 258.754605 
L 408.00255 293.425517 
L 408.680042 293.424812 
L 409.357535 240.155171 
L 410.035028 240.151445 
L 410.712521 266.578888 
L 411.390014 266.576539 
L 412.067506 253.684569 
L 412.744999 253.469214 
L 413.422492 265.099242 
L 414.099985 265.096636 
L 414.777478 223.032654 
L 415.45497 223.028157 
L 416.132463 208.024673 
L 416.809956 208.017989 
L 417.487449 193.227827 
L 418.164942 193.218662 
L 418.842434 189.421661 
L 419.519927 189.421901 
L 420.19742 159.193651 
L 420.874913 158.972895 
L 421.552406 155.387744 
L 422.229898 155.379204 
L 422.907391 175.258539 
L 423.584884 175.251776 
L 424.262377 178.217997 
L 424.939869 178.423311 
L 425.617362 225.357776 
L 426.294855 225.564647 
L 426.972348 190.902798 
L 427.649841 190.681687 
L 428.327333 228.528791 
L 429.004826 228.524113 
L 429.682319 238.886756 
L 430.359812 239.094232 
L 431.037305 213.731588 
L 431.714797 213.558461 
L 432.39229 233.602219 
L 433.069783 233.601627 
L 433.747276 222.187778 
L 434.424769 221.970129 
L 435.102261 221.341452 
L 435.779754 221.336433 
L 436.457247 178.217997 
L 437.13474 178.210088 
L 437.812233 136.997131 
L 438.489725 136.986727 
L 439.167218 164.688618 
L 439.844711 164.892155 
L 440.522204 180.965809 
L 441.199696 180.747694 
L 441.877189 188.787378 
L 442.554682 188.569308 
L 443.232175 248.39932 
L 443.909668 248.607514 
L 444.58716 225.997592 
L 445.264653 225.981721 
L 445.942146 196.187255 
L 446.619639 196.179326 
L 447.297132 197.454372 
L 447.974624 197.665316 
L 448.652117 193.86108 
L 449.32961 193.643635 
L 450.007103 199.35709 
L 450.684596 199.139625 
L 451.362088 157.503436 
L 452.039581 157.714985 
L 452.717074 129.175372 
L 453.394567 129.165535 
L 454.072059 162.365645 
L 454.749552 162.354879 
L 455.427045 166.80422 
L 456.104538 166.793783 
L 456.782031 250.09131 
L 457.459523 250.096909 
L 458.137016 240.155235 
L 458.814509 240.151243 
L 459.492002 233.179298 
L 460.169495 233.175784 
L 460.846987 204.853222 
L 461.52448 204.635646 
L 462.201973 196.820638 
L 462.879466 196.601912 
L 463.556959 203.162104 
L 464.234451 203.373494 
L 464.911944 206.967022 
L 465.589437 207.172379 
L 466.26693 204.218855 
L 466.944423 204.213459 
L 467.621915 194.072578 
L 468.299408 194.276477 
L 468.976901 166.169483 
L 469.654394 165.948168 
L 470.331886 225.780967 
L 471.009379 225.775716 
L 471.686872 207.178316 
L 472.364365 207.172583 
L 473.041858 228.317401 
L 473.71935 228.312711 
L 474.396843 174.202386 
L 475.074336 174.194247 
L 475.751829 195.552758 
L 476.429322 195.544562 
L 477.106814 210.560453 
L 477.784307 210.767194 
L 478.4618 261.50557 
L 479.139293 261.714378 
L 479.816786 234.236248 
L 480.494278 234.232346 
L 481.171771 256.220818 
L 481.849264 256.552886 
L 482.526757 272.075036 
L 483.20425 272.073179 
L 483.881742 205.276001 
L 484.559235 205.058561 
L 485.236728 180.544818 
L 485.914221 180.534889 
L 486.591713 151.160726 
L 487.269206 150.938819 
L 487.946699 169.552808 
L 488.624192 169.542162 
L 489.301685 157.501931 
L 489.979177 157.281212 
L 490.65667 169.551012 
L 491.334163 169.543002 
L 492.011656 199.779766 
L 492.689149 199.773508 
L 493.366641 307.8 
L 498.109091 307.8 
L 498.109091 307.8 
" clip-path="url(#pdf8e94555a)" style="fill: none; stroke: #1f77b4; stroke-width: 1.5; stroke-linecap: square"/>
   </g>
   <g id="line2d_17">
    <path d="M 92.290909 265.375234 
L 93.645895 305.975043 
L 95.00088 301.130672 
L 96.355866 305.975043 
L 97.710851 305.975043 
L 99.065837 273.659406 
L 100.420823 235.792031 
L 101.775808 291.14527 
L 103.130794 284.325938 
L 104.485779 280.228925 
L 105.840765 267.505043 
L 107.19575 267.558258 
L 108.550736 178.934472 
L 109.905722 215.536327 
L 111.260707 150.797659 
L 112.615693 172.034234 
L 113.970678 178.52267 
L 115.325664 131.732387 
L 116.68065 127.352174 
L 118.035635 159.739592 
L 119.390621 146.533237 
L 120.745606 201.636839 
L 122.100592 195.315596 
L 123.455577 161.708897 
L 124.810563 170.541687 
L 126.165549 157.12978 
L 127.520534 219.391829 
L 128.87552 240.706239 
L 130.230505 228.205472 
L 131.585491 152.948763 
L 132.940477 183.221798 
L 134.295462 204.838369 
L 135.650448 217.568829 
L 137.005433 193.36764 
L 138.360419 186.928819 
L 139.715404 224.472533 
L 141.07039 249.615826 
L 142.425376 300.286539 
L 143.780361 277.5919 
L 145.135347 226.120267 
L 146.490332 245.786558 
L 147.845318 274.048844 
L 149.200304 293.972328 
L 150.555289 301.962688 
L 151.910275 305.975043 
L 164.105145 305.975043 
L 165.460131 210.976625 
L 166.815116 191.629026 
L 168.170102 191.333111 
L 169.525087 179.501907 
L 170.880073 171.006673 
L 172.235058 196.854797 
L 173.590044 104.873446 
L 174.94503 106.954132 
L 176.300015 149.405626 
L 177.655001 186.431639 
L 179.009986 170.246722 
L 180.364972 114.587934 
L 181.719958 115.179955 
L 183.074943 133.391364 
L 184.429929 143.126459 
L 185.784914 136.422403 
L 187.1399 124.841735 
L 188.494885 99.95946 
L 189.849871 189.697437 
L 191.204857 198.857446 
L 192.559842 165.489115 
L 193.914828 207.223187 
L 195.269813 238.359775 
L 196.624799 209.734546 
L 197.979784 228.52066 
L 199.33477 211.97704 
L 200.689756 199.970225 
L 202.044741 213.118263 
L 203.399727 228.295428 
L 204.754712 216.763384 
L 206.109698 211.003784 
L 207.464684 207.829794 
L 208.819669 200.258531 
L 210.174655 195.000996 
L 211.52964 194.486515 
L 212.884626 149.22363 
L 214.239611 154.253894 
L 215.594597 130.947346 
L 216.949583 131.414602 
L 218.304568 55.8 
L 219.659554 61.148534 
L 221.014539 64.68539 
L 222.369525 70.305081 
L 223.724511 151.371498 
L 225.079496 165.968744 
L 226.434482 130.810711 
L 227.789467 117.715719 
L 229.144453 98.60218 
L 230.499438 127.315069 
L 231.854424 145.325128 
L 233.20941 173.45868 
L 234.564395 141.816913 
L 235.919381 101.182843 
L 237.274366 172.025244 
L 238.629352 233.113534 
L 239.984338 273.167687 
L 241.339323 305.975043 
L 242.694309 280.394354 
L 244.049294 259.123613 
L 245.40428 257.773923 
L 246.759265 231.513169 
L 248.114251 233.288906 
L 249.469237 251.871323 
L 250.824222 217.258805 
L 252.179208 263.24897 
L 253.534193 262.886145 
L 254.889179 278.014976 
L 256.244165 240.766481 
L 257.59915 219.948039 
L 258.954136 207.161234 
L 260.309121 257.417601 
L 261.664107 242.840841 
L 263.019092 217.379208 
L 264.374078 233.568782 
L 265.729064 285.432569 
L 267.084049 273.352772 
L 268.439035 287.485081 
L 271.149006 213.972296 
L 272.503992 243.83026 
L 273.858977 282.100541 
L 275.213963 305.975043 
L 276.568948 305.975043 
L 277.923934 299.667794 
L 279.278919 267.977753 
L 280.633905 218.097849 
L 281.988891 211.485452 
L 283.343876 216.704774 
L 284.698862 227.814909 
L 286.053847 198.992189 
L 287.408833 231.797698 
L 288.763818 137.347609 
L 290.118804 176.977371 
L 291.47379 195.507681 
L 292.828775 179.446967 
L 294.183761 222.582504 
L 295.538746 235.201938 
L 296.893732 250.520131 
L 298.248718 236.027165 
L 299.603703 285.474173 
L 300.958689 305.975043 
L 303.66866 305.975043 
L 305.023645 266.23529 
L 306.378631 305.975043 
L 307.733617 280.429902 
L 309.088602 251.201552 
L 310.443588 259.127527 
L 311.798573 191.150336 
L 313.153559 186.274585 
L 314.508545 180.000865 
L 315.86353 213.527248 
L 317.218516 191.351853 
L 318.573501 165.247697 
L 319.928487 186.11614 
L 321.283472 239.455418 
L 322.638458 271.588381 
L 323.993444 226.867103 
L 325.348429 252.237222 
L 326.703415 269.32857 
L 328.0584 301.620317 
L 329.413386 305.975043 
L 330.768372 234.008928 
L 332.123357 153.323386 
L 333.478343 190.845948 
L 334.833328 171.372272 
L 336.188314 188.411592 
L 337.543299 139.369446 
L 338.898285 165.694261 
L 340.253271 195.359624 
L 341.608256 196.876189 
L 342.963242 172.719649 
L 344.318227 135.176979 
L 345.673213 162.550864 
L 348.383184 263.365297 
L 349.73817 305.975043 
L 351.093155 285.456054 
L 352.448141 267.082341 
L 353.803126 292.237058 
L 355.158112 305.975043 
L 357.868083 305.975043 
L 359.223069 294.847617 
L 360.578054 278.556821 
L 361.93304 240.103375 
L 363.288025 228.205332 
L 364.643011 194.712662 
L 365.997997 220.32523 
L 367.352982 224.772698 
L 368.707968 189.910296 
L 370.062953 190.244222 
L 371.417939 245.930129 
L 372.772925 213.996509 
L 374.12791 193.42805 
L 375.482896 243.850551 
L 376.837881 218.426638 
L 378.192867 260.356085 
L 379.547852 305.975043 
L 380.902838 305.975043 
L 382.257824 289.736969 
L 383.612809 305.975043 
L 384.967795 305.975043 
L 386.32278 305.756503 
L 387.677766 305.975043 
L 390.387737 305.975043 
L 391.742723 303.653127 
L 393.097708 305.975043 
L 394.452694 269.5433 
L 395.807679 305.975043 
L 408.00255 305.975043 
L 409.357535 230.277327 
L 410.712521 258.747116 
L 412.067506 293.432044 
L 413.422492 240.19089 
L 414.777478 266.612951 
L 416.132463 253.636858 
L 417.487449 265.104341 
L 418.842434 223.009966 
L 421.552406 193.229677 
L 422.907391 189.430672 
L 424.262377 159.055017 
L 425.617362 155.383363 
L 426.972348 175.25063 
L 428.327333 178.287455 
L 429.682319 225.462639 
L 431.037305 190.800814 
L 432.39229 228.541792 
L 433.747276 238.970964 
L 435.102261 213.665093 
L 436.457247 233.578829 
L 437.812233 222.103259 
L 439.167218 221.332754 
L 441.877189 136.96622 
L 443.232175 164.719934 
L 444.58716 180.861425 
L 445.942146 188.698182 
L 447.297132 248.480212 
L 448.652117 226.020379 
L 450.007103 196.190335 
L 451.362088 197.551202 
L 452.717074 193.795578 
L 454.072059 199.292595 
L 455.427045 157.533795 
L 456.782031 129.112847 
L 458.137016 162.390493 
L 459.492002 166.736958 
L 460.846987 189.108615 
L 462.201973 250.168454 
L 463.556959 240.220176 
L 464.911944 233.166213 
L 466.26693 204.753958 
L 467.621915 196.757096 
L 468.976901 203.229619 
L 470.331886 207.03016 
L 471.686872 204.238743 
L 473.041858 194.126563 
L 474.396843 166.045165 
L 475.751829 225.796454 
L 477.106814 207.128353 
L 478.4618 228.283869 
L 479.816786 174.220412 
L 481.171771 195.519354 
L 482.526757 210.628077 
L 483.881742 261.589849 
L 485.236728 234.280174 
L 486.591713 256.373543 
L 487.946699 272.084633 
L 489.301685 205.189062 
L 490.65667 180.52233 
L 492.011656 151.060374 
L 493.366641 169.569729 
L 494.721627 157.358769 
L 496.076613 169.539894 
L 497.431598 199.801088 
L 497.431598 199.801088 
" clip-path="url(#pdf8e94555a)" style="fill: none; stroke: #ff7f0e; stroke-width: 1.5; stroke-linecap: square"/>
   </g>
   <g id="patch_3">
    <path d="M 72 320.4 
L 72 43.2 
" style="fill: none; stroke: #000000; stroke-width: 0.8; stroke-linejoin: miter; stroke-linecap: square"/>
   </g>
   <g id="patch_4">
    <path d="M 518.4 320.4 
L 518.4 43.2 
" style="fill: none; stroke: #000000; stroke-width: 0.8; stroke-linejoin: miter; stroke-linecap: square"/>
   </g>
   <g id="patch_5">
    <path d="M 72 320.4 
L 518.4 320.4 
" style="fill: none; stroke: #000000; stroke-width: 0.8; stroke-linejoin: miter; stroke-linecap: square"/>
   </g>
   <g id="patch_6">
    <path d="M 72 43.2 
L 518.4 43.2 
" style="fill: none; stroke: #000000; stroke-width: 0.8; stroke-linejoin: miter; stroke-linecap: square"/>
   </g>
   <g id="text_18">
    <!-- Dataset Generation -->
    <g transform="translate(236.325937 37.2) scale(0.12 -0.12)">
     <defs>
      <path id="DejaVuSans-44" d="M 1259 4147 
L 1259 519 
L 2022 519 
Q 2988 519 3436 956 
Q 3884 1394 3884 2338 
Q 3884 3275 3436 3711 
Q 2988 4147 2022 4147 
L 1259 4147 
z
M 628 4666 
L 1925 4666 
Q 3281 4666 3915 4102 
Q 4550 3538 4550 2338 
Q 4550 1131 3912 565 
Q 3275 0 1925 0 
L 628 0 
L 628 4666 
z
" transform="scale(0.015625)"/>
      <path id="DejaVuSans-47" d="M 3809 666 
L 3809 1919 
L 2778 1919 
L 2778 2438 
L 4434 2438 
L 4434 434 
Q 4069 175 3628 42 
Q 3188 -91 2688 -91 
Q 1594 -91 976 548 
Q 359 1188 359 2328 
Q 359 3472 976 4111 
Q 1594 4750 2688 4750 
Q 3144 4750 3555 4637 
Q 3966 4525 4313 4306 
L 4313 3634 
Q 3963 3931 3569 4081 
Q 3175 4231 2741 4231 
Q 1884 4231 1454 3753 
Q 1025 3275 1025 2328 
Q 1025 1384 1454 906 
Q 1884 428 2741 428 
Q 3075 428 3337 486 
Q 3600 544 3809 666 
z
" transform="scale(0.015625)"/>
      <path id="DejaVuSans-72" d="M 2631 2963 
Q 2534 3019 2420 3045 
Q 2306 3072 2169 3072 
Q 1681 3072 1420 2755 
Q 1159 2438 1159 1844 
L 1159 0 
L 581 0 
L 581 3500 
L 1159 3500 
L 1159 2956 
Q 1341 3275 1631 3429 
Q 1922 3584 2338 3584 
Q 2397 3584 2469 3576 
Q 2541 3569 2628 3553 
L 2631 2963 
z
" transform="scale(0.015625)"/>
      <path id="DejaVuSans-6f" d="M 1959 3097 
Q 1497 3097 1228 2736 
Q 959 2375 959 1747 
Q 959 1119 1226 758 
Q 1494 397 1959 397 
Q 2419 397 2687 759 
Q 2956 1122 2956 1747 
Q 2956 2369 2687 2733 
Q 2419 3097 1959 3097 
z
M 1959 3584 
Q 2709 3584 3137 3096 
Q 3566 2609 3566 1747 
Q 3566 888 3137 398 
Q 2709 -91 1959 -91 
Q 1206 -91 779 398 
Q 353 888 353 1747 
Q 353 2609 779 3096 
Q 1206 3584 1959 3584 
z
" transform="scale(0.015625)"/>
     </defs>
     <use xlink:href="#DejaVuSans-44"/>
     <use xlink:href="#DejaVuSans-61" x="77.001953"/>
     <use xlink:href="#DejaVuSans-74" x="138.28125"/>
     <use xlink:href="#DejaVuSans-61" x="177.490234"/>
     <use xlink:href="#DejaVuSans-73" x="238.769531"/>
     <use xlink:href="#DejaVuSans-65" x="290.869141"/>
     <use xlink:href="#DejaVuSans-74" x="352.392578"/>
     <use xlink:href="#DejaVuSans-20" x="391.601562"/>
     <use xlink:href="#DejaVuSans-47" x="423.388672"/>
     <use xlink:href="#DejaVuSans-65" x="500.878906"/>
     <use xlink:href="#DejaVuSans-6e" x="562.402344"/>
     <use xlink:href="#DejaVuSans-65" x="625.78125"/>
     <use xlink:href="#DejaVuSans-72" x="687.304688"/>
     <use xlink:href="#DejaVuSans-61" x="728.417969"/>
     <use xlink:href="#DejaVuSans-74" x="789.697266"/>
     <use xlink:href="#DejaVuSans-69" x="828.90625"/>
     <use xlink:href="#DejaVuSans-6f" x="856.689453"/>
     <use xlink:href="#DejaVuSans-6e" x="917.871094"/>
    </g>
   </g>
   <g id="legend_1">
    <g id="patch_7">
     <path d="M 394.965625 80.55625 
L 511.4 80.55625 
Q 513.4 80.55625 513.4 78.55625 
L 513.4 50.2 
Q 513.4 48.2 511.4 48.2 
L 394.965625 48.2 
Q 392.965625 48.2 392.965625 50.2 
L 392.965625 78.55625 
Q 392.965625 80.55625 394.965625 80.55625 
z
" style="fill: #ffffff; opacity: 0.8; stroke: #cccccc; stroke-linejoin: miter"/>
    </g>
    <g id="line2d_18">
     <path d="M 396.965625 56.298437 
L 406.965625 56.298437 
L 416.965625 56.298437 
" style="fill: none; stroke: #1f77b4; stroke-width: 1.5; stroke-linecap: square"/>
    </g>
    <g id="text_19">
     <!-- Generated Data -->
     <g transform="translate(424.965625 59.798437) scale(0.1 -0.1)">
      <use xlink:href="#DejaVuSans-47"/>
      <use xlink:href="#DejaVuSans-65" x="77.490234"/>
      <use xlink:href="#DejaVuSans-6e" x="139.013672"/>
      <use xlink:href="#DejaVuSans-65" x="202.392578"/>
      <use xlink:href="#DejaVuSans-72" x="263.916016"/>
      <use xlink:href="#DejaVuSans-61" x="305.029297"/>
      <use xlink:href="#DejaVuSans-74" x="366.308594"/>
      <use xlink:href="#DejaVuSans-65" x="405.517578"/>
      <use xlink:href="#DejaVuSans-64" x="467.041016"/>
      <use xlink:href="#DejaVuSans-20" x="530.517578"/>
      <use xlink:href="#DejaVuSans-44" x="562.304688"/>
      <use xlink:href="#DejaVuSans-61" x="639.306641"/>
      <use xlink:href="#DejaVuSans-74" x="700.585938"/>
      <use xlink:href="#DejaVuSans-61" x="739.794922"/>
     </g>
    </g>
    <g id="line2d_19">
     <path d="M 396.965625 70.976562 
L 406.965625 70.976562 
L 416.965625 70.976562 
" style="fill: none; stroke: #ff7f0e; stroke-width: 1.5; stroke-linecap: square"/>
    </g>
    <g id="text_20">
     <!-- Requested Rates -->
     <g transform="translate(424.965625 74.476562) scale(0.1 -0.1)">
      <defs>
       <path id="DejaVuSans-52" d="M 2841 2188 
Q 3044 2119 3236 1894 
Q 3428 1669 3622 1275 
L 4263 0 
L 3584 0 
L 2988 1197 
Q 2756 1666 2539 1819 
Q 2322 1972 1947 1972 
L 1259 1972 
L 1259 0 
L 628 0 
L 628 4666 
L 2053 4666 
Q 2853 4666 3247 4331 
Q 3641 3997 3641 3322 
Q 3641 2881 3436 2590 
Q 3231 2300 2841 2188 
z
M 1259 4147 
L 1259 2491 
L 2053 2491 
Q 2509 2491 2742 2702 
Q 2975 2913 2975 3322 
Q 2975 3731 2742 3939 
Q 2509 4147 2053 4147 
L 1259 4147 
z
" transform="scale(0.015625)"/>
       <path id="DejaVuSans-71" d="M 947 1747 
Q 947 1113 1208 752 
Q 1469 391 1925 391 
Q 2381 391 2643 752 
Q 2906 1113 2906 1747 
Q 2906 2381 2643 2742 
Q 2381 3103 1925 3103 
Q 1469 3103 1208 2742 
Q 947 2381 947 1747 
z
M 2906 525 
Q 2725 213 2448 61 
Q 2172 -91 1784 -91 
Q 1150 -91 751 415 
Q 353 922 353 1747 
Q 353 2572 751 3078 
Q 1150 3584 1784 3584 
Q 2172 3584 2448 3432 
Q 2725 3281 2906 2969 
L 2906 3500 
L 3481 3500 
L 3481 -1331 
L 2906 -1331 
L 2906 525 
z
" transform="scale(0.015625)"/>
       <path id="DejaVuSans-75" d="M 544 1381 
L 544 3500 
L 1119 3500 
L 1119 1403 
Q 1119 906 1312 657 
Q 1506 409 1894 409 
Q 2359 409 2629 706 
Q 2900 1003 2900 1516 
L 2900 3500 
L 3475 3500 
L 3475 0 
L 2900 0 
L 2900 538 
Q 2691 219 2414 64 
Q 2138 -91 1772 -91 
Q 1169 -91 856 284 
Q 544 659 544 1381 
z
M 1991 3584 
L 1991 3584 
z
" transform="scale(0.015625)"/>
      </defs>
      <use xlink:href="#DejaVuSans-52"/>
      <use xlink:href="#DejaVuSans-65" x="64.982422"/>
      <use xlink:href="#DejaVuSans-71" x="126.505859"/>
      <use xlink:href="#DejaVuSans-75" x="189.982422"/>
      <use xlink:href="#DejaVuSans-65" x="253.361328"/>
      <use xlink:href="#DejaVuSans-73" x="314.884766"/>
      <use xlink:href="#DejaVuSans-74" x="366.984375"/>
      <use xlink:href="#DejaVuSans-65" x="406.193359"/>
      <use xlink:href="#DejaVuSans-64" x="467.716797"/>
      <use xlink:href="#DejaVuSans-20" x="531.193359"/>
      <use xlink:href="#DejaVuSans-52" x="562.980469"/>
      <use xlink:href="#DejaVuSans-61" x="630.212891"/>
      <use xlink:href="#DejaVuSans-74" x="691.492188"/>
      <use xlink:href="#DejaVuSans-65" x="730.701172"/>
      <use xlink:href="#DejaVuSans-73" x="792.224609"/>
     </g>
    </g>
   </g>
  </g>
 </g>
 <defs>
  <clipPath id="pdf8e94555a">
   <rect x="72" y="43.2" width="446.4" height="277.2"/>
  </clipPath>
 </defs>
</svg>
