<?xml version="1.0" encoding="utf-8" standalone="no"?>
<!DOCTYPE svg PUBLIC "-//W3C//DTD SVG 1.1//EN"
  "http://www.w3.org/Graphics/SVG/1.1/DTD/svg11.dtd">
<svg xmlns:xlink="http://www.w3.org/1999/xlink" width="576pt" height="360pt" viewBox="0 0 576 360" xmlns="http://www.w3.org/2000/svg" version="1.1">
 <metadata>
  <rdf:RDF xmlns:dc="http://purl.org/dc/elements/1.1/" xmlns:cc="http://creativecommons.org/ns#" xmlns:rdf="http://www.w3.org/1999/02/22-rdf-syntax-ns#">
   <cc:Work>
    <dc:type rdf:resource="http://purl.org/dc/dcmitype/StillImage"/>
    <dc:date>2026-02-07T08:06:30.117276</dc:date>
    <dc:format>image/svg+xml</dc:format>
    <dc:creator>
     <cc:Agent>
      <dc:title>Matplotlib v3.7.5, https://matplotlib.org/</dc:title>
     </cc:Agent>
    </dc:creator>
   </cc:Work>
  </rdf:RDF>
 </metadata>
 <defs>
  <style type="text/css">*{stroke-linejoin: round; stroke-linecap: butt}</style>
 </defs>
 <g id="figure_1">
  <g id="patch_1">
   <path d="M 0 360 
L 576 360 
L 576 0 
L 0 0 
z
"/>
  </g>
  <g id="axes_1">
   <g id="patch_2">
    <path d="M 72 320.4 
L 518.4 320.4 
L 518.4 43.2 
L 72 43.2 
z
"/>
   </g>
   <g id="matplotlib.axis_1">
    <g id="xtick_1">
     <g id="line2d_1">
      <defs>
       <path id="m489a8edf9a" d="M 0 0 
L 0 3.5 
" style="stroke: #ffffff; stroke-width: 0.8"/>
      </defs>
      <g>
       <use xlink:href="#m489a8edf9a" x="92.290909" y="320.4" style="fill: #ffffff; stroke: #ffffff; stroke-width: 0.8"/>
      </g>
     </g>
     <g id="text_1">
      <!-- 0 -->
      <g style="fill: #ffffff" transform="translate(89.109659 334.998438) scale(0.1 -0.1)">
       <defs>
        <path id="DejaVuSans-30" d="M 2034 4250 
Q 1547 4250 1301 3770 
Q 1056 3291 1056 2328 
Q 1056 1369 1301 889 
Q 1547 409 2034 409 
Q 2525 409 2770 889 
Q 3016 1369 3016 2328 
Q 3016 3291 2770 3770 
Q 2525 4250 2034 4250 
z
M 2034 4750 
Q 2819 4750 3233 4129 
Q 3647 3509 3647 2328 
Q 3647 1150 3233 529 
Q 2819 -91 2034 -91 
Q 1250 -91 836 529 
Q 422 1150 422 2328 
Q 422 3509 836 4129 
Q 1250 4750 2034 4750 
z
" transform="scale(0.015625)"/>
       </defs>
       <use xlink:href="#DejaVuSans-30"/>
      </g>
     </g>
    </g>
    <g id="xtick_2">
     <g id="line2d_2">
      <g>
       <use xlink:href="#m489a8edf9a" x="160.040188" y="320.4" style="fill: #ffffff; stroke: #ffffff; stroke-width: 0.8"/>
      </g>
     </g>
     <g id="text_2">
      <!-- 100 -->
      <g style="fill: #ffffff" transform="translate(150.496438 334.998438) scale(0.1 -0.1)">
       <defs>
        <path id="DejaVuSans-31" d="M 794 531 
L 1825 531 
L 1825 4091 
L 703 3866 
L 703 4441 
L 1819 4666 
L 2450 4666 
L 2450 531 
L 3481 531 
L 3481 0 
L 794 0 
L 794 531 
z
" transform="scale(0.015625)"/>
       </defs>
       <use xlink:href="#DejaVuSans-31"/>
       <use xlink:href="#DejaVuSans-30" x="63.623047"/>
       <use xlink:href="#DejaVuSans-30" x="127.246094"/>
      </g>
     </g>
    </g>
    <g id="xtick_3">
     <g id="line2d_3">
      <g>
       <use xlink:href="#m489a8edf9a" x="227.789467" y="320.4" style="fill: #ffffff; stroke: #ffffff; stroke-width: 0.8"/>
      </g>
     </g>
     <g id="text_3">
      <!-- 200 -->
      <g style="fill: #ffffff" transform="translate(218.245717 334.998438) scale(0.1 -0.1)">
       <defs>
        <path id="DejaVuSans-32" d="M 1228 531 
L 3431 531 
L 3431 0 
L 469 0 
L 469 531 
Q 828 903 1448 1529 
Q 2069 2156 2228 2338 
Q 2531 2678 2651 2914 
Q 2772 3150 2772 3378 
Q 2772 3750 2511 3984 
Q 2250 4219 1831 4219 
Q 1534 4219 1204 4116 
Q 875 4013 500 3803 
L 500 4441 
Q 881 4594 1212 4672 
Q 1544 4750 1819 4750 
Q 2544 4750 2975 4387 
Q 3406 4025 3406 3419 
Q 3406 3131 3298 2873 
Q 3191 2616 2906 2266 
Q 2828 2175 2409 1742 
Q 1991 1309 1228 531 
z
" transform="scale(0.015625)"/>
       </defs>
       <use xlink:href="#DejaVuSans-32"/>
       <use xlink:href="#DejaVuSans-30" x="63.623047"/>
       <use xlink:href="#DejaVuSans-30" x="127.246094"/>
      </g>
     </g>
    </g>
    <g id="xtick_4">
     <g id="line2d_4">
      <g>
       <use xlink:href="#m489a8edf9a" x="295.538746" y="320.4" style="fill: #ffffff; stroke: #ffffff; stroke-width: 0.8"/>
      </g>
     </g>
     <g id="text_4">
      <!-- 300 -->
      <g style="fill: #ffffff" transform="translate(285.994996 334.998438) scale(0.1 -0.1)">
       <defs>
        <path id="DejaVuSans-33" d="M 2597 2516 
Q 3050 2419 3304 2112 
Q 3559 1806 3559 1356 
Q 3559 666 3084 287 
Q 2609 -91 1734 -91 
Q 1441 -91 1130 -33 
Q 819 25 488 141 
L 488 750 
Q 750 597 1062 519 
Q 1375 441 1716 441 
Q 2309 441 2620 675 
Q 2931 909 2931 1356 
Q 2931 1769 2642 2001 
Q 2353 2234 1838 2234 
L 1294 2234 
L 1294 2753 
L 1863 2753 
Q 2328 2753 2575 2939 
Q 2822 3125 2822 3475 
Q 2822 3834 2567 4026 
Q 2313 4219 1838 4219 
Q 1578 4219 1281 4162 
Q 984 4106 628 3988 
L 628 4550 
Q 988 4650 1302 4700 
Q 1616 4750 1894 4750 
Q 2613 4750 3031 4423 
Q 3450 4097 3450 3541 
Q 3450 3153 3228 2886 
Q 3006 2619 2597 2516 
z
" transform="scale(0.015625)"/>
       </defs>
       <use xlink:href="#DejaVuSans-33"/>
       <use xlink:href="#DejaVuSans-30" x="63.623047"/>
       <use xlink:href="#DejaVuSans-30" x="127.246094"/>
      </g>
     </g>
    </g>
    <g id="xtick_5">
     <g id="line2d_5">
      <g>
       <use xlink:href="#m489a8edf9a" x="363.288025" y="320.4" style="fill: #ffffff; stroke: #ffffff; stroke-width: 0.8"/>
      </g>
     </g>
     <g id="text_5">
      <!-- 400 -->
      <g style="fill: #ffffff" transform="translate(353.744275 334.998438) scale(0.1 -0.1)">
       <defs>
        <path id="DejaVuSans-34" d="M 2419 4116 
L 825 1625 
L 2419 1625 
L 2419 4116 
z
M 2253 4666 
L 3047 4666 
L 3047 1625 
L 3713 1625 
L 3713 1100 
L 3047 1100 
L 3047 0 
L 2419 0 
L 2419 1100 
L 313 1100 
L 313 1709 
L 2253 4666 
z
" transform="scale(0.015625)"/>
       </defs>
       <use xlink:href="#DejaVuSans-34"/>
       <use xlink:href="#DejaVuSans-30" x="63.623047"/>
       <use xlink:href="#DejaVuSans-30" x="127.246094"/>
      </g>
     </g>
    </g>
    <g id="xtick_6">
     <g id="line2d_6">
      <g>
       <use xlink:href="#m489a8edf9a" x="431.037305" y="320.4" style="fill: #ffffff; stroke: #ffffff; stroke-width: 0.8"/>
      </g>
     </g>
     <g id="text_6">
      <!-- 500 -->
      <g style="fill: #ffffff" transform="translate(421.493555 334.998438) scale(0.1 -0.1)">
       <defs>
        <path id="DejaVuSans-35" d="M 691 4666 
L 3169 4666 
L 3169 4134 
L 1269 4134 
L 1269 2991 
Q 1406 3038 1543 3061 
Q 1681 3084 1819 3084 
Q 2600 3084 3056 2656 
Q 3513 2228 3513 1497 
Q 3513 744 3044 326 
Q 2575 -91 1722 -91 
Q 1428 -91 1123 -41 
Q 819 9 494 109 
L 494 744 
Q 775 591 1075 516 
Q 1375 441 1709 441 
Q 2250 441 2565 725 
Q 2881 1009 2881 1497 
Q 2881 1984 2565 2268 
Q 2250 2553 1709 2553 
Q 1456 2553 1204 2497 
Q 953 2441 691 2322 
L 691 4666 
z
" transform="scale(0.015625)"/>
       </defs>
       <use xlink:href="#DejaVuSans-35"/>
       <use xlink:href="#DejaVuSans-30" x="63.623047"/>
       <use xlink:href="#DejaVuSans-30" x="127.246094"/>
      </g>
     </g>
    </g>
    <g id="xtick_7">
     <g id="line2d_7">
      <g>
       <use xlink:href="#m489a8edf9a" x="498.786584" y="320.4" style="fill: #ffffff; stroke: #ffffff; stroke-width: 0.8"/>
      </g>
     </g>
     <g id="text_7">
      <!-- 600 -->
      <g style="fill: #ffffff" transform="translate(489.242834 334.998438) scale(0.1 -0.1)">
       <defs>
        <path id="DejaVuSans-36" d="M 2113 2584 
Q 1688 2584 1439 2293 
Q 1191 2003 1191 1497 
Q 1191 994 1439 701 
Q 1688 409 2113 409 
Q 2538 409 2786 701 
Q 3034 994 3034 1497 
Q 3034 2003 2786 2293 
Q 2538 2584 2113 2584 
z
M 3366 4563 
L 3366 3988 
Q 3128 4100 2886 4159 
Q 2644 4219 2406 4219 
Q 1781 4219 1451 3797 
Q 1122 3375 1075 2522 
Q 1259 2794 1537 2939 
Q 1816 3084 2150 3084 
Q 2853 3084 3261 2657 
Q 3669 2231 3669 1497 
Q 3669 778 3244 343 
Q 2819 -91 2113 -91 
Q 1303 -91 875 529 
Q 447 1150 447 2328 
Q 447 3434 972 4092 
Q 1497 4750 2381 4750 
Q 2619 4750 2861 4703 
Q 3103 4656 3366 4563 
z
" transform="scale(0.015625)"/>
       </defs>
       <use xlink:href="#DejaVuSans-36"/>
       <use xlink:href="#DejaVuSans-30" x="63.623047"/>
       <use xlink:href="#DejaVuSans-30" x="127.246094"/>
      </g>
     </g>
    </g>
    <g id="text_8">
     <!-- Time (s) -->
     <g style="fill: #ffffff" transform="translate(266.739531 351.715937) scale(0.14 -0.14)">
      <defs>
       <path id="DejaVuSans-54" d="M -19 4666 
L 3928 4666 
L 3928 4134 
L 2272 4134 
L 2272 0 
L 1638 0 
L 1638 4134 
L -19 4134 
L -19 4666 
z
" transform="scale(0.015625)"/>
       <path id="DejaVuSans-69" d="M 603 3500 
L 1178 3500 
L 1178 0 
L 603 0 
L 603 3500 
z
M 603 4863 
L 1178 4863 
L 1178 4134 
L 603 4134 
L 603 4863 
z
" transform="scale(0.015625)"/>
       <path id="DejaVuSans-6d" d="M 3328 2828 
Q 3544 3216 3844 3400 
Q 4144 3584 4550 3584 
Q 5097 3584 5394 3201 
Q 5691 2819 5691 2113 
L 5691 0 
L 5113 0 
L 5113 2094 
Q 5113 2597 4934 2840 
Q 4756 3084 4391 3084 
Q 3944 3084 3684 2787 
Q 3425 2491 3425 1978 
L 3425 0 
L 2847 0 
L 2847 2094 
Q 2847 2600 2669 2842 
Q 2491 3084 2119 3084 
Q 1678 3084 1418 2786 
Q 1159 2488 1159 1978 
L 1159 0 
L 581 0 
L 581 3500 
L 1159 3500 
L 1159 2956 
Q 1356 3278 1631 3431 
Q 1906 3584 2284 3584 
Q 2666 3584 2933 3390 
Q 3200 3197 3328 2828 
z
" transform="scale(0.015625)"/>
       <path id="DejaVuSans-65" d="M 3597 1894 
L 3597 1613 
L 953 1613 
Q 991 1019 1311 708 
Q 1631 397 2203 397 
Q 2534 397 2845 478 
Q 3156 559 3463 722 
L 3463 178 
Q 3153 47 2828 -22 
Q 2503 -91 2169 -91 
Q 1331 -91 842 396 
Q 353 884 353 1716 
Q 353 2575 817 3079 
Q 1281 3584 2069 3584 
Q 2775 3584 3186 3129 
Q 3597 2675 3597 1894 
z
M 3022 2063 
Q 3016 2534 2758 2815 
Q 2500 3097 2075 3097 
Q 1594 3097 1305 2825 
Q 1016 2553 972 2059 
L 3022 2063 
z
" transform="scale(0.015625)"/>
       <path id="DejaVuSans-20" transform="scale(0.015625)"/>
       <path id="DejaVuSans-28" d="M 1984 4856 
Q 1566 4138 1362 3434 
Q 1159 2731 1159 2009 
Q 1159 1288 1364 580 
Q 1569 -128 1984 -844 
L 1484 -844 
Q 1016 -109 783 600 
Q 550 1309 550 2009 
Q 550 2706 781 3412 
Q 1013 4119 1484 4856 
L 1984 4856 
z
" transform="scale(0.015625)"/>
       <path id="DejaVuSans-73" d="M 2834 3397 
L 2834 2853 
Q 2591 2978 2328 3040 
Q 2066 3103 1784 3103 
Q 1356 3103 1142 2972 
Q 928 2841 928 2578 
Q 928 2378 1081 2264 
Q 1234 2150 1697 2047 
L 1894 2003 
Q 2506 1872 2764 1633 
Q 3022 1394 3022 966 
Q 3022 478 2636 193 
Q 2250 -91 1575 -91 
Q 1294 -91 989 -36 
Q 684 19 347 128 
L 347 722 
Q 666 556 975 473 
Q 1284 391 1588 391 
Q 1994 391 2212 530 
Q 2431 669 2431 922 
Q 2431 1156 2273 1281 
Q 2116 1406 1581 1522 
L 1381 1569 
Q 847 1681 609 1914 
Q 372 2147 372 2553 
Q 372 3047 722 3315 
Q 1072 3584 1716 3584 
Q 2034 3584 2315 3537 
Q 2597 3491 2834 3397 
z
" transform="scale(0.015625)"/>
       <path id="DejaVuSans-29" d="M 513 4856 
L 1013 4856 
Q 1481 4119 1714 3412 
Q 1947 2706 1947 2009 
Q 1947 1309 1714 600 
Q 1481 -109 1013 -844 
L 513 -844 
Q 928 -128 1133 580 
Q 1338 1288 1338 2009 
Q 1338 2731 1133 3434 
Q 928 4138 513 4856 
z
" transform="scale(0.015625)"/>
      </defs>
      <use xlink:href="#DejaVuSans-54"/>
      <use xlink:href="#DejaVuSans-69" x="57.958984"/>
      <use xlink:href="#DejaVuSans-6d" x="85.742188"/>
      <use xlink:href="#DejaVuSans-65" x="183.154297"/>
      <use xlink:href="#DejaVuSans-20" x="244.677734"/>
      <use xlink:href="#DejaVuSans-28" x="276.464844"/>
      <use xlink:href="#DejaVuSans-73" x="315.478516"/>
      <use xlink:href="#DejaVuSans-29" x="367.578125"/>
     </g>
    </g>
   </g>
   <g id="matplotlib.axis_2">
    <g id="ytick_1">
     <g id="line2d_8">
      <defs>
       <path id="m30e651881f" d="M 0 0 
L -3.5 0 
" style="stroke: #ffffff; stroke-width: 0.8"/>
      </defs>
      <g>
       <use xlink:href="#m30e651881f" x="72" y="312.961328" style="fill: #ffffff; stroke: #ffffff; stroke-width: 0.8"/>
      </g>
     </g>
     <g id="text_9">
      <!-- −6 -->
      <g style="fill: #ffffff" transform="translate(50.257812 316.760546) scale(0.1 -0.1)">
       <defs>
        <path id="DejaVuSans-2212" d="M 678 2272 
L 4684 2272 
L 4684 1741 
L 678 1741 
L 678 2272 
z
" transform="scale(0.015625)"/>
       </defs>
       <use xlink:href="#DejaVuSans-2212"/>
       <use xlink:href="#DejaVuSans-36" x="83.789062"/>
      </g>
     </g>
    </g>
    <g id="ytick_2">
     <g id="line2d_9">
      <g>
       <use xlink:href="#m30e651881f" x="72" y="263.081807" style="fill: #ffffff; stroke: #ffffff; stroke-width: 0.8"/>
      </g>
     </g>
     <g id="text_10">
      <!-- −4 -->
      <g style="fill: #ffffff" transform="translate(50.257812 266.881025) scale(0.1 -0.1)">
       <use xlink:href="#DejaVuSans-2212"/>
       <use xlink:href="#DejaVuSans-34" x="83.789062"/>
      </g>
     </g>
    </g>
    <g id="ytick_3">
     <g id="line2d_10">
      <g>
       <use xlink:href="#m30e651881f" x="72" y="213.202285" style="fill: #ffffff; stroke: #ffffff; stroke-width: 0.8"/>
      </g>
     </g>
     <g id="text_11">
      <!-- −2 -->
      <g style="fill: #ffffff" transform="translate(50.257812 217.001504) scale(0.1 -0.1)">
       <use xlink:href="#DejaVuSans-2212"/>
       <use xlink:href="#DejaVuSans-32" x="83.789062"/>
      </g>
     </g>
    </g>
    <g id="ytick_4">
     <g id="line2d_11">
      <g>
       <use xlink:href="#m30e651881f" x="72" y="163.322764" style="fill: #ffffff; stroke: #ffffff; stroke-width: 0.8"/>
      </g>
     </g>
     <g id="text_12">
      <!-- 0 -->
      <g style="fill: #ffffff" transform="translate(58.6375 167.121983) scale(0.1 -0.1)">
       <use xlink:href="#DejaVuSans-30"/>
      </g>
     </g>
    </g>
    <g id="ytick_5">
     <g id="line2d_12">
      <g>
       <use xlink:href="#m30e651881f" x="72" y="113.443243" style="fill: #ffffff; stroke: #ffffff; stroke-width: 0.8"/>
      </g>
     </g>
     <g id="text_13">
      <!-- 2 -->
      <g style="fill: #ffffff" transform="translate(58.6375 117.242462) scale(0.1 -0.1)">
       <use xlink:href="#DejaVuSans-32"/>
      </g>
     </g>
    </g>
    <g id="ytick_6">
     <g id="line2d_13">
      <g>
       <use xlink:href="#m30e651881f" x="72" y="63.563722" style="fill: #ffffff; stroke: #ffffff; stroke-width: 0.8"/>
      </g>
     </g>
     <g id="text_14">
      <!-- 4 -->
      <g style="fill: #ffffff" transform="translate(58.6375 67.362941) scale(0.1 -0.1)">
       <use xlink:href="#DejaVuSans-34"/>
      </g>
     </g>
    </g>
    <g id="text_15">
     <!-- Bandwidth (Mbps) -->
     <g style="fill: #ffffff" transform="translate(43.34625 245.327187) rotate(-90) scale(0.14 -0.14)">
      <defs>
       <path id="DejaVuSans-42" d="M 1259 2228 
L 1259 519 
L 2272 519 
Q 2781 519 3026 730 
Q 3272 941 3272 1375 
Q 3272 1813 3026 2020 
Q 2781 2228 2272 2228 
L 1259 2228 
z
M 1259 4147 
L 1259 2741 
L 2194 2741 
Q 2656 2741 2882 2914 
Q 3109 3088 3109 3444 
Q 3109 3797 2882 3972 
Q 2656 4147 2194 4147 
L 1259 4147 
z
M 628 4666 
L 2241 4666 
Q 2963 4666 3353 4366 
Q 3744 4066 3744 3513 
Q 3744 3084 3544 2831 
Q 3344 2578 2956 2516 
Q 3422 2416 3680 2098 
Q 3938 1781 3938 1306 
Q 3938 681 3513 340 
Q 3088 0 2303 0 
L 628 0 
L 628 4666 
z
" transform="scale(0.015625)"/>
       <path id="DejaVuSans-61" d="M 2194 1759 
Q 1497 1759 1228 1600 
Q 959 1441 959 1056 
Q 959 750 1161 570 
Q 1363 391 1709 391 
Q 2188 391 2477 730 
Q 2766 1069 2766 1631 
L 2766 1759 
L 2194 1759 
z
M 3341 1997 
L 3341 0 
L 2766 0 
L 2766 531 
Q 2569 213 2275 61 
Q 1981 -91 1556 -91 
Q 1019 -91 701 211 
Q 384 513 384 1019 
Q 384 1609 779 1909 
Q 1175 2209 1959 2209 
L 2766 2209 
L 2766 2266 
Q 2766 2663 2505 2880 
Q 2244 3097 1772 3097 
Q 1472 3097 1187 3025 
Q 903 2953 641 2809 
L 641 3341 
Q 956 3463 1253 3523 
Q 1550 3584 1831 3584 
Q 2591 3584 2966 3190 
Q 3341 2797 3341 1997 
z
" transform="scale(0.015625)"/>
       <path id="DejaVuSans-6e" d="M 3513 2113 
L 3513 0 
L 2938 0 
L 2938 2094 
Q 2938 2591 2744 2837 
Q 2550 3084 2163 3084 
Q 1697 3084 1428 2787 
Q 1159 2491 1159 1978 
L 1159 0 
L 581 0 
L 581 3500 
L 1159 3500 
L 1159 2956 
Q 1366 3272 1645 3428 
Q 1925 3584 2291 3584 
Q 2894 3584 3203 3211 
Q 3513 2838 3513 2113 
z
" transform="scale(0.015625)"/>
       <path id="DejaVuSans-64" d="M 2906 2969 
L 2906 4863 
L 3481 4863 
L 3481 0 
L 2906 0 
L 2906 525 
Q 2725 213 2448 61 
Q 2172 -91 1784 -91 
Q 1150 -91 751 415 
Q 353 922 353 1747 
Q 353 2572 751 3078 
Q 1150 3584 1784 3584 
Q 2172 3584 2448 3432 
Q 2725 3281 2906 2969 
z
M 947 1747 
Q 947 1113 1208 752 
Q 1469 391 1925 391 
Q 2381 391 2643 752 
Q 2906 1113 2906 1747 
Q 2906 2381 2643 2742 
Q 2381 3103 1925 3103 
Q 1469 3103 1208 2742 
Q 947 2381 947 1747 
z
" transform="scale(0.015625)"/>
       <path id="DejaVuSans-77" d="M 269 3500 
L 844 3500 
L 1563 769 
L 2278 3500 
L 2956 3500 
L 3675 769 
L 4391 3500 
L 4966 3500 
L 4050 0 
L 3372 0 
L 2619 2869 
L 1863 0 
L 1184 0 
L 269 3500 
z
" transform="scale(0.015625)"/>
       <path id="DejaVuSans-74" d="M 1172 4494 
L 1172 3500 
L 2356 3500 
L 2356 3053 
L 1172 3053 
L 1172 1153 
Q 1172 725 1289 603 
Q 1406 481 1766 481 
L 2356 481 
L 2356 0 
L 1766 0 
Q 1100 0 847 248 
Q 594 497 594 1153 
L 594 3053 
L 172 3053 
L 172 3500 
L 594 3500 
L 594 4494 
L 1172 4494 
z
" transform="scale(0.015625)"/>
       <path id="DejaVuSans-68" d="M 3513 2113 
L 3513 0 
L 2938 0 
L 2938 2094 
Q 2938 2591 2744 2837 
Q 2550 3084 2163 3084 
Q 1697 3084 1428 2787 
Q 1159 2491 1159 1978 
L 1159 0 
L 581 0 
L 581 4863 
L 1159 4863 
L 1159 2956 
Q 1366 3272 1645 3428 
Q 1925 3584 2291 3584 
Q 2894 3584 3203 3211 
Q 3513 2838 3513 2113 
z
" transform="scale(0.015625)"/>
       <path id="DejaVuSans-4d" d="M 628 4666 
L 1569 4666 
L 2759 1491 
L 3956 4666 
L 4897 4666 
L 4897 0 
L 4281 0 
L 4281 4097 
L 3078 897 
L 2444 897 
L 1241 4097 
L 1241 0 
L 628 0 
L 628 4666 
z
" transform="scale(0.015625)"/>
       <path id="DejaVuSans-62" d="M 3116 1747 
Q 3116 2381 2855 2742 
Q 2594 3103 2138 3103 
Q 1681 3103 1420 2742 
Q 1159 2381 1159 1747 
Q 1159 1113 1420 752 
Q 1681 391 2138 391 
Q 2594 391 2855 752 
Q 3116 1113 3116 1747 
z
M 1159 2969 
Q 1341 3281 1617 3432 
Q 1894 3584 2278 3584 
Q 2916 3584 3314 3078 
Q 3713 2572 3713 1747 
Q 3713 922 3314 415 
Q 2916 -91 2278 -91 
Q 1894 -91 1617 61 
Q 1341 213 1159 525 
L 1159 0 
L 581 0 
L 581 4863 
L 1159 4863 
L 1159 2969 
z
" transform="scale(0.015625)"/>
       <path id="DejaVuSans-70" d="M 1159 525 
L 1159 -1331 
L 581 -1331 
L 581 3500 
L 1159 3500 
L 1159 2969 
Q 1341 3281 1617 3432 
Q 1894 3584 2278 3584 
Q 2916 3584 3314 3078 
Q 3713 2572 3713 1747 
Q 3713 922 3314 415 
Q 2916 -91 2278 -91 
Q 1894 -91 1617 61 
Q 1341 213 1159 525 
z
M 3116 1747 
Q 3116 2381 2855 2742 
Q 2594 3103 2138 3103 
Q 1681 3103 1420 2742 
Q 1159 2381 1159 1747 
Q 1159 1113 1420 752 
Q 1681 391 2138 391 
Q 2594 391 2855 752 
Q 3116 1113 3116 1747 
z
" transform="scale(0.015625)"/>
      </defs>
      <use xlink:href="#DejaVuSans-42"/>
      <use xlink:href="#DejaVuSans-61" x="68.603516"/>
      <use xlink:href="#DejaVuSans-6e" x="129.882812"/>
      <use xlink:href="#DejaVuSans-64" x="193.261719"/>
      <use xlink:href="#DejaVuSans-77" x="256.738281"/>
      <use xlink:href="#DejaVuSans-69" x="338.525391"/>
      <use xlink:href="#DejaVuSans-64" x="366.308594"/>
      <use xlink:href="#DejaVuSans-74" x="429.785156"/>
      <use xlink:href="#DejaVuSans-68" x="468.994141"/>
      <use xlink:href="#DejaVuSans-20" x="532.373047"/>
      <use xlink:href="#DejaVuSans-28" x="564.160156"/>
      <use xlink:href="#DejaVuSans-4d" x="603.173828"/>
      <use xlink:href="#DejaVuSans-62" x="689.453125"/>
      <use xlink:href="#DejaVuSans-70" x="752.929688"/>
      <use xlink:href="#DejaVuSans-73" x="816.40625"/>
      <use xlink:href="#DejaVuSans-29" x="868.505859"/>
     </g>
    </g>
   </g>
   <g id="line2d_14">
    <path d="M 92.290909 140.155034 
L 92.968402 139.856539 
L 93.645895 61.289288 
L 94.323387 61.270009 
L 95.00088 90.178006 
L 95.678373 90.165742 
L 96.355866 80.355689 
L 97.033359 80.343322 
L 97.710851 58.11182 
L 98.388344 59.254801 
L 99.065837 130.333126 
L 99.74333 130.611176 
L 100.420823 160.088345 
L 101.098315 160.079199 
L 101.775808 145.932554 
L 102.453301 145.634737 
L 103.130794 75.733778 
L 103.808287 75.720691 
L 104.485779 61.880933 
L 105.163272 61.83955 
L 105.840765 83.533661 
L 106.518258 83.520569 
L 107.19575 87.290902 
L 107.873243 87.274977 
L 108.550736 56.089628 
L 109.228229 60.408675 
L 109.905722 56.089628 
L 110.583214 62.7211 
L 111.260707 82.666768 
L 111.9382 82.365627 
L 112.615693 71.415236 
L 113.293186 71.097326 
L 113.970678 90.467095 
L 114.648171 90.454208 
L 115.325664 78.62284 
L 116.003157 78.609242 
L 116.68065 71.978028 
L 117.358142 71.965201 
L 118.035635 56.089866 
L 118.713128 56.941355 
L 119.390621 56.089866 
L 120.068114 64.741965 
L 120.745606 56.089628 
L 121.423099 56.074917 
L 122.100592 71.689394 
L 122.778085 71.67747 
L 123.455577 56.089361 
L 124.13307 57.052877 
L 124.810563 56.089123 
L 125.488056 58.387102 
L 126.165549 56.089361 
L 126.843041 60.408675 
L 127.520534 156.910479 
L 128.198027 156.612514 
L 128.87552 200.532005 
L 129.553013 200.814719 
L 130.230505 261.197614 
L 130.907998 261.484044 
L 131.585491 260.33096 
L 132.262984 260.619978 
L 132.940477 223.64267 
L 133.617969 223.926912 
L 134.295462 96.244357 
L 134.972955 96.244781 
L 135.650448 60.134246 
L 136.327941 60.408178 
L 137.005433 56.089361 
L 137.682926 56.653462 
L 138.360419 78.62238 
L 139.037912 78.609458 
L 139.715404 56.10309 
L 140.392897 57.506039 
L 141.07039 80.066805 
L 141.747883 80.053965 
L 142.425376 93.355508 
L 143.102868 93.379467 
L 143.780361 56.089628 
L 144.457854 56.364056 
L 145.135347 56.089866 
L 145.81284 58.386365 
L 146.490332 113.577655 
L 147.167825 113.277823 
L 147.845318 92.200198 
L 148.522811 92.187617 
L 149.200304 56.099346 
L 149.877796 57.79866 
L 150.555289 56.089628 
L 151.232782 58.097228 
L 151.910275 56.089628 
L 152.587767 59.542703 
L 153.26526 56.089628 
L 153.942753 57.23076 
L 154.620246 56.092868 
L 155.297739 57.22903 
L 155.975231 56.089361 
L 156.652724 57.297246 
L 157.330217 56.089361 
L 158.00771 61.275873 
L 158.685203 56.089628 
L 159.362695 59.542235 
L 160.040188 84.690067 
L 160.717681 84.96463 
L 161.395174 164.421756 
L 162.072667 164.412732 
L 162.750159 149.110604 
L 163.427652 149.101382 
L 164.105145 138.132503 
L 164.782638 138.412371 
L 165.460131 254.553214 
L 166.137623 254.550826 
L 166.815116 290.66798 
L 167.492609 290.951932 
L 168.170102 302.79704 
L 185.107421 302.796907 
L 185.784914 252.820693 
L 186.462407 252.822322 
L 187.1399 200.243121 
L 187.817393 200.526442 
L 188.494885 238.37571 
L 189.172378 238.660864 
L 189.849871 193.316285 
L 190.527364 193.296897 
L 191.204857 158.659335 
L 191.882349 158.619422 
L 192.559842 174.244974 
L 193.237335 173.945454 
L 193.914828 132.066597 
L 194.592321 132.065212 
L 195.269813 156.621595 
L 195.947306 156.612816 
L 196.624799 71.113245 
L 197.302292 70.807487 
L 197.979784 59.267593 
L 198.657277 59.254302 
L 199.33477 95.378128 
L 200.012263 95.36596 
L 200.689756 126.603205 
L 201.367248 126.835811 
L 202.044741 182.622044 
L 202.722234 182.612955 
L 203.399727 302.797037 
L 224.402003 302.796884 
L 225.079496 288.930579 
L 225.756989 289.218524 
L 226.434482 302.797037 
L 227.111975 302.796894 
L 227.789467 274.775418 
L 228.46696 275.062178 
L 229.144453 302.797045 
L 231.176931 302.796886 
L 231.854424 173.665642 
L 232.531917 173.948086 
L 233.20941 201.976427 
L 233.886902 201.681423 
L 234.564395 186.378463 
L 235.241888 186.657131 
L 235.919381 196.198741 
L 236.596874 196.192193 
L 237.274366 171.643577 
L 237.951859 171.924053 
L 238.629352 192.731901 
L 239.306845 192.726153 
L 239.984338 150.845144 
L 240.66183 150.843136 
L 241.339323 97.400739 
L 242.016816 97.098522 
L 242.694309 107.222194 
L 243.371801 106.92238 
L 244.049294 149.110604 
L 244.726787 149.390134 
L 245.40428 57.245403 
L 246.081773 57.22258 
L 246.759265 156.043826 
L 247.436758 156.035174 
L 248.114251 241.265392 
L 248.791744 241.627224 
L 249.469237 302.797035 
L 250.146729 302.796889 
L 250.824222 272.177433 
L 251.501715 272.171221 
L 252.179208 302.79704 
L 252.856701 302.796889 
L 253.534193 281.41958 
L 254.211686 281.418188 
L 254.889179 190.70994 
L 255.566672 190.991965 
L 256.244165 255.709199 
L 256.921657 255.705674 
L 257.59915 219.021207 
L 258.276643 219.303629 
L 258.954136 227.398634 
L 259.631628 227.12259 
L 260.309121 136.110973 
L 260.986614 138.690596 
L 261.664107 102.889723 
L 262.3416 103.165263 
L 263.019092 165.866308 
L 263.696585 165.857243 
L 264.374078 80.35636 
L 265.051571 80.34241 
L 265.729064 174.53281 
L 266.406556 174.813078 
L 267.084049 165.288123 
L 267.761542 165.568624 
L 268.439035 170.199156 
L 269.116528 170.194692 
L 269.79402 182.620931 
L 270.471513 182.614067 
L 271.149006 202.842982 
L 271.826499 202.837541 
L 272.503992 181.754409 
L 273.181484 181.458212 
L 273.858977 206.020605 
L 274.53647 206.334359 
L 275.213963 220.465021 
L 275.891455 220.460009 
L 276.568948 302.797035 
L 277.246441 302.796889 
L 277.923934 297.597107 
L 278.601427 297.596678 
L 279.278919 238.216076 
L 279.956412 238.242688 
L 280.633905 171.356579 
L 281.311398 171.633684 
L 281.988891 139.288202 
L 282.666383 138.990014 
L 283.343876 131.488663 
L 284.021369 131.189333 
L 284.698862 123.399361 
L 285.376355 123.110475 
L 286.053847 56.089628 
L 286.73134 56.364561 
L 287.408833 71.689144 
L 288.086326 71.6763 
L 288.763818 132.356347 
L 289.441311 132.05517 
L 290.118804 115.310962 
L 290.796297 115.299927 
L 291.47379 175.687957 
L 292.151282 175.68018 
L 292.828775 105.790144 
L 293.506268 105.754009 
L 294.183761 193.309898 
L 294.861254 193.592186 
L 295.538746 264.664315 
L 296.216239 264.950774 
L 296.893732 248.197857 
L 297.571225 248.194597 
L 298.248718 187.820985 
L 298.92621 187.525258 
L 299.603703 158.354603 
L 300.281196 158.346224 
L 300.958689 190.998824 
L 301.636182 191.281778 
L 302.313674 208.909557 
L 302.991167 209.192857 
L 303.66866 290.086132 
L 304.346153 290.085245 
L 305.023645 226.820709 
L 305.701138 226.815524 
L 306.378631 301.641499 
L 307.056124 301.93038 
L 307.733617 295.574924 
L 308.411109 295.863265 
L 309.088602 234.909234 
L 309.766095 235.193909 
L 310.443588 302.797037 
L 316.541023 302.796889 
L 317.218516 226.242706 
L 317.896008 226.241838 
L 318.573501 302.7971 
L 319.250994 302.796827 
L 319.928487 208.042904 
L 320.60598 208.32635 
L 321.283472 217.998777 
L 321.960965 217.436328 
L 322.638458 201.688791 
L 323.315951 201.39117 
L 323.993444 162.39957 
L 324.670936 162.679318 
L 325.348429 238.95348 
L 326.025922 238.950628 
L 326.703415 208.909557 
L 327.380908 208.979643 
L 328.0584 225.376053 
L 328.735893 225.660157 
L 329.413386 186.087678 
L 330.090879 186.086952 
L 330.768372 143.621648 
L 331.445864 143.614359 
L 332.123357 116.4665 
L 332.80085 116.498227 
L 333.478343 125.422093 
L 334.155835 125.422822 
L 334.833328 151.710416 
L 335.510821 151.701658 
L 336.188314 196.776406 
L 336.865807 197.059118 
L 337.543299 194.754096 
L 338.898285 194.176551 
L 339.575778 194.169988 
L 340.253271 235.487003 
L 340.930763 235.482811 
L 341.608256 172.221076 
L 342.285749 171.924857 
L 342.963242 199.093109 
L 343.640735 199.076634 
L 344.318227 146.221913 
L 344.99572 146.365681 
L 345.673213 134.377669 
L 346.350706 134.656315 
L 347.028199 115.310577 
L 347.705691 115.011411 
L 348.383184 67.067469 
L 349.060677 66.788141 
L 349.73817 86.422715 
L 350.415662 86.409794 
L 351.093155 56.089361 
L 351.770648 59.548624 
L 352.448141 71.402127 
L 353.125634 71.674433 
L 353.803126 101.167864 
L 354.480619 101.420627 
L 355.158112 58.70094 
L 355.835605 58.668605 
L 356.513098 142.76523 
L 357.19059 142.735304 
L 357.868083 161.243606 
L 358.545576 161.524001 
L 359.223069 244.442357 
L 359.900562 244.72772 
L 360.578054 208.621446 
L 361.255547 208.903185 
L 361.93304 188.398977 
L 362.610533 188.391725 
L 363.288025 186.376676 
L 363.965518 186.658554 
L 364.643011 82.102174 
L 365.320504 82.065106 
L 365.997997 139.874909 
L 366.675489 139.848102 
L 367.352982 182.62118 
L 368.030475 182.902968 
L 368.707968 167.606769 
L 369.385461 167.872541 
L 370.062953 204.287911 
L 370.740446 204.281028 
L 371.417939 194.754096 
L 372.095432 194.74791 
L 372.772925 203.99852 
L 373.450417 204.281643 
L 374.12791 89.022674 
L 374.805403 89.0097 
L 375.482896 106.644425 
L 376.160389 106.632887 
L 376.837881 85.267178 
L 377.515374 85.266522 
L 378.192867 56.089628 
L 378.87036 56.364323 
L 379.547852 56.089628 
L 380.225345 64.164162 
L 380.902838 56.378513 
L 381.580331 59.267828 
L 382.257824 77.178418 
L 382.935316 76.876295 
L 383.612809 137.843777 
L 384.290302 137.83441 
L 384.967795 302.797042 
L 385.645288 302.796879 
L 386.32278 234.620561 
L 387.000273 234.615819 
L 387.677766 152.288641 
L 388.355259 152.278986 
L 389.032752 106.64542 
L 389.710244 106.631702 
L 390.387737 100.000693 
L 391.06523 99.987544 
L 391.742723 118.777755 
L 392.420216 119.055466 
L 393.097708 135.244158 
L 393.775201 135.234118 
L 394.452694 134.088458 
L 395.130187 134.078696 
L 395.807679 56.090371 
L 396.485172 58.676267 
L 397.162665 56.089628 
L 397.840158 60.987206 
L 398.517651 56.089628 
L 399.195143 59.541971 
L 399.872636 56.089628 
L 400.550129 57.519662 
L 401.227622 56.090371 
L 401.905115 58.674532 
L 402.582607 56.093848 
L 403.2601 63.583202 
L 403.937593 55.8 
L 404.615086 59.542469 
L 405.292579 56.089628 
L 405.970071 56.941622 
L 406.647564 56.089866 
L 407.325057 56.945087 
L 408.00255 56.089123 
L 408.680042 61.275641 
L 409.357535 56.089361 
L 410.035028 57.808828 
L 410.712521 56.0926 
L 411.390014 56.938882 
L 412.067506 56.089361 
L 412.744999 57.519927 
L 413.422492 56.089866 
L 414.099985 60.120037 
L 414.777478 56.089361 
L 415.45497 58.677973 
L 416.132463 56.091857 
L 416.809956 63.296 
L 417.487449 56.087132 
L 418.164942 56.368034 
L 418.842434 56.089628 
L 419.519927 57.230524 
L 420.19742 56.089628 
L 420.874913 56.363819 
L 421.552406 89.311558 
L 422.229898 89.587503 
L 422.907391 82.089238 
L 423.584884 81.787373 
L 424.262377 80.644815 
L 424.939869 80.920455 
L 425.617362 56.090609 
L 426.294855 64.452331 
L 426.972348 57.822434 
L 427.649841 57.81054 
L 428.327333 102.310745 
L 429.004826 102.299778 
L 429.682319 103.177811 
L 430.359812 103.455381 
L 431.037305 108.090024 
L 431.714797 107.787903 
L 432.39229 60.422634 
L 433.069783 60.697576 
L 433.747276 132.066266 
L 434.424769 132.34494 
L 435.102261 56.089361 
L 435.779754 58.964433 
L 436.457247 93.644822 
L 437.13474 93.632327 
L 437.812233 56.089361 
L 438.489725 57.51421 
L 439.167218 56.080148 
L 439.844711 60.418954 
L 440.522204 56.091619 
L 441.199696 59.251353 
L 441.877189 68.223713 
L 442.554682 67.919401 
L 443.232175 56.089361 
L 444.58716 56.089361 
L 445.264653 58.675267 
L 445.942146 56.089361 
L 446.619639 60.98674 
L 447.297132 56.102585 
L 447.974624 57.795443 
L 448.652117 58.981176 
L 449.32961 56.649725 
L 450.007103 56.089628 
L 451.362088 56.090371 
L 452.039581 60.407696 
L 452.717074 56.087637 
L 453.394567 58.099203 
L 454.072059 56.094591 
L 455.427045 56.089361 
L 456.104538 61.854168 
L 456.782031 56.089628 
L 457.459523 59.253334 
L 458.137016 67.933895 
L 458.814509 67.630981 
L 459.492002 185.509909 
L 460.169495 185.217299 
L 460.846987 156.332853 
L 461.52448 156.034711 
L 462.201973 187.820859 
L 462.879466 187.814285 
L 463.556959 113.577449 
L 464.234451 113.278007 
L 464.911944 226.531515 
L 465.589437 226.815838 
L 466.26693 181.754409 
L 466.944423 181.747231 
L 467.621915 188.976634 
L 468.299408 189.25879 
L 468.976901 258.311308 
L 469.654394 258.303587 
L 470.331886 255.131134 
L 471.009379 255.417123 
L 471.686872 200.821513 
L 472.364365 200.530643 
L 473.041858 178.287658 
L 473.71935 178.576921 
L 474.396843 253.975646 
L 475.074336 254.261464 
L 475.751829 280.553001 
L 476.429322 280.840313 
L 477.106814 302.797037 
L 477.784307 302.796886 
L 478.4618 203.709732 
L 479.139293 203.703732 
L 479.816786 208.331684 
L 480.494278 208.326061 
L 481.171771 134.377506 
L 481.849264 134.367414 
L 482.526757 156.332266 
L 483.20425 156.612816 
L 483.881742 117.054237 
L 484.559235 117.314153 
L 485.236728 100.868563 
L 485.914221 100.864686 
L 486.591713 208.620673 
L 487.269206 208.615054 
L 487.946699 305.396998 
L 498.109091 305.396998 
L 498.109091 305.396998 
" clip-path="url(#pa91a868ef0)" style="fill: none; stroke: #8dd3c7; stroke-width: 1.5; stroke-linecap: square"/>
   </g>
   <g id="line2d_15">
    <path d="M 92.290909 144.905424 
L 93.645895 66.096649 
L 95.00088 95.041263 
L 97.710851 75.967055 
L 99.065837 63.04176 
L 100.420823 135.315433 
L 101.775808 165.002639 
L 103.130794 150.732228 
L 104.485779 80.555857 
L 105.840765 66.649475 
L 107.19575 88.39861 
L 108.550736 92.127718 
L 109.905722 60.896371 
L 111.260707 60.896371 
L 112.615693 87.382884 
L 113.970678 76.100718 
L 115.325664 95.315601 
L 116.68065 83.416081 
L 118.035635 76.784245 
L 119.390621 60.896371 
L 122.100592 60.896371 
L 123.455577 76.546432 
L 124.810563 60.896371 
L 127.520534 60.896371 
L 128.87552 161.714905 
L 130.230505 205.596254 
L 131.585491 266.327697 
L 132.940477 265.402577 
L 134.295462 228.646658 
L 135.650448 101.093594 
L 137.005433 65.052963 
L 138.360419 60.896371 
L 139.715404 83.480349 
L 141.07039 60.896371 
L 142.425376 84.863382 
L 143.780361 98.267731 
L 145.135347 60.896371 
L 147.845318 60.896371 
L 149.200304 118.326975 
L 150.555289 96.991017 
L 151.910275 60.896371 
L 161.395174 60.896371 
L 162.750159 89.655567 
L 164.105145 169.283152 
L 165.460131 154.023341 
L 166.815116 143.088237 
L 168.170102 259.527597 
L 169.525087 295.800532 
L 170.880073 307.8 
L 188.494885 307.8 
L 191.204857 205.271351 
L 192.559842 243.40366 
L 193.914828 198.228306 
L 195.269813 163.542258 
L 196.624799 179.021471 
L 197.979784 136.926617 
L 199.33477 161.567436 
L 200.689756 75.878877 
L 202.044741 64.113812 
L 203.399727 100.202069 
L 204.754712 131.569617 
L 206.109698 187.564909 
L 207.464684 307.8 
L 227.789467 307.8 
L 229.144453 294.010709 
L 230.499438 307.8 
L 231.854424 279.877138 
L 233.20941 307.8 
L 234.564395 307.8 
L 235.919381 178.717309 
L 237.274366 206.783472 
L 238.629352 191.437146 
L 239.984338 201.177751 
L 241.339323 176.625111 
L 242.694309 197.630505 
L 244.049294 155.815777 
L 245.40428 102.167648 
L 246.759265 111.948886 
L 248.114251 154.084889 
L 249.469237 62.063056 
L 250.824222 160.881437 
L 252.179208 246.340836 
L 253.534193 307.8 
L 254.889179 277.101853 
L 256.244165 277.544889 
L 257.59915 307.8 
L 258.954136 286.434853 
L 260.309121 195.728648 
L 261.664107 260.635494 
L 263.019092 224.04048 
L 264.374078 232.253557 
L 265.729064 141.039525 
L 267.084049 107.827299 
L 268.439035 170.791206 
L 269.79402 85.166078 
L 271.149006 179.52895 
L 272.503992 170.284642 
L 273.858977 175.09281 
L 275.213963 187.458241 
L 276.568948 207.708376 
L 277.923934 186.578521 
L 279.278919 211.056589 
L 280.633905 225.452812 
L 281.988891 307.8 
L 283.343876 302.579619 
L 284.698862 243.124432 
L 286.053847 176.336174 
L 287.408833 144.083635 
L 290.118804 128.130118 
L 291.47379 60.896371 
L 292.828775 76.492918 
L 294.183761 137.159206 
L 295.538746 120.149461 
L 296.893732 180.586642 
L 298.248718 110.579577 
L 299.603703 198.357014 
L 300.958689 269.793823 
L 302.313674 253.168206 
L 303.66866 192.642366 
L 305.023645 163.214709 
L 306.378631 196.058646 
L 307.733617 213.91374 
L 309.088602 295.014635 
L 310.443588 231.784857 
L 311.798573 306.753645 
L 313.153559 300.750074 
L 314.508545 239.923059 
L 315.86353 307.8 
L 321.283472 307.8 
L 322.638458 231.198566 
L 323.993444 307.8 
L 325.348429 213.096164 
L 326.703415 222.615067 
L 328.0584 206.517067 
L 329.413386 167.374035 
L 330.768372 243.876864 
L 332.123357 213.747478 
L 333.478343 230.445161 
L 336.188314 148.557061 
L 337.543299 121.307848 
L 338.898285 130.237146 
L 340.253271 156.564027 
L 341.608256 201.847288 
L 342.963242 199.570154 
L 344.318227 199.018042 
L 345.673213 240.364412 
L 347.028199 177.002105 
L 348.383184 204.019891 
L 349.73817 151.118394 
L 351.093155 139.352273 
L 352.448141 120.074216 
L 353.803126 71.778211 
L 355.158112 91.300801 
L 356.513098 60.896371 
L 357.868083 76.347457 
L 359.223069 106.104982 
L 360.578054 63.513097 
L 361.93304 147.574205 
L 363.288025 166.24643 
L 364.643011 249.522952 
L 365.997997 213.623121 
L 367.352982 193.328256 
L 368.707968 191.430569 
L 370.062953 86.98591 
L 371.417939 144.747135 
L 372.772925 187.61459 
L 374.12791 172.603467 
L 375.482896 209.156887 
L 376.837881 199.628839 
L 378.192867 209.075887 
L 379.547852 93.809474 
L 380.902838 111.448295 
L 382.257824 90.074538 
L 383.612809 60.896371 
L 384.967795 60.896371 
L 386.32278 61.199563 
L 387.677766 81.930171 
L 389.032752 142.726516 
L 390.387737 196.31403 
L 391.742723 307.8 
L 393.097708 239.494575 
L 394.452694 157.221953 
L 395.807679 111.454368 
L 397.162665 104.886137 
L 398.517651 123.73464 
L 399.872636 140.096802 
L 401.227622 138.930009 
L 402.582607 60.896371 
L 429.682319 60.896371 
L 431.037305 94.261801 
L 432.39229 86.779765 
L 433.747276 85.59598 
L 435.102261 60.896371 
L 436.457247 62.653499 
L 437.812233 107.138625 
L 439.167218 108.128461 
L 440.522204 112.80633 
L 441.877189 65.340913 
L 443.232175 137.041756 
L 444.58716 60.896371 
L 445.942146 98.431615 
L 447.297132 60.896371 
L 450.007103 60.896371 
L 451.362088 72.882042 
L 452.717074 60.896371 
L 467.621915 60.896371 
L 468.976901 72.634429 
L 470.331886 190.329898 
L 471.686872 161.115289 
L 473.041858 192.724498 
L 474.396843 118.295962 
L 475.751829 231.610413 
L 477.106814 186.668358 
L 478.4618 193.988328 
L 479.816786 263.184548 
L 481.171771 260.188141 
L 482.526757 205.656956 
L 483.881742 183.3105 
L 485.236728 259.034424 
L 486.591713 285.711339 
L 487.946699 307.8 
L 489.301685 208.669573 
L 490.65667 213.237537 
L 492.011656 139.237339 
L 493.366641 161.336675 
L 494.721627 122.030003 
L 496.076613 105.793886 
L 497.431598 213.600416 
L 497.431598 213.600416 
" clip-path="url(#pa91a868ef0)" style="fill: none; stroke: #feffb3; stroke-width: 1.5; stroke-linecap: square"/>
   </g>
   <g id="patch_3">
    <path d="M 72 320.4 
L 72 43.2 
" style="fill: none; stroke: #ffffff; stroke-width: 0.8; stroke-linejoin: miter; stroke-linecap: square"/>
   </g>
   <g id="patch_4">
    <path d="M 518.4 320.4 
L 518.4 43.2 
" style="fill: none; stroke: #ffffff; stroke-width: 0.8; stroke-linejoin: miter; stroke-linecap: square"/>
   </g>
   <g id="patch_5">
    <path d="M 72 320.4 
L 518.4 320.4 
" style="fill: none; stroke: #ffffff; stroke-width: 0.8; stroke-linejoin: miter; stroke-linecap: square"/>
   </g>
   <g id="patch_6">
    <path d="M 72 43.2 
L 518.4 43.2 
" style="fill: none; stroke: #ffffff; stroke-width: 0.8; stroke-linejoin: miter; stroke-linecap: square"/>
   </g>
   <g id="text_16">
    <!-- Dataset Generation -->
    <g style="fill: #ffffff" transform="translate(236.325937 37.2) scale(0.12 -0.12)">
     <defs>
      <path id="DejaVuSans-44" d="M 1259 4147 
L 1259 519 
L 2022 519 
Q 2988 519 3436 956 
Q 3884 1394 3884 2338 
Q 3884 3275 3436 3711 
Q 2988 4147 2022 4147 
L 1259 4147 
z
M 628 4666 
L 1925 4666 
Q 3281 4666 3915 4102 
Q 4550 3538 4550 2338 
Q 4550 1131 3912 565 
Q 3275 0 1925 0 
L 628 0 
L 628 4666 
z
" transform="scale(0.015625)"/>
      <path id="DejaVuSans-47" d="M 3809 666 
L 3809 1919 
L 2778 1919 
L 2778 2438 
L 4434 2438 
L 4434 434 
Q 4069 175 3628 42 
Q 3188 -91 2688 -91 
Q 1594 -91 976 548 
Q 359 1188 359 2328 
Q 359 3472 976 4111 
Q 1594 4750 2688 4750 
Q 3144 4750 3555 4637 
Q 3966 4525 4313 4306 
L 4313 3634 
Q 3963 3931 3569 4081 
Q 3175 4231 2741 4231 
Q 1884 4231 1454 3753 
Q 1025 3275 1025 2328 
Q 1025 1384 1454 906 
Q 1884 428 2741 428 
Q 3075 428 3337 486 
Q 3600 544 3809 666 
z
" transform="scale(0.015625)"/>
      <path id="DejaVuSans-72" d="M 2631 2963 
Q 2534 3019 2420 3045 
Q 2306 3072 2169 3072 
Q 1681 3072 1420 2755 
Q 1159 2438 1159 1844 
L 1159 0 
L 581 0 
L 581 3500 
L 1159 3500 
L 1159 2956 
Q 1341 3275 1631 3429 
Q 1922 3584 2338 3584 
Q 2397 3584 2469 3576 
Q 2541 3569 2628 3553 
L 2631 2963 
z
" transform="scale(0.015625)"/>
      <path id="DejaVuSans-6f" d="M 1959 3097 
Q 1497 3097 1228 2736 
Q 959 2375 959 1747 
Q 959 1119 1226 758 
Q 1494 397 1959 397 
Q 2419 397 2687 759 
Q 2956 1122 2956 1747 
Q 2956 2369 2687 2733 
Q 2419 3097 1959 3097 
z
M 1959 3584 
Q 2709 3584 3137 3096 
Q 3566 2609 3566 1747 
Q 3566 888 3137 398 
Q 2709 -91 1959 -91 
Q 1206 -91 779 398 
Q 353 888 353 1747 
Q 353 2609 779 3096 
Q 1206 3584 1959 3584 
z
" transform="scale(0.015625)"/>
     </defs>
     <use xlink:href="#DejaVuSans-44"/>
     <use xlink:href="#DejaVuSans-61" x="77.001953"/>
     <use xlink:href="#DejaVuSans-74" x="138.28125"/>
     <use xlink:href="#DejaVuSans-61" x="177.490234"/>
     <use xlink:href="#DejaVuSans-73" x="238.769531"/>
     <use xlink:href="#DejaVuSans-65" x="290.869141"/>
     <use xlink:href="#DejaVuSans-74" x="352.392578"/>
     <use xlink:href="#DejaVuSans-20" x="391.601562"/>
     <use xlink:href="#DejaVuSans-47" x="423.388672"/>
     <use xlink:href="#DejaVuSans-65" x="500.878906"/>
     <use xlink:href="#DejaVuSans-6e" x="562.402344"/>
     <use xlink:href="#DejaVuSans-65" x="625.78125"/>
     <use xlink:href="#DejaVuSans-72" x="687.304688"/>
     <use xlink:href="#DejaVuSans-61" x="728.417969"/>
     <use xlink:href="#DejaVuSans-74" x="789.697266"/>
     <use xlink:href="#DejaVuSans-69" x="828.90625"/>
     <use xlink:href="#DejaVuSans-6f" x="856.689453"/>
     <use xlink:href="#DejaVuSans-6e" x="917.871094"/>
    </g>
   </g>
   <g id="legend_1">
    <g id="patch_7">
     <path d="M 309.240625 197.978125 
L 511.4 197.978125 
Q 513.4 197.978125 513.4 195.978125 
L 513.4 167.621875 
Q 513.4 165.621875 511.4 165.621875 
L 309.240625 165.621875 
Q 307.240625 165.621875 307.240625 167.621875 
L 307.240625 195.978125 
Q 307.240625 197.978125 309.240625 197.978125 
z
" style="opacity: 0.8; stroke: #cccccc; stroke-linejoin: miter"/>
    </g>
    <g id="line2d_16">
     <path d="M 311.240625 173.720312 
L 321.240625 173.720312 
L 331.240625 173.720312 
" style="fill: none; stroke: #8dd3c7; stroke-width: 1.5; stroke-linecap: square"/>
    </g>
    <g id="text_17">
     <!-- Generated Data (Mean Removed) -->
     <g style="fill: #ffffff" transform="translate(339.240625 177.220312) scale(0.1 -0.1)">
      <defs>
       <path id="DejaVuSans-52" d="M 2841 2188 
Q 3044 2119 3236 1894 
Q 3428 1669 3622 1275 
L 4263 0 
L 3584 0 
L 2988 1197 
Q 2756 1666 2539 1819 
Q 2322 1972 1947 1972 
L 1259 1972 
L 1259 0 
L 628 0 
L 628 4666 
L 2053 4666 
Q 2853 4666 3247 4331 
Q 3641 3997 3641 3322 
Q 3641 2881 3436 2590 
Q 3231 2300 2841 2188 
z
M 1259 4147 
L 1259 2491 
L 2053 2491 
Q 2509 2491 2742 2702 
Q 2975 2913 2975 3322 
Q 2975 3731 2742 3939 
Q 2509 4147 2053 4147 
L 1259 4147 
z
" transform="scale(0.015625)"/>
       <path id="DejaVuSans-76" d="M 191 3500 
L 800 3500 
L 1894 563 
L 2988 3500 
L 3597 3500 
L 2284 0 
L 1503 0 
L 191 3500 
z
" transform="scale(0.015625)"/>
      </defs>
      <use xlink:href="#DejaVuSans-47"/>
      <use xlink:href="#DejaVuSans-65" x="77.490234"/>
      <use xlink:href="#DejaVuSans-6e" x="139.013672"/>
      <use xlink:href="#DejaVuSans-65" x="202.392578"/>
      <use xlink:href="#DejaVuSans-72" x="263.916016"/>
      <use xlink:href="#DejaVuSans-61" x="305.029297"/>
      <use xlink:href="#DejaVuSans-74" x="366.308594"/>
      <use xlink:href="#DejaVuSans-65" x="405.517578"/>
      <use xlink:href="#DejaVuSans-64" x="467.041016"/>
      <use xlink:href="#DejaVuSans-20" x="530.517578"/>
      <use xlink:href="#DejaVuSans-44" x="562.304688"/>
      <use xlink:href="#DejaVuSans-61" x="639.306641"/>
      <use xlink:href="#DejaVuSans-74" x="700.585938"/>
      <use xlink:href="#DejaVuSans-61" x="739.794922"/>
      <use xlink:href="#DejaVuSans-20" x="801.074219"/>
      <use xlink:href="#DejaVuSans-28" x="832.861328"/>
      <use xlink:href="#DejaVuSans-4d" x="871.875"/>
      <use xlink:href="#DejaVuSans-65" x="958.154297"/>
      <use xlink:href="#DejaVuSans-61" x="1019.677734"/>
      <use xlink:href="#DejaVuSans-6e" x="1080.957031"/>
      <use xlink:href="#DejaVuSans-20" x="1144.335938"/>
      <use xlink:href="#DejaVuSans-52" x="1176.123047"/>
      <use xlink:href="#DejaVuSans-65" x="1241.105469"/>
      <use xlink:href="#DejaVuSans-6d" x="1302.628906"/>
      <use xlink:href="#DejaVuSans-6f" x="1400.041016"/>
      <use xlink:href="#DejaVuSans-76" x="1461.222656"/>
      <use xlink:href="#DejaVuSans-65" x="1520.402344"/>
      <use xlink:href="#DejaVuSans-64" x="1581.925781"/>
      <use xlink:href="#DejaVuSans-29" x="1645.402344"/>
     </g>
    </g>
    <g id="line2d_17">
     <path d="M 311.240625 188.398437 
L 321.240625 188.398437 
L 331.240625 188.398437 
" style="fill: none; stroke: #feffb3; stroke-width: 1.5; stroke-linecap: square"/>
    </g>
    <g id="text_18">
     <!-- Requested Rates (Mean removed) -->
     <g style="fill: #ffffff" transform="translate(339.240625 191.898437) scale(0.1 -0.1)">
      <defs>
       <path id="DejaVuSans-71" d="M 947 1747 
Q 947 1113 1208 752 
Q 1469 391 1925 391 
Q 2381 391 2643 752 
Q 2906 1113 2906 1747 
Q 2906 2381 2643 2742 
Q 2381 3103 1925 3103 
Q 1469 3103 1208 2742 
Q 947 2381 947 1747 
z
M 2906 525 
Q 2725 213 2448 61 
Q 2172 -91 1784 -91 
Q 1150 -91 751 415 
Q 353 922 353 1747 
Q 353 2572 751 3078 
Q 1150 3584 1784 3584 
Q 2172 3584 2448 3432 
Q 2725 3281 2906 2969 
L 2906 3500 
L 3481 3500 
L 3481 -1331 
L 2906 -1331 
L 2906 525 
z
" transform="scale(0.015625)"/>
       <path id="DejaVuSans-75" d="M 544 1381 
L 544 3500 
L 1119 3500 
L 1119 1403 
Q 1119 906 1312 657 
Q 1506 409 1894 409 
Q 2359 409 2629 706 
Q 2900 1003 2900 1516 
L 2900 3500 
L 3475 3500 
L 3475 0 
L 2900 0 
L 2900 538 
Q 2691 219 2414 64 
Q 2138 -91 1772 -91 
Q 1169 -91 856 284 
Q 544 659 544 1381 
z
M 1991 3584 
L 1991 3584 
z
" transform="scale(0.015625)"/>
      </defs>
      <use xlink:href="#DejaVuSans-52"/>
      <use xlink:href="#DejaVuSans-65" x="64.982422"/>
      <use xlink:href="#DejaVuSans-71" x="126.505859"/>
      <use xlink:href="#DejaVuSans-75" x="189.982422"/>
      <use xlink:href="#DejaVuSans-65" x="253.361328"/>
      <use xlink:href="#DejaVuSans-73" x="314.884766"/>
      <use xlink:href="#DejaVuSans-74" x="366.984375"/>
      <use xlink:href="#DejaVuSans-65" x="406.193359"/>
      <use xlink:href="#DejaVuSans-64" x="467.716797"/>
      <use xlink:href="#DejaVuSans-20" x="531.193359"/>
      <use xlink:href="#DejaVuSans-52" x="562.980469"/>
      <use xlink:href="#DejaVuSans-61" x="630.212891"/>
      <use xlink:href="#DejaVuSans-74" x="691.492188"/>
      <use xlink:href="#DejaVuSans-65" x="730.701172"/>
      <use xlink:href="#DejaVuSans-73" x="792.224609"/>
      <use xlink:href="#DejaVuSans-20" x="844.324219"/>
      <use xlink:href="#DejaVuSans-28" x="876.111328"/>
      <use xlink:href="#DejaVuSans-4d" x="915.125"/>
      <use xlink:href="#DejaVuSans-65" x="1001.404297"/>
      <use xlink:href="#DejaVuSans-61" x="1062.927734"/>
      <use xlink:href="#DejaVuSans-6e" x="1124.207031"/>
      <use xlink:href="#DejaVuSans-20" x="1187.585938"/>
      <use xlink:href="#DejaVuSans-72" x="1219.373047"/>
      <use xlink:href="#DejaVuSans-65" x="1258.236328"/>
      <use xlink:href="#DejaVuSans-6d" x="1319.759766"/>
      <use xlink:href="#DejaVuSans-6f" x="1417.171875"/>
      <use xlink:href="#DejaVuSans-76" x="1478.353516"/>
      <use xlink:href="#DejaVuSans-65" x="1537.533203"/>
      <use xlink:href="#DejaVuSans-64" x="1599.056641"/>
      <use xlink:href="#DejaVuSans-29" x="1662.533203"/>
     </g>
    </g>
   </g>
  </g>
 </g>
 <defs>
  <clipPath id="pa91a868ef0">
   <rect x="72" y="43.2" width="446.4" height="277.2"/>
  </clipPath>
 </defs>
</svg>
