<?xml version="1.0" encoding="utf-8" standalone="no"?>
<!DOCTYPE svg PUBLIC "-//W3C//DTD SVG 1.1//EN"
  "http://www.w3.org/Graphics/SVG/1.1/DTD/svg11.dtd">
<svg xmlns:xlink="http://www.w3.org/1999/xlink" width="576pt" height="360pt" viewBox="0 0 576 360" xmlns="http://www.w3.org/2000/svg" version="1.1">
 <metadata>
  <rdf:RDF xmlns:dc="http://purl.org/dc/elements/1.1/" xmlns:cc="http://creativecommons.org/ns#" xmlns:rdf="http://www.w3.org/1999/02/22-rdf-syntax-ns#">
   <cc:Work>
    <dc:type rdf:resource="http://purl.org/dc/dcmitype/StillImage"/>
    <dc:date>2026-02-05T12:52:49.570870</dc:date>
    <dc:format>image/svg+xml</dc:format>
    <dc:creator>
     <cc:Agent>
      <dc:title>Matplotlib v3.7.5, https://matplotlib.org/</dc:title>
     </cc:Agent>
    </dc:creator>
   </cc:Work>
  </rdf:RDF>
 </metadata>
 <defs>
  <style type="text/css">*{stroke-linejoin: round; stroke-linecap: butt}</style>
 </defs>
 <g id="figure_1">
  <g id="patch_1">
   <path d="M 0 360 
L 576 360 
L 576 0 
L 0 0 
z
"/>
  </g>
  <g id="axes_1">
   <g id="patch_2">
    <path d="M 72 320.4 
L 518.4 320.4 
L 518.4 43.2 
L 72 43.2 
z
"/>
   </g>
   <g id="matplotlib.axis_1">
    <g id="xtick_1">
     <g id="line2d_1">
      <defs>
       <path id="m1b89c20490" d="M 0 0 
L 0 3.5 
" style="stroke: #ffffff; stroke-width: 0.8"/>
      </defs>
      <g>
       <use xlink:href="#m1b89c20490" x="92.290909" y="320.4" style="fill: #ffffff; stroke: #ffffff; stroke-width: 0.8"/>
      </g>
     </g>
     <g id="text_1">
      <!-- 0 -->
      <g style="fill: #ffffff" transform="translate(89.109659 334.998438) scale(0.1 -0.1)">
       <defs>
        <path id="DejaVuSans-30" d="M 2034 4250 
Q 1547 4250 1301 3770 
Q 1056 3291 1056 2328 
Q 1056 1369 1301 889 
Q 1547 409 2034 409 
Q 2525 409 2770 889 
Q 3016 1369 3016 2328 
Q 3016 3291 2770 3770 
Q 2525 4250 2034 4250 
z
M 2034 4750 
Q 2819 4750 3233 4129 
Q 3647 3509 3647 2328 
Q 3647 1150 3233 529 
Q 2819 -91 2034 -91 
Q 1250 -91 836 529 
Q 422 1150 422 2328 
Q 422 3509 836 4129 
Q 1250 4750 2034 4750 
z
" transform="scale(0.015625)"/>
       </defs>
       <use xlink:href="#DejaVuSans-30"/>
      </g>
     </g>
    </g>
    <g id="xtick_2">
     <g id="line2d_2">
      <g>
       <use xlink:href="#m1b89c20490" x="160.040188" y="320.4" style="fill: #ffffff; stroke: #ffffff; stroke-width: 0.8"/>
      </g>
     </g>
     <g id="text_2">
      <!-- 100 -->
      <g style="fill: #ffffff" transform="translate(150.496438 334.998438) scale(0.1 -0.1)">
       <defs>
        <path id="DejaVuSans-31" d="M 794 531 
L 1825 531 
L 1825 4091 
L 703 3866 
L 703 4441 
L 1819 4666 
L 2450 4666 
L 2450 531 
L 3481 531 
L 3481 0 
L 794 0 
L 794 531 
z
" transform="scale(0.015625)"/>
       </defs>
       <use xlink:href="#DejaVuSans-31"/>
       <use xlink:href="#DejaVuSans-30" x="63.623047"/>
       <use xlink:href="#DejaVuSans-30" x="127.246094"/>
      </g>
     </g>
    </g>
    <g id="xtick_3">
     <g id="line2d_3">
      <g>
       <use xlink:href="#m1b89c20490" x="227.789467" y="320.4" style="fill: #ffffff; stroke: #ffffff; stroke-width: 0.8"/>
      </g>
     </g>
     <g id="text_3">
      <!-- 200 -->
      <g style="fill: #ffffff" transform="translate(218.245717 334.998438) scale(0.1 -0.1)">
       <defs>
        <path id="DejaVuSans-32" d="M 1228 531 
L 3431 531 
L 3431 0 
L 469 0 
L 469 531 
Q 828 903 1448 1529 
Q 2069 2156 2228 2338 
Q 2531 2678 2651 2914 
Q 2772 3150 2772 3378 
Q 2772 3750 2511 3984 
Q 2250 4219 1831 4219 
Q 1534 4219 1204 4116 
Q 875 4013 500 3803 
L 500 4441 
Q 881 4594 1212 4672 
Q 1544 4750 1819 4750 
Q 2544 4750 2975 4387 
Q 3406 4025 3406 3419 
Q 3406 3131 3298 2873 
Q 3191 2616 2906 2266 
Q 2828 2175 2409 1742 
Q 1991 1309 1228 531 
z
" transform="scale(0.015625)"/>
       </defs>
       <use xlink:href="#DejaVuSans-32"/>
       <use xlink:href="#DejaVuSans-30" x="63.623047"/>
       <use xlink:href="#DejaVuSans-30" x="127.246094"/>
      </g>
     </g>
    </g>
    <g id="xtick_4">
     <g id="line2d_4">
      <g>
       <use xlink:href="#m1b89c20490" x="295.538746" y="320.4" style="fill: #ffffff; stroke: #ffffff; stroke-width: 0.8"/>
      </g>
     </g>
     <g id="text_4">
      <!-- 300 -->
      <g style="fill: #ffffff" transform="translate(285.994996 334.998438) scale(0.1 -0.1)">
       <defs>
        <path id="DejaVuSans-33" d="M 2597 2516 
Q 3050 2419 3304 2112 
Q 3559 1806 3559 1356 
Q 3559 666 3084 287 
Q 2609 -91 1734 -91 
Q 1441 -91 1130 -33 
Q 819 25 488 141 
L 488 750 
Q 750 597 1062 519 
Q 1375 441 1716 441 
Q 2309 441 2620 675 
Q 2931 909 2931 1356 
Q 2931 1769 2642 2001 
Q 2353 2234 1838 2234 
L 1294 2234 
L 1294 2753 
L 1863 2753 
Q 2328 2753 2575 2939 
Q 2822 3125 2822 3475 
Q 2822 3834 2567 4026 
Q 2313 4219 1838 4219 
Q 1578 4219 1281 4162 
Q 984 4106 628 3988 
L 628 4550 
Q 988 4650 1302 4700 
Q 1616 4750 1894 4750 
Q 2613 4750 3031 4423 
Q 3450 4097 3450 3541 
Q 3450 3153 3228 2886 
Q 3006 2619 2597 2516 
z
" transform="scale(0.015625)"/>
       </defs>
       <use xlink:href="#DejaVuSans-33"/>
       <use xlink:href="#DejaVuSans-30" x="63.623047"/>
       <use xlink:href="#DejaVuSans-30" x="127.246094"/>
      </g>
     </g>
    </g>
    <g id="xtick_5">
     <g id="line2d_5">
      <g>
       <use xlink:href="#m1b89c20490" x="363.288025" y="320.4" style="fill: #ffffff; stroke: #ffffff; stroke-width: 0.8"/>
      </g>
     </g>
     <g id="text_5">
      <!-- 400 -->
      <g style="fill: #ffffff" transform="translate(353.744275 334.998438) scale(0.1 -0.1)">
       <defs>
        <path id="DejaVuSans-34" d="M 2419 4116 
L 825 1625 
L 2419 1625 
L 2419 4116 
z
M 2253 4666 
L 3047 4666 
L 3047 1625 
L 3713 1625 
L 3713 1100 
L 3047 1100 
L 3047 0 
L 2419 0 
L 2419 1100 
L 313 1100 
L 313 1709 
L 2253 4666 
z
" transform="scale(0.015625)"/>
       </defs>
       <use xlink:href="#DejaVuSans-34"/>
       <use xlink:href="#DejaVuSans-30" x="63.623047"/>
       <use xlink:href="#DejaVuSans-30" x="127.246094"/>
      </g>
     </g>
    </g>
    <g id="xtick_6">
     <g id="line2d_6">
      <g>
       <use xlink:href="#m1b89c20490" x="431.037305" y="320.4" style="fill: #ffffff; stroke: #ffffff; stroke-width: 0.8"/>
      </g>
     </g>
     <g id="text_6">
      <!-- 500 -->
      <g style="fill: #ffffff" transform="translate(421.493555 334.998438) scale(0.1 -0.1)">
       <defs>
        <path id="DejaVuSans-35" d="M 691 4666 
L 3169 4666 
L 3169 4134 
L 1269 4134 
L 1269 2991 
Q 1406 3038 1543 3061 
Q 1681 3084 1819 3084 
Q 2600 3084 3056 2656 
Q 3513 2228 3513 1497 
Q 3513 744 3044 326 
Q 2575 -91 1722 -91 
Q 1428 -91 1123 -41 
Q 819 9 494 109 
L 494 744 
Q 775 591 1075 516 
Q 1375 441 1709 441 
Q 2250 441 2565 725 
Q 2881 1009 2881 1497 
Q 2881 1984 2565 2268 
Q 2250 2553 1709 2553 
Q 1456 2553 1204 2497 
Q 953 2441 691 2322 
L 691 4666 
z
" transform="scale(0.015625)"/>
       </defs>
       <use xlink:href="#DejaVuSans-35"/>
       <use xlink:href="#DejaVuSans-30" x="63.623047"/>
       <use xlink:href="#DejaVuSans-30" x="127.246094"/>
      </g>
     </g>
    </g>
    <g id="xtick_7">
     <g id="line2d_7">
      <g>
       <use xlink:href="#m1b89c20490" x="498.786584" y="320.4" style="fill: #ffffff; stroke: #ffffff; stroke-width: 0.8"/>
      </g>
     </g>
     <g id="text_7">
      <!-- 600 -->
      <g style="fill: #ffffff" transform="translate(489.242834 334.998438) scale(0.1 -0.1)">
       <defs>
        <path id="DejaVuSans-36" d="M 2113 2584 
Q 1688 2584 1439 2293 
Q 1191 2003 1191 1497 
Q 1191 994 1439 701 
Q 1688 409 2113 409 
Q 2538 409 2786 701 
Q 3034 994 3034 1497 
Q 3034 2003 2786 2293 
Q 2538 2584 2113 2584 
z
M 3366 4563 
L 3366 3988 
Q 3128 4100 2886 4159 
Q 2644 4219 2406 4219 
Q 1781 4219 1451 3797 
Q 1122 3375 1075 2522 
Q 1259 2794 1537 2939 
Q 1816 3084 2150 3084 
Q 2853 3084 3261 2657 
Q 3669 2231 3669 1497 
Q 3669 778 3244 343 
Q 2819 -91 2113 -91 
Q 1303 -91 875 529 
Q 447 1150 447 2328 
Q 447 3434 972 4092 
Q 1497 4750 2381 4750 
Q 2619 4750 2861 4703 
Q 3103 4656 3366 4563 
z
" transform="scale(0.015625)"/>
       </defs>
       <use xlink:href="#DejaVuSans-36"/>
       <use xlink:href="#DejaVuSans-30" x="63.623047"/>
       <use xlink:href="#DejaVuSans-30" x="127.246094"/>
      </g>
     </g>
    </g>
    <g id="text_8">
     <!-- Time (s) -->
     <g style="fill: #ffffff" transform="translate(266.739531 351.715937) scale(0.14 -0.14)">
      <defs>
       <path id="DejaVuSans-54" d="M -19 4666 
L 3928 4666 
L 3928 4134 
L 2272 4134 
L 2272 0 
L 1638 0 
L 1638 4134 
L -19 4134 
L -19 4666 
z
" transform="scale(0.015625)"/>
       <path id="DejaVuSans-69" d="M 603 3500 
L 1178 3500 
L 1178 0 
L 603 0 
L 603 3500 
z
M 603 4863 
L 1178 4863 
L 1178 4134 
L 603 4134 
L 603 4863 
z
" transform="scale(0.015625)"/>
       <path id="DejaVuSans-6d" d="M 3328 2828 
Q 3544 3216 3844 3400 
Q 4144 3584 4550 3584 
Q 5097 3584 5394 3201 
Q 5691 2819 5691 2113 
L 5691 0 
L 5113 0 
L 5113 2094 
Q 5113 2597 4934 2840 
Q 4756 3084 4391 3084 
Q 3944 3084 3684 2787 
Q 3425 2491 3425 1978 
L 3425 0 
L 2847 0 
L 2847 2094 
Q 2847 2600 2669 2842 
Q 2491 3084 2119 3084 
Q 1678 3084 1418 2786 
Q 1159 2488 1159 1978 
L 1159 0 
L 581 0 
L 581 3500 
L 1159 3500 
L 1159 2956 
Q 1356 3278 1631 3431 
Q 1906 3584 2284 3584 
Q 2666 3584 2933 3390 
Q 3200 3197 3328 2828 
z
" transform="scale(0.015625)"/>
       <path id="DejaVuSans-65" d="M 3597 1894 
L 3597 1613 
L 953 1613 
Q 991 1019 1311 708 
Q 1631 397 2203 397 
Q 2534 397 2845 478 
Q 3156 559 3463 722 
L 3463 178 
Q 3153 47 2828 -22 
Q 2503 -91 2169 -91 
Q 1331 -91 842 396 
Q 353 884 353 1716 
Q 353 2575 817 3079 
Q 1281 3584 2069 3584 
Q 2775 3584 3186 3129 
Q 3597 2675 3597 1894 
z
M 3022 2063 
Q 3016 2534 2758 2815 
Q 2500 3097 2075 3097 
Q 1594 3097 1305 2825 
Q 1016 2553 972 2059 
L 3022 2063 
z
" transform="scale(0.015625)"/>
       <path id="DejaVuSans-20" transform="scale(0.015625)"/>
       <path id="DejaVuSans-28" d="M 1984 4856 
Q 1566 4138 1362 3434 
Q 1159 2731 1159 2009 
Q 1159 1288 1364 580 
Q 1569 -128 1984 -844 
L 1484 -844 
Q 1016 -109 783 600 
Q 550 1309 550 2009 
Q 550 2706 781 3412 
Q 1013 4119 1484 4856 
L 1984 4856 
z
" transform="scale(0.015625)"/>
       <path id="DejaVuSans-73" d="M 2834 3397 
L 2834 2853 
Q 2591 2978 2328 3040 
Q 2066 3103 1784 3103 
Q 1356 3103 1142 2972 
Q 928 2841 928 2578 
Q 928 2378 1081 2264 
Q 1234 2150 1697 2047 
L 1894 2003 
Q 2506 1872 2764 1633 
Q 3022 1394 3022 966 
Q 3022 478 2636 193 
Q 2250 -91 1575 -91 
Q 1294 -91 989 -36 
Q 684 19 347 128 
L 347 722 
Q 666 556 975 473 
Q 1284 391 1588 391 
Q 1994 391 2212 530 
Q 2431 669 2431 922 
Q 2431 1156 2273 1281 
Q 2116 1406 1581 1522 
L 1381 1569 
Q 847 1681 609 1914 
Q 372 2147 372 2553 
Q 372 3047 722 3315 
Q 1072 3584 1716 3584 
Q 2034 3584 2315 3537 
Q 2597 3491 2834 3397 
z
" transform="scale(0.015625)"/>
       <path id="DejaVuSans-29" d="M 513 4856 
L 1013 4856 
Q 1481 4119 1714 3412 
Q 1947 2706 1947 2009 
Q 1947 1309 1714 600 
Q 1481 -109 1013 -844 
L 513 -844 
Q 928 -128 1133 580 
Q 1338 1288 1338 2009 
Q 1338 2731 1133 3434 
Q 928 4138 513 4856 
z
" transform="scale(0.015625)"/>
      </defs>
      <use xlink:href="#DejaVuSans-54"/>
      <use xlink:href="#DejaVuSans-69" x="57.958984"/>
      <use xlink:href="#DejaVuSans-6d" x="85.742188"/>
      <use xlink:href="#DejaVuSans-65" x="183.154297"/>
      <use xlink:href="#DejaVuSans-20" x="244.677734"/>
      <use xlink:href="#DejaVuSans-28" x="276.464844"/>
      <use xlink:href="#DejaVuSans-73" x="315.478516"/>
      <use xlink:href="#DejaVuSans-29" x="367.578125"/>
     </g>
    </g>
   </g>
   <g id="matplotlib.axis_2">
    <g id="ytick_1">
     <g id="line2d_8">
      <defs>
       <path id="md833bac124" d="M 0 0 
L -3.5 0 
" style="stroke: #ffffff; stroke-width: 0.8"/>
      </defs>
      <g>
       <use xlink:href="#md833bac124" x="72" y="297.159594" style="fill: #ffffff; stroke: #ffffff; stroke-width: 0.8"/>
      </g>
     </g>
     <g id="text_9">
      <!-- −4 -->
      <g style="fill: #ffffff" transform="translate(50.257812 300.958813) scale(0.1 -0.1)">
       <defs>
        <path id="DejaVuSans-2212" d="M 678 2272 
L 4684 2272 
L 4684 1741 
L 678 1741 
L 678 2272 
z
" transform="scale(0.015625)"/>
       </defs>
       <use xlink:href="#DejaVuSans-2212"/>
       <use xlink:href="#DejaVuSans-34" x="83.789062"/>
      </g>
     </g>
    </g>
    <g id="ytick_2">
     <g id="line2d_9">
      <g>
       <use xlink:href="#md833bac124" x="72" y="246.840592" style="fill: #ffffff; stroke: #ffffff; stroke-width: 0.8"/>
      </g>
     </g>
     <g id="text_10">
      <!-- −2 -->
      <g style="fill: #ffffff" transform="translate(50.257812 250.639811) scale(0.1 -0.1)">
       <use xlink:href="#DejaVuSans-2212"/>
       <use xlink:href="#DejaVuSans-32" x="83.789062"/>
      </g>
     </g>
    </g>
    <g id="ytick_3">
     <g id="line2d_10">
      <g>
       <use xlink:href="#md833bac124" x="72" y="196.52159" style="fill: #ffffff; stroke: #ffffff; stroke-width: 0.8"/>
      </g>
     </g>
     <g id="text_11">
      <!-- 0 -->
      <g style="fill: #ffffff" transform="translate(58.6375 200.320808) scale(0.1 -0.1)">
       <use xlink:href="#DejaVuSans-30"/>
      </g>
     </g>
    </g>
    <g id="ytick_4">
     <g id="line2d_11">
      <g>
       <use xlink:href="#md833bac124" x="72" y="146.202587" style="fill: #ffffff; stroke: #ffffff; stroke-width: 0.8"/>
      </g>
     </g>
     <g id="text_12">
      <!-- 2 -->
      <g style="fill: #ffffff" transform="translate(58.6375 150.001806) scale(0.1 -0.1)">
       <use xlink:href="#DejaVuSans-32"/>
      </g>
     </g>
    </g>
    <g id="ytick_5">
     <g id="line2d_12">
      <g>
       <use xlink:href="#md833bac124" x="72" y="95.883585" style="fill: #ffffff; stroke: #ffffff; stroke-width: 0.8"/>
      </g>
     </g>
     <g id="text_13">
      <!-- 4 -->
      <g style="fill: #ffffff" transform="translate(58.6375 99.682804) scale(0.1 -0.1)">
       <use xlink:href="#DejaVuSans-34"/>
      </g>
     </g>
    </g>
    <g id="ytick_6">
     <g id="line2d_13">
      <g>
       <use xlink:href="#md833bac124" x="72" y="45.564583" style="fill: #ffffff; stroke: #ffffff; stroke-width: 0.8"/>
      </g>
     </g>
     <g id="text_14">
      <!-- 6 -->
      <g style="fill: #ffffff" transform="translate(58.6375 49.363802) scale(0.1 -0.1)">
       <use xlink:href="#DejaVuSans-36"/>
      </g>
     </g>
    </g>
    <g id="text_15">
     <!-- Bandwidth (Mbps) -->
     <g style="fill: #ffffff" transform="translate(43.34625 245.327187) rotate(-90) scale(0.14 -0.14)">
      <defs>
       <path id="DejaVuSans-42" d="M 1259 2228 
L 1259 519 
L 2272 519 
Q 2781 519 3026 730 
Q 3272 941 3272 1375 
Q 3272 1813 3026 2020 
Q 2781 2228 2272 2228 
L 1259 2228 
z
M 1259 4147 
L 1259 2741 
L 2194 2741 
Q 2656 2741 2882 2914 
Q 3109 3088 3109 3444 
Q 3109 3797 2882 3972 
Q 2656 4147 2194 4147 
L 1259 4147 
z
M 628 4666 
L 2241 4666 
Q 2963 4666 3353 4366 
Q 3744 4066 3744 3513 
Q 3744 3084 3544 2831 
Q 3344 2578 2956 2516 
Q 3422 2416 3680 2098 
Q 3938 1781 3938 1306 
Q 3938 681 3513 340 
Q 3088 0 2303 0 
L 628 0 
L 628 4666 
z
" transform="scale(0.015625)"/>
       <path id="DejaVuSans-61" d="M 2194 1759 
Q 1497 1759 1228 1600 
Q 959 1441 959 1056 
Q 959 750 1161 570 
Q 1363 391 1709 391 
Q 2188 391 2477 730 
Q 2766 1069 2766 1631 
L 2766 1759 
L 2194 1759 
z
M 3341 1997 
L 3341 0 
L 2766 0 
L 2766 531 
Q 2569 213 2275 61 
Q 1981 -91 1556 -91 
Q 1019 -91 701 211 
Q 384 513 384 1019 
Q 384 1609 779 1909 
Q 1175 2209 1959 2209 
L 2766 2209 
L 2766 2266 
Q 2766 2663 2505 2880 
Q 2244 3097 1772 3097 
Q 1472 3097 1187 3025 
Q 903 2953 641 2809 
L 641 3341 
Q 956 3463 1253 3523 
Q 1550 3584 1831 3584 
Q 2591 3584 2966 3190 
Q 3341 2797 3341 1997 
z
" transform="scale(0.015625)"/>
       <path id="DejaVuSans-6e" d="M 3513 2113 
L 3513 0 
L 2938 0 
L 2938 2094 
Q 2938 2591 2744 2837 
Q 2550 3084 2163 3084 
Q 1697 3084 1428 2787 
Q 1159 2491 1159 1978 
L 1159 0 
L 581 0 
L 581 3500 
L 1159 3500 
L 1159 2956 
Q 1366 3272 1645 3428 
Q 1925 3584 2291 3584 
Q 2894 3584 3203 3211 
Q 3513 2838 3513 2113 
z
" transform="scale(0.015625)"/>
       <path id="DejaVuSans-64" d="M 2906 2969 
L 2906 4863 
L 3481 4863 
L 3481 0 
L 2906 0 
L 2906 525 
Q 2725 213 2448 61 
Q 2172 -91 1784 -91 
Q 1150 -91 751 415 
Q 353 922 353 1747 
Q 353 2572 751 3078 
Q 1150 3584 1784 3584 
Q 2172 3584 2448 3432 
Q 2725 3281 2906 2969 
z
M 947 1747 
Q 947 1113 1208 752 
Q 1469 391 1925 391 
Q 2381 391 2643 752 
Q 2906 1113 2906 1747 
Q 2906 2381 2643 2742 
Q 2381 3103 1925 3103 
Q 1469 3103 1208 2742 
Q 947 2381 947 1747 
z
" transform="scale(0.015625)"/>
       <path id="DejaVuSans-77" d="M 269 3500 
L 844 3500 
L 1563 769 
L 2278 3500 
L 2956 3500 
L 3675 769 
L 4391 3500 
L 4966 3500 
L 4050 0 
L 3372 0 
L 2619 2869 
L 1863 0 
L 1184 0 
L 269 3500 
z
" transform="scale(0.015625)"/>
       <path id="DejaVuSans-74" d="M 1172 4494 
L 1172 3500 
L 2356 3500 
L 2356 3053 
L 1172 3053 
L 1172 1153 
Q 1172 725 1289 603 
Q 1406 481 1766 481 
L 2356 481 
L 2356 0 
L 1766 0 
Q 1100 0 847 248 
Q 594 497 594 1153 
L 594 3053 
L 172 3053 
L 172 3500 
L 594 3500 
L 594 4494 
L 1172 4494 
z
" transform="scale(0.015625)"/>
       <path id="DejaVuSans-68" d="M 3513 2113 
L 3513 0 
L 2938 0 
L 2938 2094 
Q 2938 2591 2744 2837 
Q 2550 3084 2163 3084 
Q 1697 3084 1428 2787 
Q 1159 2491 1159 1978 
L 1159 0 
L 581 0 
L 581 4863 
L 1159 4863 
L 1159 2956 
Q 1366 3272 1645 3428 
Q 1925 3584 2291 3584 
Q 2894 3584 3203 3211 
Q 3513 2838 3513 2113 
z
" transform="scale(0.015625)"/>
       <path id="DejaVuSans-4d" d="M 628 4666 
L 1569 4666 
L 2759 1491 
L 3956 4666 
L 4897 4666 
L 4897 0 
L 4281 0 
L 4281 4097 
L 3078 897 
L 2444 897 
L 1241 4097 
L 1241 0 
L 628 0 
L 628 4666 
z
" transform="scale(0.015625)"/>
       <path id="DejaVuSans-62" d="M 3116 1747 
Q 3116 2381 2855 2742 
Q 2594 3103 2138 3103 
Q 1681 3103 1420 2742 
Q 1159 2381 1159 1747 
Q 1159 1113 1420 752 
Q 1681 391 2138 391 
Q 2594 391 2855 752 
Q 3116 1113 3116 1747 
z
M 1159 2969 
Q 1341 3281 1617 3432 
Q 1894 3584 2278 3584 
Q 2916 3584 3314 3078 
Q 3713 2572 3713 1747 
Q 3713 922 3314 415 
Q 2916 -91 2278 -91 
Q 1894 -91 1617 61 
Q 1341 213 1159 525 
L 1159 0 
L 581 0 
L 581 4863 
L 1159 4863 
L 1159 2969 
z
" transform="scale(0.015625)"/>
       <path id="DejaVuSans-70" d="M 1159 525 
L 1159 -1331 
L 581 -1331 
L 581 3500 
L 1159 3500 
L 1159 2969 
Q 1341 3281 1617 3432 
Q 1894 3584 2278 3584 
Q 2916 3584 3314 3078 
Q 3713 2572 3713 1747 
Q 3713 922 3314 415 
Q 2916 -91 2278 -91 
Q 1894 -91 1617 61 
Q 1341 213 1159 525 
z
M 3116 1747 
Q 3116 2381 2855 2742 
Q 2594 3103 2138 3103 
Q 1681 3103 1420 2742 
Q 1159 2381 1159 1747 
Q 1159 1113 1420 752 
Q 1681 391 2138 391 
Q 2594 391 2855 752 
Q 3116 1113 3116 1747 
z
" transform="scale(0.015625)"/>
      </defs>
      <use xlink:href="#DejaVuSans-42"/>
      <use xlink:href="#DejaVuSans-61" x="68.603516"/>
      <use xlink:href="#DejaVuSans-6e" x="129.882812"/>
      <use xlink:href="#DejaVuSans-64" x="193.261719"/>
      <use xlink:href="#DejaVuSans-77" x="256.738281"/>
      <use xlink:href="#DejaVuSans-69" x="338.525391"/>
      <use xlink:href="#DejaVuSans-64" x="366.308594"/>
      <use xlink:href="#DejaVuSans-74" x="429.785156"/>
      <use xlink:href="#DejaVuSans-68" x="468.994141"/>
      <use xlink:href="#DejaVuSans-20" x="532.373047"/>
      <use xlink:href="#DejaVuSans-28" x="564.160156"/>
      <use xlink:href="#DejaVuSans-4d" x="603.173828"/>
      <use xlink:href="#DejaVuSans-62" x="689.453125"/>
      <use xlink:href="#DejaVuSans-70" x="752.929688"/>
      <use xlink:href="#DejaVuSans-73" x="816.40625"/>
      <use xlink:href="#DejaVuSans-29" x="868.505859"/>
     </g>
    </g>
   </g>
   <g id="line2d_14">
    <path d="M 92.290909 177.90699 
L 92.968402 177.907639 
L 93.645895 218.998647 
L 94.323387 218.99325 
L 95.00088 254.844296 
L 95.678373 254.841347 
L 96.355866 154.009452 
L 97.033359 153.709418 
L 97.710851 229.785974 
L 98.388344 230.063738 
L 99.065837 221.621173 
L 99.74333 221.61653 
L 100.420823 230.655591 
L 101.098315 230.942736 
L 101.775808 238.233544 
L 102.453301 238.519648 
L 103.130794 186.364878 
L 103.808287 186.951585 
L 104.485779 256.01017 
L 105.163272 256.006973 
L 105.840765 264.170062 
L 106.518258 264.459081 
L 107.19575 265.044525 
L 107.873243 265.041801 
L 108.550736 191.31264 
L 109.228229 191.014443 
L 109.905722 181.411079 
L 110.583214 181.681226 
L 111.260707 142.643851 
L 111.9382 142.343006 
L 112.615693 124.880328 
L 113.293186 124.842503 
L 113.970678 67.154858 
L 114.648171 67.15847 
L 115.325664 57.549309 
L 116.003157 63.0671 
L 116.68065 56.088669 
L 117.358142 61.904978 
L 118.035635 56.085401 
L 118.713128 56.66124 
L 119.390621 56.088909 
L 120.068114 61.029173 
L 120.745606 56.089179 
L 121.423099 56.948918 
L 122.100592 56.089179 
L 122.778085 58.407162 
L 123.455577 56.089179 
L 124.13307 58.690137 
L 124.810563 56.093436 
L 125.488056 62.482492 
L 126.165549 56.089419 
L 126.843041 63.360748 
L 127.520534 56.088909 
L 128.198027 59.86439 
L 128.87552 56.088909 
L 129.553013 57.240634 
L 130.230505 56.089179 
L 130.907998 62.194726 
L 131.585491 56.381597 
L 132.262984 63.942668 
L 132.940477 56.089419 
L 133.617969 60.44628 
L 134.295462 56.089179 
L 134.972955 60.446044 
L 135.650448 56.089179 
L 136.327941 58.99029 
L 137.005433 56.089419 
L 137.682926 63.943641 
L 138.360419 56.090438 
L 139.037912 59.279249 
L 139.715404 107.089192 
L 140.392897 107.078364 
L 141.07039 95.148835 
L 141.747883 95.121229 
L 142.425376 135.066489 
L 143.102868 134.765562 
L 143.780361 129.821106 
L 144.457854 129.810807 
L 145.135347 172.371858 
L 145.81284 172.363073 
L 146.490332 246.101947 
L 147.167825 246.097458 
L 147.845318 203.844125 
L 148.522811 203.549359 
L 149.200304 116.414958 
L 149.877796 116.404451 
L 150.555289 186.067018 
L 151.232782 186.351178 
L 151.910275 115.251369 
L 152.587767 114.945865 
L 153.26526 126.032348 
L 153.942753 126.022003 
L 154.620246 56.089179 
L 155.297739 56.657471 
L 155.975231 56.089179 
L 156.652724 59.281736 
L 157.330217 56.089179 
L 158.00771 56.365785 
L 158.685203 56.090918 
L 159.362695 56.365515 
L 160.040188 64.248722 
L 160.717681 63.943903 
L 161.395174 56.084892 
L 162.072667 58.418628 
L 162.750159 56.090168 
L 163.427652 58.988305 
L 164.105145 55.8 
L 164.782638 62.192518 
L 165.460131 56.088909 
L 166.137623 56.366025 
L 166.815116 56.10099 
L 167.492609 57.52032 
L 168.170102 56.088909 
L 168.847594 56.366025 
L 169.525087 56.088909 
L 170.20258 56.366294 
L 170.880073 56.088429 
L 171.557566 56.949426 
L 172.235058 68.620407 
L 172.912551 68.607274 
L 173.590044 56.088909 
L 174.267537 57.240365 
L 174.94503 56.089658 
L 175.622522 56.366025 
L 176.300015 56.088909 
L 176.977508 56.358492 
L 177.655001 56.089179 
L 178.332494 61.029173 
L 179.009986 56.088909 
L 179.687479 56.948679 
L 180.364972 56.089419 
L 181.042465 61.320121 
L 181.719958 56.08741 
L 182.39745 58.699349 
L 183.074943 56.089179 
L 183.752436 56.659745 
L 184.429929 62.792533 
L 185.107421 62.777621 
L 185.784914 114.959345 
L 186.462407 114.948575 
L 187.1399 132.759348 
L 187.817393 133.005188 
L 188.494885 106.79836 
L 189.172378 106.785721 
L 189.849871 149.929598 
L 190.527364 149.920765 
L 191.204857 88.729533 
L 191.882349 88.716853 
L 192.559842 105.923879 
L 193.237335 105.912196 
L 193.914828 221.621255 
L 194.592321 221.616448 
L 195.269813 276.410163 
L 195.947306 276.408386 
L 196.624799 265.918643 
L 197.302292 266.207838 
L 197.979784 283.695956 
L 198.657277 283.694523 
L 199.33477 304.970299 
L 201.367248 304.970139 
L 202.044741 166.84097 
L 202.722234 167.107516 
L 203.399727 194.518477 
L 204.07722 194.511696 
L 204.754712 197.141119 
L 205.432205 197.426495 
L 206.109698 181.986884 
L 206.787191 181.986375 
L 207.464684 262.713002 
L 208.142176 263.001758 
L 208.819669 304.970291 
L 209.497162 304.970139 
L 210.174655 293.313109 
L 210.852148 293.312367 
L 211.52964 295.061687 
L 212.207133 295.352394 
L 212.884626 304.970293 
L 213.562119 304.970139 
L 214.239611 304.387444 
L 214.917104 304.678683 
L 215.594597 247.558606 
L 216.27209 247.846567 
L 216.949583 249.59867 
L 217.627075 249.886695 
L 218.304568 174.701264 
L 218.982061 174.401849 
L 219.659554 154.883742 
L 220.337047 154.583904 
L 221.014539 67.746374 
L 221.692032 67.44126 
L 222.369525 81.152148 
L 223.047018 81.139245 
L 223.724511 140.312233 
L 224.402003 140.302701 
L 225.079496 152.552615 
L 225.756989 152.543632 
L 226.434482 145.560255 
L 227.111975 145.841482 
L 227.789467 167.124229 
L 228.46696 167.115672 
L 229.144453 141.76972 
L 229.821946 142.052053 
L 230.499438 144.97529 
L 231.176931 144.966024 
L 231.854424 128.363787 
L 232.531917 128.655025 
L 233.20941 56.096704 
L 233.886902 60.147414 
L 234.564395 65.706595 
L 235.241888 65.693043 
L 235.919381 117.001067 
L 236.596874 116.692461 
L 237.274366 202.678405 
L 237.951859 202.67284 
L 238.629352 304.970293 
L 240.66183 304.970139 
L 241.339323 233.861323 
L 242.016816 233.565824 
L 242.694309 240.564353 
L 243.371801 240.560333 
L 244.049294 297.393124 
L 244.726787 297.692395 
L 245.40428 304.970291 
L 252.856701 304.970141 
L 253.534193 275.244475 
L 254.211686 275.242859 
L 254.889179 304.970291 
L 255.566672 304.970299 
L 256.244165 287.193069 
L 256.921657 287.483312 
L 257.59915 295.644546 
L 258.276643 295.935288 
L 258.954136 287.193069 
L 259.631628 287.191906 
L 260.309121 270.873066 
L 260.986614 271.16235 
L 261.664107 250.181475 
L 262.3416 250.178258 
L 263.019092 262.130051 
L 263.696585 262.127509 
L 264.374078 258.633087 
L 265.051571 258.921835 
L 265.729064 304.970288 
L 266.406556 304.970175 
L 267.084049 287.193129 
L 267.761542 287.483312 
L 268.439035 302.638861 
L 269.116528 302.930077 
L 269.79402 304.970288 
L 278.601427 304.970149 
L 279.278919 279.907292 
L 279.956412 279.905744 
L 280.633905 304.970291 
L 300.281196 304.970118 
L 300.958689 241.729938 
L 301.636182 241.726318 
L 302.313674 296.810254 
L 302.991167 297.101065 
L 303.66866 289.816096 
L 304.346153 289.815581 
L 305.023645 304.970286 
L 307.056124 304.970139 
L 307.733617 293.896037 
L 308.411109 294.186554 
L 309.088602 202.678405 
L 309.766095 202.963661 
L 310.443588 287.775928 
L 311.121081 287.774778 
L 311.798573 302.930282 
L 312.476066 302.930011 
L 313.153559 304.970296 
L 315.186037 304.970141 
L 315.86353 249.598553 
L 316.541023 249.886867 
L 317.218516 285.736792 
L 317.896008 285.733776 
L 318.573501 226.867239 
L 319.250994 226.862321 
L 319.928487 272.038961 
L 320.60598 272.036367 
L 321.283472 206.758724 
L 321.960965 206.752269 
L 322.638458 219.290171 
L 323.315951 219.581076 
L 323.993444 263.878632 
L 324.670936 263.584741 
L 325.348429 248.432952 
L 326.025922 248.720908 
L 326.703415 240.272859 
L 327.380908 240.269087 
L 328.0584 218.706953 
L 328.735893 218.411249 
L 329.413386 189.855603 
L 330.090879 190.146571 
L 330.768372 249.307185 
L 331.445864 249.303801 
L 332.123357 304.970437 
L 332.80085 304.969997 
L 333.478343 242.60436 
L 334.155835 242.309016 
L 334.833328 221.621255 
L 335.510821 221.907895 
L 336.188314 161.299601 
L 336.865807 160.991325 
L 337.543299 220.746964 
L 338.220792 220.742109 
L 338.898285 216.375609 
L 339.575778 216.370683 
L 340.253271 190.146921 
L 340.930763 190.432611 
L 341.608256 184.026893 
L 342.285749 183.730015 
L 342.963242 222.495637 
L 343.640735 222.490788 
L 344.318227 280.490152 
L 344.99572 280.488637 
L 345.673213 268.541594 
L 346.350706 268.568481 
L 347.028199 246.975623 
L 347.705691 247.26476 
L 348.383184 304.970291 
L 350.415662 304.970084 
L 351.093155 266.210073 
L 351.770648 266.499245 
L 352.448141 208.216165 
L 353.125634 208.50066 
L 353.803126 150.512458 
L 354.480619 150.503339 
L 355.158112 151.095318 
L 355.835605 151.086866 
L 356.513098 182.673547 
L 357.19059 182.458752 
L 357.868083 57.83749 
L 358.545576 57.825015 
L 359.223069 56.088909 
L 359.900562 57.240872 
L 360.578054 56.089179 
L 361.255547 57.240365 
L 361.93304 56.088909 
L 362.610533 59.286205 
L 363.288025 56.088909 
L 363.965518 61.029438 
L 364.643011 56.091427 
L 365.320504 57.531573 
L 365.997997 60.752057 
L 366.675489 60.737491 
L 367.352982 153.143814 
L 368.030475 153.11787 
L 368.707968 127.489841 
L 369.385461 127.479772 
L 370.062953 110.586941 
L 370.740446 113.804557 
L 371.417939 74.740913 
L 372.095432 74.727173 
L 372.772925 58.132935 
L 373.450417 58.11072 
L 374.12791 56.090438 
L 374.805403 56.94841 
L 375.482896 56.088909 
L 376.160389 56.948679 
L 376.837881 56.083393 
L 377.515374 60.742906 
L 378.192867 66.288966 
L 378.87036 66.275935 
L 379.547852 84.066447 
L 380.225345 84.05347 
L 380.902838 165.382908 
L 381.580331 165.076103 
L 382.257824 162.169497 
L 382.935316 162.161505 
L 383.612809 56.089179 
L 384.290302 61.32062 
L 384.967795 56.088909 
L 385.645288 65.110874 
L 386.32278 56.093706 
L 387.000273 56.072569 
L 387.677766 64.265748 
L 388.355259 64.220495 
L 389.032752 95.431984 
L 389.710244 95.711569 
L 390.387737 114.384803 
L 391.06523 114.354088 
L 391.742723 130.404853 
L 392.420216 130.111288 
L 393.097708 224.826987 
L 393.775201 225.113885 
L 394.452694 128.99325 
L 395.130187 129.183655 
L 395.807679 162.175893 
L 396.485172 162.446419 
L 397.162665 232.404252 
L 397.840158 232.691861 
L 398.517651 200.347068 
L 399.195143 200.049409 
L 399.872636 299.433246 
L 400.550129 299.723979 
L 401.227622 304.970293 
L 412.744999 304.970139 
L 413.422492 283.404526 
L 414.099985 283.694523 
L 414.777478 304.970296 
L 420.874913 304.970306 
L 421.552406 189.855603 
L 422.229898 189.848543 
L 422.907391 158.963924 
L 423.584884 158.955154 
L 424.262377 185.775705 
L 424.939869 185.768284 
L 425.617362 205.301469 
L 426.294855 205.004708 
L 426.972348 156.3412 
L 427.649841 156.04249 
L 428.327333 223.079081 
L 429.004826 223.077731 
L 429.682319 145.84958 
L 430.359812 145.840672 
L 431.037305 173.826848 
L 431.714797 174.118134 
L 432.39229 58.713027 
L 433.069783 63.359772 
L 433.747276 151.678326 
L 434.424769 151.961203 
L 435.102261 184.902163 
L 435.779754 184.898609 
L 436.457247 170.331325 
L 437.13474 170.03152 
L 437.812233 124.284687 
L 438.489725 124.272209 
L 439.167218 169.456223 
L 439.844711 169.738975 
L 440.522204 147.015127 
L 441.199696 147.297596 
L 441.877189 207.632713 
L 442.554682 207.627017 
L 443.232175 197.723979 
L 443.909668 197.42639 
L 444.58716 160.129784 
L 445.264653 160.412687 
L 445.942146 122.826422 
L 446.619639 122.816268 
L 447.297132 171.203979 
L 447.974624 170.907759 
L 448.652117 100.094669 
L 449.32961 99.792216 
L 450.007103 126.323951 
L 450.684596 126.021635 
L 451.362088 201.221142 
L 452.039581 201.506742 
L 452.717074 189.280317 
L 453.394567 189.259019 
L 454.072059 153.426591 
L 454.749552 153.126673 
L 455.427045 195.975625 
L 456.104538 196.260485 
L 456.782031 170.62125 
L 457.459523 170.904614 
L 458.137016 196.266948 
L 458.814509 196.261042 
L 459.492002 179.655948 
L 460.169495 179.356953 
L 460.846987 148.76403 
L 461.52448 148.754506 
L 462.201973 86.397886 
L 462.879466 86.093835 
L 463.556959 156.050529 
L 464.234451 155.748476 
L 464.911944 128.072165 
L 465.589437 127.770853 
L 466.26693 232.112597 
L 466.944423 232.400111 
L 467.621915 202.386862 
L 468.299408 202.08932 
L 468.976901 270.873031 
L 469.654394 270.870903 
L 470.331886 217.249802 
L 471.009379 217.252063 
L 471.686872 269.998706 
L 472.364365 269.70523 
L 473.041858 304.970293 
L 488.624192 304.970133 
L 489.301685 307.59316 
L 498.109091 307.59316 
L 498.109091 307.59316 
" clip-path="url(#p7e24b98e52)" style="fill: none; stroke: #8dd3c7; stroke-width: 1.5; stroke-linecap: square"/>
   </g>
   <g id="line2d_15">
    <path d="M 92.290909 180.622326 
L 93.645895 221.714964 
L 95.00088 257.577196 
L 96.355866 156.58822 
L 97.710851 232.720088 
L 99.065837 224.341995 
L 100.420823 233.529505 
L 101.775808 241.159314 
L 103.130794 189.241454 
L 104.485779 258.768526 
L 105.840765 267.032387 
L 107.19575 267.782334 
L 108.550736 193.956356 
L 109.905722 184.281957 
L 111.260707 145.23626 
L 112.615693 127.58913 
L 113.970678 69.768618 
L 115.325664 58.720939 
L 138.360419 58.720939 
L 139.715404 109.750892 
L 141.07039 97.803518 
L 142.425376 137.67606 
L 143.780361 132.552339 
L 145.135347 175.068062 
L 146.490332 248.914023 
L 147.845318 206.492032 
L 149.200304 119.115835 
L 150.555289 188.945804 
L 151.910275 117.821745 
L 153.26526 128.701232 
L 154.620246 58.720939 
L 158.685203 58.720939 
L 160.040188 66.745715 
L 161.395174 58.720939 
L 170.880073 58.720939 
L 172.235058 71.287696 
L 173.590044 58.720939 
L 183.074943 58.720939 
L 184.429929 65.439874 
L 185.784914 117.605784 
L 187.1399 135.535478 
L 188.494885 109.511975 
L 189.849871 152.653266 
L 191.204857 91.400998 
L 192.559842 108.61246 
L 193.914828 224.34602 
L 195.269813 279.124058 
L 196.624799 268.803355 
L 197.979784 286.437137 
L 199.33477 307.8 
L 200.689756 307.8 
L 202.044741 169.625475 
L 203.399727 197.235663 
L 204.754712 199.964547 
L 206.109698 184.71517 
L 207.464684 265.576838 
L 208.819669 307.8 
L 210.174655 296.039285 
L 211.52964 298.013048 
L 212.884626 307.8 
L 214.239611 307.396737 
L 215.594597 250.457218 
L 216.949583 204.172574 
L 218.304568 252.495626 
L 219.659554 177.312503 
L 221.014539 157.481006 
L 222.369525 70.288046 
L 223.724511 83.879743 
L 225.079496 143.049895 
L 226.434482 155.326502 
L 227.789467 148.364114 
L 229.144453 169.879306 
L 230.499438 144.582377 
L 231.854424 147.63541 
L 233.20941 131.155229 
L 234.564395 58.720939 
L 235.919381 68.332703 
L 237.274366 119.610655 
L 238.629352 205.438798 
L 239.984338 307.8 
L 241.339323 307.8 
L 242.694309 236.526772 
L 244.049294 243.393399 
L 245.40428 300.392392 
L 246.759265 307.8 
L 253.534193 307.8 
L 254.889179 278.023743 
L 256.244165 307.8 
L 257.59915 290.106629 
L 258.954136 298.532133 
L 260.309121 290.048939 
L 261.664107 273.844144 
L 263.019092 252.947575 
L 264.374078 264.860584 
L 265.729064 261.519587 
L 267.084049 307.8 
L 268.439035 290.169753 
L 269.79402 305.610663 
L 271.149006 307.8 
L 279.278919 307.8 
L 280.633905 282.674532 
L 281.988891 307.8 
L 302.313674 307.8 
L 303.66866 244.517453 
L 305.023645 299.781283 
L 306.378631 292.641854 
L 307.733617 307.8 
L 309.088602 307.8 
L 310.443588 296.776572 
L 311.798573 205.508642 
L 313.153559 290.568074 
L 314.508545 305.758489 
L 315.86353 307.8 
L 317.218516 307.8 
L 318.573501 252.463499 
L 319.928487 288.564938 
L 321.283472 229.62462 
L 322.638458 274.818198 
L 323.993444 209.464224 
L 325.348429 222.21086 
L 326.703415 266.575402 
L 328.0584 251.35358 
L 329.413386 243.073767 
L 330.768372 221.344003 
L 332.123357 192.738523 
L 334.833328 307.8 
L 336.188314 245.29103 
L 337.543299 224.451999 
L 338.898285 163.925527 
L 340.253271 223.459386 
L 341.608256 219.195331 
L 342.963242 193.034549 
L 344.318227 186.658649 
L 345.673213 225.285507 
L 347.028199 283.22386 
L 348.383184 271.292892 
L 349.73817 249.925747 
L 351.093155 304.215352 
L 352.448141 307.8 
L 353.803126 307.8 
L 355.158112 269.121949 
L 357.868083 153.26116 
L 359.223069 153.848057 
L 360.578054 185.275741 
L 361.93304 60.542147 
L 363.288025 58.720939 
L 368.707968 58.720939 
L 370.062953 112.787706 
L 371.417939 63.431922 
L 372.772925 155.81782 
L 374.12791 130.19151 
L 375.482896 113.337123 
L 376.837881 77.442803 
L 378.192867 60.818365 
L 379.547852 58.720939 
L 382.257824 58.720939 
L 383.612809 68.931343 
L 384.967795 86.685554 
L 386.32278 167.976355 
L 387.677766 164.930154 
L 389.032752 58.720939 
L 391.742723 58.720939 
L 393.097708 66.874804 
L 394.452694 98.234881 
L 395.807679 117.028874 
L 397.162665 133.012505 
L 398.517651 227.733978 
L 399.872636 131.778877 
L 401.227622 165.022673 
L 402.582607 235.339647 
L 403.937593 202.999325 
L 405.292579 302.386825 
L 406.647564 307.8 
L 417.487449 307.8 
L 418.842434 286.283498 
L 420.19742 307.8 
L 425.617362 307.8 
L 426.972348 192.561487 
L 428.327333 161.676532 
L 429.682319 188.43793 
L 431.037305 207.932383 
L 432.39229 158.940147 
L 433.747276 225.868934 
L 435.102261 148.586934 
L 436.457247 176.701713 
L 437.812233 58.720939 
L 439.167218 154.477282 
L 440.522204 187.563571 
L 441.877189 172.965356 
L 443.232175 127.01831 
L 444.58716 172.283169 
L 445.942146 149.81918 
L 447.297132 210.369231 
L 448.652117 200.384375 
L 451.362088 125.478937 
L 452.717074 159.837202 
L 454.072059 173.80463 
L 455.427045 102.643817 
L 456.782031 128.932352 
L 458.137016 204.075893 
L 459.492002 191.964978 
L 460.846987 156.005525 
L 462.201973 198.818585 
L 463.556959 173.465139 
L 464.911944 199.039713 
L 466.26693 182.2625 
L 467.621915 151.539062 
L 468.976901 172.162251 
L 470.331886 171.667651 
L 471.686872 88.972541 
L 473.041858 158.630509 
L 474.396843 130.624607 
L 475.751829 234.974085 
L 477.106814 205.013635 
L 478.4618 273.62348 
L 479.816786 219.994766 
L 481.171771 272.687646 
L 482.526757 307.8 
L 497.431598 307.8 
L 497.431598 307.8 
" clip-path="url(#p7e24b98e52)" style="fill: none; stroke: #feffb3; stroke-width: 1.5; stroke-linecap: square"/>
   </g>
   <g id="patch_3">
    <path d="M 72 320.4 
L 72 43.2 
" style="fill: none; stroke: #ffffff; stroke-width: 0.8; stroke-linejoin: miter; stroke-linecap: square"/>
   </g>
   <g id="patch_4">
    <path d="M 518.4 320.4 
L 518.4 43.2 
" style="fill: none; stroke: #ffffff; stroke-width: 0.8; stroke-linejoin: miter; stroke-linecap: square"/>
   </g>
   <g id="patch_5">
    <path d="M 72 320.4 
L 518.4 320.4 
" style="fill: none; stroke: #ffffff; stroke-width: 0.8; stroke-linejoin: miter; stroke-linecap: square"/>
   </g>
   <g id="patch_6">
    <path d="M 72 43.2 
L 518.4 43.2 
" style="fill: none; stroke: #ffffff; stroke-width: 0.8; stroke-linejoin: miter; stroke-linecap: square"/>
   </g>
   <g id="text_16">
    <!-- Dataset Generation -->
    <g style="fill: #ffffff" transform="translate(236.325937 37.2) scale(0.12 -0.12)">
     <defs>
      <path id="DejaVuSans-44" d="M 1259 4147 
L 1259 519 
L 2022 519 
Q 2988 519 3436 956 
Q 3884 1394 3884 2338 
Q 3884 3275 3436 3711 
Q 2988 4147 2022 4147 
L 1259 4147 
z
M 628 4666 
L 1925 4666 
Q 3281 4666 3915 4102 
Q 4550 3538 4550 2338 
Q 4550 1131 3912 565 
Q 3275 0 1925 0 
L 628 0 
L 628 4666 
z
" transform="scale(0.015625)"/>
      <path id="DejaVuSans-47" d="M 3809 666 
L 3809 1919 
L 2778 1919 
L 2778 2438 
L 4434 2438 
L 4434 434 
Q 4069 175 3628 42 
Q 3188 -91 2688 -91 
Q 1594 -91 976 548 
Q 359 1188 359 2328 
Q 359 3472 976 4111 
Q 1594 4750 2688 4750 
Q 3144 4750 3555 4637 
Q 3966 4525 4313 4306 
L 4313 3634 
Q 3963 3931 3569 4081 
Q 3175 4231 2741 4231 
Q 1884 4231 1454 3753 
Q 1025 3275 1025 2328 
Q 1025 1384 1454 906 
Q 1884 428 2741 428 
Q 3075 428 3337 486 
Q 3600 544 3809 666 
z
" transform="scale(0.015625)"/>
      <path id="DejaVuSans-72" d="M 2631 2963 
Q 2534 3019 2420 3045 
Q 2306 3072 2169 3072 
Q 1681 3072 1420 2755 
Q 1159 2438 1159 1844 
L 1159 0 
L 581 0 
L 581 3500 
L 1159 3500 
L 1159 2956 
Q 1341 3275 1631 3429 
Q 1922 3584 2338 3584 
Q 2397 3584 2469 3576 
Q 2541 3569 2628 3553 
L 2631 2963 
z
" transform="scale(0.015625)"/>
      <path id="DejaVuSans-6f" d="M 1959 3097 
Q 1497 3097 1228 2736 
Q 959 2375 959 1747 
Q 959 1119 1226 758 
Q 1494 397 1959 397 
Q 2419 397 2687 759 
Q 2956 1122 2956 1747 
Q 2956 2369 2687 2733 
Q 2419 3097 1959 3097 
z
M 1959 3584 
Q 2709 3584 3137 3096 
Q 3566 2609 3566 1747 
Q 3566 888 3137 398 
Q 2709 -91 1959 -91 
Q 1206 -91 779 398 
Q 353 888 353 1747 
Q 353 2609 779 3096 
Q 1206 3584 1959 3584 
z
" transform="scale(0.015625)"/>
     </defs>
     <use xlink:href="#DejaVuSans-44"/>
     <use xlink:href="#DejaVuSans-61" x="77.001953"/>
     <use xlink:href="#DejaVuSans-74" x="138.28125"/>
     <use xlink:href="#DejaVuSans-61" x="177.490234"/>
     <use xlink:href="#DejaVuSans-73" x="238.769531"/>
     <use xlink:href="#DejaVuSans-65" x="290.869141"/>
     <use xlink:href="#DejaVuSans-74" x="352.392578"/>
     <use xlink:href="#DejaVuSans-20" x="391.601562"/>
     <use xlink:href="#DejaVuSans-47" x="423.388672"/>
     <use xlink:href="#DejaVuSans-65" x="500.878906"/>
     <use xlink:href="#DejaVuSans-6e" x="562.402344"/>
     <use xlink:href="#DejaVuSans-65" x="625.78125"/>
     <use xlink:href="#DejaVuSans-72" x="687.304688"/>
     <use xlink:href="#DejaVuSans-61" x="728.417969"/>
     <use xlink:href="#DejaVuSans-74" x="789.697266"/>
     <use xlink:href="#DejaVuSans-69" x="828.90625"/>
     <use xlink:href="#DejaVuSans-6f" x="856.689453"/>
     <use xlink:href="#DejaVuSans-6e" x="917.871094"/>
    </g>
   </g>
   <g id="legend_1">
    <g id="patch_7">
     <path d="M 194.120312 197.978125 
L 396.279688 197.978125 
Q 398.279688 197.978125 398.279688 195.978125 
L 398.279688 167.621875 
Q 398.279688 165.621875 396.279688 165.621875 
L 194.120312 165.621875 
Q 192.120312 165.621875 192.120312 167.621875 
L 192.120312 195.978125 
Q 192.120312 197.978125 194.120312 197.978125 
z
" style="opacity: 0.8; stroke: #cccccc; stroke-linejoin: miter"/>
    </g>
    <g id="line2d_16">
     <path d="M 196.120312 173.720312 
L 206.120312 173.720312 
L 216.120312 173.720312 
" style="fill: none; stroke: #8dd3c7; stroke-width: 1.5; stroke-linecap: square"/>
    </g>
    <g id="text_17">
     <!-- Generated Data (Mean Removed) -->
     <g style="fill: #ffffff" transform="translate(224.120312 177.220312) scale(0.1 -0.1)">
      <defs>
       <path id="DejaVuSans-52" d="M 2841 2188 
Q 3044 2119 3236 1894 
Q 3428 1669 3622 1275 
L 4263 0 
L 3584 0 
L 2988 1197 
Q 2756 1666 2539 1819 
Q 2322 1972 1947 1972 
L 1259 1972 
L 1259 0 
L 628 0 
L 628 4666 
L 2053 4666 
Q 2853 4666 3247 4331 
Q 3641 3997 3641 3322 
Q 3641 2881 3436 2590 
Q 3231 2300 2841 2188 
z
M 1259 4147 
L 1259 2491 
L 2053 2491 
Q 2509 2491 2742 2702 
Q 2975 2913 2975 3322 
Q 2975 3731 2742 3939 
Q 2509 4147 2053 4147 
L 1259 4147 
z
" transform="scale(0.015625)"/>
       <path id="DejaVuSans-76" d="M 191 3500 
L 800 3500 
L 1894 563 
L 2988 3500 
L 3597 3500 
L 2284 0 
L 1503 0 
L 191 3500 
z
" transform="scale(0.015625)"/>
      </defs>
      <use xlink:href="#DejaVuSans-47"/>
      <use xlink:href="#DejaVuSans-65" x="77.490234"/>
      <use xlink:href="#DejaVuSans-6e" x="139.013672"/>
      <use xlink:href="#DejaVuSans-65" x="202.392578"/>
      <use xlink:href="#DejaVuSans-72" x="263.916016"/>
      <use xlink:href="#DejaVuSans-61" x="305.029297"/>
      <use xlink:href="#DejaVuSans-74" x="366.308594"/>
      <use xlink:href="#DejaVuSans-65" x="405.517578"/>
      <use xlink:href="#DejaVuSans-64" x="467.041016"/>
      <use xlink:href="#DejaVuSans-20" x="530.517578"/>
      <use xlink:href="#DejaVuSans-44" x="562.304688"/>
      <use xlink:href="#DejaVuSans-61" x="639.306641"/>
      <use xlink:href="#DejaVuSans-74" x="700.585938"/>
      <use xlink:href="#DejaVuSans-61" x="739.794922"/>
      <use xlink:href="#DejaVuSans-20" x="801.074219"/>
      <use xlink:href="#DejaVuSans-28" x="832.861328"/>
      <use xlink:href="#DejaVuSans-4d" x="871.875"/>
      <use xlink:href="#DejaVuSans-65" x="958.154297"/>
      <use xlink:href="#DejaVuSans-61" x="1019.677734"/>
      <use xlink:href="#DejaVuSans-6e" x="1080.957031"/>
      <use xlink:href="#DejaVuSans-20" x="1144.335938"/>
      <use xlink:href="#DejaVuSans-52" x="1176.123047"/>
      <use xlink:href="#DejaVuSans-65" x="1241.105469"/>
      <use xlink:href="#DejaVuSans-6d" x="1302.628906"/>
      <use xlink:href="#DejaVuSans-6f" x="1400.041016"/>
      <use xlink:href="#DejaVuSans-76" x="1461.222656"/>
      <use xlink:href="#DejaVuSans-65" x="1520.402344"/>
      <use xlink:href="#DejaVuSans-64" x="1581.925781"/>
      <use xlink:href="#DejaVuSans-29" x="1645.402344"/>
     </g>
    </g>
    <g id="line2d_17">
     <path d="M 196.120312 188.398437 
L 206.120312 188.398437 
L 216.120312 188.398437 
" style="fill: none; stroke: #feffb3; stroke-width: 1.5; stroke-linecap: square"/>
    </g>
    <g id="text_18">
     <!-- Requested Rates (Mean removed) -->
     <g style="fill: #ffffff" transform="translate(224.120312 191.898437) scale(0.1 -0.1)">
      <defs>
       <path id="DejaVuSans-71" d="M 947 1747 
Q 947 1113 1208 752 
Q 1469 391 1925 391 
Q 2381 391 2643 752 
Q 2906 1113 2906 1747 
Q 2906 2381 2643 2742 
Q 2381 3103 1925 3103 
Q 1469 3103 1208 2742 
Q 947 2381 947 1747 
z
M 2906 525 
Q 2725 213 2448 61 
Q 2172 -91 1784 -91 
Q 1150 -91 751 415 
Q 353 922 353 1747 
Q 353 2572 751 3078 
Q 1150 3584 1784 3584 
Q 2172 3584 2448 3432 
Q 2725 3281 2906 2969 
L 2906 3500 
L 3481 3500 
L 3481 -1331 
L 2906 -1331 
L 2906 525 
z
" transform="scale(0.015625)"/>
       <path id="DejaVuSans-75" d="M 544 1381 
L 544 3500 
L 1119 3500 
L 1119 1403 
Q 1119 906 1312 657 
Q 1506 409 1894 409 
Q 2359 409 2629 706 
Q 2900 1003 2900 1516 
L 2900 3500 
L 3475 3500 
L 3475 0 
L 2900 0 
L 2900 538 
Q 2691 219 2414 64 
Q 2138 -91 1772 -91 
Q 1169 -91 856 284 
Q 544 659 544 1381 
z
M 1991 3584 
L 1991 3584 
z
" transform="scale(0.015625)"/>
      </defs>
      <use xlink:href="#DejaVuSans-52"/>
      <use xlink:href="#DejaVuSans-65" x="64.982422"/>
      <use xlink:href="#DejaVuSans-71" x="126.505859"/>
      <use xlink:href="#DejaVuSans-75" x="189.982422"/>
      <use xlink:href="#DejaVuSans-65" x="253.361328"/>
      <use xlink:href="#DejaVuSans-73" x="314.884766"/>
      <use xlink:href="#DejaVuSans-74" x="366.984375"/>
      <use xlink:href="#DejaVuSans-65" x="406.193359"/>
      <use xlink:href="#DejaVuSans-64" x="467.716797"/>
      <use xlink:href="#DejaVuSans-20" x="531.193359"/>
      <use xlink:href="#DejaVuSans-52" x="562.980469"/>
      <use xlink:href="#DejaVuSans-61" x="630.212891"/>
      <use xlink:href="#DejaVuSans-74" x="691.492188"/>
      <use xlink:href="#DejaVuSans-65" x="730.701172"/>
      <use xlink:href="#DejaVuSans-73" x="792.224609"/>
      <use xlink:href="#DejaVuSans-20" x="844.324219"/>
      <use xlink:href="#DejaVuSans-28" x="876.111328"/>
      <use xlink:href="#DejaVuSans-4d" x="915.125"/>
      <use xlink:href="#DejaVuSans-65" x="1001.404297"/>
      <use xlink:href="#DejaVuSans-61" x="1062.927734"/>
      <use xlink:href="#DejaVuSans-6e" x="1124.207031"/>
      <use xlink:href="#DejaVuSans-20" x="1187.585938"/>
      <use xlink:href="#DejaVuSans-72" x="1219.373047"/>
      <use xlink:href="#DejaVuSans-65" x="1258.236328"/>
      <use xlink:href="#DejaVuSans-6d" x="1319.759766"/>
      <use xlink:href="#DejaVuSans-6f" x="1417.171875"/>
      <use xlink:href="#DejaVuSans-76" x="1478.353516"/>
      <use xlink:href="#DejaVuSans-65" x="1537.533203"/>
      <use xlink:href="#DejaVuSans-64" x="1599.056641"/>
      <use xlink:href="#DejaVuSans-29" x="1662.533203"/>
     </g>
    </g>
   </g>
  </g>
 </g>
 <defs>
  <clipPath id="p7e24b98e52">
   <rect x="72" y="43.2" width="446.4" height="277.2"/>
  </clipPath>
 </defs>
</svg>
