<?xml version="1.0" encoding="utf-8" standalone="no"?>
<!DOCTYPE svg PUBLIC "-//W3C//DTD SVG 1.1//EN"
  "http://www.w3.org/Graphics/SVG/1.1/DTD/svg11.dtd">
<svg xmlns:xlink="http://www.w3.org/1999/xlink" width="576pt" height="360pt" viewBox="0 0 576 360" xmlns="http://www.w3.org/2000/svg" version="1.1">
 <metadata>
  <rdf:RDF xmlns:dc="http://purl.org/dc/elements/1.1/" xmlns:cc="http://creativecommons.org/ns#" xmlns:rdf="http://www.w3.org/1999/02/22-rdf-syntax-ns#">
   <cc:Work>
    <dc:type rdf:resource="http://purl.org/dc/dcmitype/StillImage"/>
    <dc:date>2026-02-16T11:01:11.082156</dc:date>
    <dc:format>image/svg+xml</dc:format>
    <dc:creator>
     <cc:Agent>
      <dc:title>Matplotlib v3.7.5, https://matplotlib.org/</dc:title>
     </cc:Agent>
    </dc:creator>
   </cc:Work>
  </rdf:RDF>
 </metadata>
 <defs>
  <style type="text/css">*{stroke-linejoin: round; stroke-linecap: butt}</style>
 </defs>
 <g id="figure_1">
  <g id="patch_1">
   <path d="M 0 360 
L 576 360 
L 576 0 
L 0 0 
z
"/>
  </g>
  <g id="axes_1">
   <g id="patch_2">
    <path d="M 72 320.4 
L 518.4 320.4 
L 518.4 43.2 
L 72 43.2 
z
"/>
   </g>
   <g id="matplotlib.axis_1">
    <g id="xtick_1">
     <g id="line2d_1">
      <defs>
       <path id="mc6ca7c36f7" d="M 0 0 
L 0 3.5 
" style="stroke: #ffffff; stroke-width: 0.8"/>
      </defs>
      <g>
       <use xlink:href="#mc6ca7c36f7" x="92.290909" y="320.4" style="fill: #ffffff; stroke: #ffffff; stroke-width: 0.8"/>
      </g>
     </g>
     <g id="text_1">
      <!-- 0 -->
      <g style="fill: #ffffff" transform="translate(89.109659 334.998438) scale(0.1 -0.1)">
       <defs>
        <path id="DejaVuSans-30" d="M 2034 4250 
Q 1547 4250 1301 3770 
Q 1056 3291 1056 2328 
Q 1056 1369 1301 889 
Q 1547 409 2034 409 
Q 2525 409 2770 889 
Q 3016 1369 3016 2328 
Q 3016 3291 2770 3770 
Q 2525 4250 2034 4250 
z
M 2034 4750 
Q 2819 4750 3233 4129 
Q 3647 3509 3647 2328 
Q 3647 1150 3233 529 
Q 2819 -91 2034 -91 
Q 1250 -91 836 529 
Q 422 1150 422 2328 
Q 422 3509 836 4129 
Q 1250 4750 2034 4750 
z
" transform="scale(0.015625)"/>
       </defs>
       <use xlink:href="#DejaVuSans-30"/>
      </g>
     </g>
    </g>
    <g id="xtick_2">
     <g id="line2d_2">
      <g>
       <use xlink:href="#mc6ca7c36f7" x="160.040188" y="320.4" style="fill: #ffffff; stroke: #ffffff; stroke-width: 0.8"/>
      </g>
     </g>
     <g id="text_2">
      <!-- 100 -->
      <g style="fill: #ffffff" transform="translate(150.496438 334.998438) scale(0.1 -0.1)">
       <defs>
        <path id="DejaVuSans-31" d="M 794 531 
L 1825 531 
L 1825 4091 
L 703 3866 
L 703 4441 
L 1819 4666 
L 2450 4666 
L 2450 531 
L 3481 531 
L 3481 0 
L 794 0 
L 794 531 
z
" transform="scale(0.015625)"/>
       </defs>
       <use xlink:href="#DejaVuSans-31"/>
       <use xlink:href="#DejaVuSans-30" x="63.623047"/>
       <use xlink:href="#DejaVuSans-30" x="127.246094"/>
      </g>
     </g>
    </g>
    <g id="xtick_3">
     <g id="line2d_3">
      <g>
       <use xlink:href="#mc6ca7c36f7" x="227.789467" y="320.4" style="fill: #ffffff; stroke: #ffffff; stroke-width: 0.8"/>
      </g>
     </g>
     <g id="text_3">
      <!-- 200 -->
      <g style="fill: #ffffff" transform="translate(218.245717 334.998438) scale(0.1 -0.1)">
       <defs>
        <path id="DejaVuSans-32" d="M 1228 531 
L 3431 531 
L 3431 0 
L 469 0 
L 469 531 
Q 828 903 1448 1529 
Q 2069 2156 2228 2338 
Q 2531 2678 2651 2914 
Q 2772 3150 2772 3378 
Q 2772 3750 2511 3984 
Q 2250 4219 1831 4219 
Q 1534 4219 1204 4116 
Q 875 4013 500 3803 
L 500 4441 
Q 881 4594 1212 4672 
Q 1544 4750 1819 4750 
Q 2544 4750 2975 4387 
Q 3406 4025 3406 3419 
Q 3406 3131 3298 2873 
Q 3191 2616 2906 2266 
Q 2828 2175 2409 1742 
Q 1991 1309 1228 531 
z
" transform="scale(0.015625)"/>
       </defs>
       <use xlink:href="#DejaVuSans-32"/>
       <use xlink:href="#DejaVuSans-30" x="63.623047"/>
       <use xlink:href="#DejaVuSans-30" x="127.246094"/>
      </g>
     </g>
    </g>
    <g id="xtick_4">
     <g id="line2d_4">
      <g>
       <use xlink:href="#mc6ca7c36f7" x="295.538746" y="320.4" style="fill: #ffffff; stroke: #ffffff; stroke-width: 0.8"/>
      </g>
     </g>
     <g id="text_4">
      <!-- 300 -->
      <g style="fill: #ffffff" transform="translate(285.994996 334.998438) scale(0.1 -0.1)">
       <defs>
        <path id="DejaVuSans-33" d="M 2597 2516 
Q 3050 2419 3304 2112 
Q 3559 1806 3559 1356 
Q 3559 666 3084 287 
Q 2609 -91 1734 -91 
Q 1441 -91 1130 -33 
Q 819 25 488 141 
L 488 750 
Q 750 597 1062 519 
Q 1375 441 1716 441 
Q 2309 441 2620 675 
Q 2931 909 2931 1356 
Q 2931 1769 2642 2001 
Q 2353 2234 1838 2234 
L 1294 2234 
L 1294 2753 
L 1863 2753 
Q 2328 2753 2575 2939 
Q 2822 3125 2822 3475 
Q 2822 3834 2567 4026 
Q 2313 4219 1838 4219 
Q 1578 4219 1281 4162 
Q 984 4106 628 3988 
L 628 4550 
Q 988 4650 1302 4700 
Q 1616 4750 1894 4750 
Q 2613 4750 3031 4423 
Q 3450 4097 3450 3541 
Q 3450 3153 3228 2886 
Q 3006 2619 2597 2516 
z
" transform="scale(0.015625)"/>
       </defs>
       <use xlink:href="#DejaVuSans-33"/>
       <use xlink:href="#DejaVuSans-30" x="63.623047"/>
       <use xlink:href="#DejaVuSans-30" x="127.246094"/>
      </g>
     </g>
    </g>
    <g id="xtick_5">
     <g id="line2d_5">
      <g>
       <use xlink:href="#mc6ca7c36f7" x="363.288025" y="320.4" style="fill: #ffffff; stroke: #ffffff; stroke-width: 0.8"/>
      </g>
     </g>
     <g id="text_5">
      <!-- 400 -->
      <g style="fill: #ffffff" transform="translate(353.744275 334.998438) scale(0.1 -0.1)">
       <defs>
        <path id="DejaVuSans-34" d="M 2419 4116 
L 825 1625 
L 2419 1625 
L 2419 4116 
z
M 2253 4666 
L 3047 4666 
L 3047 1625 
L 3713 1625 
L 3713 1100 
L 3047 1100 
L 3047 0 
L 2419 0 
L 2419 1100 
L 313 1100 
L 313 1709 
L 2253 4666 
z
" transform="scale(0.015625)"/>
       </defs>
       <use xlink:href="#DejaVuSans-34"/>
       <use xlink:href="#DejaVuSans-30" x="63.623047"/>
       <use xlink:href="#DejaVuSans-30" x="127.246094"/>
      </g>
     </g>
    </g>
    <g id="xtick_6">
     <g id="line2d_6">
      <g>
       <use xlink:href="#mc6ca7c36f7" x="431.037305" y="320.4" style="fill: #ffffff; stroke: #ffffff; stroke-width: 0.8"/>
      </g>
     </g>
     <g id="text_6">
      <!-- 500 -->
      <g style="fill: #ffffff" transform="translate(421.493555 334.998438) scale(0.1 -0.1)">
       <defs>
        <path id="DejaVuSans-35" d="M 691 4666 
L 3169 4666 
L 3169 4134 
L 1269 4134 
L 1269 2991 
Q 1406 3038 1543 3061 
Q 1681 3084 1819 3084 
Q 2600 3084 3056 2656 
Q 3513 2228 3513 1497 
Q 3513 744 3044 326 
Q 2575 -91 1722 -91 
Q 1428 -91 1123 -41 
Q 819 9 494 109 
L 494 744 
Q 775 591 1075 516 
Q 1375 441 1709 441 
Q 2250 441 2565 725 
Q 2881 1009 2881 1497 
Q 2881 1984 2565 2268 
Q 2250 2553 1709 2553 
Q 1456 2553 1204 2497 
Q 953 2441 691 2322 
L 691 4666 
z
" transform="scale(0.015625)"/>
       </defs>
       <use xlink:href="#DejaVuSans-35"/>
       <use xlink:href="#DejaVuSans-30" x="63.623047"/>
       <use xlink:href="#DejaVuSans-30" x="127.246094"/>
      </g>
     </g>
    </g>
    <g id="xtick_7">
     <g id="line2d_7">
      <g>
       <use xlink:href="#mc6ca7c36f7" x="498.786584" y="320.4" style="fill: #ffffff; stroke: #ffffff; stroke-width: 0.8"/>
      </g>
     </g>
     <g id="text_7">
      <!-- 600 -->
      <g style="fill: #ffffff" transform="translate(489.242834 334.998438) scale(0.1 -0.1)">
       <defs>
        <path id="DejaVuSans-36" d="M 2113 2584 
Q 1688 2584 1439 2293 
Q 1191 2003 1191 1497 
Q 1191 994 1439 701 
Q 1688 409 2113 409 
Q 2538 409 2786 701 
Q 3034 994 3034 1497 
Q 3034 2003 2786 2293 
Q 2538 2584 2113 2584 
z
M 3366 4563 
L 3366 3988 
Q 3128 4100 2886 4159 
Q 2644 4219 2406 4219 
Q 1781 4219 1451 3797 
Q 1122 3375 1075 2522 
Q 1259 2794 1537 2939 
Q 1816 3084 2150 3084 
Q 2853 3084 3261 2657 
Q 3669 2231 3669 1497 
Q 3669 778 3244 343 
Q 2819 -91 2113 -91 
Q 1303 -91 875 529 
Q 447 1150 447 2328 
Q 447 3434 972 4092 
Q 1497 4750 2381 4750 
Q 2619 4750 2861 4703 
Q 3103 4656 3366 4563 
z
" transform="scale(0.015625)"/>
       </defs>
       <use xlink:href="#DejaVuSans-36"/>
       <use xlink:href="#DejaVuSans-30" x="63.623047"/>
       <use xlink:href="#DejaVuSans-30" x="127.246094"/>
      </g>
     </g>
    </g>
    <g id="text_8">
     <!-- Time (s) -->
     <g style="fill: #ffffff" transform="translate(266.739531 351.715937) scale(0.14 -0.14)">
      <defs>
       <path id="DejaVuSans-54" d="M -19 4666 
L 3928 4666 
L 3928 4134 
L 2272 4134 
L 2272 0 
L 1638 0 
L 1638 4134 
L -19 4134 
L -19 4666 
z
" transform="scale(0.015625)"/>
       <path id="DejaVuSans-69" d="M 603 3500 
L 1178 3500 
L 1178 0 
L 603 0 
L 603 3500 
z
M 603 4863 
L 1178 4863 
L 1178 4134 
L 603 4134 
L 603 4863 
z
" transform="scale(0.015625)"/>
       <path id="DejaVuSans-6d" d="M 3328 2828 
Q 3544 3216 3844 3400 
Q 4144 3584 4550 3584 
Q 5097 3584 5394 3201 
Q 5691 2819 5691 2113 
L 5691 0 
L 5113 0 
L 5113 2094 
Q 5113 2597 4934 2840 
Q 4756 3084 4391 3084 
Q 3944 3084 3684 2787 
Q 3425 2491 3425 1978 
L 3425 0 
L 2847 0 
L 2847 2094 
Q 2847 2600 2669 2842 
Q 2491 3084 2119 3084 
Q 1678 3084 1418 2786 
Q 1159 2488 1159 1978 
L 1159 0 
L 581 0 
L 581 3500 
L 1159 3500 
L 1159 2956 
Q 1356 3278 1631 3431 
Q 1906 3584 2284 3584 
Q 2666 3584 2933 3390 
Q 3200 3197 3328 2828 
z
" transform="scale(0.015625)"/>
       <path id="DejaVuSans-65" d="M 3597 1894 
L 3597 1613 
L 953 1613 
Q 991 1019 1311 708 
Q 1631 397 2203 397 
Q 2534 397 2845 478 
Q 3156 559 3463 722 
L 3463 178 
Q 3153 47 2828 -22 
Q 2503 -91 2169 -91 
Q 1331 -91 842 396 
Q 353 884 353 1716 
Q 353 2575 817 3079 
Q 1281 3584 2069 3584 
Q 2775 3584 3186 3129 
Q 3597 2675 3597 1894 
z
M 3022 2063 
Q 3016 2534 2758 2815 
Q 2500 3097 2075 3097 
Q 1594 3097 1305 2825 
Q 1016 2553 972 2059 
L 3022 2063 
z
" transform="scale(0.015625)"/>
       <path id="DejaVuSans-20" transform="scale(0.015625)"/>
       <path id="DejaVuSans-28" d="M 1984 4856 
Q 1566 4138 1362 3434 
Q 1159 2731 1159 2009 
Q 1159 1288 1364 580 
Q 1569 -128 1984 -844 
L 1484 -844 
Q 1016 -109 783 600 
Q 550 1309 550 2009 
Q 550 2706 781 3412 
Q 1013 4119 1484 4856 
L 1984 4856 
z
" transform="scale(0.015625)"/>
       <path id="DejaVuSans-73" d="M 2834 3397 
L 2834 2853 
Q 2591 2978 2328 3040 
Q 2066 3103 1784 3103 
Q 1356 3103 1142 2972 
Q 928 2841 928 2578 
Q 928 2378 1081 2264 
Q 1234 2150 1697 2047 
L 1894 2003 
Q 2506 1872 2764 1633 
Q 3022 1394 3022 966 
Q 3022 478 2636 193 
Q 2250 -91 1575 -91 
Q 1294 -91 989 -36 
Q 684 19 347 128 
L 347 722 
Q 666 556 975 473 
Q 1284 391 1588 391 
Q 1994 391 2212 530 
Q 2431 669 2431 922 
Q 2431 1156 2273 1281 
Q 2116 1406 1581 1522 
L 1381 1569 
Q 847 1681 609 1914 
Q 372 2147 372 2553 
Q 372 3047 722 3315 
Q 1072 3584 1716 3584 
Q 2034 3584 2315 3537 
Q 2597 3491 2834 3397 
z
" transform="scale(0.015625)"/>
       <path id="DejaVuSans-29" d="M 513 4856 
L 1013 4856 
Q 1481 4119 1714 3412 
Q 1947 2706 1947 2009 
Q 1947 1309 1714 600 
Q 1481 -109 1013 -844 
L 513 -844 
Q 928 -128 1133 580 
Q 1338 1288 1338 2009 
Q 1338 2731 1133 3434 
Q 928 4138 513 4856 
z
" transform="scale(0.015625)"/>
      </defs>
      <use xlink:href="#DejaVuSans-54"/>
      <use xlink:href="#DejaVuSans-69" x="57.958984"/>
      <use xlink:href="#DejaVuSans-6d" x="85.742188"/>
      <use xlink:href="#DejaVuSans-65" x="183.154297"/>
      <use xlink:href="#DejaVuSans-20" x="244.677734"/>
      <use xlink:href="#DejaVuSans-28" x="276.464844"/>
      <use xlink:href="#DejaVuSans-73" x="315.478516"/>
      <use xlink:href="#DejaVuSans-29" x="367.578125"/>
     </g>
    </g>
   </g>
   <g id="matplotlib.axis_2">
    <g id="ytick_1">
     <g id="line2d_8">
      <defs>
       <path id="md1aea79459" d="M 0 0 
L -3.5 0 
" style="stroke: #ffffff; stroke-width: 0.8"/>
      </defs>
      <g>
       <use xlink:href="#md1aea79459" x="72" y="315.437155" style="fill: #ffffff; stroke: #ffffff; stroke-width: 0.8"/>
      </g>
     </g>
     <g id="text_9">
      <!-- −6 -->
      <g style="fill: #ffffff" transform="translate(50.257812 319.236374) scale(0.1 -0.1)">
       <defs>
        <path id="DejaVuSans-2212" d="M 678 2272 
L 4684 2272 
L 4684 1741 
L 678 1741 
L 678 2272 
z
" transform="scale(0.015625)"/>
       </defs>
       <use xlink:href="#DejaVuSans-2212"/>
       <use xlink:href="#DejaVuSans-36" x="83.789062"/>
      </g>
     </g>
    </g>
    <g id="ytick_2">
     <g id="line2d_9">
      <g>
       <use xlink:href="#md1aea79459" x="72" y="265.077418" style="fill: #ffffff; stroke: #ffffff; stroke-width: 0.8"/>
      </g>
     </g>
     <g id="text_10">
      <!-- −4 -->
      <g style="fill: #ffffff" transform="translate(50.257812 268.876636) scale(0.1 -0.1)">
       <use xlink:href="#DejaVuSans-2212"/>
       <use xlink:href="#DejaVuSans-34" x="83.789062"/>
      </g>
     </g>
    </g>
    <g id="ytick_3">
     <g id="line2d_10">
      <g>
       <use xlink:href="#md1aea79459" x="72" y="214.71768" style="fill: #ffffff; stroke: #ffffff; stroke-width: 0.8"/>
      </g>
     </g>
     <g id="text_11">
      <!-- −2 -->
      <g style="fill: #ffffff" transform="translate(50.257812 218.516899) scale(0.1 -0.1)">
       <use xlink:href="#DejaVuSans-2212"/>
       <use xlink:href="#DejaVuSans-32" x="83.789062"/>
      </g>
     </g>
    </g>
    <g id="ytick_4">
     <g id="line2d_11">
      <g>
       <use xlink:href="#md1aea79459" x="72" y="164.357943" style="fill: #ffffff; stroke: #ffffff; stroke-width: 0.8"/>
      </g>
     </g>
     <g id="text_12">
      <!-- 0 -->
      <g style="fill: #ffffff" transform="translate(58.6375 168.157161) scale(0.1 -0.1)">
       <use xlink:href="#DejaVuSans-30"/>
      </g>
     </g>
    </g>
    <g id="ytick_5">
     <g id="line2d_12">
      <g>
       <use xlink:href="#md1aea79459" x="72" y="113.998205" style="fill: #ffffff; stroke: #ffffff; stroke-width: 0.8"/>
      </g>
     </g>
     <g id="text_13">
      <!-- 2 -->
      <g style="fill: #ffffff" transform="translate(58.6375 117.797424) scale(0.1 -0.1)">
       <use xlink:href="#DejaVuSans-32"/>
      </g>
     </g>
    </g>
    <g id="ytick_6">
     <g id="line2d_13">
      <g>
       <use xlink:href="#md1aea79459" x="72" y="63.638468" style="fill: #ffffff; stroke: #ffffff; stroke-width: 0.8"/>
      </g>
     </g>
     <g id="text_14">
      <!-- 4 -->
      <g style="fill: #ffffff" transform="translate(58.6375 67.437686) scale(0.1 -0.1)">
       <use xlink:href="#DejaVuSans-34"/>
      </g>
     </g>
    </g>
    <g id="text_15">
     <!-- Bandwidth (Mbps) -->
     <g style="fill: #ffffff" transform="translate(43.34625 245.327187) rotate(-90) scale(0.14 -0.14)">
      <defs>
       <path id="DejaVuSans-42" d="M 1259 2228 
L 1259 519 
L 2272 519 
Q 2781 519 3026 730 
Q 3272 941 3272 1375 
Q 3272 1813 3026 2020 
Q 2781 2228 2272 2228 
L 1259 2228 
z
M 1259 4147 
L 1259 2741 
L 2194 2741 
Q 2656 2741 2882 2914 
Q 3109 3088 3109 3444 
Q 3109 3797 2882 3972 
Q 2656 4147 2194 4147 
L 1259 4147 
z
M 628 4666 
L 2241 4666 
Q 2963 4666 3353 4366 
Q 3744 4066 3744 3513 
Q 3744 3084 3544 2831 
Q 3344 2578 2956 2516 
Q 3422 2416 3680 2098 
Q 3938 1781 3938 1306 
Q 3938 681 3513 340 
Q 3088 0 2303 0 
L 628 0 
L 628 4666 
z
" transform="scale(0.015625)"/>
       <path id="DejaVuSans-61" d="M 2194 1759 
Q 1497 1759 1228 1600 
Q 959 1441 959 1056 
Q 959 750 1161 570 
Q 1363 391 1709 391 
Q 2188 391 2477 730 
Q 2766 1069 2766 1631 
L 2766 1759 
L 2194 1759 
z
M 3341 1997 
L 3341 0 
L 2766 0 
L 2766 531 
Q 2569 213 2275 61 
Q 1981 -91 1556 -91 
Q 1019 -91 701 211 
Q 384 513 384 1019 
Q 384 1609 779 1909 
Q 1175 2209 1959 2209 
L 2766 2209 
L 2766 2266 
Q 2766 2663 2505 2880 
Q 2244 3097 1772 3097 
Q 1472 3097 1187 3025 
Q 903 2953 641 2809 
L 641 3341 
Q 956 3463 1253 3523 
Q 1550 3584 1831 3584 
Q 2591 3584 2966 3190 
Q 3341 2797 3341 1997 
z
" transform="scale(0.015625)"/>
       <path id="DejaVuSans-6e" d="M 3513 2113 
L 3513 0 
L 2938 0 
L 2938 2094 
Q 2938 2591 2744 2837 
Q 2550 3084 2163 3084 
Q 1697 3084 1428 2787 
Q 1159 2491 1159 1978 
L 1159 0 
L 581 0 
L 581 3500 
L 1159 3500 
L 1159 2956 
Q 1366 3272 1645 3428 
Q 1925 3584 2291 3584 
Q 2894 3584 3203 3211 
Q 3513 2838 3513 2113 
z
" transform="scale(0.015625)"/>
       <path id="DejaVuSans-64" d="M 2906 2969 
L 2906 4863 
L 3481 4863 
L 3481 0 
L 2906 0 
L 2906 525 
Q 2725 213 2448 61 
Q 2172 -91 1784 -91 
Q 1150 -91 751 415 
Q 353 922 353 1747 
Q 353 2572 751 3078 
Q 1150 3584 1784 3584 
Q 2172 3584 2448 3432 
Q 2725 3281 2906 2969 
z
M 947 1747 
Q 947 1113 1208 752 
Q 1469 391 1925 391 
Q 2381 391 2643 752 
Q 2906 1113 2906 1747 
Q 2906 2381 2643 2742 
Q 2381 3103 1925 3103 
Q 1469 3103 1208 2742 
Q 947 2381 947 1747 
z
" transform="scale(0.015625)"/>
       <path id="DejaVuSans-77" d="M 269 3500 
L 844 3500 
L 1563 769 
L 2278 3500 
L 2956 3500 
L 3675 769 
L 4391 3500 
L 4966 3500 
L 4050 0 
L 3372 0 
L 2619 2869 
L 1863 0 
L 1184 0 
L 269 3500 
z
" transform="scale(0.015625)"/>
       <path id="DejaVuSans-74" d="M 1172 4494 
L 1172 3500 
L 2356 3500 
L 2356 3053 
L 1172 3053 
L 1172 1153 
Q 1172 725 1289 603 
Q 1406 481 1766 481 
L 2356 481 
L 2356 0 
L 1766 0 
Q 1100 0 847 248 
Q 594 497 594 1153 
L 594 3053 
L 172 3053 
L 172 3500 
L 594 3500 
L 594 4494 
L 1172 4494 
z
" transform="scale(0.015625)"/>
       <path id="DejaVuSans-68" d="M 3513 2113 
L 3513 0 
L 2938 0 
L 2938 2094 
Q 2938 2591 2744 2837 
Q 2550 3084 2163 3084 
Q 1697 3084 1428 2787 
Q 1159 2491 1159 1978 
L 1159 0 
L 581 0 
L 581 4863 
L 1159 4863 
L 1159 2956 
Q 1366 3272 1645 3428 
Q 1925 3584 2291 3584 
Q 2894 3584 3203 3211 
Q 3513 2838 3513 2113 
z
" transform="scale(0.015625)"/>
       <path id="DejaVuSans-4d" d="M 628 4666 
L 1569 4666 
L 2759 1491 
L 3956 4666 
L 4897 4666 
L 4897 0 
L 4281 0 
L 4281 4097 
L 3078 897 
L 2444 897 
L 1241 4097 
L 1241 0 
L 628 0 
L 628 4666 
z
" transform="scale(0.015625)"/>
       <path id="DejaVuSans-62" d="M 3116 1747 
Q 3116 2381 2855 2742 
Q 2594 3103 2138 3103 
Q 1681 3103 1420 2742 
Q 1159 2381 1159 1747 
Q 1159 1113 1420 752 
Q 1681 391 2138 391 
Q 2594 391 2855 752 
Q 3116 1113 3116 1747 
z
M 1159 2969 
Q 1341 3281 1617 3432 
Q 1894 3584 2278 3584 
Q 2916 3584 3314 3078 
Q 3713 2572 3713 1747 
Q 3713 922 3314 415 
Q 2916 -91 2278 -91 
Q 1894 -91 1617 61 
Q 1341 213 1159 525 
L 1159 0 
L 581 0 
L 581 4863 
L 1159 4863 
L 1159 2969 
z
" transform="scale(0.015625)"/>
       <path id="DejaVuSans-70" d="M 1159 525 
L 1159 -1331 
L 581 -1331 
L 581 3500 
L 1159 3500 
L 1159 2969 
Q 1341 3281 1617 3432 
Q 1894 3584 2278 3584 
Q 2916 3584 3314 3078 
Q 3713 2572 3713 1747 
Q 3713 922 3314 415 
Q 2916 -91 2278 -91 
Q 1894 -91 1617 61 
Q 1341 213 1159 525 
z
M 3116 1747 
Q 3116 2381 2855 2742 
Q 2594 3103 2138 3103 
Q 1681 3103 1420 2742 
Q 1159 2381 1159 1747 
Q 1159 1113 1420 752 
Q 1681 391 2138 391 
Q 2594 391 2855 752 
Q 3116 1113 3116 1747 
z
" transform="scale(0.015625)"/>
      </defs>
      <use xlink:href="#DejaVuSans-42"/>
      <use xlink:href="#DejaVuSans-61" x="68.603516"/>
      <use xlink:href="#DejaVuSans-6e" x="129.882812"/>
      <use xlink:href="#DejaVuSans-64" x="193.261719"/>
      <use xlink:href="#DejaVuSans-77" x="256.738281"/>
      <use xlink:href="#DejaVuSans-69" x="338.525391"/>
      <use xlink:href="#DejaVuSans-64" x="366.308594"/>
      <use xlink:href="#DejaVuSans-74" x="429.785156"/>
      <use xlink:href="#DejaVuSans-68" x="468.994141"/>
      <use xlink:href="#DejaVuSans-20" x="532.373047"/>
      <use xlink:href="#DejaVuSans-28" x="564.160156"/>
      <use xlink:href="#DejaVuSans-4d" x="603.173828"/>
      <use xlink:href="#DejaVuSans-62" x="689.453125"/>
      <use xlink:href="#DejaVuSans-70" x="752.929688"/>
      <use xlink:href="#DejaVuSans-73" x="816.40625"/>
      <use xlink:href="#DejaVuSans-29" x="868.505859"/>
     </g>
    </g>
   </g>
   <g id="line2d_14">
    <path d="M 92.290909 140.967164 
L 92.968402 140.665796 
L 93.645895 61.342137 
L 94.323387 61.322672 
L 95.00088 90.508981 
L 95.678373 90.496599 
L 96.355866 80.5921 
L 97.033359 80.579614 
L 97.710851 58.134077 
L 98.388344 59.288062 
L 99.065837 131.050695 
L 99.74333 131.331422 
L 100.420823 161.092384 
L 101.098315 161.08315 
L 101.775808 146.800307 
L 102.453301 146.499623 
L 103.130794 75.925691 
L 103.808287 75.912478 
L 104.485779 61.939478 
L 105.163272 61.897696 
L 105.840765 83.800668 
L 106.518258 83.78745 
L 107.19575 87.594082 
L 107.873243 87.578003 
L 108.550736 56.092417 
L 109.228229 60.453045 
L 109.905722 56.092417 
L 110.583214 62.787733 
L 111.260707 82.925429 
L 111.9382 82.621389 
L 112.615693 71.565572 
L 113.293186 71.244601 
L 113.970678 90.800854 
L 114.648171 90.787842 
L 115.325664 78.842567 
L 116.003157 78.828839 
L 116.68065 72.133783 
L 117.358142 72.120832 
L 118.035635 56.092657 
L 118.713128 56.952344 
L 119.390621 56.092657 
L 120.068114 64.828054 
L 120.745606 56.092417 
L 121.423099 56.077564 
L 122.100592 71.84237 
L 122.778085 71.830331 
L 123.455577 56.092147 
L 124.13307 57.064939 
L 124.810563 56.091907 
L 125.488056 58.412009 
L 126.165549 56.092147 
L 126.843041 60.453045 
L 127.520534 157.883923 
L 128.198027 157.58309 
L 128.87552 201.925416 
L 129.553013 202.210852 
L 130.230505 263.175085 
L 130.907998 263.464273 
L 131.585491 262.300087 
L 132.262984 262.591888 
L 132.940477 225.258579 
L 133.617969 225.545558 
L 134.295462 96.633736 
L 134.972955 96.634164 
L 135.650448 60.175974 
L 136.327941 60.452544 
L 137.005433 56.092147 
L 137.682926 56.661678 
L 138.360419 78.842103 
L 139.037912 78.829057 
L 139.715404 56.106008 
L 140.392897 57.522464 
L 141.07039 80.300434 
L 141.747883 80.287471 
L 142.425376 93.717075 
L 143.102868 93.741264 
L 143.780361 56.092417 
L 144.457854 56.369487 
L 145.135347 56.092657 
L 145.81284 58.411266 
L 146.490332 114.13391 
L 147.167825 113.831193 
L 147.845318 92.550641 
L 148.522811 92.53794 
L 149.200304 56.102228 
L 149.877796 57.817902 
L 150.555289 56.092417 
L 151.232782 58.119345 
L 151.910275 56.092417 
L 152.587767 59.578736 
L 153.26526 56.092417 
L 153.942753 57.244535 
L 154.620246 56.095687 
L 155.297739 57.242788 
L 155.975231 56.092147 
L 156.652724 57.311661 
L 157.330217 56.092147 
L 158.00771 61.328593 
L 158.685203 56.092417 
L 159.362695 59.578263 
L 160.040188 84.968207 
L 160.717681 85.245414 
L 161.395174 165.467515 
L 162.072667 165.458404 
L 162.750159 150.008954 
L 163.427652 149.999643 
L 164.105145 138.925161 
L 164.782638 139.207724 
L 165.460131 256.466716 
L 166.137623 256.464305 
L 166.815116 292.929178 
L 167.492609 293.215863 
L 168.170102 305.17501 
L 185.107421 305.174876 
L 185.784914 254.717515 
L 186.462407 254.71916 
L 187.1399 201.633751 
L 187.817393 201.9198 
L 188.494885 240.133462 
L 189.172378 240.421362 
L 189.849871 194.640226 
L 190.527364 194.620652 
L 191.204857 159.649616 
L 191.882349 159.609318 
L 192.559842 175.385306 
L 193.237335 175.082902 
L 193.914828 132.800855 
L 194.592321 132.799458 
L 195.269813 157.592258 
L 195.947306 157.583394 
L 196.624799 71.260674 
L 197.302292 70.951971 
L 197.979784 59.300978 
L 198.657277 59.287558 
L 199.33477 95.759167 
L 200.012263 95.746883 
L 200.689756 127.284865 
L 201.367248 127.51971 
L 202.044741 183.843026 
L 202.722234 183.83385 
L 203.399727 305.175008 
L 224.402003 305.174853 
L 225.079496 291.17505 
L 225.756989 291.465767 
L 226.434482 305.175008 
L 227.111975 305.174863 
L 227.789467 276.88361 
L 228.46696 277.173131 
L 229.144453 305.175016 
L 231.176931 305.174855 
L 231.854424 174.800396 
L 232.531917 175.08556 
L 233.20941 203.383744 
L 233.886902 203.0859 
L 234.564395 187.635611 
L 235.241888 187.916962 
L 235.919381 197.550434 
L 236.596874 197.543823 
L 237.274366 172.758865 
L 237.951859 173.042041 
L 238.629352 194.050217 
L 239.306845 194.044413 
L 239.984338 151.760193 
L 240.66183 151.758166 
L 241.339323 97.801252 
L 242.016816 97.496125 
L 242.694309 107.717263 
L 243.371801 107.414562 
L 244.049294 150.008954 
L 244.726787 150.291176 
L 245.40428 57.259319 
L 246.081773 57.236276 
L 246.759265 157.008926 
L 247.436758 157.00019 
L 248.114251 243.050965 
L 248.791744 243.41628 
L 249.469237 305.175005 
L 250.146729 305.174858 
L 250.824222 274.260612 
L 251.501715 274.254341 
L 252.179208 305.17501 
L 252.856701 305.174858 
L 253.534193 283.591739 
L 254.211686 283.590333 
L 254.889179 192.008789 
L 255.566672 192.293529 
L 256.244165 257.63383 
L 256.921657 257.630271 
L 257.59915 220.592623 
L 258.276643 220.877764 
L 258.954136 229.050704 
L 259.631628 228.772002 
L 260.309121 136.884169 
L 260.986614 139.488627 
L 261.664107 103.34308 
L 262.3416 103.621274 
L 263.019092 166.925974 
L 263.696585 166.916822 
L 264.374078 80.592777 
L 265.051571 80.578693 
L 265.729064 175.675913 
L 266.406556 175.95888 
L 267.084049 166.342223 
L 267.761542 166.625424 
L 268.439035 171.300537 
L 269.116528 171.29603 
L 269.79402 183.841903 
L 270.471513 183.834973 
L 271.149006 204.258642 
L 271.826499 204.253149 
L 272.503992 182.967039 
L 273.181484 182.667989 
L 273.858977 207.466858 
L 274.53647 207.783632 
L 275.213963 222.050337 
L 275.891455 222.045277 
L 276.568948 305.175005 
L 277.246441 305.174858 
L 277.923934 299.925015 
L 278.601427 299.924582 
L 279.278919 239.972292 
L 279.956412 239.99916 
L 280.633905 172.469103 
L 281.311398 172.748876 
L 281.988891 140.091987 
L 282.666383 139.790928 
L 283.343876 132.217357 
L 284.021369 131.915146 
L 284.698862 124.050175 
L 285.376355 123.758509 
L 286.053847 56.092417 
L 286.73134 56.369996 
L 287.408833 71.842117 
L 288.086326 71.82915 
L 288.763818 133.093395 
L 289.441311 132.789319 
L 290.118804 115.883905 
L 290.796297 115.872764 
L 291.47379 176.842182 
L 292.151282 176.834329 
L 292.828775 106.271426 
L 293.506268 106.234943 
L 294.183761 194.633778 
L 294.861254 194.918783 
L 295.538746 266.675162 
L 296.216239 266.964379 
L 296.893732 250.050172 
L 297.571225 250.046881 
L 298.248718 189.09202 
L 298.92621 188.793446 
L 299.603703 159.34195 
L 300.281196 159.33349 
L 300.958689 192.300454 
L 301.636182 192.586132 
L 302.313674 210.383624 
L 302.991167 210.669651 
L 303.66866 292.341727 
L 304.346153 292.340832 
L 305.023645 228.467215 
L 305.701138 228.461981 
L 306.378631 304.008345 
L 307.056124 304.300007 
L 307.733617 297.883363 
L 308.411109 298.17448 
L 309.088602 236.633613 
L 309.766095 236.921029 
L 310.443588 305.175008 
L 316.541023 305.174858 
L 317.218516 227.883648 
L 317.896008 227.882771 
L 318.573501 305.175071 
L 319.250994 305.174795 
L 319.928487 209.508626 
L 320.60598 209.794801 
L 321.283472 219.56035 
L 321.960965 218.992486 
L 322.638458 203.093339 
L 323.315951 202.792853 
L 323.993444 163.42586 
L 324.670936 163.708302 
L 325.348429 240.716795 
L 326.025922 240.713916 
L 326.703415 210.383624 
L 327.380908 210.454384 
L 328.0584 227.008651 
L 328.735893 227.29549 
L 329.413386 187.342026 
L 330.090879 187.341293 
L 330.768372 144.467153 
L 331.445864 144.459794 
L 332.123357 117.050568 
L 332.80085 117.082601 
L 333.478343 126.092381 
L 334.155835 126.093118 
L 334.833328 152.633796 
L 335.510821 152.624954 
L 336.188314 198.13366 
L 336.865807 198.419094 
L 337.543299 196.09188 
L 338.898285 195.508775 
L 339.575778 195.502149 
L 340.253271 237.216944 
L 340.930763 237.212712 
L 341.608256 173.341923 
L 342.285749 173.042852 
L 342.963242 200.472667 
L 343.640735 200.456033 
L 344.318227 147.092452 
L 344.99572 147.237605 
L 345.673213 135.134177 
L 346.350706 135.415507 
L 347.028199 115.883516 
L 347.705691 115.58147 
L 348.383184 67.175947 
L 349.060677 66.89393 
L 349.73817 86.717536 
L 350.415662 86.704491 
L 351.093155 56.092147 
L 351.770648 59.584714 
L 352.448141 71.552337 
L 353.125634 71.827265 
L 353.803126 101.604644 
L 354.480619 101.85984 
L 355.158112 58.728869 
L 355.835605 58.696223 
L 356.513098 143.60249 
L 357.19059 143.572276 
L 357.868083 162.258767 
L 358.545576 162.541862 
L 359.223069 246.258517 
L 359.900562 246.546627 
L 360.578054 210.092738 
L 361.255547 210.37719 
L 361.93304 189.675577 
L 362.610533 189.668255 
L 363.288025 187.633806 
L 363.965518 187.918398 
L 364.643011 82.355399 
L 365.320504 82.317974 
L 365.997997 140.684343 
L 366.675489 140.657278 
L 367.352982 183.842154 
L 368.030475 184.126655 
L 368.707968 168.683192 
L 369.385461 168.951522 
L 370.062953 205.717482 
L 370.740446 205.710533 
L 371.417939 196.09188 
L 372.095432 196.085634 
L 372.772925 205.425305 
L 373.450417 205.711154 
L 374.12791 89.342526 
L 374.805403 89.329427 
L 375.482896 107.133931 
L 376.160389 107.122282 
L 376.837881 85.550874 
L 377.515374 85.550212 
L 378.192867 56.092417 
L 378.87036 56.369756 
L 379.547852 56.092417 
L 380.225345 64.244688 
L 380.902838 56.384083 
L 381.580331 59.301214 
L 382.257824 77.38424 
L 382.935316 77.079208 
L 383.612809 138.633656 
L 384.290302 138.624198 
L 384.967795 305.175013 
L 385.645288 305.174848 
L 386.32278 236.342161 
L 387.000273 236.337373 
L 387.677766 153.217588 
L 388.355259 153.20784 
L 389.032752 107.134936 
L 389.710244 107.121086 
L 390.387737 100.426236 
L 391.06523 100.412961 
L 391.742723 119.384075 
L 392.420216 119.66446 
L 393.097708 136.009009 
L 393.775201 135.998872 
L 394.452694 134.842182 
L 395.130187 134.832327 
L 395.807679 56.093167 
L 396.485172 58.703958 
L 397.162665 56.092417 
L 397.840158 61.037146 
L 398.517651 56.092417 
L 399.195143 59.577997 
L 399.872636 56.092417 
L 400.550129 57.536218 
L 401.227622 56.093167 
L 401.905115 58.702206 
L 402.582607 56.096677 
L 403.2601 63.658135 
L 403.937593 55.8 
L 404.615086 59.5785 
L 405.292579 56.092417 
L 405.970071 56.952613 
L 406.647564 56.092657 
L 407.325057 56.956112 
L 408.00255 56.091907 
L 408.680042 61.328358 
L 409.357535 56.092147 
L 410.035028 57.828169 
L 410.712521 56.095417 
L 411.390014 56.949847 
L 412.067506 56.092147 
L 412.744999 57.536486 
L 413.422492 56.092657 
L 414.099985 60.161628 
L 414.777478 56.092147 
L 415.45497 58.70568 
L 416.132463 56.094667 
L 416.809956 63.368168 
L 417.487449 56.089896 
L 418.164942 56.373503 
L 418.842434 56.092417 
L 419.519927 57.244296 
L 420.19742 56.092417 
L 420.874913 56.369247 
L 421.552406 89.634192 
L 422.229898 89.912793 
L 422.907391 82.342339 
L 423.584884 82.037567 
L 424.262377 80.88401 
L 424.939869 81.162303 
L 425.617362 56.093407 
L 426.294855 64.535632 
L 426.972348 57.841905 
L 427.649841 57.829897 
L 428.327333 102.758529 
L 429.004826 102.747456 
L 429.682319 103.633942 
L 430.359812 103.914185 
L 431.037305 108.593448 
L 431.714797 108.288418 
L 432.39229 60.467138 
L 433.069783 60.744728 
L 433.747276 132.800522 
L 434.424769 133.081878 
L 435.102261 56.092147 
L 435.779754 58.994898 
L 436.457247 94.009174 
L 437.13474 93.996559 
L 437.812233 56.092147 
L 438.489725 57.530713 
L 439.167218 56.082845 
L 439.844711 60.463424 
L 440.522204 56.094427 
L 441.199696 59.284581 
L 441.877189 68.343322 
L 442.554682 68.036081 
L 443.232175 56.092147 
L 444.58716 56.092147 
L 445.264653 58.702949 
L 445.942146 56.092147 
L 446.619639 61.036675 
L 447.297132 56.105498 
L 447.974624 57.814654 
L 448.652117 59.011803 
L 449.32961 56.657906 
L 450.007103 56.092417 
L 451.362088 56.093167 
L 452.039581 60.452057 
L 452.717074 56.090406 
L 453.394567 58.121339 
L 454.072059 56.097427 
L 455.427045 56.092147 
L 456.104538 61.912455 
L 456.782031 56.092417 
L 457.459523 59.286581 
L 458.137016 68.050714 
L 458.814509 67.744884 
L 459.492002 186.758694 
L 460.169495 186.463268 
L 460.846987 157.300736 
L 461.52448 156.999723 
L 462.201973 189.091893 
L 462.879466 189.085256 
L 463.556959 114.133703 
L 464.234451 113.831378 
L 464.911944 228.175237 
L 465.589437 228.462297 
L 466.26693 182.967039 
L 466.944423 182.959792 
L 467.621915 190.258796 
L 468.299408 190.543668 
L 468.976901 260.260991 
L 469.654394 260.253196 
L 470.331886 257.0502 
L 471.009379 257.338942 
L 471.686872 202.217711 
L 472.364365 201.924041 
L 473.041858 179.466911 
L 473.71935 179.758959 
L 474.396843 255.883587 
L 475.074336 256.172157 
L 475.751829 282.716816 
L 476.429322 283.006894 
L 477.106814 305.175008 
L 477.784307 305.174855 
L 478.4618 205.133737 
L 479.139293 205.127679 
L 479.816786 209.800187 
L 480.494278 209.794509 
L 481.171771 135.134013 
L 481.849264 135.123824 
L 482.526757 157.300144 
L 483.20425 157.583394 
L 483.881742 117.643964 
L 484.559235 117.906382 
L 485.236728 101.302461 
L 485.914221 101.298548 
L 486.591713 210.091958 
L 487.269206 210.086285 
L 487.946699 307.8 
L 498.109091 307.8 
L 498.109091 307.8 
" clip-path="url(#p6ec74e11d9)" style="fill: none; stroke: #8dd3c7; stroke-width: 1.5; stroke-linecap: square"/>
   </g>
   <g id="line2d_15">
    <path d="M 92.290909 140.967164 
L 92.968402 140.665796 
L 93.645895 61.342137 
L 94.323387 61.322672 
L 95.00088 90.508981 
L 95.678373 90.496599 
L 96.355866 80.5921 
L 97.033359 80.579614 
L 97.710851 58.134077 
L 98.388344 59.288062 
L 99.065837 70.878002 
L 99.74333 134.01178 
L 100.420823 125.367607 
L 101.098315 164.616121 
L 101.775808 165.275565 
L 102.453301 150.004883 
L 103.130794 148.548434 
L 103.808287 81.181215 
L 104.485779 79.680328 
L 105.163272 67.373493 
L 105.840765 64.080984 
L 106.518258 87.153236 
L 107.19575 91.021495 
L 107.873243 90.437198 
L 108.550736 98.890708 
L 109.228229 60.661013 
L 109.905722 69.452609 
L 110.583214 61.737519 
L 111.260707 66.279077 
L 111.9382 87.849152 
L 112.615693 87.638408 
L 113.293186 76.735567 
L 113.970678 81.687472 
L 114.648171 94.971523 
L 115.325664 92.796215 
L 116.003157 84.107706 
L 116.68065 85.484305 
L 117.358142 77.941059 
L 118.035635 77.406548 
L 118.713128 61.998942 
L 119.390621 63.715139 
L 120.068114 61.93335 
L 120.745606 71.617559 
L 121.423099 60.836035 
L 122.100592 64.935602 
L 122.778085 77.615845 
L 123.455577 77.27095 
L 124.13307 61.56085 
L 124.810563 66.562243 
L 125.488056 61.710085 
L 126.165549 64.152064 
L 126.843041 62.298182 
L 127.520534 66.943081 
L 128.198027 161.412783 
L 128.87552 152.024051 
L 129.553013 204.452547 
L 130.230505 202.850255 
L 130.907998 263.89125 
L 131.585491 251.19551 
L 132.262984 263.013483 
L 132.940477 252.028185 
L 133.617969 226.086269 
L 134.295462 219.182884 
L 134.972955 98.130085 
L 135.650448 104.90418 
L 136.327941 61.310716 
L 137.005433 64.62744 
L 137.682926 56.295562 
L 138.360419 70.955561 
L 139.037912 79.01333 
L 139.715404 92.971417 
L 140.392897 58.939922 
L 141.07039 69.872075 
L 141.747883 85.255202 
L 142.425376 81.68691 
L 143.102868 99.284548 
L 143.780361 98.154049 
L 144.457854 62.25788 
L 145.135347 67.081122 
L 145.81284 62.050128 
L 146.490332 60.680793 
L 147.167825 118.822793 
L 147.845318 113.913312 
L 148.522811 97.405083 
L 149.200304 104.505105 
L 149.877796 61.643618 
L 150.555289 63.229613 
L 151.232782 62.246453 
L 151.910275 60.193424 
L 152.587767 61.888656 
L 153.26526 69.663698 
L 153.942753 60.72083 
L 154.620246 66.810475 
L 155.297739 61.618279 
L 155.975231 64.192394 
L 156.652724 62.086732 
L 157.330217 64.465115 
L 158.00771 62.122635 
L 158.685203 68.330038 
L 159.362695 61.878722 
L 160.040188 66.854594 
L 160.717681 90.400729 
L 161.395174 88.406698 
L 162.072667 168.916286 
L 163.427652 153.36543 
L 164.105145 156.171395 
L 164.782638 142.836067 
L 165.460131 135.242978 
L 166.137623 257.620842 
L 166.815116 237.211032 
L 167.492609 291.765926 
L 168.170102 291.65056 
L 168.847594 302.087077 
L 169.525087 293.334805 
L 170.20258 302.423087 
L 170.880073 288.354225 
L 171.557566 301.379288 
L 172.235058 294.521114 
L 172.912551 298.696065 
L 173.590044 296.829001 
L 174.267537 297.878341 
L 174.94503 297.644196 
L 185.784914 297.644212 
L 186.462407 248.384212 
L 187.1399 254.012151 
L 187.817393 196.645107 
L 188.494885 201.636693 
L 189.172378 234.335261 
L 189.849871 233.307253 
L 190.527364 189.937654 
L 191.204857 205.345946 
L 191.882349 156.381922 
L 192.559842 162.207641 
L 193.237335 173.329946 
L 193.914828 171.557051 
L 194.592321 132.471476 
L 195.947306 156.46266 
L 196.624799 155.712866 
L 197.302292 73.459578 
L 197.979784 85.98783 
L 198.657277 62.484426 
L 199.33477 63.445433 
L 200.012263 98.234267 
L 200.689756 99.43426 
L 201.367248 129.608088 
L 202.044741 136.159283 
L 202.722234 185.13422 
L 203.399727 179.404842 
L 204.07722 305.266245 
L 204.754712 287.087146 
L 205.432205 304.814925 
L 206.109698 299.236125 
L 206.787191 303.630266 
L 207.464684 287.402371 
L 208.142176 302.380891 
L 208.819669 289.315593 
L 209.497162 300.017424 
L 210.174655 297.644237 
L 225.079496 297.644203 
L 225.756989 283.976714 
L 226.434482 285.821488 
L 227.111975 297.63569 
L 227.789467 295.803752 
L 228.46696 270.044084 
L 229.144453 274.964881 
L 229.821946 297.64311 
L 230.499438 294.141014 
L 231.176931 297.793996 
L 231.854424 299.754202 
L 232.531917 170.622315 
L 233.886902 198.722566 
L 234.564395 190.006418 
L 235.241888 183.772461 
L 235.919381 196.687946 
L 236.596874 192.870886 
L 237.274366 201.985458 
L 237.951859 170.071762 
L 238.629352 174.378267 
L 239.306845 193.116102 
L 239.984338 190.372785 
L 240.66183 151.433088 
L 241.339323 158.076252 
L 242.016816 99.010123 
L 243.371801 108.908143 
L 244.049294 108.098449 
L 244.726787 150.529274 
L 245.40428 154.512807 
L 246.081773 59.916727 
L 246.759265 76.597666 
L 247.436758 158.877975 
L 248.114251 141.966623 
L 248.791744 243.672528 
L 249.469237 240.145041 
L 250.146729 303.427433 
L 250.824222 298.715164 
L 251.501715 273.215409 
L 252.179208 262.958146 
L 252.856701 304.089308 
L 253.534193 284.366105 
L 254.211686 280.108848 
L 254.889179 278.082369 
L 255.566672 188.424589 
L 256.244165 197.669255 
L 256.921657 251.732378 
L 257.59915 241.631338 
L 258.276643 215.875753 
L 258.954136 230.969368 
L 259.631628 223.740752 
L 260.309121 225.749992 
L 260.986614 135.186019 
L 261.664107 146.582831 
L 262.3416 103.380917 
L 263.019092 107.495423 
L 263.696585 165.045264 
L 264.374078 164.631042 
L 265.051571 81.155284 
L 265.729064 104.365661 
L 266.406556 174.794021 
L 267.084049 162.754947 
L 268.439035 173.19608 
L 269.116528 172.772519 
L 269.79402 171.412965 
L 270.471513 184.63423 
L 271.149006 176.46639 
L 271.826499 205.209823 
L 272.503992 201.974986 
L 273.181484 182.630328 
L 273.858977 183.909891 
L 274.53647 206.751938 
L 275.213963 200.72838 
L 275.891455 220.659411 
L 276.568948 219.207193 
L 277.246441 301.393207 
L 277.923934 292.070799 
L 278.601427 295.892842 
L 279.278919 295.253147 
L 279.956412 237.421909 
L 280.633905 235.239126 
L 281.311398 170.968628 
L 281.988891 169.301244 
L 282.666383 138.360163 
L 283.343876 143.993205 
L 284.021369 129.317326 
L 284.698862 140.66964 
L 285.376355 122.110431 
L 286.053847 133.063704 
L 286.73134 57.698862 
L 287.408833 70.471434 
L 288.086326 74.847077 
L 288.763818 73.514959 
L 289.441311 135.456118 
L 290.118804 135.182645 
L 290.796297 118.788795 
L 291.47379 127.632774 
L 292.151282 179.059988 
L 292.828775 166.588677 
L 293.506268 111.258099 
L 294.183761 115.58421 
L 294.861254 196.665021 
L 295.538746 180.771071 
L 296.216239 265.8011 
L 296.893732 260.408216 
L 297.571225 249.11175 
L 298.248718 251.154711 
L 298.92621 189.066619 
L 299.603703 181.885099 
L 300.281196 160.55898 
L 300.958689 154.994332 
L 301.636182 190.351121 
L 302.313674 191.607968 
L 302.991167 206.799831 
L 303.66866 214.676318 
L 304.346153 287.744666 
L 305.023645 280.417491 
L 305.701138 226.699796 
L 306.378631 231.634355 
L 307.056124 300.670363 
L 307.733617 281.8685 
L 308.411109 293.730734 
L 309.088602 293.500416 
L 309.766095 232.739523 
L 310.443588 238.1784 
L 311.121081 298.767033 
L 311.798573 284.065875 
L 312.476066 299.177083 
L 313.153559 305.118818 
L 313.831052 297.720613 
L 314.508545 298.293575 
L 315.186037 298.465484 
L 315.86353 292.965256 
L 316.541023 298.979242 
L 317.218516 297.644219 
L 317.896008 222.18716 
L 318.573501 230.804637 
L 319.250994 297.775161 
L 319.928487 287.306891 
L 320.60598 204.318491 
L 321.283472 223.534048 
L 321.960965 214.231481 
L 322.638458 211.531 
L 323.315951 199.09051 
L 323.993444 202.571159 
L 324.670936 161.06697 
L 325.348429 172.465591 
L 326.025922 236.067625 
L 326.703415 228.781466 
L 327.380908 208.236929 
L 328.0584 218.094506 
L 328.735893 224.370549 
L 329.413386 219.879676 
L 330.090879 186.277361 
L 330.768372 186.87905 
L 331.445864 144.507751 
L 332.123357 148.433012 
L 332.80085 116.619613 
L 334.155835 125.969944 
L 334.833328 131.515311 
L 335.510821 152.029974 
L 336.188314 156.560817 
L 336.865807 197.636179 
L 337.543299 196.268743 
L 338.220792 196.626363 
L 338.898285 195.161716 
L 339.575778 196.522622 
L 340.253271 189.879225 
L 340.930763 236.698114 
L 341.608256 227.252768 
L 342.285749 173.304214 
L 342.963242 180.495733 
L 343.640735 199.053322 
L 344.318227 190.999694 
L 344.99572 146.920227 
L 345.673213 154.871107 
L 346.350706 134.929688 
L 347.028199 138.471364 
L 347.705691 116.033029 
L 348.383184 120.603027 
L 349.060677 69.552481 
L 350.415662 88.711774 
L 351.093155 89.202073 
L 351.770648 60.005074 
L 352.448141 73.490692 
L 353.803126 77.303689 
L 354.480619 105.903814 
L 355.158112 104.571232 
L 355.835605 64.353143 
L 356.513098 71.787767 
L 357.19059 147.13398 
L 357.868083 133.871334 
L 358.545576 165.908865 
L 359.223069 166.588423 
L 359.900562 247.26815 
L 360.578054 235.331145 
L 361.255547 211.650771 
L 361.93304 208.936269 
L 362.610533 191.629073 
L 363.288025 182.64695 
L 363.965518 187.806614 
L 364.643011 182.265652 
L 365.320504 83.783412 
L 365.997997 99.225576 
L 366.675489 139.719264 
L 367.352982 133.595011 
L 368.030475 182.766615 
L 368.707968 189.019343 
L 369.385461 168.286042 
L 370.062953 176.956626 
L 370.740446 205.566119 
L 371.417939 193.830486 
L 372.095432 197.559843 
L 372.772925 195.403336 
L 373.450417 205.036683 
L 374.12791 201.715273 
L 374.805403 90.981447 
L 375.482896 101.698795 
L 376.160389 108.522531 
L 376.837881 103.185459 
L 377.515374 86.871924 
L 378.192867 98.657146 
L 378.87036 58.279464 
L 379.547852 71.154344 
L 380.225345 59.356655 
L 380.902838 68.982014 
L 381.580331 60.898061 
L 382.257824 69.728274 
L 382.935316 82.039199 
L 383.612809 83.026754 
L 384.290302 142.080146 
L 384.967795 137.487516 
L 385.645288 304.665941 
L 386.32278 287.811862 
L 387.000273 237.751051 
L 387.677766 242.897403 
L 388.355259 156.703806 
L 389.032752 144.032299 
L 389.710244 110.816887 
L 390.387737 102.043432 
L 391.06523 101.521891 
L 391.742723 111.583968 
L 392.420216 117.585713 
L 393.097708 128.948923 
L 393.775201 135.99272 
L 394.452694 141.367158 
L 395.130187 136.956263 
L 395.807679 137.441681 
L 396.485172 60.992406 
L 397.162665 69.217698 
L 397.840158 60.754176 
L 398.517651 62.413356 
L 399.195143 60.108258 
L 399.872636 70.810631 
L 400.550129 59.84296 
L 401.227622 69.999719 
L 401.905115 60.425655 
L 402.582607 65.968651 
L 403.2601 61.630195 
L 403.937593 71.070722 
L 404.615086 61.084014 
L 405.292579 67.339077 
L 405.970071 62.043357 
L 406.647564 64.080489 
L 407.325057 61.791977 
L 408.00255 64.439976 
L 408.680042 61.524053 
L 409.357535 68.879432 
L 410.035028 61.5581 
L 410.712521 65.342747 
L 411.390014 62.420426 
L 412.067506 63.754958 
L 412.744999 62.119604 
L 413.422492 64.679814 
L 414.099985 61.892776 
L 414.777478 67.425206 
L 415.45497 61.946546 
L 416.132463 65.89635 
L 416.809956 62.280433 
L 417.487449 70.193992 
L 418.164942 61.462394 
L 418.842434 64.182532 
L 419.519927 62.20642 
L 420.19742 64.25952 
L 420.874913 61.647476 
L 421.552406 63.931213 
L 422.229898 94.661269 
L 422.907391 92.655084 
L 423.584884 87.990516 
L 424.262377 89.742558 
L 424.939869 86.737502 
L 425.617362 84.396938 
L 426.294855 62.516848 
L 426.972348 70.983785 
L 427.649841 63.09122 
L 428.327333 64.337309 
L 429.004826 107.529328 
L 429.682319 104.477533 
L 430.359812 107.550688 
L 431.037305 112.570819 
L 431.714797 112.488879 
L 432.39229 109.883726 
L 433.069783 66.684533 
L 433.747276 67.985268 
L 434.424769 136.938825 
L 435.102261 126.740177 
L 435.779754 61.11557 
L 436.457247 77.775042 
L 437.13474 97.864476 
L 437.812233 91.052002 
L 438.489725 61.55995 
L 439.167218 68.228753 
L 439.844711 61.348699 
L 440.522204 68.575536 
L 441.199696 60.447836 
L 441.877189 65.916943 
L 442.554682 73.85063 
L 443.232175 75.967625 
L 443.909668 61.553184 
L 444.58716 64.710342 
L 445.264653 61.968414 
L 445.942146 64.592302 
L 446.619639 62.037861 
L 447.297132 67.88394 
L 447.974624 62.076055 
L 448.652117 65.681142 
L 449.32961 65.039265 
L 450.007103 63.217909 
L 450.684596 62.341119 
L 451.362088 63.43517 
L 452.039581 61.971945 
L 452.717074 67.286783 
L 453.394567 62.151079 
L 454.072059 65.080793 
L 454.749552 62.761391 
L 455.427045 62.800744 
L 456.104538 62.388298 
L 456.782031 68.700099 
L 457.459523 61.462568 
L 458.137016 67.020106 
L 458.814509 73.884439 
L 459.492002 73.136375 
L 460.169495 189.845496 
L 460.846987 177.382895 
L 461.52448 160.472428 
L 462.201973 166.875577 
L 462.879466 191.880969 
L 463.556959 177.193966 
L 464.234451 118.850815 
L 464.911944 118.153818 
L 465.589437 228.939406 
L 466.26693 212.474506 
L 466.944423 182.550741 
L 467.621915 193.99602 
L 468.976901 185.576395 
L 469.654394 258.372032 
L 470.331886 244.765099 
L 471.009379 255.428335 
L 471.686872 259.395173 
L 472.364365 200.027695 
L 473.041858 200.245175 
L 473.71935 178.757338 
L 474.396843 173.462739 
L 475.074336 252.499754 
L 475.751829 247.348806 
L 476.429322 277.320176 
L 477.106814 283.85268 
L 477.784307 299.777933 
L 478.4618 294.933289 
L 479.139293 203.303381 
L 479.816786 205.75491 
L 480.494278 207.626686 
L 481.171771 198.808322 
L 481.849264 133.054208 
L 482.526757 147.110644 
L 483.20425 154.139909 
L 483.881742 159.197079 
L 484.559235 116.026966 
L 485.236728 128.994401 
L 485.914221 102.076803 
L 486.591713 108.416662 
L 487.269206 209.027138 
L 487.946699 199.099692 
L 488.624192 305.464975 
L 489.301685 302.101366 
L 489.979177 305.205882 
L 490.65667 300.948857 
L 491.334163 306.032407 
L 492.011656 287.514826 
L 492.689149 305.174958 
L 493.366641 293.41341 
L 494.044134 302.031216 
L 494.721627 300.120287 
L 498.109091 300.120287 
L 498.109091 300.120287 
" clip-path="url(#p6ec74e11d9)" style="fill: none; stroke: #feffb3; stroke-width: 1.5; stroke-linecap: square"/>
   </g>
   <g id="patch_3">
    <path d="M 72 320.4 
L 72 43.2 
" style="fill: none; stroke: #ffffff; stroke-width: 0.8; stroke-linejoin: miter; stroke-linecap: square"/>
   </g>
   <g id="patch_4">
    <path d="M 518.4 320.4 
L 518.4 43.2 
" style="fill: none; stroke: #ffffff; stroke-width: 0.8; stroke-linejoin: miter; stroke-linecap: square"/>
   </g>
   <g id="patch_5">
    <path d="M 72 320.4 
L 518.4 320.4 
" style="fill: none; stroke: #ffffff; stroke-width: 0.8; stroke-linejoin: miter; stroke-linecap: square"/>
   </g>
   <g id="patch_6">
    <path d="M 72 43.2 
L 518.4 43.2 
" style="fill: none; stroke: #ffffff; stroke-width: 0.8; stroke-linejoin: miter; stroke-linecap: square"/>
   </g>
   <g id="text_16">
    <!-- Prediction vs Collected -->
    <g style="fill: #ffffff" transform="translate(226.866562 37.2) scale(0.12 -0.12)">
     <defs>
      <path id="DejaVuSans-50" d="M 1259 4147 
L 1259 2394 
L 2053 2394 
Q 2494 2394 2734 2622 
Q 2975 2850 2975 3272 
Q 2975 3691 2734 3919 
Q 2494 4147 2053 4147 
L 1259 4147 
z
M 628 4666 
L 2053 4666 
Q 2838 4666 3239 4311 
Q 3641 3956 3641 3272 
Q 3641 2581 3239 2228 
Q 2838 1875 2053 1875 
L 1259 1875 
L 1259 0 
L 628 0 
L 628 4666 
z
" transform="scale(0.015625)"/>
      <path id="DejaVuSans-72" d="M 2631 2963 
Q 2534 3019 2420 3045 
Q 2306 3072 2169 3072 
Q 1681 3072 1420 2755 
Q 1159 2438 1159 1844 
L 1159 0 
L 581 0 
L 581 3500 
L 1159 3500 
L 1159 2956 
Q 1341 3275 1631 3429 
Q 1922 3584 2338 3584 
Q 2397 3584 2469 3576 
Q 2541 3569 2628 3553 
L 2631 2963 
z
" transform="scale(0.015625)"/>
      <path id="DejaVuSans-63" d="M 3122 3366 
L 3122 2828 
Q 2878 2963 2633 3030 
Q 2388 3097 2138 3097 
Q 1578 3097 1268 2742 
Q 959 2388 959 1747 
Q 959 1106 1268 751 
Q 1578 397 2138 397 
Q 2388 397 2633 464 
Q 2878 531 3122 666 
L 3122 134 
Q 2881 22 2623 -34 
Q 2366 -91 2075 -91 
Q 1284 -91 818 406 
Q 353 903 353 1747 
Q 353 2603 823 3093 
Q 1294 3584 2113 3584 
Q 2378 3584 2631 3529 
Q 2884 3475 3122 3366 
z
" transform="scale(0.015625)"/>
      <path id="DejaVuSans-6f" d="M 1959 3097 
Q 1497 3097 1228 2736 
Q 959 2375 959 1747 
Q 959 1119 1226 758 
Q 1494 397 1959 397 
Q 2419 397 2687 759 
Q 2956 1122 2956 1747 
Q 2956 2369 2687 2733 
Q 2419 3097 1959 3097 
z
M 1959 3584 
Q 2709 3584 3137 3096 
Q 3566 2609 3566 1747 
Q 3566 888 3137 398 
Q 2709 -91 1959 -91 
Q 1206 -91 779 398 
Q 353 888 353 1747 
Q 353 2609 779 3096 
Q 1206 3584 1959 3584 
z
" transform="scale(0.015625)"/>
      <path id="DejaVuSans-76" d="M 191 3500 
L 800 3500 
L 1894 563 
L 2988 3500 
L 3597 3500 
L 2284 0 
L 1503 0 
L 191 3500 
z
" transform="scale(0.015625)"/>
      <path id="DejaVuSans-43" d="M 4122 4306 
L 4122 3641 
Q 3803 3938 3442 4084 
Q 3081 4231 2675 4231 
Q 1875 4231 1450 3742 
Q 1025 3253 1025 2328 
Q 1025 1406 1450 917 
Q 1875 428 2675 428 
Q 3081 428 3442 575 
Q 3803 722 4122 1019 
L 4122 359 
Q 3791 134 3420 21 
Q 3050 -91 2638 -91 
Q 1578 -91 968 557 
Q 359 1206 359 2328 
Q 359 3453 968 4101 
Q 1578 4750 2638 4750 
Q 3056 4750 3426 4639 
Q 3797 4528 4122 4306 
z
" transform="scale(0.015625)"/>
      <path id="DejaVuSans-6c" d="M 603 4863 
L 1178 4863 
L 1178 0 
L 603 0 
L 603 4863 
z
" transform="scale(0.015625)"/>
     </defs>
     <use xlink:href="#DejaVuSans-50"/>
     <use xlink:href="#DejaVuSans-72" x="58.552734"/>
     <use xlink:href="#DejaVuSans-65" x="97.416016"/>
     <use xlink:href="#DejaVuSans-64" x="158.939453"/>
     <use xlink:href="#DejaVuSans-69" x="222.416016"/>
     <use xlink:href="#DejaVuSans-63" x="250.199219"/>
     <use xlink:href="#DejaVuSans-74" x="305.179688"/>
     <use xlink:href="#DejaVuSans-69" x="344.388672"/>
     <use xlink:href="#DejaVuSans-6f" x="372.171875"/>
     <use xlink:href="#DejaVuSans-6e" x="433.353516"/>
     <use xlink:href="#DejaVuSans-20" x="496.732422"/>
     <use xlink:href="#DejaVuSans-76" x="528.519531"/>
     <use xlink:href="#DejaVuSans-73" x="587.699219"/>
     <use xlink:href="#DejaVuSans-20" x="639.798828"/>
     <use xlink:href="#DejaVuSans-43" x="671.585938"/>
     <use xlink:href="#DejaVuSans-6f" x="741.410156"/>
     <use xlink:href="#DejaVuSans-6c" x="802.591797"/>
     <use xlink:href="#DejaVuSans-6c" x="830.375"/>
     <use xlink:href="#DejaVuSans-65" x="858.158203"/>
     <use xlink:href="#DejaVuSans-63" x="919.681641"/>
     <use xlink:href="#DejaVuSans-74" x="974.662109"/>
     <use xlink:href="#DejaVuSans-65" x="1013.871094"/>
     <use xlink:href="#DejaVuSans-64" x="1075.394531"/>
    </g>
   </g>
   <g id="legend_1">
    <g id="patch_7">
     <path d="M 79 315.4 
L 157.940625 315.4 
Q 159.940625 315.4 159.940625 313.4 
L 159.940625 285.04375 
Q 159.940625 283.04375 157.940625 283.04375 
L 79 283.04375 
Q 77 283.04375 77 285.04375 
L 77 313.4 
Q 77 315.4 79 315.4 
z
" style="opacity: 0.8; stroke: #cccccc; stroke-linejoin: miter"/>
    </g>
    <g id="line2d_16">
     <path d="M 81 291.142187 
L 91 291.142187 
L 101 291.142187 
" style="fill: none; stroke: #8dd3c7; stroke-width: 1.5; stroke-linecap: square"/>
    </g>
    <g id="text_17">
     <!-- Input -->
     <g style="fill: #ffffff" transform="translate(109 294.642187) scale(0.1 -0.1)">
      <defs>
       <path id="DejaVuSans-49" d="M 628 4666 
L 1259 4666 
L 1259 0 
L 628 0 
L 628 4666 
z
" transform="scale(0.015625)"/>
       <path id="DejaVuSans-75" d="M 544 1381 
L 544 3500 
L 1119 3500 
L 1119 1403 
Q 1119 906 1312 657 
Q 1506 409 1894 409 
Q 2359 409 2629 706 
Q 2900 1003 2900 1516 
L 2900 3500 
L 3475 3500 
L 3475 0 
L 2900 0 
L 2900 538 
Q 2691 219 2414 64 
Q 2138 -91 1772 -91 
Q 1169 -91 856 284 
Q 544 659 544 1381 
z
M 1991 3584 
L 1991 3584 
z
" transform="scale(0.015625)"/>
      </defs>
      <use xlink:href="#DejaVuSans-49"/>
      <use xlink:href="#DejaVuSans-6e" x="29.492188"/>
      <use xlink:href="#DejaVuSans-70" x="92.871094"/>
      <use xlink:href="#DejaVuSans-75" x="156.347656"/>
      <use xlink:href="#DejaVuSans-74" x="219.726562"/>
     </g>
    </g>
    <g id="line2d_17">
     <path d="M 81 305.820312 
L 91 305.820312 
L 101 305.820312 
" style="fill: none; stroke: #feffb3; stroke-width: 1.5; stroke-linecap: square"/>
    </g>
    <g id="text_18">
     <!-- Predicted -->
     <g style="fill: #ffffff" transform="translate(109 309.320312) scale(0.1 -0.1)">
      <use xlink:href="#DejaVuSans-50"/>
      <use xlink:href="#DejaVuSans-72" x="58.552734"/>
      <use xlink:href="#DejaVuSans-65" x="97.416016"/>
      <use xlink:href="#DejaVuSans-64" x="158.939453"/>
      <use xlink:href="#DejaVuSans-69" x="222.416016"/>
      <use xlink:href="#DejaVuSans-63" x="250.199219"/>
      <use xlink:href="#DejaVuSans-74" x="305.179688"/>
      <use xlink:href="#DejaVuSans-65" x="344.388672"/>
      <use xlink:href="#DejaVuSans-64" x="405.912109"/>
     </g>
    </g>
   </g>
  </g>
 </g>
 <defs>
  <clipPath id="p6ec74e11d9">
   <rect x="72" y="43.2" width="446.4" height="277.2"/>
  </clipPath>
 </defs>
</svg>
