<?xml version="1.0" encoding="utf-8" standalone="no"?>
<!DOCTYPE svg PUBLIC "-//W3C//DTD SVG 1.1//EN"
  "http://www.w3.org/Graphics/SVG/1.1/DTD/svg11.dtd">
<svg xmlns:xlink="http://www.w3.org/1999/xlink" width="576pt" height="360pt" viewBox="0 0 576 360" xmlns="http://www.w3.org/2000/svg" version="1.1">
 <metadata>
  <rdf:RDF xmlns:dc="http://purl.org/dc/elements/1.1/" xmlns:cc="http://creativecommons.org/ns#" xmlns:rdf="http://www.w3.org/1999/02/22-rdf-syntax-ns#">
   <cc:Work>
    <dc:type rdf:resource="http://purl.org/dc/dcmitype/StillImage"/>
    <dc:date>2026-02-05T12:53:13.418851</dc:date>
    <dc:format>image/svg+xml</dc:format>
    <dc:creator>
     <cc:Agent>
      <dc:title>Matplotlib v3.7.5, https://matplotlib.org/</dc:title>
     </cc:Agent>
    </dc:creator>
   </cc:Work>
  </rdf:RDF>
 </metadata>
 <defs>
  <style type="text/css">*{stroke-linejoin: round; stroke-linecap: butt}</style>
 </defs>
 <g id="figure_1">
  <g id="patch_1">
   <path d="M 0 360 
L 576 360 
L 576 0 
L 0 0 
z
" style="fill: #ffffff"/>
  </g>
  <g id="axes_1">
   <g id="patch_2">
    <path d="M 72 320.4 
L 518.4 320.4 
L 518.4 43.2 
L 72 43.2 
z
" style="fill: #ffffff"/>
   </g>
   <g id="matplotlib.axis_1">
    <g id="xtick_1">
     <g id="line2d_1">
      <defs>
       <path id="m6fea96e9ce" d="M 0 0 
L 0 3.5 
" style="stroke: #000000; stroke-width: 0.8"/>
      </defs>
      <g>
       <use xlink:href="#m6fea96e9ce" x="92.290909" y="320.4" style="stroke: #000000; stroke-width: 0.8"/>
      </g>
     </g>
     <g id="text_1">
      <!-- 0 -->
      <g transform="translate(89.109659 334.998438) scale(0.1 -0.1)">
       <defs>
        <path id="DejaVuSans-30" d="M 2034 4250 
Q 1547 4250 1301 3770 
Q 1056 3291 1056 2328 
Q 1056 1369 1301 889 
Q 1547 409 2034 409 
Q 2525 409 2770 889 
Q 3016 1369 3016 2328 
Q 3016 3291 2770 3770 
Q 2525 4250 2034 4250 
z
M 2034 4750 
Q 2819 4750 3233 4129 
Q 3647 3509 3647 2328 
Q 3647 1150 3233 529 
Q 2819 -91 2034 -91 
Q 1250 -91 836 529 
Q 422 1150 422 2328 
Q 422 3509 836 4129 
Q 1250 4750 2034 4750 
z
" transform="scale(0.015625)"/>
       </defs>
       <use xlink:href="#DejaVuSans-30"/>
      </g>
     </g>
    </g>
    <g id="xtick_2">
     <g id="line2d_2">
      <g>
       <use xlink:href="#m6fea96e9ce" x="161.190431" y="320.4" style="stroke: #000000; stroke-width: 0.8"/>
      </g>
     </g>
     <g id="text_2">
      <!-- 100 -->
      <g transform="translate(151.646681 334.998438) scale(0.1 -0.1)">
       <defs>
        <path id="DejaVuSans-31" d="M 794 531 
L 1825 531 
L 1825 4091 
L 703 3866 
L 703 4441 
L 1819 4666 
L 2450 4666 
L 2450 531 
L 3481 531 
L 3481 0 
L 794 0 
L 794 531 
z
" transform="scale(0.015625)"/>
       </defs>
       <use xlink:href="#DejaVuSans-31"/>
       <use xlink:href="#DejaVuSans-30" x="63.623047"/>
       <use xlink:href="#DejaVuSans-30" x="127.246094"/>
      </g>
     </g>
    </g>
    <g id="xtick_3">
     <g id="line2d_3">
      <g>
       <use xlink:href="#m6fea96e9ce" x="230.089952" y="320.4" style="stroke: #000000; stroke-width: 0.8"/>
      </g>
     </g>
     <g id="text_3">
      <!-- 200 -->
      <g transform="translate(220.546202 334.998438) scale(0.1 -0.1)">
       <defs>
        <path id="DejaVuSans-32" d="M 1228 531 
L 3431 531 
L 3431 0 
L 469 0 
L 469 531 
Q 828 903 1448 1529 
Q 2069 2156 2228 2338 
Q 2531 2678 2651 2914 
Q 2772 3150 2772 3378 
Q 2772 3750 2511 3984 
Q 2250 4219 1831 4219 
Q 1534 4219 1204 4116 
Q 875 4013 500 3803 
L 500 4441 
Q 881 4594 1212 4672 
Q 1544 4750 1819 4750 
Q 2544 4750 2975 4387 
Q 3406 4025 3406 3419 
Q 3406 3131 3298 2873 
Q 3191 2616 2906 2266 
Q 2828 2175 2409 1742 
Q 1991 1309 1228 531 
z
" transform="scale(0.015625)"/>
       </defs>
       <use xlink:href="#DejaVuSans-32"/>
       <use xlink:href="#DejaVuSans-30" x="63.623047"/>
       <use xlink:href="#DejaVuSans-30" x="127.246094"/>
      </g>
     </g>
    </g>
    <g id="xtick_4">
     <g id="line2d_4">
      <g>
       <use xlink:href="#m6fea96e9ce" x="298.989474" y="320.4" style="stroke: #000000; stroke-width: 0.8"/>
      </g>
     </g>
     <g id="text_4">
      <!-- 300 -->
      <g transform="translate(289.445724 334.998438) scale(0.1 -0.1)">
       <defs>
        <path id="DejaVuSans-33" d="M 2597 2516 
Q 3050 2419 3304 2112 
Q 3559 1806 3559 1356 
Q 3559 666 3084 287 
Q 2609 -91 1734 -91 
Q 1441 -91 1130 -33 
Q 819 25 488 141 
L 488 750 
Q 750 597 1062 519 
Q 1375 441 1716 441 
Q 2309 441 2620 675 
Q 2931 909 2931 1356 
Q 2931 1769 2642 2001 
Q 2353 2234 1838 2234 
L 1294 2234 
L 1294 2753 
L 1863 2753 
Q 2328 2753 2575 2939 
Q 2822 3125 2822 3475 
Q 2822 3834 2567 4026 
Q 2313 4219 1838 4219 
Q 1578 4219 1281 4162 
Q 984 4106 628 3988 
L 628 4550 
Q 988 4650 1302 4700 
Q 1616 4750 1894 4750 
Q 2613 4750 3031 4423 
Q 3450 4097 3450 3541 
Q 3450 3153 3228 2886 
Q 3006 2619 2597 2516 
z
" transform="scale(0.015625)"/>
       </defs>
       <use xlink:href="#DejaVuSans-33"/>
       <use xlink:href="#DejaVuSans-30" x="63.623047"/>
       <use xlink:href="#DejaVuSans-30" x="127.246094"/>
      </g>
     </g>
    </g>
    <g id="xtick_5">
     <g id="line2d_5">
      <g>
       <use xlink:href="#m6fea96e9ce" x="367.888995" y="320.4" style="stroke: #000000; stroke-width: 0.8"/>
      </g>
     </g>
     <g id="text_5">
      <!-- 400 -->
      <g transform="translate(358.345245 334.998438) scale(0.1 -0.1)">
       <defs>
        <path id="DejaVuSans-34" d="M 2419 4116 
L 825 1625 
L 2419 1625 
L 2419 4116 
z
M 2253 4666 
L 3047 4666 
L 3047 1625 
L 3713 1625 
L 3713 1100 
L 3047 1100 
L 3047 0 
L 2419 0 
L 2419 1100 
L 313 1100 
L 313 1709 
L 2253 4666 
z
" transform="scale(0.015625)"/>
       </defs>
       <use xlink:href="#DejaVuSans-34"/>
       <use xlink:href="#DejaVuSans-30" x="63.623047"/>
       <use xlink:href="#DejaVuSans-30" x="127.246094"/>
      </g>
     </g>
    </g>
    <g id="xtick_6">
     <g id="line2d_6">
      <g>
       <use xlink:href="#m6fea96e9ce" x="436.788517" y="320.4" style="stroke: #000000; stroke-width: 0.8"/>
      </g>
     </g>
     <g id="text_6">
      <!-- 500 -->
      <g transform="translate(427.244767 334.998438) scale(0.1 -0.1)">
       <defs>
        <path id="DejaVuSans-35" d="M 691 4666 
L 3169 4666 
L 3169 4134 
L 1269 4134 
L 1269 2991 
Q 1406 3038 1543 3061 
Q 1681 3084 1819 3084 
Q 2600 3084 3056 2656 
Q 3513 2228 3513 1497 
Q 3513 744 3044 326 
Q 2575 -91 1722 -91 
Q 1428 -91 1123 -41 
Q 819 9 494 109 
L 494 744 
Q 775 591 1075 516 
Q 1375 441 1709 441 
Q 2250 441 2565 725 
Q 2881 1009 2881 1497 
Q 2881 1984 2565 2268 
Q 2250 2553 1709 2553 
Q 1456 2553 1204 2497 
Q 953 2441 691 2322 
L 691 4666 
z
" transform="scale(0.015625)"/>
       </defs>
       <use xlink:href="#DejaVuSans-35"/>
       <use xlink:href="#DejaVuSans-30" x="63.623047"/>
       <use xlink:href="#DejaVuSans-30" x="127.246094"/>
      </g>
     </g>
    </g>
    <g id="xtick_7">
     <g id="line2d_7">
      <g>
       <use xlink:href="#m6fea96e9ce" x="505.688038" y="320.4" style="stroke: #000000; stroke-width: 0.8"/>
      </g>
     </g>
     <g id="text_7">
      <!-- 600 -->
      <g transform="translate(496.144288 334.998438) scale(0.1 -0.1)">
       <defs>
        <path id="DejaVuSans-36" d="M 2113 2584 
Q 1688 2584 1439 2293 
Q 1191 2003 1191 1497 
Q 1191 994 1439 701 
Q 1688 409 2113 409 
Q 2538 409 2786 701 
Q 3034 994 3034 1497 
Q 3034 2003 2786 2293 
Q 2538 2584 2113 2584 
z
M 3366 4563 
L 3366 3988 
Q 3128 4100 2886 4159 
Q 2644 4219 2406 4219 
Q 1781 4219 1451 3797 
Q 1122 3375 1075 2522 
Q 1259 2794 1537 2939 
Q 1816 3084 2150 3084 
Q 2853 3084 3261 2657 
Q 3669 2231 3669 1497 
Q 3669 778 3244 343 
Q 2819 -91 2113 -91 
Q 1303 -91 875 529 
Q 447 1150 447 2328 
Q 447 3434 972 4092 
Q 1497 4750 2381 4750 
Q 2619 4750 2861 4703 
Q 3103 4656 3366 4563 
z
" transform="scale(0.015625)"/>
       </defs>
       <use xlink:href="#DejaVuSans-36"/>
       <use xlink:href="#DejaVuSans-30" x="63.623047"/>
       <use xlink:href="#DejaVuSans-30" x="127.246094"/>
      </g>
     </g>
    </g>
    <g id="text_8">
     <!-- Time (s) -->
     <g transform="translate(266.739531 351.715937) scale(0.14 -0.14)">
      <defs>
       <path id="DejaVuSans-54" d="M -19 4666 
L 3928 4666 
L 3928 4134 
L 2272 4134 
L 2272 0 
L 1638 0 
L 1638 4134 
L -19 4134 
L -19 4666 
z
" transform="scale(0.015625)"/>
       <path id="DejaVuSans-69" d="M 603 3500 
L 1178 3500 
L 1178 0 
L 603 0 
L 603 3500 
z
M 603 4863 
L 1178 4863 
L 1178 4134 
L 603 4134 
L 603 4863 
z
" transform="scale(0.015625)"/>
       <path id="DejaVuSans-6d" d="M 3328 2828 
Q 3544 3216 3844 3400 
Q 4144 3584 4550 3584 
Q 5097 3584 5394 3201 
Q 5691 2819 5691 2113 
L 5691 0 
L 5113 0 
L 5113 2094 
Q 5113 2597 4934 2840 
Q 4756 3084 4391 3084 
Q 3944 3084 3684 2787 
Q 3425 2491 3425 1978 
L 3425 0 
L 2847 0 
L 2847 2094 
Q 2847 2600 2669 2842 
Q 2491 3084 2119 3084 
Q 1678 3084 1418 2786 
Q 1159 2488 1159 1978 
L 1159 0 
L 581 0 
L 581 3500 
L 1159 3500 
L 1159 2956 
Q 1356 3278 1631 3431 
Q 1906 3584 2284 3584 
Q 2666 3584 2933 3390 
Q 3200 3197 3328 2828 
z
" transform="scale(0.015625)"/>
       <path id="DejaVuSans-65" d="M 3597 1894 
L 3597 1613 
L 953 1613 
Q 991 1019 1311 708 
Q 1631 397 2203 397 
Q 2534 397 2845 478 
Q 3156 559 3463 722 
L 3463 178 
Q 3153 47 2828 -22 
Q 2503 -91 2169 -91 
Q 1331 -91 842 396 
Q 353 884 353 1716 
Q 353 2575 817 3079 
Q 1281 3584 2069 3584 
Q 2775 3584 3186 3129 
Q 3597 2675 3597 1894 
z
M 3022 2063 
Q 3016 2534 2758 2815 
Q 2500 3097 2075 3097 
Q 1594 3097 1305 2825 
Q 1016 2553 972 2059 
L 3022 2063 
z
" transform="scale(0.015625)"/>
       <path id="DejaVuSans-20" transform="scale(0.015625)"/>
       <path id="DejaVuSans-28" d="M 1984 4856 
Q 1566 4138 1362 3434 
Q 1159 2731 1159 2009 
Q 1159 1288 1364 580 
Q 1569 -128 1984 -844 
L 1484 -844 
Q 1016 -109 783 600 
Q 550 1309 550 2009 
Q 550 2706 781 3412 
Q 1013 4119 1484 4856 
L 1984 4856 
z
" transform="scale(0.015625)"/>
       <path id="DejaVuSans-73" d="M 2834 3397 
L 2834 2853 
Q 2591 2978 2328 3040 
Q 2066 3103 1784 3103 
Q 1356 3103 1142 2972 
Q 928 2841 928 2578 
Q 928 2378 1081 2264 
Q 1234 2150 1697 2047 
L 1894 2003 
Q 2506 1872 2764 1633 
Q 3022 1394 3022 966 
Q 3022 478 2636 193 
Q 2250 -91 1575 -91 
Q 1294 -91 989 -36 
Q 684 19 347 128 
L 347 722 
Q 666 556 975 473 
Q 1284 391 1588 391 
Q 1994 391 2212 530 
Q 2431 669 2431 922 
Q 2431 1156 2273 1281 
Q 2116 1406 1581 1522 
L 1381 1569 
Q 847 1681 609 1914 
Q 372 2147 372 2553 
Q 372 3047 722 3315 
Q 1072 3584 1716 3584 
Q 2034 3584 2315 3537 
Q 2597 3491 2834 3397 
z
" transform="scale(0.015625)"/>
       <path id="DejaVuSans-29" d="M 513 4856 
L 1013 4856 
Q 1481 4119 1714 3412 
Q 1947 2706 1947 2009 
Q 1947 1309 1714 600 
Q 1481 -109 1013 -844 
L 513 -844 
Q 928 -128 1133 580 
Q 1338 1288 1338 2009 
Q 1338 2731 1133 3434 
Q 928 4138 513 4856 
z
" transform="scale(0.015625)"/>
      </defs>
      <use xlink:href="#DejaVuSans-54"/>
      <use xlink:href="#DejaVuSans-69" x="57.958984"/>
      <use xlink:href="#DejaVuSans-6d" x="85.742188"/>
      <use xlink:href="#DejaVuSans-65" x="183.154297"/>
      <use xlink:href="#DejaVuSans-20" x="244.677734"/>
      <use xlink:href="#DejaVuSans-28" x="276.464844"/>
      <use xlink:href="#DejaVuSans-73" x="315.478516"/>
      <use xlink:href="#DejaVuSans-29" x="367.578125"/>
     </g>
    </g>
   </g>
   <g id="matplotlib.axis_2">
    <g id="ytick_1">
     <g id="line2d_8">
      <defs>
       <path id="m7cc43142c5" d="M 0 0 
L -3.5 0 
" style="stroke: #000000; stroke-width: 0.8"/>
      </defs>
      <g>
       <use xlink:href="#m7cc43142c5" x="72" y="297.357864" style="stroke: #000000; stroke-width: 0.8"/>
      </g>
     </g>
     <g id="text_9">
      <!-- −4 -->
      <g transform="translate(50.257812 301.157082) scale(0.1 -0.1)">
       <defs>
        <path id="DejaVuSans-2212" d="M 678 2272 
L 4684 2272 
L 4684 1741 
L 678 1741 
L 678 2272 
z
" transform="scale(0.015625)"/>
       </defs>
       <use xlink:href="#DejaVuSans-2212"/>
       <use xlink:href="#DejaVuSans-34" x="83.789062"/>
      </g>
     </g>
    </g>
    <g id="ytick_2">
     <g id="line2d_9">
      <g>
       <use xlink:href="#m7cc43142c5" x="72" y="246.997526" style="stroke: #000000; stroke-width: 0.8"/>
      </g>
     </g>
     <g id="text_10">
      <!-- −2 -->
      <g transform="translate(50.257812 250.796745) scale(0.1 -0.1)">
       <use xlink:href="#DejaVuSans-2212"/>
       <use xlink:href="#DejaVuSans-32" x="83.789062"/>
      </g>
     </g>
    </g>
    <g id="ytick_3">
     <g id="line2d_10">
      <g>
       <use xlink:href="#m7cc43142c5" x="72" y="196.637188" style="stroke: #000000; stroke-width: 0.8"/>
      </g>
     </g>
     <g id="text_11">
      <!-- 0 -->
      <g transform="translate(58.6375 200.436407) scale(0.1 -0.1)">
       <use xlink:href="#DejaVuSans-30"/>
      </g>
     </g>
    </g>
    <g id="ytick_4">
     <g id="line2d_11">
      <g>
       <use xlink:href="#m7cc43142c5" x="72" y="146.27685" style="stroke: #000000; stroke-width: 0.8"/>
      </g>
     </g>
     <g id="text_12">
      <!-- 2 -->
      <g transform="translate(58.6375 150.076069) scale(0.1 -0.1)">
       <use xlink:href="#DejaVuSans-32"/>
      </g>
     </g>
    </g>
    <g id="ytick_5">
     <g id="line2d_12">
      <g>
       <use xlink:href="#m7cc43142c5" x="72" y="95.916513" style="stroke: #000000; stroke-width: 0.8"/>
      </g>
     </g>
     <g id="text_13">
      <!-- 4 -->
      <g transform="translate(58.6375 99.715731) scale(0.1 -0.1)">
       <use xlink:href="#DejaVuSans-34"/>
      </g>
     </g>
    </g>
    <g id="ytick_6">
     <g id="line2d_13">
      <g>
       <use xlink:href="#m7cc43142c5" x="72" y="45.556175" style="stroke: #000000; stroke-width: 0.8"/>
      </g>
     </g>
     <g id="text_14">
      <!-- 6 -->
      <g transform="translate(58.6375 49.355394) scale(0.1 -0.1)">
       <use xlink:href="#DejaVuSans-36"/>
      </g>
     </g>
    </g>
    <g id="text_15">
     <!-- Bandwidth (Mbps) -->
     <g transform="translate(43.34625 245.327187) rotate(-90) scale(0.14 -0.14)">
      <defs>
       <path id="DejaVuSans-42" d="M 1259 2228 
L 1259 519 
L 2272 519 
Q 2781 519 3026 730 
Q 3272 941 3272 1375 
Q 3272 1813 3026 2020 
Q 2781 2228 2272 2228 
L 1259 2228 
z
M 1259 4147 
L 1259 2741 
L 2194 2741 
Q 2656 2741 2882 2914 
Q 3109 3088 3109 3444 
Q 3109 3797 2882 3972 
Q 2656 4147 2194 4147 
L 1259 4147 
z
M 628 4666 
L 2241 4666 
Q 2963 4666 3353 4366 
Q 3744 4066 3744 3513 
Q 3744 3084 3544 2831 
Q 3344 2578 2956 2516 
Q 3422 2416 3680 2098 
Q 3938 1781 3938 1306 
Q 3938 681 3513 340 
Q 3088 0 2303 0 
L 628 0 
L 628 4666 
z
" transform="scale(0.015625)"/>
       <path id="DejaVuSans-61" d="M 2194 1759 
Q 1497 1759 1228 1600 
Q 959 1441 959 1056 
Q 959 750 1161 570 
Q 1363 391 1709 391 
Q 2188 391 2477 730 
Q 2766 1069 2766 1631 
L 2766 1759 
L 2194 1759 
z
M 3341 1997 
L 3341 0 
L 2766 0 
L 2766 531 
Q 2569 213 2275 61 
Q 1981 -91 1556 -91 
Q 1019 -91 701 211 
Q 384 513 384 1019 
Q 384 1609 779 1909 
Q 1175 2209 1959 2209 
L 2766 2209 
L 2766 2266 
Q 2766 2663 2505 2880 
Q 2244 3097 1772 3097 
Q 1472 3097 1187 3025 
Q 903 2953 641 2809 
L 641 3341 
Q 956 3463 1253 3523 
Q 1550 3584 1831 3584 
Q 2591 3584 2966 3190 
Q 3341 2797 3341 1997 
z
" transform="scale(0.015625)"/>
       <path id="DejaVuSans-6e" d="M 3513 2113 
L 3513 0 
L 2938 0 
L 2938 2094 
Q 2938 2591 2744 2837 
Q 2550 3084 2163 3084 
Q 1697 3084 1428 2787 
Q 1159 2491 1159 1978 
L 1159 0 
L 581 0 
L 581 3500 
L 1159 3500 
L 1159 2956 
Q 1366 3272 1645 3428 
Q 1925 3584 2291 3584 
Q 2894 3584 3203 3211 
Q 3513 2838 3513 2113 
z
" transform="scale(0.015625)"/>
       <path id="DejaVuSans-64" d="M 2906 2969 
L 2906 4863 
L 3481 4863 
L 3481 0 
L 2906 0 
L 2906 525 
Q 2725 213 2448 61 
Q 2172 -91 1784 -91 
Q 1150 -91 751 415 
Q 353 922 353 1747 
Q 353 2572 751 3078 
Q 1150 3584 1784 3584 
Q 2172 3584 2448 3432 
Q 2725 3281 2906 2969 
z
M 947 1747 
Q 947 1113 1208 752 
Q 1469 391 1925 391 
Q 2381 391 2643 752 
Q 2906 1113 2906 1747 
Q 2906 2381 2643 2742 
Q 2381 3103 1925 3103 
Q 1469 3103 1208 2742 
Q 947 2381 947 1747 
z
" transform="scale(0.015625)"/>
       <path id="DejaVuSans-77" d="M 269 3500 
L 844 3500 
L 1563 769 
L 2278 3500 
L 2956 3500 
L 3675 769 
L 4391 3500 
L 4966 3500 
L 4050 0 
L 3372 0 
L 2619 2869 
L 1863 0 
L 1184 0 
L 269 3500 
z
" transform="scale(0.015625)"/>
       <path id="DejaVuSans-74" d="M 1172 4494 
L 1172 3500 
L 2356 3500 
L 2356 3053 
L 1172 3053 
L 1172 1153 
Q 1172 725 1289 603 
Q 1406 481 1766 481 
L 2356 481 
L 2356 0 
L 1766 0 
Q 1100 0 847 248 
Q 594 497 594 1153 
L 594 3053 
L 172 3053 
L 172 3500 
L 594 3500 
L 594 4494 
L 1172 4494 
z
" transform="scale(0.015625)"/>
       <path id="DejaVuSans-68" d="M 3513 2113 
L 3513 0 
L 2938 0 
L 2938 2094 
Q 2938 2591 2744 2837 
Q 2550 3084 2163 3084 
Q 1697 3084 1428 2787 
Q 1159 2491 1159 1978 
L 1159 0 
L 581 0 
L 581 4863 
L 1159 4863 
L 1159 2956 
Q 1366 3272 1645 3428 
Q 1925 3584 2291 3584 
Q 2894 3584 3203 3211 
Q 3513 2838 3513 2113 
z
" transform="scale(0.015625)"/>
       <path id="DejaVuSans-4d" d="M 628 4666 
L 1569 4666 
L 2759 1491 
L 3956 4666 
L 4897 4666 
L 4897 0 
L 4281 0 
L 4281 4097 
L 3078 897 
L 2444 897 
L 1241 4097 
L 1241 0 
L 628 0 
L 628 4666 
z
" transform="scale(0.015625)"/>
       <path id="DejaVuSans-62" d="M 3116 1747 
Q 3116 2381 2855 2742 
Q 2594 3103 2138 3103 
Q 1681 3103 1420 2742 
Q 1159 2381 1159 1747 
Q 1159 1113 1420 752 
Q 1681 391 2138 391 
Q 2594 391 2855 752 
Q 3116 1113 3116 1747 
z
M 1159 2969 
Q 1341 3281 1617 3432 
Q 1894 3584 2278 3584 
Q 2916 3584 3314 3078 
Q 3713 2572 3713 1747 
Q 3713 922 3314 415 
Q 2916 -91 2278 -91 
Q 1894 -91 1617 61 
Q 1341 213 1159 525 
L 1159 0 
L 581 0 
L 581 4863 
L 1159 4863 
L 1159 2969 
z
" transform="scale(0.015625)"/>
       <path id="DejaVuSans-70" d="M 1159 525 
L 1159 -1331 
L 581 -1331 
L 581 3500 
L 1159 3500 
L 1159 2969 
Q 1341 3281 1617 3432 
Q 1894 3584 2278 3584 
Q 2916 3584 3314 3078 
Q 3713 2572 3713 1747 
Q 3713 922 3314 415 
Q 2916 -91 2278 -91 
Q 1894 -91 1617 61 
Q 1341 213 1159 525 
z
M 3116 1747 
Q 3116 2381 2855 2742 
Q 2594 3103 2138 3103 
Q 1681 3103 1420 2742 
Q 1159 2381 1159 1747 
Q 1159 1113 1420 752 
Q 1681 391 2138 391 
Q 2594 391 2855 752 
Q 3116 1113 3116 1747 
z
" transform="scale(0.015625)"/>
      </defs>
      <use xlink:href="#DejaVuSans-42"/>
      <use xlink:href="#DejaVuSans-61" x="68.603516"/>
      <use xlink:href="#DejaVuSans-6e" x="129.882812"/>
      <use xlink:href="#DejaVuSans-64" x="193.261719"/>
      <use xlink:href="#DejaVuSans-77" x="256.738281"/>
      <use xlink:href="#DejaVuSans-69" x="338.525391"/>
      <use xlink:href="#DejaVuSans-64" x="366.308594"/>
      <use xlink:href="#DejaVuSans-74" x="429.785156"/>
      <use xlink:href="#DejaVuSans-68" x="468.994141"/>
      <use xlink:href="#DejaVuSans-20" x="532.373047"/>
      <use xlink:href="#DejaVuSans-28" x="564.160156"/>
      <use xlink:href="#DejaVuSans-4d" x="603.173828"/>
      <use xlink:href="#DejaVuSans-62" x="689.453125"/>
      <use xlink:href="#DejaVuSans-70" x="752.929688"/>
      <use xlink:href="#DejaVuSans-73" x="816.40625"/>
      <use xlink:href="#DejaVuSans-29" x="868.505859"/>
     </g>
    </g>
   </g>
   <g id="line2d_14">
    <path d="M 92.290909 178.007297 
L 92.979904 178.007947 
L 93.6689 219.13271 
L 94.357895 219.127309 
L 95.04689 255.007805 
L 95.735885 255.004853 
L 96.42488 154.090128 
L 97.113876 153.789848 
L 97.802871 229.928899 
L 98.491866 230.20689 
L 99.180861 221.75739 
L 99.869856 221.752743 
L 100.558852 230.799229 
L 101.247847 231.08661 
L 101.936842 238.383408 
L 102.625837 238.669747 
L 103.314833 186.472133 
L 104.003828 187.059322 
L 104.692823 256.174637 
L 105.381818 256.171437 
L 106.070813 264.341232 
L 106.759809 264.630488 
L 107.448804 265.216413 
L 108.137799 265.213687 
L 108.826794 191.42396 
L 109.515789 191.125517 
L 110.204785 181.514264 
L 110.89378 181.784633 
L 111.582775 142.715191 
L 112.27177 142.414098 
L 112.960766 124.937076 
L 113.649761 124.899219 
L 114.338756 67.164186 
L 115.027751 67.1678 
L 115.716746 57.550746 
L 116.405742 63.07307 
L 117.094737 56.088906 
L 117.783732 61.909993 
L 118.472727 56.085636 
L 119.161722 56.661948 
L 119.850718 56.089146 
L 120.539713 61.033469 
L 121.228708 56.089416 
L 121.917703 56.949862 
L 122.606699 56.089416 
L 123.295694 58.409304 
L 123.984689 56.089416 
L 124.673684 58.692511 
L 125.362679 56.093677 
L 126.051675 62.487981 
L 126.74067 56.089656 
L 127.429665 63.366959 
L 128.11866 56.089146 
L 128.807656 59.867729 
L 129.496651 56.089146 
L 130.185646 57.241817 
L 130.874641 56.089416 
L 131.563636 62.199979 
L 132.252632 56.382075 
L 132.941627 63.949357 
L 133.630622 56.089656 
L 134.319617 60.450096 
L 135.008612 56.089416 
L 135.697608 60.449861 
L 136.386603 56.089416 
L 137.075598 58.992911 
L 137.764593 56.089656 
L 138.453589 63.950331 
L 139.142584 56.090677 
L 139.831579 59.282107 
L 140.520574 107.131324 
L 141.209569 107.120488 
L 141.898565 95.181159 
L 142.58756 95.153531 
L 143.276555 135.131604 
L 143.96555 134.83043 
L 144.654545 129.881912 
L 145.343541 129.871605 
L 146.032536 172.467618 
L 146.721531 172.458826 
L 147.410526 246.258275 
L 148.099522 246.253781 
L 148.788517 203.965738 
L 149.477512 203.67073 
L 150.166507 116.464751 
L 150.855502 116.454236 
L 151.544498 186.174029 
L 152.233493 186.458422 
L 152.922488 115.300207 
L 153.611483 114.994452 
L 154.300478 126.090042 
L 154.989474 126.079688 
L 155.678469 56.089416 
L 156.367464 56.658176 
L 157.056459 56.089416 
L 157.745455 59.284596 
L 158.43445 56.089416 
L 159.123445 56.36625 
L 159.81244 56.091157 
L 160.501435 56.36598 
L 161.190431 64.255663 
L 161.879426 63.950593 
L 162.568421 56.085126 
L 163.257416 58.420779 
L 163.946411 56.090406 
L 164.635407 58.990924 
L 165.324402 55.8 
L 166.013397 62.197769 
L 166.702392 56.089146 
L 167.391388 56.36649 
L 168.080383 56.101238 
L 168.769378 57.521733 
L 169.458373 56.089146 
L 170.147368 56.36649 
L 170.836364 56.089146 
L 171.525359 56.366759 
L 172.214354 56.088666 
L 172.903349 56.95037 
L 173.592344 68.630939 
L 174.28134 68.617795 
L 174.970335 56.089146 
L 175.65933 57.241548 
L 176.348325 56.089896 
L 177.037321 56.36649 
L 177.726316 56.089146 
L 178.415311 56.358951 
L 179.104306 56.089416 
L 179.793301 61.033469 
L 180.482297 56.089146 
L 181.171292 56.949623 
L 181.860287 56.089656 
L 182.549282 61.324656 
L 183.238278 56.087646 
L 183.927273 58.701731 
L 184.616268 56.089416 
L 185.305263 56.660451 
L 185.994258 62.798277 
L 186.683254 62.783352 
L 187.372249 115.007943 
L 188.061244 114.997164 
L 188.750239 132.822568 
L 189.439234 133.06861 
L 190.12823 106.840253 
L 190.817225 106.827604 
L 191.50622 150.006923 
L 192.195215 149.998082 
L 192.884211 88.756584 
L 193.573206 88.743894 
L 194.262201 105.965055 
L 194.951196 105.953361 
L 195.640191 221.757472 
L 196.329187 221.752661 
L 197.018182 276.591388 
L 197.707177 276.589609 
L 198.396172 266.091249 
L 199.085167 266.380682 
L 199.774163 283.883165 
L 200.463158 283.881731 
L 201.152153 305.174984 
L 203.219139 305.174824 
L 203.908134 166.932187 
L 204.597129 167.198952 
L 205.286124 194.63243 
L 205.97512 194.625644 
L 206.664115 197.257226 
L 207.35311 197.542837 
L 208.042105 182.090543 
L 208.7311 182.090033 
L 209.420096 262.882975 
L 210.109091 263.171968 
L 210.798086 305.174977 
L 211.487081 305.174824 
L 212.176077 293.508219 
L 212.865072 293.507476 
L 213.554067 295.258233 
L 214.243062 295.549179 
L 214.932057 305.174979 
L 215.621053 305.174824 
L 216.310048 304.591651 
L 216.999043 304.883129 
L 217.688038 247.71613 
L 218.377033 248.004328 
L 219.066029 249.75787 
L 219.755024 250.046131 
L 220.444019 174.798938 
L 221.133014 174.499276 
L 221.82201 154.965136 
L 222.511005 154.665052 
L 223.2 67.756187 
L 223.888995 67.450823 
L 224.57799 81.172974 
L 225.266986 81.16006 
L 225.955981 140.381657 
L 226.644976 140.372117 
L 227.333971 152.632094 
L 228.022967 152.623104 
L 228.711962 145.633991 
L 229.400957 145.915448 
L 230.089952 167.215678 
L 230.778947 167.207114 
L 231.467943 141.840341 
L 232.156938 142.122906 
L 232.845933 145.048545 
L 233.534928 145.039271 
L 234.223923 128.423396 
L 234.912919 128.714874 
L 235.601914 56.096947 
L 236.290909 60.150985 
L 236.979904 65.714733 
L 237.6689 65.70117 
L 238.357895 117.051342 
L 239.04689 116.742482 
L 239.735885 202.799061 
L 240.42488 202.793491 
L 241.113876 305.174979 
L 243.180861 305.174824 
L 243.869856 234.007594 
L 244.558852 233.711854 
L 245.247847 240.716131 
L 245.936842 240.712108 
L 246.625837 297.591585 
L 247.314833 297.891102 
L 248.003828 305.174977 
L 255.582775 305.174827 
L 256.27177 275.424741 
L 256.960766 275.423124 
L 257.649761 305.174977 
L 258.338756 305.174984 
L 259.027751 287.383151 
L 259.716746 287.673633 
L 260.405742 295.841571 
L 261.094737 296.132552 
L 261.783732 287.383151 
L 262.472727 287.381987 
L 263.161722 271.049742 
L 263.850718 271.339263 
L 264.539713 250.341153 
L 265.228708 250.337934 
L 265.917703 262.299544 
L 266.606699 262.297001 
L 267.295694 258.799708 
L 267.984689 259.088694 
L 268.673684 305.174974 
L 269.362679 305.174861 
L 270.051675 287.383212 
L 270.74067 287.673633 
L 271.429665 302.841632 
L 272.11866 303.133086 
L 272.807656 305.174974 
L 281.764593 305.174835 
L 282.453589 280.091389 
L 283.142584 280.08984 
L 283.831579 305.174977 
L 303.81244 305.174803 
L 304.501435 241.882673 
L 305.190431 241.879051 
L 305.879426 297.008237 
L 306.568421 297.299287 
L 307.257416 290.008333 
L 307.946411 290.007818 
L 308.635407 305.174971 
L 310.702392 305.174824 
L 311.391388 294.091626 
L 312.080383 294.382381 
L 312.769378 202.799061 
L 313.458373 203.084552 
L 314.147368 287.966489 
L 314.836364 287.965338 
L 315.525359 303.133292 
L 316.214354 303.133021 
L 316.903349 305.174982 
L 318.970335 305.174827 
L 319.65933 249.757752 
L 320.348325 250.046303 
L 321.037321 285.925678 
L 321.726316 285.922659 
L 322.415311 227.007765 
L 323.104306 227.002844 
L 323.793301 272.216595 
L 324.482297 272.213999 
L 325.171292 206.882732 
L 325.860287 206.876272 
L 326.549282 219.424473 
L 327.238278 219.715617 
L 327.927273 264.049562 
L 328.616268 263.75543 
L 329.305263 248.591194 
L 329.994258 248.879386 
L 330.683254 240.424398 
L 331.372249 240.420623 
L 332.061244 218.840776 
L 332.750239 218.544829 
L 333.439234 189.965726 
L 334.12823 190.256932 
L 334.817225 249.466145 
L 335.50622 249.462759 
L 336.195215 305.175123 
L 336.884211 305.174682 
L 337.573206 242.757814 
L 338.262201 242.462227 
L 338.951196 221.757472 
L 339.640191 222.044347 
L 340.329187 161.386265 
L 341.018182 161.077736 
L 341.707177 220.882463 
L 342.396172 220.877604 
L 343.085167 216.507517 
L 343.774163 216.502587 
L 344.463158 190.257282 
L 345.152153 190.543207 
L 345.841148 184.132228 
L 346.530144 183.835106 
L 347.219139 222.632572 
L 347.908134 222.627719 
L 348.597129 280.674728 
L 349.286124 280.673212 
L 349.97512 268.716355 
L 350.664115 268.743264 
L 351.35311 247.132668 
L 352.042105 247.422042 
L 352.7311 305.174977 
L 354.798086 305.174769 
L 355.487081 266.382919 
L 356.176077 266.672328 
L 356.865072 208.34137 
L 357.554067 208.626098 
L 358.243062 150.590261 
L 358.932057 150.581134 
L 359.621053 151.1736 
L 360.310048 151.165142 
L 360.999043 182.777769 
L 361.688038 182.562798 
L 362.377033 57.839164 
L 363.066029 57.826679 
L 363.755024 56.089146 
L 364.444019 57.242056 
L 365.133014 56.089416 
L 365.82201 57.241548 
L 366.511005 56.089146 
L 367.2 59.289069 
L 367.888995 56.089146 
L 368.57799 61.033734 
L 369.266986 56.091667 
L 369.955981 57.532996 
L 370.644976 60.756125 
L 371.333971 60.741547 
L 372.022967 153.223779 
L 372.711962 153.197814 
L 373.400957 127.548732 
L 374.089952 127.538655 
L 374.778947 110.631947 
L 375.467943 113.852206 
L 376.156938 74.756472 
L 376.845933 74.742721 
L 377.534928 58.134851 
L 378.223923 58.112618 
L 378.912919 56.090677 
L 379.601914 56.949354 
L 380.290909 56.089146 
L 380.979904 56.949623 
L 381.6689 56.083625 
L 382.357895 60.746966 
L 383.04689 66.297582 
L 383.735885 66.28454 
L 384.42488 84.089667 
L 385.113876 84.076679 
L 385.802871 165.472927 
L 386.491866 165.16587 
L 387.180861 162.256876 
L 387.869856 162.248878 
L 388.558852 56.089416 
L 389.247847 61.325155 
L 389.936842 56.089146 
L 390.625837 65.118522 
L 391.314833 56.093947 
L 392.003828 56.072793 
L 392.692823 64.272703 
L 393.381818 64.227412 
L 394.070813 95.464541 
L 394.759809 95.744355 
L 395.448804 114.432929 
L 396.137799 114.402189 
L 396.826794 130.466138 
L 397.515789 130.172332 
L 398.204785 224.965837 
L 398.89378 225.252971 
L 399.582775 129.053376 
L 400.27177 129.243938 
L 400.960766 162.263278 
L 401.649761 162.534026 
L 402.338756 232.549327 
L 403.027751 232.837172 
L 403.716746 200.465809 
L 404.405742 200.167905 
L 405.094737 299.633383 
L 405.783732 299.924355 
L 406.472727 305.174979 
L 418.185646 305.174824 
L 418.874641 283.591496 
L 419.563636 283.881731 
L 420.252632 305.174982 
L 426.453589 305.174992 
L 427.142584 189.965726 
L 427.831579 189.95866 
L 428.520574 159.04867 
L 429.209569 159.039893 
L 429.898565 185.882476 
L 430.58756 185.875049 
L 431.276555 205.42428 
L 431.96555 205.127275 
L 432.654545 156.423791 
L 433.343541 156.124836 
L 434.032536 223.216495 
L 434.721531 223.215144 
L 435.410526 145.923553 
L 436.099522 145.914638 
L 436.788517 173.923803 
L 437.477512 174.215329 
L 438.166507 58.71542 
L 438.855502 63.365982 
L 439.544498 151.757087 
L 440.233493 152.040197 
L 440.922488 185.008216 
L 441.611483 185.004659 
L 442.300478 170.425409 
L 442.989474 170.125358 
L 443.678469 124.340945 
L 444.367464 124.328457 
L 445.056459 169.549588 
L 445.745455 169.832572 
L 446.43445 147.090057 
L 447.123445 147.372758 
L 447.81244 207.757439 
L 448.501435 207.751738 
L 449.190431 197.840566 
L 449.879426 197.542732 
L 450.568421 160.215488 
L 451.257416 160.498624 
L 451.946411 122.881482 
L 452.635407 122.87132 
L 453.324402 171.29878 
L 454.013397 171.002316 
L 454.702392 100.131056 
L 455.391388 99.828354 
L 456.080383 126.381884 
L 456.769378 126.07932 
L 457.458373 201.340601 
L 458.147368 201.626436 
L 458.836364 189.389967 
L 459.525359 189.368652 
L 460.214354 153.506788 
L 460.903349 153.206624 
L 461.592344 196.090775 
L 462.28134 196.375869 
L 462.970335 170.715572 
L 463.65933 170.999169 
L 464.348325 196.382337 
L 465.037321 196.376427 
L 465.726316 179.757692 
L 466.415311 179.458451 
L 467.104306 148.840397 
L 467.793301 148.830866 
L 468.482297 86.423021 
L 469.171292 86.118721 
L 469.860287 156.132881 
L 470.549282 155.83058 
L 471.238278 128.131534 
L 471.927273 127.829975 
L 472.616268 232.257433 
L 473.305263 232.545183 
L 473.994258 202.507279 
L 474.683254 202.209492 
L 475.372249 271.049706 
L 476.061244 271.047577 
L 476.750239 217.382428 
L 477.439234 217.384691 
L 478.12823 270.174664 
L 478.817225 269.880947 
L 479.50622 305.174979 
L 495.35311 305.174819 
L 496.042105 307.8 
L 498.109091 307.8 
L 498.109091 307.8 
" clip-path="url(#pb0bf22a008)" style="fill: none; stroke: #1f77b4; stroke-width: 1.5; stroke-linecap: square"/>
   </g>
   <g id="line2d_15">
    <path d="M 92.290909 216.841487 
L 92.979904 221.163391 
L 93.6689 228.753482 
L 94.357895 229.810483 
L 95.04689 222.905423 
L 95.735885 237.258443 
L 96.42488 237.493606 
L 97.113876 187.120443 
L 97.802871 194.284338 
L 98.491866 254.657719 
L 99.180861 244.247002 
L 99.869856 262.437483 
L 100.558852 264.373495 
L 101.247847 263.411977 
L 101.936842 257.850789 
L 102.625837 191.372404 
L 103.314833 202.041426 
L 104.003828 181.980632 
L 104.692823 184.195083 
L 105.381818 142.719792 
L 106.070813 154.885689 
L 106.759809 125.37809 
L 107.448804 130.217706 
L 108.137799 68.989734 
L 108.826794 82.661536 
L 109.515789 60.575617 
L 110.204785 70.48487 
L 110.89378 58.383195 
L 111.582775 71.673739 
L 112.27177 58.801298 
L 112.960766 62.973556 
L 113.649761 59.731864 
L 114.338756 66.803083 
L 115.027751 59.800731 
L 115.716746 63.379537 
L 116.405742 60.857084 
L 117.094737 63.852143 
L 117.783732 60.397484 
L 118.472727 64.612078 
L 119.161722 60.693889 
L 119.850718 68.08301 
L 120.539713 59.949012 
L 121.228708 69.654937 
L 121.917703 59.749097 
L 122.606699 66.476562 
L 123.295694 59.948221 
L 123.984689 63.691682 
L 124.673684 60.317844 
L 125.362679 68.144055 
L 126.051675 60.111774 
L 126.74067 70.238905 
L 127.429665 59.742289 
L 128.11866 67.010156 
L 128.807656 59.872051 
L 129.496651 66.888877 
L 130.185646 59.795333 
L 130.874641 65.559545 
L 131.563636 60.221774 
L 132.252632 69.905539 
L 132.941627 59.477066 
L 133.630622 66.063958 
L 134.319617 110.320676 
L 135.697608 98.70881 
L 136.386603 101.136907 
L 137.075598 138.543378 
L 137.764593 128.537434 
L 138.453589 133.529369 
L 139.142584 134.179291 
L 139.831579 175.19485 
L 140.520574 164.743416 
L 141.209569 246.939177 
L 141.898565 234.656008 
L 142.58756 205.409248 
L 143.276555 206.426786 
L 143.96555 119.604265 
L 144.654545 127.613412 
L 145.343541 187.599225 
L 146.032536 180.881118 
L 146.721531 116.666563 
L 147.410526 133.131842 
L 148.788517 122.169685 
L 149.477512 59.185102 
L 150.166507 76.95709 
L 150.855502 59.941133 
L 151.544498 63.426286 
L 152.233493 58.808426 
L 152.922488 66.694612 
L 153.611483 59.99324 
L 154.300478 61.068123 
L 154.989474 68.135512 
L 155.678469 67.999452 
L 156.367464 61.233348 
L 157.056459 64.665351 
L 157.745455 60.877542 
L 158.43445 63.99681 
L 159.123445 60.49438 
L 159.81244 68.38784 
L 160.501435 59.955256 
L 161.190431 62.683318 
L 161.879426 60.758412 
L 162.568421 63.124087 
L 163.257416 60.448779 
L 163.946411 62.284636 
L 164.635407 61.084207 
L 165.324402 61.656216 
L 166.013397 61.024368 
L 166.702392 62.279887 
L 167.391388 73.381055 
L 168.080383 71.735507 
L 168.769378 61.188367 
L 169.458373 64.161927 
L 170.147368 61.062439 
L 170.836364 61.029864 
L 171.525359 61.181173 
L 172.214354 62.530409 
L 172.903349 61.034121 
L 173.592344 66.143862 
L 174.28134 60.301257 
L 174.970335 62.914436 
L 175.65933 61.000026 
L 176.348325 66.670447 
L 177.037321 60.002724 
L 177.726316 65.075935 
L 178.415311 60.636945 
L 179.104306 62.439569 
L 179.793301 67.201022 
L 180.482297 67.355269 
L 181.171292 118.730806 
L 181.860287 110.874452 
L 182.549282 136.287823 
L 183.238278 132.359112 
L 183.927273 111.065921 
L 184.616268 110.505187 
L 185.305263 153.485999 
L 185.994258 145.126416 
L 186.683254 92.823329 
L 187.372249 103.121099 
L 188.061244 109.308679 
L 188.750239 104.131984 
L 189.439234 222.443717 
L 190.12823 208.87553 
L 190.817225 276.159521 
L 191.50622 263.925869 
L 192.195215 266.142889 
L 192.884211 257.925313 
L 193.573206 284.307741 
L 194.262201 275.96761 
L 194.951196 304.175021 
L 195.640191 299.534483 
L 196.329187 302.513184 
L 197.018182 300.127319 
L 197.707177 166.517462 
L 198.396172 186.795439 
L 199.085167 193.861518 
L 199.774163 191.759442 
L 200.463158 195.483647 
L 201.152153 206.162054 
L 201.841148 180.533214 
L 202.530144 181.918262 
L 203.219139 260.6754 
L 203.908134 249.644024 
L 204.597129 303.299989 
L 205.286124 296.173684 
L 205.97512 291.881099 
L 206.664115 286.287843 
L 207.35311 293.780404 
L 208.042105 289.980444 
L 208.7311 303.064083 
L 209.420096 301.220199 
L 210.109091 301.3261 
L 210.798086 300.997659 
L 211.487081 245.131061 
L 212.176077 253.836516 
L 212.865072 247.361848 
L 213.554067 248.433245 
L 214.243062 173.518593 
L 214.932057 189.828276 
L 215.621053 154.241528 
L 216.310048 158.791355 
L 216.999043 68.823413 
L 217.688038 89.533538 
L 218.377033 82.801041 
L 219.066029 84.450374 
L 219.755024 140.860436 
L 220.444019 139.531465 
L 221.133014 153.896487 
L 221.82201 150.663988 
L 223.2 145.095944 
L 223.888995 170.072798 
L 224.57799 165.164033 
L 225.266986 144.62936 
L 225.955981 148.304094 
L 226.644976 147.086711 
L 227.333971 145.293913 
L 228.022967 130.617928 
L 228.711962 135.493879 
L 229.400957 59.657429 
L 230.089952 75.21047 
L 230.778947 68.467823 
L 231.467943 71.235538 
L 232.156938 119.296659 
L 232.845933 117.087339 
L 233.534928 203.244877 
L 234.223923 189.347787 
L 234.912919 304.5824 
L 235.601914 283.304355 
L 236.290909 305.532171 
L 236.979904 295.867525 
L 237.6689 235.734299 
L 238.357895 236.751925 
L 239.04689 241.262556 
L 239.735885 239.528868 
L 240.42488 295.012715 
L 241.113876 290.948942 
L 241.802871 301.214468 
L 242.491866 299.065548 
L 243.180861 301.909357 
L 243.869856 297.785324 
L 244.558852 302.664636 
L 245.247847 301.494277 
L 245.936842 302.243695 
L 246.625837 301.517002 
L 248.003828 301.447469 
L 249.381818 301.447452 
L 250.070813 272.282823 
L 250.759809 276.97921 
L 251.448804 301.499164 
L 252.137799 297.357471 
L 252.826794 283.875868 
L 253.515789 288.9033 
L 254.204785 292.307072 
L 254.89378 289.454042 
L 255.582775 284.078805 
L 256.27177 286.930975 
L 256.960766 268.315396 
L 257.649761 270.499912 
L 258.338756 247.719992 
L 259.027751 252.275868 
L 259.716746 259.630565 
L 260.405742 259.488292 
L 261.094737 256.039703 
L 261.783732 258.678986 
L 262.472727 301.757625 
L 263.161722 293.965923 
L 263.850718 284.570154 
L 264.539713 287.239729 
L 265.228708 300.065786 
L 265.917703 294.392834 
L 266.606699 302.109482 
L 267.295694 302.677715 
L 267.984689 301.959302 
L 268.673684 300.302673 
L 269.362679 301.533821 
L 270.051675 301.460679 
L 270.74067 301.663647 
L 271.429665 301.46932 
L 275.563636 301.449093 
L 276.252632 276.857461 
L 276.941627 280.817391 
L 277.630622 301.490239 
L 278.319617 298.000019 
L 279.008612 301.337897 
L 279.697608 302.967735 
L 280.386603 301.46813 
L 281.075598 299.590496 
L 281.764593 301.604493 
L 283.142584 301.740024 
L 283.831579 301.447451 
L 297.611483 301.447449 
L 298.300478 239.400759 
L 298.989474 249.392002 
L 299.678469 293.551212 
L 300.367464 286.314914 
L 301.056459 286.270893 
L 301.745455 291.732576 
L 302.43445 301.484626 
L 303.123445 295.178487 
L 303.81244 301.759378 
L 304.501435 302.359039 
L 305.190431 291.380952 
L 305.879426 291.569511 
L 306.568421 201.245958 
L 307.257416 216.191783 
L 307.946411 284.831928 
L 308.635407 273.943047 
L 309.324402 299.007717 
L 310.013397 302.817301 
L 310.702392 301.502323 
L 311.391388 294.755907 
L 312.080383 302.21615 
L 312.769378 301.224507 
L 313.458373 248.419934 
L 314.147368 256.159527 
L 314.836364 282.840359 
L 315.525359 278.058977 
L 316.214354 224.628269 
L 316.903349 237.876085 
L 317.592344 269.210177 
L 318.28134 260.681253 
L 318.970335 205.164853 
L 319.65933 219.888157 
L 320.348325 218.237772 
L 321.037321 214.082324 
L 321.726316 261.543765 
L 322.415311 259.818888 
L 323.104306 246.912006 
L 323.793301 247.720941 
L 324.482297 238.893086 
L 325.171292 237.510365 
L 325.860287 218.408847 
L 326.549282 222.397603 
L 327.238278 189.695492 
L 327.927273 195.200077 
L 328.616268 247.502595 
L 329.305263 240.781023 
L 329.994258 302.191239 
L 330.683254 294.947946 
L 331.372249 241.381836 
L 332.061244 245.477967 
L 332.750239 221.59875 
L 333.439234 221.417977 
L 334.12823 162.006898 
L 334.817225 175.749545 
L 335.50622 219.465041 
L 336.195215 212.721898 
L 336.884211 214.484847 
L 337.573206 220.053499 
L 338.262201 189.969199 
L 338.951196 190.223083 
L 339.640191 184.491527 
L 340.329187 186.290339 
L 341.018182 222.556166 
L 341.707177 218.042843 
L 342.396172 278.655389 
L 343.085167 269.597138 
L 344.463158 265.180145 
L 345.152153 246.66192 
L 345.841148 245.457815 
L 346.530144 303.292328 
L 347.219139 294.65685 
L 347.908134 302.331214 
L 348.597129 302.496926 
L 349.286124 263.955294 
L 349.97512 265.885802 
L 350.664115 207.325439 
L 351.35311 217.328405 
L 352.042105 150.524594 
L 352.7311 163.397122 
L 353.420096 150.323019 
L 354.109091 156.562301 
L 354.798086 181.344903 
L 355.487081 181.979845 
L 356.176077 59.728716 
L 356.865072 79.930926 
L 357.554067 59.378043 
L 358.243062 61.134832 
L 358.932057 59.311562 
L 359.621053 70.969722 
L 360.310048 59.164374 
L 360.999043 63.591362 
L 361.688038 59.158266 
L 362.377033 66.719787 
L 363.066029 60.301274 
L 363.755024 63.626168 
L 364.444019 65.229932 
L 365.133014 65.698141 
L 365.82201 156.001422 
L 366.511005 142.215792 
L 367.2 130.975615 
L 367.888995 133.224258 
L 368.57799 114.966645 
L 369.266986 113.562376 
L 369.955981 79.153608 
L 370.644976 87.421214 
L 371.333971 62.701377 
L 372.022967 66.669716 
L 372.711962 59.457384 
L 373.400957 64.913265 
L 374.089952 59.923916 
L 374.778947 63.015279 
L 375.467943 60.319489 
L 376.156938 65.968204 
L 376.845933 70.219617 
L 377.534928 70.449326 
L 378.223923 88.509919 
L 378.912919 85.864437 
L 379.601914 168.088605 
L 380.290909 154.540097 
L 380.979904 165.269275 
L 381.6689 162.630713 
L 382.357895 61.429281 
L 383.04689 76.33623 
L 383.735885 60.546655 
L 384.42488 72.319617 
L 385.113876 58.654018 
L 385.802871 69.648604 
L 386.491866 66.750197 
L 387.180861 67.631171 
L 387.869856 97.821194 
L 388.558852 95.802519 
L 389.247847 118.247566 
L 389.936842 114.200549 
L 390.625837 134.143199 
L 391.314833 128.384549 
L 392.003828 226.887952 
L 392.692823 209.939465 
L 393.381818 132.400826 
L 394.070813 144.1669 
L 394.759809 165.065849 
L 395.448804 153.635615 
L 396.137799 233.040413 
L 396.826794 228.742749 
L 397.515789 200.914719 
L 398.204785 201.475331 
L 398.89378 298.04432 
L 399.582775 278.180007 
L 400.27177 303.935528 
L 400.960766 303.012107 
L 401.649761 303.642183 
L 402.338756 294.672164 
L 403.027751 302.928112 
L 403.716746 302.008239 
L 404.405742 302.703722 
L 405.094737 301.498113 
L 408.539713 301.44774 
L 411.984689 301.447443 
L 412.673684 280.288899 
L 413.362679 283.981704 
L 414.051675 301.439013 
L 414.74067 298.525619 
L 415.429665 301.348022 
L 416.11866 302.762251 
L 416.807656 301.441006 
L 417.496651 299.87377 
L 418.185646 301.580048 
L 419.563636 301.695842 
L 420.252632 301.44761 
L 420.941627 188.505359 
L 421.630622 206.691756 
L 422.319617 158.396259 
L 423.008612 165.424209 
L 423.697608 184.252001 
L 424.386603 190.225623 
L 425.075598 203.322275 
L 425.764593 203.046903 
L 426.453589 156.160994 
L 427.142584 162.515465 
L 427.831579 223.329059 
L 428.520574 212.076661 
L 429.209569 147.381587 
L 430.58756 174.859488 
L 431.276555 166.730033 
L 431.96555 61.487151 
L 432.654545 90.248201 
L 433.343541 152.539544 
L 434.032536 139.311319 
L 434.721531 184.733892 
L 435.410526 188.365239 
L 436.099522 171.366863 
L 436.788517 166.448358 
L 437.477512 127.053351 
L 438.166507 132.336684 
L 438.855502 172.09394 
L 439.544498 165.976971 
L 440.233493 148.542878 
L 440.922488 155.160923 
L 441.611483 207.970529 
L 442.300478 195.694276 
L 442.989474 198.488972 
L 443.678469 200.697511 
L 444.367464 162.204926 
L 445.056459 163.160421 
L 445.745455 125.125471 
L 446.43445 132.352011 
L 447.123445 172.442902 
L 447.81244 167.697421 
L 448.501435 101.822578 
L 449.879426 128.301573 
L 450.568421 121.798971 
L 451.257416 202.081227 
L 452.635407 190.455396 
L 453.324402 188.810622 
L 454.013397 155.526715 
L 454.702392 155.393682 
L 455.391388 197.887098 
L 456.080383 192.089529 
L 456.769378 171.949443 
L 457.458373 177.746287 
L 458.147368 196.579956 
L 458.836364 189.942902 
L 459.525359 180.458941 
L 460.214354 184.529178 
L 460.903349 150.513464 
L 461.592344 153.230585 
L 462.28134 88.92343 
L 462.970335 100.510481 
L 463.65933 157.451066 
L 464.348325 149.607972 
L 465.037321 129.424654 
L 465.726316 137.824983 
L 466.415311 232.318025 
L 467.104306 211.597988 
L 467.793301 203.451091 
L 468.482297 208.385705 
L 469.171292 271.55058 
L 469.860287 251.863162 
L 470.549282 217.883763 
L 471.238278 227 
L 471.927273 269.766547 
L 472.616268 255.410363 
L 473.305263 302.689373 
L 473.994258 300.312919 
L 474.683254 302.784912 
L 475.372249 297.372033 
L 476.061244 302.447359 
L 476.750239 299.62673 
L 477.439234 302.692212 
L 478.12823 301.763448 
L 478.817225 301.859007 
L 479.50622 301.447441 
L 489.152153 301.447446 
L 489.841148 304.02105 
L 490.530144 303.606434 
L 491.219139 304.016502 
L 493.286124 303.80824 
L 493.97512 304.025823 
L 498.109091 303.978817 
L 498.109091 303.978817 
" clip-path="url(#pb0bf22a008)" style="fill: none; stroke: #ff7f0e; stroke-width: 1.5; stroke-linecap: square"/>
   </g>
   <g id="patch_3">
    <path d="M 72 320.4 
L 72 43.2 
" style="fill: none; stroke: #000000; stroke-width: 0.8; stroke-linejoin: miter; stroke-linecap: square"/>
   </g>
   <g id="patch_4">
    <path d="M 518.4 320.4 
L 518.4 43.2 
" style="fill: none; stroke: #000000; stroke-width: 0.8; stroke-linejoin: miter; stroke-linecap: square"/>
   </g>
   <g id="patch_5">
    <path d="M 72 320.4 
L 518.4 320.4 
" style="fill: none; stroke: #000000; stroke-width: 0.8; stroke-linejoin: miter; stroke-linecap: square"/>
   </g>
   <g id="patch_6">
    <path d="M 72 43.2 
L 518.4 43.2 
" style="fill: none; stroke: #000000; stroke-width: 0.8; stroke-linejoin: miter; stroke-linecap: square"/>
   </g>
   <g id="text_16">
    <!-- Prediction vs Collected -->
    <g transform="translate(226.866562 37.2) scale(0.12 -0.12)">
     <defs>
      <path id="DejaVuSans-50" d="M 1259 4147 
L 1259 2394 
L 2053 2394 
Q 2494 2394 2734 2622 
Q 2975 2850 2975 3272 
Q 2975 3691 2734 3919 
Q 2494 4147 2053 4147 
L 1259 4147 
z
M 628 4666 
L 2053 4666 
Q 2838 4666 3239 4311 
Q 3641 3956 3641 3272 
Q 3641 2581 3239 2228 
Q 2838 1875 2053 1875 
L 1259 1875 
L 1259 0 
L 628 0 
L 628 4666 
z
" transform="scale(0.015625)"/>
      <path id="DejaVuSans-72" d="M 2631 2963 
Q 2534 3019 2420 3045 
Q 2306 3072 2169 3072 
Q 1681 3072 1420 2755 
Q 1159 2438 1159 1844 
L 1159 0 
L 581 0 
L 581 3500 
L 1159 3500 
L 1159 2956 
Q 1341 3275 1631 3429 
Q 1922 3584 2338 3584 
Q 2397 3584 2469 3576 
Q 2541 3569 2628 3553 
L 2631 2963 
z
" transform="scale(0.015625)"/>
      <path id="DejaVuSans-63" d="M 3122 3366 
L 3122 2828 
Q 2878 2963 2633 3030 
Q 2388 3097 2138 3097 
Q 1578 3097 1268 2742 
Q 959 2388 959 1747 
Q 959 1106 1268 751 
Q 1578 397 2138 397 
Q 2388 397 2633 464 
Q 2878 531 3122 666 
L 3122 134 
Q 2881 22 2623 -34 
Q 2366 -91 2075 -91 
Q 1284 -91 818 406 
Q 353 903 353 1747 
Q 353 2603 823 3093 
Q 1294 3584 2113 3584 
Q 2378 3584 2631 3529 
Q 2884 3475 3122 3366 
z
" transform="scale(0.015625)"/>
      <path id="DejaVuSans-6f" d="M 1959 3097 
Q 1497 3097 1228 2736 
Q 959 2375 959 1747 
Q 959 1119 1226 758 
Q 1494 397 1959 397 
Q 2419 397 2687 759 
Q 2956 1122 2956 1747 
Q 2956 2369 2687 2733 
Q 2419 3097 1959 3097 
z
M 1959 3584 
Q 2709 3584 3137 3096 
Q 3566 2609 3566 1747 
Q 3566 888 3137 398 
Q 2709 -91 1959 -91 
Q 1206 -91 779 398 
Q 353 888 353 1747 
Q 353 2609 779 3096 
Q 1206 3584 1959 3584 
z
" transform="scale(0.015625)"/>
      <path id="DejaVuSans-76" d="M 191 3500 
L 800 3500 
L 1894 563 
L 2988 3500 
L 3597 3500 
L 2284 0 
L 1503 0 
L 191 3500 
z
" transform="scale(0.015625)"/>
      <path id="DejaVuSans-43" d="M 4122 4306 
L 4122 3641 
Q 3803 3938 3442 4084 
Q 3081 4231 2675 4231 
Q 1875 4231 1450 3742 
Q 1025 3253 1025 2328 
Q 1025 1406 1450 917 
Q 1875 428 2675 428 
Q 3081 428 3442 575 
Q 3803 722 4122 1019 
L 4122 359 
Q 3791 134 3420 21 
Q 3050 -91 2638 -91 
Q 1578 -91 968 557 
Q 359 1206 359 2328 
Q 359 3453 968 4101 
Q 1578 4750 2638 4750 
Q 3056 4750 3426 4639 
Q 3797 4528 4122 4306 
z
" transform="scale(0.015625)"/>
      <path id="DejaVuSans-6c" d="M 603 4863 
L 1178 4863 
L 1178 0 
L 603 0 
L 603 4863 
z
" transform="scale(0.015625)"/>
     </defs>
     <use xlink:href="#DejaVuSans-50"/>
     <use xlink:href="#DejaVuSans-72" x="58.552734"/>
     <use xlink:href="#DejaVuSans-65" x="97.416016"/>
     <use xlink:href="#DejaVuSans-64" x="158.939453"/>
     <use xlink:href="#DejaVuSans-69" x="222.416016"/>
     <use xlink:href="#DejaVuSans-63" x="250.199219"/>
     <use xlink:href="#DejaVuSans-74" x="305.179688"/>
     <use xlink:href="#DejaVuSans-69" x="344.388672"/>
     <use xlink:href="#DejaVuSans-6f" x="372.171875"/>
     <use xlink:href="#DejaVuSans-6e" x="433.353516"/>
     <use xlink:href="#DejaVuSans-20" x="496.732422"/>
     <use xlink:href="#DejaVuSans-76" x="528.519531"/>
     <use xlink:href="#DejaVuSans-73" x="587.699219"/>
     <use xlink:href="#DejaVuSans-20" x="639.798828"/>
     <use xlink:href="#DejaVuSans-43" x="671.585938"/>
     <use xlink:href="#DejaVuSans-6f" x="741.410156"/>
     <use xlink:href="#DejaVuSans-6c" x="802.591797"/>
     <use xlink:href="#DejaVuSans-6c" x="830.375"/>
     <use xlink:href="#DejaVuSans-65" x="858.158203"/>
     <use xlink:href="#DejaVuSans-63" x="919.681641"/>
     <use xlink:href="#DejaVuSans-74" x="974.662109"/>
     <use xlink:href="#DejaVuSans-65" x="1013.871094"/>
     <use xlink:href="#DejaVuSans-64" x="1075.394531"/>
    </g>
   </g>
   <g id="legend_1">
    <g id="patch_7">
     <path d="M 79 315.4 
L 157.940625 315.4 
Q 159.940625 315.4 159.940625 313.4 
L 159.940625 285.04375 
Q 159.940625 283.04375 157.940625 283.04375 
L 79 283.04375 
Q 77 283.04375 77 285.04375 
L 77 313.4 
Q 77 315.4 79 315.4 
z
" style="fill: #ffffff; opacity: 0.8; stroke: #cccccc; stroke-linejoin: miter"/>
    </g>
    <g id="line2d_16">
     <path d="M 81 291.142187 
L 91 291.142187 
L 101 291.142187 
" style="fill: none; stroke: #1f77b4; stroke-width: 1.5; stroke-linecap: square"/>
    </g>
    <g id="text_17">
     <!-- Input -->
     <g transform="translate(109 294.642187) scale(0.1 -0.1)">
      <defs>
       <path id="DejaVuSans-49" d="M 628 4666 
L 1259 4666 
L 1259 0 
L 628 0 
L 628 4666 
z
" transform="scale(0.015625)"/>
       <path id="DejaVuSans-75" d="M 544 1381 
L 544 3500 
L 1119 3500 
L 1119 1403 
Q 1119 906 1312 657 
Q 1506 409 1894 409 
Q 2359 409 2629 706 
Q 2900 1003 2900 1516 
L 2900 3500 
L 3475 3500 
L 3475 0 
L 2900 0 
L 2900 538 
Q 2691 219 2414 64 
Q 2138 -91 1772 -91 
Q 1169 -91 856 284 
Q 544 659 544 1381 
z
M 1991 3584 
L 1991 3584 
z
" transform="scale(0.015625)"/>
      </defs>
      <use xlink:href="#DejaVuSans-49"/>
      <use xlink:href="#DejaVuSans-6e" x="29.492188"/>
      <use xlink:href="#DejaVuSans-70" x="92.871094"/>
      <use xlink:href="#DejaVuSans-75" x="156.347656"/>
      <use xlink:href="#DejaVuSans-74" x="219.726562"/>
     </g>
    </g>
    <g id="line2d_17">
     <path d="M 81 305.820312 
L 91 305.820312 
L 101 305.820312 
" style="fill: none; stroke: #ff7f0e; stroke-width: 1.5; stroke-linecap: square"/>
    </g>
    <g id="text_18">
     <!-- Predicted -->
     <g transform="translate(109 309.320312) scale(0.1 -0.1)">
      <use xlink:href="#DejaVuSans-50"/>
      <use xlink:href="#DejaVuSans-72" x="58.552734"/>
      <use xlink:href="#DejaVuSans-65" x="97.416016"/>
      <use xlink:href="#DejaVuSans-64" x="158.939453"/>
      <use xlink:href="#DejaVuSans-69" x="222.416016"/>
      <use xlink:href="#DejaVuSans-63" x="250.199219"/>
      <use xlink:href="#DejaVuSans-74" x="305.179688"/>
      <use xlink:href="#DejaVuSans-65" x="344.388672"/>
      <use xlink:href="#DejaVuSans-64" x="405.912109"/>
     </g>
    </g>
   </g>
  </g>
 </g>
 <defs>
  <clipPath id="pb0bf22a008">
   <rect x="72" y="43.2" width="446.4" height="277.2"/>
  </clipPath>
 </defs>
</svg>
