<?xml version="1.0" encoding="utf-8" standalone="no"?>
<!DOCTYPE svg PUBLIC "-//W3C//DTD SVG 1.1//EN"
  "http://www.w3.org/Graphics/SVG/1.1/DTD/svg11.dtd">
<svg xmlns:xlink="http://www.w3.org/1999/xlink" width="576pt" height="360pt" viewBox="0 0 576 360" xmlns="http://www.w3.org/2000/svg" version="1.1">
 <metadata>
  <rdf:RDF xmlns:dc="http://purl.org/dc/elements/1.1/" xmlns:cc="http://creativecommons.org/ns#" xmlns:rdf="http://www.w3.org/1999/02/22-rdf-syntax-ns#">
   <cc:Work>
    <dc:type rdf:resource="http://purl.org/dc/dcmitype/StillImage"/>
    <dc:date>2026-02-03T08:04:53.021051</dc:date>
    <dc:format>image/svg+xml</dc:format>
    <dc:creator>
     <cc:Agent>
      <dc:title>Matplotlib v3.7.5, https://matplotlib.org/</dc:title>
     </cc:Agent>
    </dc:creator>
   </cc:Work>
  </rdf:RDF>
 </metadata>
 <defs>
  <style type="text/css">*{stroke-linejoin: round; stroke-linecap: butt}</style>
 </defs>
 <g id="figure_1">
  <g id="patch_1">
   <path d="M 0 360 
L 576 360 
L 576 0 
L 0 0 
z
" style="fill: #ffffff"/>
  </g>
  <g id="axes_1">
   <g id="patch_2">
    <path d="M 72 320.4 
L 518.4 320.4 
L 518.4 43.2 
L 72 43.2 
z
" style="fill: #ffffff"/>
   </g>
   <g id="matplotlib.axis_1">
    <g id="xtick_1">
     <g id="line2d_1">
      <defs>
       <path id="mdd21b03d7c" d="M 0 0 
L 0 3.5 
" style="stroke: #000000; stroke-width: 0.8"/>
      </defs>
      <g>
       <use xlink:href="#mdd21b03d7c" x="92.290909" y="320.4" style="stroke: #000000; stroke-width: 0.8"/>
      </g>
     </g>
     <g id="text_1">
      <!-- 0 -->
      <g transform="translate(89.109659 334.998438) scale(0.1 -0.1)">
       <defs>
        <path id="DejaVuSans-30" d="M 2034 4250 
Q 1547 4250 1301 3770 
Q 1056 3291 1056 2328 
Q 1056 1369 1301 889 
Q 1547 409 2034 409 
Q 2525 409 2770 889 
Q 3016 1369 3016 2328 
Q 3016 3291 2770 3770 
Q 2525 4250 2034 4250 
z
M 2034 4750 
Q 2819 4750 3233 4129 
Q 3647 3509 3647 2328 
Q 3647 1150 3233 529 
Q 2819 -91 2034 -91 
Q 1250 -91 836 529 
Q 422 1150 422 2328 
Q 422 3509 836 4129 
Q 1250 4750 2034 4750 
z
" transform="scale(0.015625)"/>
       </defs>
       <use xlink:href="#DejaVuSans-30"/>
      </g>
     </g>
    </g>
    <g id="xtick_2">
     <g id="line2d_2">
      <g>
       <use xlink:href="#mdd21b03d7c" x="161.190431" y="320.4" style="stroke: #000000; stroke-width: 0.8"/>
      </g>
     </g>
     <g id="text_2">
      <!-- 100 -->
      <g transform="translate(151.646681 334.998438) scale(0.1 -0.1)">
       <defs>
        <path id="DejaVuSans-31" d="M 794 531 
L 1825 531 
L 1825 4091 
L 703 3866 
L 703 4441 
L 1819 4666 
L 2450 4666 
L 2450 531 
L 3481 531 
L 3481 0 
L 794 0 
L 794 531 
z
" transform="scale(0.015625)"/>
       </defs>
       <use xlink:href="#DejaVuSans-31"/>
       <use xlink:href="#DejaVuSans-30" x="63.623047"/>
       <use xlink:href="#DejaVuSans-30" x="127.246094"/>
      </g>
     </g>
    </g>
    <g id="xtick_3">
     <g id="line2d_3">
      <g>
       <use xlink:href="#mdd21b03d7c" x="230.089952" y="320.4" style="stroke: #000000; stroke-width: 0.8"/>
      </g>
     </g>
     <g id="text_3">
      <!-- 200 -->
      <g transform="translate(220.546202 334.998438) scale(0.1 -0.1)">
       <defs>
        <path id="DejaVuSans-32" d="M 1228 531 
L 3431 531 
L 3431 0 
L 469 0 
L 469 531 
Q 828 903 1448 1529 
Q 2069 2156 2228 2338 
Q 2531 2678 2651 2914 
Q 2772 3150 2772 3378 
Q 2772 3750 2511 3984 
Q 2250 4219 1831 4219 
Q 1534 4219 1204 4116 
Q 875 4013 500 3803 
L 500 4441 
Q 881 4594 1212 4672 
Q 1544 4750 1819 4750 
Q 2544 4750 2975 4387 
Q 3406 4025 3406 3419 
Q 3406 3131 3298 2873 
Q 3191 2616 2906 2266 
Q 2828 2175 2409 1742 
Q 1991 1309 1228 531 
z
" transform="scale(0.015625)"/>
       </defs>
       <use xlink:href="#DejaVuSans-32"/>
       <use xlink:href="#DejaVuSans-30" x="63.623047"/>
       <use xlink:href="#DejaVuSans-30" x="127.246094"/>
      </g>
     </g>
    </g>
    <g id="xtick_4">
     <g id="line2d_4">
      <g>
       <use xlink:href="#mdd21b03d7c" x="298.989474" y="320.4" style="stroke: #000000; stroke-width: 0.8"/>
      </g>
     </g>
     <g id="text_4">
      <!-- 300 -->
      <g transform="translate(289.445724 334.998438) scale(0.1 -0.1)">
       <defs>
        <path id="DejaVuSans-33" d="M 2597 2516 
Q 3050 2419 3304 2112 
Q 3559 1806 3559 1356 
Q 3559 666 3084 287 
Q 2609 -91 1734 -91 
Q 1441 -91 1130 -33 
Q 819 25 488 141 
L 488 750 
Q 750 597 1062 519 
Q 1375 441 1716 441 
Q 2309 441 2620 675 
Q 2931 909 2931 1356 
Q 2931 1769 2642 2001 
Q 2353 2234 1838 2234 
L 1294 2234 
L 1294 2753 
L 1863 2753 
Q 2328 2753 2575 2939 
Q 2822 3125 2822 3475 
Q 2822 3834 2567 4026 
Q 2313 4219 1838 4219 
Q 1578 4219 1281 4162 
Q 984 4106 628 3988 
L 628 4550 
Q 988 4650 1302 4700 
Q 1616 4750 1894 4750 
Q 2613 4750 3031 4423 
Q 3450 4097 3450 3541 
Q 3450 3153 3228 2886 
Q 3006 2619 2597 2516 
z
" transform="scale(0.015625)"/>
       </defs>
       <use xlink:href="#DejaVuSans-33"/>
       <use xlink:href="#DejaVuSans-30" x="63.623047"/>
       <use xlink:href="#DejaVuSans-30" x="127.246094"/>
      </g>
     </g>
    </g>
    <g id="xtick_5">
     <g id="line2d_5">
      <g>
       <use xlink:href="#mdd21b03d7c" x="367.888995" y="320.4" style="stroke: #000000; stroke-width: 0.8"/>
      </g>
     </g>
     <g id="text_5">
      <!-- 400 -->
      <g transform="translate(358.345245 334.998438) scale(0.1 -0.1)">
       <defs>
        <path id="DejaVuSans-34" d="M 2419 4116 
L 825 1625 
L 2419 1625 
L 2419 4116 
z
M 2253 4666 
L 3047 4666 
L 3047 1625 
L 3713 1625 
L 3713 1100 
L 3047 1100 
L 3047 0 
L 2419 0 
L 2419 1100 
L 313 1100 
L 313 1709 
L 2253 4666 
z
" transform="scale(0.015625)"/>
       </defs>
       <use xlink:href="#DejaVuSans-34"/>
       <use xlink:href="#DejaVuSans-30" x="63.623047"/>
       <use xlink:href="#DejaVuSans-30" x="127.246094"/>
      </g>
     </g>
    </g>
    <g id="xtick_6">
     <g id="line2d_6">
      <g>
       <use xlink:href="#mdd21b03d7c" x="436.788517" y="320.4" style="stroke: #000000; stroke-width: 0.8"/>
      </g>
     </g>
     <g id="text_6">
      <!-- 500 -->
      <g transform="translate(427.244767 334.998438) scale(0.1 -0.1)">
       <defs>
        <path id="DejaVuSans-35" d="M 691 4666 
L 3169 4666 
L 3169 4134 
L 1269 4134 
L 1269 2991 
Q 1406 3038 1543 3061 
Q 1681 3084 1819 3084 
Q 2600 3084 3056 2656 
Q 3513 2228 3513 1497 
Q 3513 744 3044 326 
Q 2575 -91 1722 -91 
Q 1428 -91 1123 -41 
Q 819 9 494 109 
L 494 744 
Q 775 591 1075 516 
Q 1375 441 1709 441 
Q 2250 441 2565 725 
Q 2881 1009 2881 1497 
Q 2881 1984 2565 2268 
Q 2250 2553 1709 2553 
Q 1456 2553 1204 2497 
Q 953 2441 691 2322 
L 691 4666 
z
" transform="scale(0.015625)"/>
       </defs>
       <use xlink:href="#DejaVuSans-35"/>
       <use xlink:href="#DejaVuSans-30" x="63.623047"/>
       <use xlink:href="#DejaVuSans-30" x="127.246094"/>
      </g>
     </g>
    </g>
    <g id="xtick_7">
     <g id="line2d_7">
      <g>
       <use xlink:href="#mdd21b03d7c" x="505.688038" y="320.4" style="stroke: #000000; stroke-width: 0.8"/>
      </g>
     </g>
     <g id="text_7">
      <!-- 600 -->
      <g transform="translate(496.144288 334.998438) scale(0.1 -0.1)">
       <defs>
        <path id="DejaVuSans-36" d="M 2113 2584 
Q 1688 2584 1439 2293 
Q 1191 2003 1191 1497 
Q 1191 994 1439 701 
Q 1688 409 2113 409 
Q 2538 409 2786 701 
Q 3034 994 3034 1497 
Q 3034 2003 2786 2293 
Q 2538 2584 2113 2584 
z
M 3366 4563 
L 3366 3988 
Q 3128 4100 2886 4159 
Q 2644 4219 2406 4219 
Q 1781 4219 1451 3797 
Q 1122 3375 1075 2522 
Q 1259 2794 1537 2939 
Q 1816 3084 2150 3084 
Q 2853 3084 3261 2657 
Q 3669 2231 3669 1497 
Q 3669 778 3244 343 
Q 2819 -91 2113 -91 
Q 1303 -91 875 529 
Q 447 1150 447 2328 
Q 447 3434 972 4092 
Q 1497 4750 2381 4750 
Q 2619 4750 2861 4703 
Q 3103 4656 3366 4563 
z
" transform="scale(0.015625)"/>
       </defs>
       <use xlink:href="#DejaVuSans-36"/>
       <use xlink:href="#DejaVuSans-30" x="63.623047"/>
       <use xlink:href="#DejaVuSans-30" x="127.246094"/>
      </g>
     </g>
    </g>
    <g id="text_8">
     <!-- Time (s) -->
     <g transform="translate(266.739531 351.715937) scale(0.14 -0.14)">
      <defs>
       <path id="DejaVuSans-54" d="M -19 4666 
L 3928 4666 
L 3928 4134 
L 2272 4134 
L 2272 0 
L 1638 0 
L 1638 4134 
L -19 4134 
L -19 4666 
z
" transform="scale(0.015625)"/>
       <path id="DejaVuSans-69" d="M 603 3500 
L 1178 3500 
L 1178 0 
L 603 0 
L 603 3500 
z
M 603 4863 
L 1178 4863 
L 1178 4134 
L 603 4134 
L 603 4863 
z
" transform="scale(0.015625)"/>
       <path id="DejaVuSans-6d" d="M 3328 2828 
Q 3544 3216 3844 3400 
Q 4144 3584 4550 3584 
Q 5097 3584 5394 3201 
Q 5691 2819 5691 2113 
L 5691 0 
L 5113 0 
L 5113 2094 
Q 5113 2597 4934 2840 
Q 4756 3084 4391 3084 
Q 3944 3084 3684 2787 
Q 3425 2491 3425 1978 
L 3425 0 
L 2847 0 
L 2847 2094 
Q 2847 2600 2669 2842 
Q 2491 3084 2119 3084 
Q 1678 3084 1418 2786 
Q 1159 2488 1159 1978 
L 1159 0 
L 581 0 
L 581 3500 
L 1159 3500 
L 1159 2956 
Q 1356 3278 1631 3431 
Q 1906 3584 2284 3584 
Q 2666 3584 2933 3390 
Q 3200 3197 3328 2828 
z
" transform="scale(0.015625)"/>
       <path id="DejaVuSans-65" d="M 3597 1894 
L 3597 1613 
L 953 1613 
Q 991 1019 1311 708 
Q 1631 397 2203 397 
Q 2534 397 2845 478 
Q 3156 559 3463 722 
L 3463 178 
Q 3153 47 2828 -22 
Q 2503 -91 2169 -91 
Q 1331 -91 842 396 
Q 353 884 353 1716 
Q 353 2575 817 3079 
Q 1281 3584 2069 3584 
Q 2775 3584 3186 3129 
Q 3597 2675 3597 1894 
z
M 3022 2063 
Q 3016 2534 2758 2815 
Q 2500 3097 2075 3097 
Q 1594 3097 1305 2825 
Q 1016 2553 972 2059 
L 3022 2063 
z
" transform="scale(0.015625)"/>
       <path id="DejaVuSans-20" transform="scale(0.015625)"/>
       <path id="DejaVuSans-28" d="M 1984 4856 
Q 1566 4138 1362 3434 
Q 1159 2731 1159 2009 
Q 1159 1288 1364 580 
Q 1569 -128 1984 -844 
L 1484 -844 
Q 1016 -109 783 600 
Q 550 1309 550 2009 
Q 550 2706 781 3412 
Q 1013 4119 1484 4856 
L 1984 4856 
z
" transform="scale(0.015625)"/>
       <path id="DejaVuSans-73" d="M 2834 3397 
L 2834 2853 
Q 2591 2978 2328 3040 
Q 2066 3103 1784 3103 
Q 1356 3103 1142 2972 
Q 928 2841 928 2578 
Q 928 2378 1081 2264 
Q 1234 2150 1697 2047 
L 1894 2003 
Q 2506 1872 2764 1633 
Q 3022 1394 3022 966 
Q 3022 478 2636 193 
Q 2250 -91 1575 -91 
Q 1294 -91 989 -36 
Q 684 19 347 128 
L 347 722 
Q 666 556 975 473 
Q 1284 391 1588 391 
Q 1994 391 2212 530 
Q 2431 669 2431 922 
Q 2431 1156 2273 1281 
Q 2116 1406 1581 1522 
L 1381 1569 
Q 847 1681 609 1914 
Q 372 2147 372 2553 
Q 372 3047 722 3315 
Q 1072 3584 1716 3584 
Q 2034 3584 2315 3537 
Q 2597 3491 2834 3397 
z
" transform="scale(0.015625)"/>
       <path id="DejaVuSans-29" d="M 513 4856 
L 1013 4856 
Q 1481 4119 1714 3412 
Q 1947 2706 1947 2009 
Q 1947 1309 1714 600 
Q 1481 -109 1013 -844 
L 513 -844 
Q 928 -128 1133 580 
Q 1338 1288 1338 2009 
Q 1338 2731 1133 3434 
Q 928 4138 513 4856 
z
" transform="scale(0.015625)"/>
      </defs>
      <use xlink:href="#DejaVuSans-54"/>
      <use xlink:href="#DejaVuSans-69" x="57.958984"/>
      <use xlink:href="#DejaVuSans-6d" x="85.742188"/>
      <use xlink:href="#DejaVuSans-65" x="183.154297"/>
      <use xlink:href="#DejaVuSans-20" x="244.677734"/>
      <use xlink:href="#DejaVuSans-28" x="276.464844"/>
      <use xlink:href="#DejaVuSans-73" x="315.478516"/>
      <use xlink:href="#DejaVuSans-29" x="367.578125"/>
     </g>
    </g>
   </g>
   <g id="matplotlib.axis_2">
    <g id="ytick_1">
     <g id="line2d_8">
      <defs>
       <path id="me68eb639f4" d="M 0 0 
L -3.5 0 
" style="stroke: #000000; stroke-width: 0.8"/>
      </defs>
      <g>
       <use xlink:href="#me68eb639f4" x="72" y="309.037841" style="stroke: #000000; stroke-width: 0.8"/>
      </g>
     </g>
     <g id="text_9">
      <!-- 0 -->
      <g transform="translate(58.6375 312.83706) scale(0.1 -0.1)">
       <use xlink:href="#DejaVuSans-30"/>
      </g>
     </g>
    </g>
    <g id="ytick_2">
     <g id="line2d_9">
      <g>
       <use xlink:href="#me68eb639f4" x="72" y="259.742887" style="stroke: #000000; stroke-width: 0.8"/>
      </g>
     </g>
     <g id="text_10">
      <!-- 2 -->
      <g transform="translate(58.6375 263.542105) scale(0.1 -0.1)">
       <use xlink:href="#DejaVuSans-32"/>
      </g>
     </g>
    </g>
    <g id="ytick_3">
     <g id="line2d_10">
      <g>
       <use xlink:href="#me68eb639f4" x="72" y="210.447932" style="stroke: #000000; stroke-width: 0.8"/>
      </g>
     </g>
     <g id="text_11">
      <!-- 4 -->
      <g transform="translate(58.6375 214.247151) scale(0.1 -0.1)">
       <use xlink:href="#DejaVuSans-34"/>
      </g>
     </g>
    </g>
    <g id="ytick_4">
     <g id="line2d_11">
      <g>
       <use xlink:href="#me68eb639f4" x="72" y="161.152978" style="stroke: #000000; stroke-width: 0.8"/>
      </g>
     </g>
     <g id="text_12">
      <!-- 6 -->
      <g transform="translate(58.6375 164.952196) scale(0.1 -0.1)">
       <use xlink:href="#DejaVuSans-36"/>
      </g>
     </g>
    </g>
    <g id="ytick_5">
     <g id="line2d_12">
      <g>
       <use xlink:href="#me68eb639f4" x="72" y="111.858023" style="stroke: #000000; stroke-width: 0.8"/>
      </g>
     </g>
     <g id="text_13">
      <!-- 8 -->
      <g transform="translate(58.6375 115.657242) scale(0.1 -0.1)">
       <defs>
        <path id="DejaVuSans-38" d="M 2034 2216 
Q 1584 2216 1326 1975 
Q 1069 1734 1069 1313 
Q 1069 891 1326 650 
Q 1584 409 2034 409 
Q 2484 409 2743 651 
Q 3003 894 3003 1313 
Q 3003 1734 2745 1975 
Q 2488 2216 2034 2216 
z
M 1403 2484 
Q 997 2584 770 2862 
Q 544 3141 544 3541 
Q 544 4100 942 4425 
Q 1341 4750 2034 4750 
Q 2731 4750 3128 4425 
Q 3525 4100 3525 3541 
Q 3525 3141 3298 2862 
Q 3072 2584 2669 2484 
Q 3125 2378 3379 2068 
Q 3634 1759 3634 1313 
Q 3634 634 3220 271 
Q 2806 -91 2034 -91 
Q 1263 -91 848 271 
Q 434 634 434 1313 
Q 434 1759 690 2068 
Q 947 2378 1403 2484 
z
M 1172 3481 
Q 1172 3119 1398 2916 
Q 1625 2713 2034 2713 
Q 2441 2713 2670 2916 
Q 2900 3119 2900 3481 
Q 2900 3844 2670 4047 
Q 2441 4250 2034 4250 
Q 1625 4250 1398 4047 
Q 1172 3844 1172 3481 
z
" transform="scale(0.015625)"/>
       </defs>
       <use xlink:href="#DejaVuSans-38"/>
      </g>
     </g>
    </g>
    <g id="ytick_6">
     <g id="line2d_13">
      <g>
       <use xlink:href="#me68eb639f4" x="72" y="62.563069" style="stroke: #000000; stroke-width: 0.8"/>
      </g>
     </g>
     <g id="text_14">
      <!-- 10 -->
      <g transform="translate(52.275 66.362287) scale(0.1 -0.1)">
       <use xlink:href="#DejaVuSans-31"/>
       <use xlink:href="#DejaVuSans-30" x="63.623047"/>
      </g>
     </g>
    </g>
    <g id="text_15">
     <!-- Bandwidth (Mbps) -->
     <g transform="translate(45.363437 245.327187) rotate(-90) scale(0.14 -0.14)">
      <defs>
       <path id="DejaVuSans-42" d="M 1259 2228 
L 1259 519 
L 2272 519 
Q 2781 519 3026 730 
Q 3272 941 3272 1375 
Q 3272 1813 3026 2020 
Q 2781 2228 2272 2228 
L 1259 2228 
z
M 1259 4147 
L 1259 2741 
L 2194 2741 
Q 2656 2741 2882 2914 
Q 3109 3088 3109 3444 
Q 3109 3797 2882 3972 
Q 2656 4147 2194 4147 
L 1259 4147 
z
M 628 4666 
L 2241 4666 
Q 2963 4666 3353 4366 
Q 3744 4066 3744 3513 
Q 3744 3084 3544 2831 
Q 3344 2578 2956 2516 
Q 3422 2416 3680 2098 
Q 3938 1781 3938 1306 
Q 3938 681 3513 340 
Q 3088 0 2303 0 
L 628 0 
L 628 4666 
z
" transform="scale(0.015625)"/>
       <path id="DejaVuSans-61" d="M 2194 1759 
Q 1497 1759 1228 1600 
Q 959 1441 959 1056 
Q 959 750 1161 570 
Q 1363 391 1709 391 
Q 2188 391 2477 730 
Q 2766 1069 2766 1631 
L 2766 1759 
L 2194 1759 
z
M 3341 1997 
L 3341 0 
L 2766 0 
L 2766 531 
Q 2569 213 2275 61 
Q 1981 -91 1556 -91 
Q 1019 -91 701 211 
Q 384 513 384 1019 
Q 384 1609 779 1909 
Q 1175 2209 1959 2209 
L 2766 2209 
L 2766 2266 
Q 2766 2663 2505 2880 
Q 2244 3097 1772 3097 
Q 1472 3097 1187 3025 
Q 903 2953 641 2809 
L 641 3341 
Q 956 3463 1253 3523 
Q 1550 3584 1831 3584 
Q 2591 3584 2966 3190 
Q 3341 2797 3341 1997 
z
" transform="scale(0.015625)"/>
       <path id="DejaVuSans-6e" d="M 3513 2113 
L 3513 0 
L 2938 0 
L 2938 2094 
Q 2938 2591 2744 2837 
Q 2550 3084 2163 3084 
Q 1697 3084 1428 2787 
Q 1159 2491 1159 1978 
L 1159 0 
L 581 0 
L 581 3500 
L 1159 3500 
L 1159 2956 
Q 1366 3272 1645 3428 
Q 1925 3584 2291 3584 
Q 2894 3584 3203 3211 
Q 3513 2838 3513 2113 
z
" transform="scale(0.015625)"/>
       <path id="DejaVuSans-64" d="M 2906 2969 
L 2906 4863 
L 3481 4863 
L 3481 0 
L 2906 0 
L 2906 525 
Q 2725 213 2448 61 
Q 2172 -91 1784 -91 
Q 1150 -91 751 415 
Q 353 922 353 1747 
Q 353 2572 751 3078 
Q 1150 3584 1784 3584 
Q 2172 3584 2448 3432 
Q 2725 3281 2906 2969 
z
M 947 1747 
Q 947 1113 1208 752 
Q 1469 391 1925 391 
Q 2381 391 2643 752 
Q 2906 1113 2906 1747 
Q 2906 2381 2643 2742 
Q 2381 3103 1925 3103 
Q 1469 3103 1208 2742 
Q 947 2381 947 1747 
z
" transform="scale(0.015625)"/>
       <path id="DejaVuSans-77" d="M 269 3500 
L 844 3500 
L 1563 769 
L 2278 3500 
L 2956 3500 
L 3675 769 
L 4391 3500 
L 4966 3500 
L 4050 0 
L 3372 0 
L 2619 2869 
L 1863 0 
L 1184 0 
L 269 3500 
z
" transform="scale(0.015625)"/>
       <path id="DejaVuSans-74" d="M 1172 4494 
L 1172 3500 
L 2356 3500 
L 2356 3053 
L 1172 3053 
L 1172 1153 
Q 1172 725 1289 603 
Q 1406 481 1766 481 
L 2356 481 
L 2356 0 
L 1766 0 
Q 1100 0 847 248 
Q 594 497 594 1153 
L 594 3053 
L 172 3053 
L 172 3500 
L 594 3500 
L 594 4494 
L 1172 4494 
z
" transform="scale(0.015625)"/>
       <path id="DejaVuSans-68" d="M 3513 2113 
L 3513 0 
L 2938 0 
L 2938 2094 
Q 2938 2591 2744 2837 
Q 2550 3084 2163 3084 
Q 1697 3084 1428 2787 
Q 1159 2491 1159 1978 
L 1159 0 
L 581 0 
L 581 4863 
L 1159 4863 
L 1159 2956 
Q 1366 3272 1645 3428 
Q 1925 3584 2291 3584 
Q 2894 3584 3203 3211 
Q 3513 2838 3513 2113 
z
" transform="scale(0.015625)"/>
       <path id="DejaVuSans-4d" d="M 628 4666 
L 1569 4666 
L 2759 1491 
L 3956 4666 
L 4897 4666 
L 4897 0 
L 4281 0 
L 4281 4097 
L 3078 897 
L 2444 897 
L 1241 4097 
L 1241 0 
L 628 0 
L 628 4666 
z
" transform="scale(0.015625)"/>
       <path id="DejaVuSans-62" d="M 3116 1747 
Q 3116 2381 2855 2742 
Q 2594 3103 2138 3103 
Q 1681 3103 1420 2742 
Q 1159 2381 1159 1747 
Q 1159 1113 1420 752 
Q 1681 391 2138 391 
Q 2594 391 2855 752 
Q 3116 1113 3116 1747 
z
M 1159 2969 
Q 1341 3281 1617 3432 
Q 1894 3584 2278 3584 
Q 2916 3584 3314 3078 
Q 3713 2572 3713 1747 
Q 3713 922 3314 415 
Q 2916 -91 2278 -91 
Q 1894 -91 1617 61 
Q 1341 213 1159 525 
L 1159 0 
L 581 0 
L 581 4863 
L 1159 4863 
L 1159 2969 
z
" transform="scale(0.015625)"/>
       <path id="DejaVuSans-70" d="M 1159 525 
L 1159 -1331 
L 581 -1331 
L 581 3500 
L 1159 3500 
L 1159 2969 
Q 1341 3281 1617 3432 
Q 1894 3584 2278 3584 
Q 2916 3584 3314 3078 
Q 3713 2572 3713 1747 
Q 3713 922 3314 415 
Q 2916 -91 2278 -91 
Q 1894 -91 1617 61 
Q 1341 213 1159 525 
z
M 3116 1747 
Q 3116 2381 2855 2742 
Q 2594 3103 2138 3103 
Q 1681 3103 1420 2742 
Q 1159 2381 1159 1747 
Q 1159 1113 1420 752 
Q 1681 391 2138 391 
Q 2594 391 2855 752 
Q 3116 1113 3116 1747 
z
" transform="scale(0.015625)"/>
      </defs>
      <use xlink:href="#DejaVuSans-42"/>
      <use xlink:href="#DejaVuSans-61" x="68.603516"/>
      <use xlink:href="#DejaVuSans-6e" x="129.882812"/>
      <use xlink:href="#DejaVuSans-64" x="193.261719"/>
      <use xlink:href="#DejaVuSans-77" x="256.738281"/>
      <use xlink:href="#DejaVuSans-69" x="338.525391"/>
      <use xlink:href="#DejaVuSans-64" x="366.308594"/>
      <use xlink:href="#DejaVuSans-74" x="429.785156"/>
      <use xlink:href="#DejaVuSans-68" x="468.994141"/>
      <use xlink:href="#DejaVuSans-20" x="532.373047"/>
      <use xlink:href="#DejaVuSans-28" x="564.160156"/>
      <use xlink:href="#DejaVuSans-4d" x="603.173828"/>
      <use xlink:href="#DejaVuSans-62" x="689.453125"/>
      <use xlink:href="#DejaVuSans-70" x="752.929688"/>
      <use xlink:href="#DejaVuSans-73" x="816.40625"/>
      <use xlink:href="#DejaVuSans-29" x="868.505859"/>
     </g>
    </g>
   </g>
   <g id="line2d_14">
    <path d="M 92.290909 251.652552 
L 92.979904 251.649282 
L 93.6689 306.468353 
L 94.357895 306.468351 
L 95.04689 299.901875 
L 95.735885 299.901354 
L 96.42488 306.468348 
L 98.491866 306.468204 
L 99.180861 262.786917 
L 99.869856 263.070028 
L 100.558852 211.682885 
L 101.247847 211.962366 
L 101.936842 286.4834 
L 102.625837 286.48216 
L 103.314833 277.347458 
L 104.003828 277.346222 
L 104.692823 271.63755 
L 105.381818 271.920748 
L 106.070813 254.507483 
L 107.448804 254.507593 
L 108.137799 254.78984 
L 108.826794 134.883481 
L 109.515789 135.155062 
L 110.204785 184.2748 
L 110.89378 184.553072 
L 111.582775 96.923979 
L 112.27177 97.17388 
L 112.960766 125.74935 
L 113.649761 125.735049 
L 114.338756 134.597982 
L 115.027751 134.302527 
L 115.716746 71.21696 
L 116.405742 71.502006 
L 117.094737 65.506975 
L 117.783732 66.06439 
L 118.472727 109.188361 
L 119.161722 108.891863 
L 119.850718 91.202142 
L 120.539713 91.474803 
L 121.228708 165.717214 
L 121.917703 165.709047 
L 122.606699 157.152236 
L 123.295694 157.144034 
L 123.984689 111.80913 
L 124.673684 111.695905 
L 125.362679 123.749022 
L 126.051675 123.738464 
L 126.74067 105.476871 
L 127.429665 105.750787 
L 128.11866 189.699152 
L 128.807656 189.407078 
L 129.496651 218.249261 
L 130.185646 218.529333 
L 130.874641 201.411292 
L 131.563636 201.680139 
L 132.252632 100.052808 
L 132.941627 99.801629 
L 133.630622 140.891386 
L 134.319617 140.571893 
L 135.008612 170.00847 
L 135.697608 169.983716 
L 136.386603 187.136982 
L 137.075598 187.115517 
L 137.764593 154.582909 
L 138.453589 154.288426 
L 139.142584 145.732441 
L 139.831579 146.008476 
L 140.520574 197.235526 
L 141.209569 195.856174 
L 141.898565 230.525704 
L 142.58756 230.235875 
L 143.276555 298.759898 
L 143.96555 298.759272 
L 144.654545 268.211491 
L 145.343541 268.209121 
L 146.032536 198.549852 
L 146.721531 198.83028 
L 147.410526 225.10115 
L 148.099522 225.381792 
L 148.788517 263.358009 
L 149.477512 263.355357 
L 150.166507 290.194928 
L 150.855502 290.479314 
L 151.544498 301.043878 
L 152.233493 301.043399 
L 152.922488 306.468373 
L 166.013397 306.470974 
L 166.702392 178.280756 
L 167.391388 178.27212 
L 168.080383 152.013568 
L 168.769378 152.289986 
L 169.458373 151.736413 
L 170.147368 151.71045 
L 170.836364 135.739978 
L 171.525359 135.730103 
L 172.214354 124.319822 
L 172.903349 124.309847 
L 173.592344 159.150731 
L 174.28134 159.142494 
L 174.970335 57.227766 
L 175.65933 69.776316 
L 176.348325 60.371219 
L 177.037321 72.913433 
L 177.726316 95.199331 
L 178.415311 95.186509 
L 179.104306 145.163397 
L 179.793301 145.150298 
L 180.482297 123.188613 
L 181.171292 123.57183 
L 181.860287 56.085771 
L 182.549282 71.773959 
L 183.238278 56.085499 
L 183.927273 76.913719 
L 184.616268 73.501431 
L 185.305263 73.501207 
L 185.994258 86.634158 
L 186.683254 86.621698 
L 187.372249 77.783911 
L 188.061244 77.48475 
L 188.750239 62.080984 
L 189.439234 65.208077 
L 190.12823 55.800513 
L 190.817225 69.48983 
L 191.50622 149.44583 
L 192.195215 149.718269 
L 192.884211 162.006617 
L 193.573206 161.711391 
L 194.262201 116.897047 
L 194.951196 116.885892 
L 195.640191 173.163437 
L 196.329187 173.109887 
L 197.018182 215.108585 
L 197.707177 215.396987 
L 198.396172 176.574807 
L 199.085167 176.550954 
L 199.774163 201.985471 
L 200.463158 201.95999 
L 201.152153 179.706678 
L 201.841148 179.414055 
L 202.530144 163.433376 
L 203.219139 163.425079 
L 203.908134 181.134174 
L 204.597129 181.127267 
L 205.286124 201.690338 
L 205.97512 201.683786 
L 206.664115 185.988409 
L 207.35311 186.265675 
L 208.042105 178.279181 
L 208.7311 178.280101 
L 209.420096 173.996837 
L 210.109091 173.989142 
L 210.798086 163.719014 
L 211.487081 163.995816 
L 212.176077 156.581401 
L 212.865072 156.858229 
L 213.554067 156.010403 
L 214.243062 156.009783 
L 214.932057 94.92519 
L 215.621053 94.889633 
L 216.310048 101.77887 
L 216.999043 101.739892 
L 217.688038 70.360235 
L 218.377033 70.063255 
L 219.066029 70.931943 
L 219.755024 70.91741 
L 220.444019 55.809629 
L 221.133014 71.48132 
L 221.82201 56.937219 
L 222.511005 73.778236 
L 223.2 55.8 
L 223.888995 69.77894 
L 224.57799 56.086766 
L 225.266986 74.343604 
L 225.955981 97.768617 
L 226.644976 97.756579 
L 227.333971 117.46784 
L 228.022967 117.457129 
L 228.711962 70.074963 
L 229.400957 70.261934 
L 230.089952 58.126645 
L 230.778947 74.018612 
L 231.467943 55.8 
L 232.156938 70.061603 
L 232.845933 65.506975 
L 233.534928 65.493359 
L 234.223923 89.774647 
L 234.912919 89.489567 
L 235.601914 84.920924 
L 236.290909 84.908394 
L 236.979904 59.525231 
L 237.6689 69.763152 
L 238.357895 125.747318 
L 239.04689 125.738709 
L 239.735885 208.256507 
L 240.42488 207.965646 
L 241.113876 262.216621 
L 241.802871 262.212686 
L 242.491866 306.468348 
L 243.180861 306.468209 
L 243.869856 271.922977 
L 244.558852 271.920863 
L 245.247847 243.087646 
L 245.936842 243.36927 
L 246.625837 241.37459 
L 247.314833 241.370799 
L 248.003828 205.973543 
L 248.692823 205.966122 
L 249.381818 208.256603 
L 250.070813 208.536376 
L 250.759809 233.380998 
L 251.448804 233.661365 
L 252.137799 186.844407 
L 252.826794 186.552294 
L 253.515789 248.79762 
L 254.204785 248.794367 
L 254.89378 248.230087 
L 255.582775 248.505768 
L 256.27177 218.534846 
L 256.960766 218.52942 
L 257.649761 190.27015 
L 258.338756 190.549025 
L 259.027751 173.14047 
L 259.716746 173.132451 
L 260.405742 240.804064 
L 261.094737 241.084672 
L 261.783732 221.389663 
L 262.472727 221.099059 
L 263.161722 186.844407 
L 263.850718 186.83756 
L 264.539713 208.827709 
L 265.228708 208.821892 
L 265.917703 278.775374 
L 266.606699 278.773195 
L 267.295694 262.501745 
L 267.984689 262.503187 
L 268.673684 281.344443 
L 269.362679 281.628406 
L 270.051675 233.380763 
L 270.74067 233.37638 
L 271.429665 182.276428 
L 272.11866 182.268948 
L 272.807656 222.531566 
L 273.496651 222.812409 
L 274.185646 274.208049 
L 274.874641 274.204287 
L 275.563636 306.468353 
L 277.630622 306.468083 
L 278.319617 297.903382 
L 279.008612 298.188305 
L 279.697608 255.0787 
L 280.386603 255.360871 
L 281.075598 187.987729 
L 281.764593 187.692774 
L 282.453589 178.852523 
L 283.142584 179.126202 
L 283.831579 185.987793 
L 284.520574 185.981266 
L 285.209569 201.119019 
L 285.898565 200.827779 
L 286.58756 162.007932 
L 287.276555 162.281103 
L 287.96555 206.258317 
L 288.654545 206.538183 
L 289.343541 78.927058 
L 290.032536 78.911642 
L 290.721531 132.316287 
L 291.410526 132.303562 
L 292.099522 157.439868 
L 292.788517 157.427281 
L 293.477512 135.739978 
L 294.166507 135.73062 
L 294.855502 193.981874 
L 295.544498 193.975208 
L 296.233493 210.831997 
L 296.922488 211.100336 
L 297.611483 231.66816 
L 298.300478 231.662977 
L 298.989474 211.96829 
L 299.678469 212.24847 
L 300.367464 278.775313 
L 301.056459 278.772923 
L 301.745455 306.468351 
L 305.190431 306.468204 
L 305.879426 252.794937 
L 306.568421 252.790947 
L 307.257416 306.468353 
L 307.946411 306.468201 
L 308.635407 271.923048 
L 309.324402 272.206523 
L 310.013397 232.524268 
L 310.702392 232.51968 
L 311.391388 243.08837 
L 312.080383 243.36855 
L 312.769378 151.44257 
L 313.458373 151.435638 
L 314.147368 144.876257 
L 314.836364 144.86659 
L 315.525359 136.596989 
L 316.214354 136.300783 
L 316.903349 181.705309 
L 317.592344 181.699192 
L 318.28134 151.728219 
L 318.970335 151.718955 
L 319.65933 116.611548 
L 320.348325 116.314861 
L 321.037321 144.590935 
L 321.726316 144.866257 
L 322.415311 216.821955 
L 323.104306 216.531925 
L 323.793301 259.932022 
L 324.482297 260.214785 
L 325.171292 199.692395 
L 325.860287 199.685395 
L 326.549282 233.951689 
L 327.238278 233.947705 
L 327.927273 257.077187 
L 328.616268 257.07391 
L 329.305263 300.472881 
L 329.994258 300.7579 
L 330.683254 306.468389 
L 331.372249 306.468371 
L 332.061244 209.400002 
L 332.750239 209.39303 
L 333.439234 100.337685 
L 334.12823 100.612973 
L 334.817225 151.157392 
L 335.50622 151.147605 
L 336.195215 124.891742 
L 336.884211 124.605321 
L 337.573206 147.732376 
L 338.262201 148.008371 
L 338.951196 81.970713 
L 339.640191 81.29271 
L 340.329187 117.185611 
L 341.018182 117.16872 
L 341.707177 157.152852 
L 342.396172 157.142975 
L 343.085167 159.151178 
L 343.774163 159.427706 
L 344.463158 126.604011 
L 345.152153 126.59342 
L 345.841148 76.070447 
L 346.530144 75.771657 
L 347.219139 112.900833 
L 347.908134 112.901418 
L 348.597129 181.997668 
L 349.286124 181.976699 
L 349.97512 249.083119 
L 350.664115 248.794065 
L 351.35311 306.468353 
L 352.042105 306.468204 
L 352.7311 278.775345 
L 353.420096 278.772863 
L 354.109091 253.936544 
L 354.798086 253.933456 
L 355.487081 287.910919 
L 356.176077 287.909841 
L 356.865072 306.468348 
L 360.310048 306.468186 
L 360.999043 291.336887 
L 361.688038 291.621413 
L 362.377033 269.353444 
L 363.066029 269.636741 
L 363.755024 217.679266 
L 364.444019 217.386445 
L 365.133014 201.404621 
L 365.82201 201.684119 
L 366.511005 156.295739 
L 367.2 156.287345 
L 367.888995 190.841275 
L 368.57799 190.834414 
L 369.266986 196.83686 
L 369.955981 196.83024 
L 370.644976 149.729427 
L 372.022967 150.300576 
L 372.711962 150.293442 
L 373.400957 225.386648 
L 374.089952 225.381882 
L 374.778947 182.276307 
L 375.467943 182.269205 
L 376.156938 154.582909 
L 376.845933 154.574108 
L 377.534928 222.531659 
L 378.223923 222.812245 
L 378.912919 188.2719 
L 379.601914 188.264659 
L 380.290909 244.800638 
L 380.979904 245.082432 
L 381.6689 306.468351 
L 383.735885 306.468201 
L 384.42488 284.487998 
L 385.113876 284.766012 
L 385.802871 306.468351 
L 387.869856 306.468204 
L 388.558852 306.182848 
L 389.247847 306.182686 
L 389.936842 306.468348 
L 393.381818 306.468219 
L 394.070813 303.327856 
L 394.759809 303.327542 
L 395.448804 306.468497 
L 396.137799 306.468055 
L 396.826794 257.362531 
L 397.515789 257.359586 
L 398.204785 306.468361 
L 409.917703 306.468207 
L 410.606699 204.262661 
L 411.295694 204.251657 
L 411.984689 242.802345 
L 412.673684 242.798176 
L 413.362679 289.62397 
L 414.051675 289.623019 
L 414.74067 217.678177 
L 415.429665 217.673145 
L 416.11866 253.365486 
L 416.807656 253.362314 
L 417.496651 235.950693 
L 418.185646 235.659839 
L 418.874641 251.367108 
L 419.563636 251.363588 
L 420.252632 194.552871 
L 420.941627 194.546798 
L 421.630622 174.283412 
L 422.319617 174.274385 
L 423.008612 154.299107 
L 423.697608 154.286729 
L 424.386603 149.158581 
L 425.075598 149.158905 
L 425.764593 108.333275 
L 426.453589 108.035127 
L 427.142584 103.193098 
L 427.831579 103.181564 
L 428.520574 130.03017 
L 429.209569 130.021036 
L 429.898565 134.027151 
L 430.58756 134.304443 
L 431.276555 197.693131 
L 431.96555 197.972527 
L 432.654545 151.158973 
L 433.343541 150.860345 
L 434.032536 201.975837 
L 434.721531 201.969519 
L 435.410526 215.965083 
L 436.099522 216.245295 
L 436.788517 181.99105 
L 437.477512 181.757228 
L 438.166507 208.8279 
L 438.855502 208.8271 
L 439.544498 193.4118 
L 440.233493 193.117847 
L 440.922488 192.26877 
L 441.611483 192.261991 
L 442.300478 134.027151 
L 442.989474 134.016469 
L 443.678469 78.355129 
L 444.367464 78.341077 
L 445.056459 115.75466 
L 445.745455 116.029553 
L 446.43445 137.738287 
L 447.123445 137.443706 
L 447.81244 148.301932 
L 448.501435 148.007411 
L 449.190431 228.81255 
L 449.879426 229.093732 
L 450.568421 198.557254 
L 451.257416 198.535818 
L 451.946411 158.296048 
L 452.635407 158.285338 
L 453.324402 160.007389 
L 454.013397 160.292285 
L 454.702392 155.154365 
L 455.391388 154.860689 
L 456.080383 162.577159 
L 456.769378 162.283456 
L 457.458373 106.050507 
L 458.147368 106.33622 
L 458.836364 67.791228 
L 459.525359 67.777941 
L 460.214354 112.617302 
L 460.903349 112.602762 
L 461.592344 118.611948 
L 462.28134 118.597851 
L 462.970335 231.097714 
L 463.65933 231.105276 
L 464.348325 217.678264 
L 465.037321 217.672873 
L 465.726316 208.256711 
L 466.415311 208.251966 
L 467.104306 170.000117 
L 467.793301 169.706265 
L 468.482297 159.151481 
L 469.171292 158.856075 
L 469.860287 167.71613 
L 470.549282 168.001628 
L 471.238278 172.854971 
L 471.927273 173.132321 
L 472.616268 169.143355 
L 473.305263 169.136067 
L 473.994258 155.44001 
L 474.683254 155.715392 
L 475.372249 117.754684 
L 476.061244 117.455782 
L 476.750239 198.264684 
L 477.439234 198.257593 
L 478.12823 173.14034 
L 478.817225 173.132597 
L 479.50622 201.690338 
L 480.195215 201.684004 
L 480.884211 128.603752 
L 481.573206 128.59276 
L 482.262201 157.439109 
L 482.951196 157.42804 
L 483.640191 177.708183 
L 484.329187 177.987402 
L 485.018182 246.513571 
L 485.707177 246.795583 
L 486.396172 209.684206 
L 487.085167 209.678936 
L 487.774163 239.376097 
L 488.463158 239.824582 
L 489.152153 260.788467 
L 489.841148 260.785959 
L 490.530144 170.571114 
L 491.219139 170.277445 
L 491.908134 137.169706 
L 492.597129 137.156296 
L 493.286124 97.484178 
L 493.97512 97.184475 
L 494.664115 122.324131 
L 495.35311 122.309753 
L 496.042105 106.048474 
L 496.7311 105.750375 
L 497.420096 122.321705 
L 498.109091 122.310888 
L 498.109091 122.310888 
" clip-path="url(#p5c855697b4)" style="fill: none; stroke: #1f77b4; stroke-width: 1.5; stroke-linecap: square"/>
   </g>
   <g id="line2d_15">
    <path d="M 92.290909 296.579875 
L 92.979904 256.912859 
L 93.6689 258.714189 
L 94.357895 206.83336 
L 95.04689 213.506776 
L 95.735885 278.823331 
L 96.42488 281.510009 
L 97.113876 270.083743 
L 97.802871 272.024281 
L 98.491866 265.219597 
L 99.180861 263.664682 
L 99.869856 249.878928 
L 100.558852 249.319799 
L 101.247847 250.184267 
L 101.936842 251.263162 
L 102.625837 133.968712 
L 103.314833 144.12329 
L 104.003828 181.871313 
L 104.692823 188.937096 
L 105.381818 98.396732 
L 106.759809 127.011969 
L 107.448804 133.814362 
L 108.137799 136.671031 
L 108.826794 141.20388 
L 109.515789 78.077114 
L 110.204785 83.017518 
L 110.89378 72.498931 
L 111.582775 77.576739 
L 112.27177 115.915823 
L 112.960766 117.77594 
L 113.649761 98.217341 
L 114.338756 100.180598 
L 115.027751 170.229343 
L 115.716746 164.542434 
L 116.405742 163.083528 
L 117.094737 157.501626 
L 117.783732 119.191691 
L 118.472727 116.258754 
L 119.161722 129.723706 
L 119.850718 129.438164 
L 120.539713 111.83059 
L 121.228708 115.324683 
L 121.917703 191.493337 
L 122.606699 188.627541 
L 123.295694 219.429282 
L 123.984689 213.435106 
L 124.673684 203.942299 
L 125.362679 196.564332 
L 126.051675 106.1731 
L 126.74067 107.223225 
L 127.429665 144.884138 
L 128.11866 147.737326 
L 128.807656 171.031923 
L 129.496651 175.274681 
L 130.185646 187.472776 
L 130.874641 186.277667 
L 131.563636 157.407894 
L 132.252632 155.198033 
L 132.941627 150.396865 
L 133.630622 149.701661 
L 134.319617 198.658617 
L 135.008612 195.961874 
L 135.697608 230.023693 
L 136.386603 225.721914 
L 137.075598 295.47607 
L 137.764593 284.927378 
L 138.453589 266.53364 
L 139.142584 257.703164 
L 139.831579 199.025575 
L 140.520574 197.144749 
L 141.209569 222.883403 
L 141.898565 224.942406 
L 142.58756 258.353992 
L 143.276555 260.321293 
L 143.96555 283.296196 
L 144.654545 281.065815 
L 145.343541 294.848282 
L 146.032536 288.878595 
L 146.721531 300.952996 
L 147.410526 294.934915 
L 148.099522 299.870716 
L 148.788517 296.367899 
L 149.477512 298.77044 
L 150.166507 297.203395 
L 150.855502 298.099236 
L 151.544498 297.596787 
L 152.233493 297.828468 
L 153.611483 297.719605 
L 159.81244 297.722011 
L 160.501435 174.650286 
L 161.190431 183.020505 
L 161.879426 149.614647 
L 162.568421 161.126246 
L 163.257416 149.554333 
L 163.946411 162.778959 
L 164.635407 134.826106 
L 165.324402 145.071858 
L 166.013397 125.38764 
L 166.702392 131.355546 
L 167.391388 161.735255 
L 168.080383 162.264146 
L 168.769378 64.462046 
L 169.458373 82.442386 
L 170.147368 66.989566 
L 170.836364 85.897261 
L 171.525359 99.920873 
L 172.214354 108.173382 
L 172.903349 147.878712 
L 173.592344 150.46962 
L 174.28134 127.309925 
L 174.970335 127.566257 
L 175.65933 65.519637 
L 176.348325 81.796562 
L 177.037321 64.618132 
L 177.726316 90.495528 
L 178.415311 79.042493 
L 179.104306 89.027969 
L 179.793301 90.785827 
L 180.482297 98.429986 
L 181.171292 83.683451 
L 181.860287 87.888231 
L 182.549282 71.132169 
L 183.238278 76.011336 
L 183.927273 65.697141 
L 184.616268 80.918991 
L 185.305263 154.683234 
L 185.994258 153.055893 
L 186.683254 166.329681 
L 187.372249 162.386614 
L 188.061244 123.174267 
L 188.750239 120.249487 
L 189.439234 177.758064 
L 190.12823 172.783065 
L 190.817225 217.607088 
L 191.50622 212.60735 
L 192.195215 178.919014 
L 192.884211 175.523636 
L 193.573206 203.279167 
L 194.262201 198.701852 
L 194.951196 182.003937 
L 195.640191 181.336566 
L 196.329187 164.998216 
L 197.018182 166.679337 
L 197.707177 181.516078 
L 198.396172 182.88719 
L 199.085167 201.86025 
L 199.774163 201.247164 
L 200.463158 186.525271 
L 201.152153 186.021592 
L 201.841148 179.628961 
L 202.530144 178.905932 
L 203.219139 175.583149 
L 203.908134 176.39149 
L 204.597129 165.22438 
L 205.286124 167.628576 
L 205.97512 158.176307 
L 206.664115 160.836672 
L 207.35311 158.060027 
L 208.042105 159.993314 
L 208.7311 99.672696 
L 209.420096 105.021876 
L 210.109091 106.578113 
L 210.798086 111.340912 
L 211.487081 76.800571 
L 212.176077 83.612886 
L 212.865072 77.850406 
L 213.554067 82.764285 
L 214.243062 64.024805 
L 214.932057 83.576515 
L 215.621053 65.402228 
L 216.310048 86.081342 
L 216.999043 63.276385 
L 217.688038 83.067238 
L 218.377033 62.960177 
L 219.066029 88.208036 
L 219.755024 102.112411 
L 220.444019 108.498786 
L 221.133014 122.011707 
L 221.82201 124.634571 
L 222.511005 77.523258 
L 223.2 80.483375 
L 223.888995 67.336405 
L 224.57799 84.992363 
L 225.266986 64.490753 
L 225.955981 83.936898 
L 226.644976 72.288403 
L 227.333971 79.213249 
L 228.022967 95.414371 
L 228.711962 99.456875 
L 229.400957 92.175752 
L 230.089952 94.116964 
L 230.778947 69.012237 
L 231.467943 79.904521 
L 232.156938 132.592174 
L 232.845933 130.636161 
L 233.534928 211.499852 
L 234.223923 204.380846 
L 234.912919 262.646333 
L 235.601914 250.330297 
L 236.290909 305.348351 
L 237.6689 271.799711 
L 238.357895 260.449472 
L 239.04689 241.826781 
L 239.735885 238.100564 
L 240.42488 237.802085 
L 241.113876 239.666793 
L 241.802871 202.44926 
L 242.491866 208.410652 
L 243.180861 204.308561 
L 243.869856 209.490482 
L 244.558852 229.482051 
L 245.247847 231.776196 
L 245.936842 185.513667 
L 246.625837 188.213983 
L 247.314833 245.446971 
L 248.003828 243.28972 
L 248.692823 245.460018 
L 249.381818 243.880662 
L 250.070813 216.763459 
L 250.759809 215.307222 
L 251.448804 189.385747 
L 252.137799 191.399071 
L 252.826794 173.26485 
L 253.515789 177.945848 
L 254.204785 237.193445 
L 254.89378 238.45662 
L 255.582775 218.932462 
L 256.27177 218.588274 
L 256.960766 186.707505 
L 257.649761 185.978748 
L 258.338756 208.338648 
L 259.027751 207.905057 
L 259.716746 275.234238 
L 260.405742 271.710828 
L 261.094737 258.489608 
L 261.783732 254.6369 
L 262.472727 277.158295 
L 263.161722 270.78508 
L 263.850718 231.215042 
L 264.539713 230.229603 
L 265.228708 181.067823 
L 265.917703 185.820744 
L 266.606699 218.539552 
L 267.295694 223.551388 
L 267.984689 268.505672 
L 268.673684 268.860527 
L 269.362679 299.728626 
L 270.051675 293.985145 
L 270.74067 300.938099 
L 271.429665 292.92804 
L 272.11866 293.029926 
L 272.807656 287.490764 
L 273.496651 250.40301 
L 274.185646 251.390898 
L 274.874641 184.663246 
L 275.563636 192.130989 
L 276.252632 175.455351 
L 276.941627 185.569032 
L 277.630622 182.697128 
L 278.319617 191.315938 
L 279.008612 198.192351 
L 279.697608 201.66061 
L 280.386603 162.257723 
L 281.075598 165.145517 
L 281.764593 206.177076 
L 282.453589 204.947936 
L 283.142584 83.946715 
L 283.831579 91.474763 
L 284.520574 135.184699 
L 285.209569 139.111988 
L 285.898565 159.325736 
L 286.58756 163.355871 
L 287.276555 139.287525 
L 287.96555 140.087494 
L 288.654545 195.454018 
L 289.343541 190.752452 
L 290.032536 213.448481 
L 290.721531 207.75834 
L 291.410526 232.082758 
L 292.099522 225.040498 
L 292.788517 212.573788 
L 293.477512 208.463508 
L 294.166507 276.417045 
L 294.855502 269.696565 
L 295.544498 301.497496 
L 296.233493 295.062738 
L 296.922488 300.893571 
L 297.611483 293.661541 
L 298.300478 300.354477 
L 298.989474 294.777551 
L 299.678469 248.379492 
L 300.367464 249.068607 
L 301.056459 298.351949 
L 301.745455 298.277725 
L 302.43445 264.632019 
L 303.123445 267.878843 
L 303.81244 227.006603 
L 304.501435 230.341408 
L 305.190431 237.584744 
L 305.879426 241.372661 
L 306.568421 150.275382 
L 307.257416 159.781411 
L 307.946411 143.571417 
L 308.635407 152.743352 
L 309.324402 136.8417 
L 310.013397 145.902262 
L 310.702392 181.304357 
L 311.391388 184.212231 
L 312.080383 153.292407 
L 312.769378 154.764439 
L 313.458373 121.51303 
L 314.147368 122.315858 
L 314.836364 148.490732 
L 315.525359 149.853116 
L 316.214354 217.640747 
L 316.903349 214.321527 
L 317.592344 258.480524 
L 318.28134 250.539406 
L 318.970335 201.30153 
L 319.65933 194.913444 
L 320.348325 234.286254 
L 321.037321 228.33137 
L 321.726316 254.976606 
L 322.415311 252.470145 
L 323.104306 294.925418 
L 323.793301 290.011004 
L 324.482297 300.198321 
L 325.171292 293.970984 
L 325.860287 207.669289 
L 326.549282 207.872517 
L 327.238278 101.949728 
L 327.927273 113.297613 
L 328.616268 150.06763 
L 329.305263 162.229744 
L 329.994258 124.457069 
L 331.372249 147.800891 
L 332.061244 151.85142 
L 332.750239 87.556186 
L 333.439234 91.300841 
L 334.12823 123.24079 
L 334.817225 124.100693 
L 335.50622 160.814985 
L 336.195215 160.567542 
L 336.884211 163.218964 
L 337.573206 160.250066 
L 338.262201 131.962183 
L 338.951196 129.835193 
L 339.640191 84.225544 
L 340.329187 86.666207 
L 341.018182 118.558277 
L 341.707177 121.860236 
L 342.396172 184.255323 
L 343.085167 183.092863 
L 343.774163 249.068878 
L 344.463158 239.343256 
L 345.152153 305.009936 
L 345.841148 289.188039 
L 346.530144 278.533913 
L 347.908134 252.845188 
L 348.597129 246.468258 
L 349.286124 283.152151 
L 349.97512 280.764814 
L 350.664115 299.108139 
L 351.35311 297.869022 
L 352.042105 298.288484 
L 352.7311 295.810674 
L 353.420096 298.928623 
L 354.109091 295.983422 
L 354.798086 284.447139 
L 355.487081 284.035668 
L 356.176077 262.462021 
L 356.865072 264.96004 
L 357.554067 212.510882 
L 358.243062 218.647206 
L 358.932057 197.074089 
L 359.621053 205.037005 
L 360.310048 154.119857 
L 360.999043 164.349513 
L 361.688038 188.174465 
L 362.377033 193.916272 
L 363.066029 195.023442 
L 363.755024 197.943356 
L 364.444019 151.165311 
L 365.133014 153.796485 
L 365.82201 152.41096 
L 366.511005 154.442201 
L 367.2 225.07426 
L 367.888995 223.277002 
L 368.57799 183.032978 
L 369.266986 182.654251 
L 369.955981 156.793203 
L 370.644976 156.153157 
L 371.333971 222.733509 
L 372.022967 220.380772 
L 372.711962 189.149145 
L 373.400957 189.588334 
L 374.089952 242.454471 
L 374.778947 238.000394 
L 375.467943 302.457354 
L 376.156938 294.23665 
L 376.845933 302.274293 
L 377.534928 293.264909 
L 378.223923 279.832525 
L 378.912919 273.847306 
L 379.601914 300.75589 
L 380.290909 296.586684 
L 380.979904 298.962876 
L 381.6689 298.06542 
L 382.357895 297.522496 
L 383.04689 296.834877 
L 383.735885 297.942501 
L 384.42488 297.238305 
L 385.113876 298.155556 
L 385.802871 297.723798 
L 387.180861 297.710912 
L 387.869856 294.707548 
L 388.558852 294.902934 
L 389.247847 297.729902 
L 389.936842 297.751896 
L 390.625837 250.579123 
L 391.314833 253.827668 
L 392.003828 297.804081 
L 392.692823 298.13703 
L 393.381818 297.825299 
L 394.070813 298.375981 
L 394.759809 298.009492 
L 395.448804 296.262139 
L 396.137799 298.250134 
L 396.826794 296.61138 
L 397.515789 298.70522 
L 398.204785 297.719318 
L 403.716746 297.719353 
L 404.405742 199.594928 
L 405.094737 206.264354 
L 405.783732 236.7417 
L 406.472727 241.815833 
L 407.161722 281.788019 
L 407.850718 284.824171 
L 408.539713 213.064202 
L 409.228708 216.358476 
L 409.917703 248.286641 
L 410.606699 247.182626 
L 411.295694 233.039908 
L 411.984689 234.279165 
L 412.673684 246.885116 
L 413.362679 246.90385 
L 414.051675 192.018098 
L 414.74067 195.599808 
L 415.429665 173.759214 
L 416.11866 178.109855 
L 416.807656 154.075545 
L 417.496651 161.355252 
L 418.185646 149.634413 
L 418.874641 155.950367 
L 419.563636 110.867365 
L 420.252632 117.603755 
L 420.941627 107.468364 
L 421.630622 112.71228 
L 422.319617 133.949464 
L 423.008612 136.778734 
L 423.697608 138.405254 
L 424.386603 139.096309 
L 425.075598 200.023794 
L 425.764593 194.577667 
L 426.453589 155.971509 
L 427.142584 152.379929 
L 427.831579 204.534301 
L 428.520574 198.378786 
L 429.209569 217.093227 
L 429.898565 213.299067 
L 430.58756 183.83326 
L 431.276555 181.557198 
L 431.96555 208.634271 
L 432.654545 206.38392 
L 433.343541 194.159429 
L 434.032536 194.108955 
L 434.721531 192.056449 
L 435.410526 192.400021 
L 436.099522 136.131067 
L 436.788517 140.55144 
L 437.477512 83.232084 
L 438.166507 91.515247 
L 438.855502 118.921569 
L 439.544498 126.326262 
L 440.233493 140.617951 
L 440.922488 144.160835 
L 441.611483 151.593428 
L 442.300478 149.8477 
L 442.989474 230.45712 
L 443.678469 221.834378 
L 444.367464 201.889059 
L 445.056459 194.977373 
L 445.745455 162.12619 
L 446.43445 158.894803 
L 447.123445 162.926384 
L 447.81244 164.230683 
L 448.501435 157.35704 
L 449.190431 160.849868 
L 450.568421 165.61171 
L 451.257416 110.187708 
L 451.946411 114.712957 
L 452.635407 74.334463 
L 453.324402 80.569375 
L 454.013397 117.492515 
L 454.702392 122.019772 
L 455.391388 123.500899 
L 456.080383 126.000858 
L 456.769378 232.05478 
L 457.458373 223.526551 
L 458.147368 220.346426 
L 458.836364 210.703387 
L 459.525359 211.417869 
L 460.214354 201.936732 
L 460.903349 173.237374 
L 461.592344 171.201019 
L 462.28134 161.635611 
L 462.970335 164.151915 
L 463.65933 167.881966 
L 464.348325 172.448509 
L 465.037321 173.35455 
L 465.726316 175.775568 
L 466.415311 170.396594 
L 467.104306 170.845465 
L 467.793301 158.057808 
L 468.482297 158.857543 
L 469.171292 121.976037 
L 469.860287 125.153438 
L 470.549282 199.164794 
L 471.238278 198.027819 
L 471.927273 174.998433 
L 472.616268 174.766659 
L 473.305263 202.742723 
L 473.994258 197.938513 
L 474.683254 132.880339 
L 475.372249 134.156175 
L 476.061244 160.625624 
L 476.750239 161.376019 
L 477.439234 178.668884 
L 478.12823 180.852835 
L 478.817225 245.17066 
L 479.50622 240.272038 
L 480.195215 209.746339 
L 480.884211 205.255848 
L 481.573206 239.260002 
L 482.262201 232.878488 
L 482.951196 258.689617 
L 483.640191 254.359586 
L 484.329187 171.036011 
L 485.018182 173.138697 
L 485.707177 137.973262 
L 486.396172 144.168753 
L 487.085167 100.395179 
L 489.152153 132.527062 
L 489.841148 109.073788 
L 490.530144 115.004284 
L 491.219139 127.052027 
L 491.908134 127.700994 
L 492.597129 167.220008 
L 493.286124 164.153744 
L 493.97512 307.8 
L 494.664115 294.112203 
L 495.35311 307.11893 
L 496.042105 292.116824 
L 496.7311 306.858745 
L 497.420096 291.545929 
L 498.109091 305.411458 
L 498.109091 305.411458 
" clip-path="url(#p5c855697b4)" style="fill: none; stroke: #ff7f0e; stroke-width: 1.5; stroke-linecap: square"/>
   </g>
   <g id="patch_3">
    <path d="M 72 320.4 
L 72 43.2 
" style="fill: none; stroke: #000000; stroke-width: 0.8; stroke-linejoin: miter; stroke-linecap: square"/>
   </g>
   <g id="patch_4">
    <path d="M 518.4 320.4 
L 518.4 43.2 
" style="fill: none; stroke: #000000; stroke-width: 0.8; stroke-linejoin: miter; stroke-linecap: square"/>
   </g>
   <g id="patch_5">
    <path d="M 72 320.4 
L 518.4 320.4 
" style="fill: none; stroke: #000000; stroke-width: 0.8; stroke-linejoin: miter; stroke-linecap: square"/>
   </g>
   <g id="patch_6">
    <path d="M 72 43.2 
L 518.4 43.2 
" style="fill: none; stroke: #000000; stroke-width: 0.8; stroke-linejoin: miter; stroke-linecap: square"/>
   </g>
   <g id="text_16">
    <!-- Prediction vs Collected -->
    <g transform="translate(226.866562 37.2) scale(0.12 -0.12)">
     <defs>
      <path id="DejaVuSans-50" d="M 1259 4147 
L 1259 2394 
L 2053 2394 
Q 2494 2394 2734 2622 
Q 2975 2850 2975 3272 
Q 2975 3691 2734 3919 
Q 2494 4147 2053 4147 
L 1259 4147 
z
M 628 4666 
L 2053 4666 
Q 2838 4666 3239 4311 
Q 3641 3956 3641 3272 
Q 3641 2581 3239 2228 
Q 2838 1875 2053 1875 
L 1259 1875 
L 1259 0 
L 628 0 
L 628 4666 
z
" transform="scale(0.015625)"/>
      <path id="DejaVuSans-72" d="M 2631 2963 
Q 2534 3019 2420 3045 
Q 2306 3072 2169 3072 
Q 1681 3072 1420 2755 
Q 1159 2438 1159 1844 
L 1159 0 
L 581 0 
L 581 3500 
L 1159 3500 
L 1159 2956 
Q 1341 3275 1631 3429 
Q 1922 3584 2338 3584 
Q 2397 3584 2469 3576 
Q 2541 3569 2628 3553 
L 2631 2963 
z
" transform="scale(0.015625)"/>
      <path id="DejaVuSans-63" d="M 3122 3366 
L 3122 2828 
Q 2878 2963 2633 3030 
Q 2388 3097 2138 3097 
Q 1578 3097 1268 2742 
Q 959 2388 959 1747 
Q 959 1106 1268 751 
Q 1578 397 2138 397 
Q 2388 397 2633 464 
Q 2878 531 3122 666 
L 3122 134 
Q 2881 22 2623 -34 
Q 2366 -91 2075 -91 
Q 1284 -91 818 406 
Q 353 903 353 1747 
Q 353 2603 823 3093 
Q 1294 3584 2113 3584 
Q 2378 3584 2631 3529 
Q 2884 3475 3122 3366 
z
" transform="scale(0.015625)"/>
      <path id="DejaVuSans-6f" d="M 1959 3097 
Q 1497 3097 1228 2736 
Q 959 2375 959 1747 
Q 959 1119 1226 758 
Q 1494 397 1959 397 
Q 2419 397 2687 759 
Q 2956 1122 2956 1747 
Q 2956 2369 2687 2733 
Q 2419 3097 1959 3097 
z
M 1959 3584 
Q 2709 3584 3137 3096 
Q 3566 2609 3566 1747 
Q 3566 888 3137 398 
Q 2709 -91 1959 -91 
Q 1206 -91 779 398 
Q 353 888 353 1747 
Q 353 2609 779 3096 
Q 1206 3584 1959 3584 
z
" transform="scale(0.015625)"/>
      <path id="DejaVuSans-76" d="M 191 3500 
L 800 3500 
L 1894 563 
L 2988 3500 
L 3597 3500 
L 2284 0 
L 1503 0 
L 191 3500 
z
" transform="scale(0.015625)"/>
      <path id="DejaVuSans-43" d="M 4122 4306 
L 4122 3641 
Q 3803 3938 3442 4084 
Q 3081 4231 2675 4231 
Q 1875 4231 1450 3742 
Q 1025 3253 1025 2328 
Q 1025 1406 1450 917 
Q 1875 428 2675 428 
Q 3081 428 3442 575 
Q 3803 722 4122 1019 
L 4122 359 
Q 3791 134 3420 21 
Q 3050 -91 2638 -91 
Q 1578 -91 968 557 
Q 359 1206 359 2328 
Q 359 3453 968 4101 
Q 1578 4750 2638 4750 
Q 3056 4750 3426 4639 
Q 3797 4528 4122 4306 
z
" transform="scale(0.015625)"/>
      <path id="DejaVuSans-6c" d="M 603 4863 
L 1178 4863 
L 1178 0 
L 603 0 
L 603 4863 
z
" transform="scale(0.015625)"/>
     </defs>
     <use xlink:href="#DejaVuSans-50"/>
     <use xlink:href="#DejaVuSans-72" x="58.552734"/>
     <use xlink:href="#DejaVuSans-65" x="97.416016"/>
     <use xlink:href="#DejaVuSans-64" x="158.939453"/>
     <use xlink:href="#DejaVuSans-69" x="222.416016"/>
     <use xlink:href="#DejaVuSans-63" x="250.199219"/>
     <use xlink:href="#DejaVuSans-74" x="305.179688"/>
     <use xlink:href="#DejaVuSans-69" x="344.388672"/>
     <use xlink:href="#DejaVuSans-6f" x="372.171875"/>
     <use xlink:href="#DejaVuSans-6e" x="433.353516"/>
     <use xlink:href="#DejaVuSans-20" x="496.732422"/>
     <use xlink:href="#DejaVuSans-76" x="528.519531"/>
     <use xlink:href="#DejaVuSans-73" x="587.699219"/>
     <use xlink:href="#DejaVuSans-20" x="639.798828"/>
     <use xlink:href="#DejaVuSans-43" x="671.585938"/>
     <use xlink:href="#DejaVuSans-6f" x="741.410156"/>
     <use xlink:href="#DejaVuSans-6c" x="802.591797"/>
     <use xlink:href="#DejaVuSans-6c" x="830.375"/>
     <use xlink:href="#DejaVuSans-65" x="858.158203"/>
     <use xlink:href="#DejaVuSans-63" x="919.681641"/>
     <use xlink:href="#DejaVuSans-74" x="974.662109"/>
     <use xlink:href="#DejaVuSans-65" x="1013.871094"/>
     <use xlink:href="#DejaVuSans-64" x="1075.394531"/>
    </g>
   </g>
   <g id="legend_1">
    <g id="patch_7">
     <path d="M 255.729687 80.55625 
L 334.670312 80.55625 
Q 336.670312 80.55625 336.670312 78.55625 
L 336.670312 50.2 
Q 336.670312 48.2 334.670312 48.2 
L 255.729687 48.2 
Q 253.729687 48.2 253.729687 50.2 
L 253.729687 78.55625 
Q 253.729687 80.55625 255.729687 80.55625 
z
" style="fill: #ffffff; opacity: 0.8; stroke: #cccccc; stroke-linejoin: miter"/>
    </g>
    <g id="line2d_16">
     <path d="M 257.729687 56.298437 
L 267.729687 56.298437 
L 277.729687 56.298437 
" style="fill: none; stroke: #1f77b4; stroke-width: 1.5; stroke-linecap: square"/>
    </g>
    <g id="text_17">
     <!-- Input -->
     <g transform="translate(285.729687 59.798437) scale(0.1 -0.1)">
      <defs>
       <path id="DejaVuSans-49" d="M 628 4666 
L 1259 4666 
L 1259 0 
L 628 0 
L 628 4666 
z
" transform="scale(0.015625)"/>
       <path id="DejaVuSans-75" d="M 544 1381 
L 544 3500 
L 1119 3500 
L 1119 1403 
Q 1119 906 1312 657 
Q 1506 409 1894 409 
Q 2359 409 2629 706 
Q 2900 1003 2900 1516 
L 2900 3500 
L 3475 3500 
L 3475 0 
L 2900 0 
L 2900 538 
Q 2691 219 2414 64 
Q 2138 -91 1772 -91 
Q 1169 -91 856 284 
Q 544 659 544 1381 
z
M 1991 3584 
L 1991 3584 
z
" transform="scale(0.015625)"/>
      </defs>
      <use xlink:href="#DejaVuSans-49"/>
      <use xlink:href="#DejaVuSans-6e" x="29.492188"/>
      <use xlink:href="#DejaVuSans-70" x="92.871094"/>
      <use xlink:href="#DejaVuSans-75" x="156.347656"/>
      <use xlink:href="#DejaVuSans-74" x="219.726562"/>
     </g>
    </g>
    <g id="line2d_17">
     <path d="M 257.729687 70.976562 
L 267.729687 70.976562 
L 277.729687 70.976562 
" style="fill: none; stroke: #ff7f0e; stroke-width: 1.5; stroke-linecap: square"/>
    </g>
    <g id="text_18">
     <!-- Predicted -->
     <g transform="translate(285.729687 74.476562) scale(0.1 -0.1)">
      <use xlink:href="#DejaVuSans-50"/>
      <use xlink:href="#DejaVuSans-72" x="58.552734"/>
      <use xlink:href="#DejaVuSans-65" x="97.416016"/>
      <use xlink:href="#DejaVuSans-64" x="158.939453"/>
      <use xlink:href="#DejaVuSans-69" x="222.416016"/>
      <use xlink:href="#DejaVuSans-63" x="250.199219"/>
      <use xlink:href="#DejaVuSans-74" x="305.179688"/>
      <use xlink:href="#DejaVuSans-65" x="344.388672"/>
      <use xlink:href="#DejaVuSans-64" x="405.912109"/>
     </g>
    </g>
   </g>
  </g>
 </g>
 <defs>
  <clipPath id="p5c855697b4">
   <rect x="72" y="43.2" width="446.4" height="277.2"/>
  </clipPath>
 </defs>
</svg>
